<svg width="368" height="300" viewBox="0 0 368 300" fill="none" xmlns="http://www.w3.org/2000/svg">
<path d="M335.536 27.4619C279.949 -4.34972 109.341 10.1479 55.1296 97.0298C28.8216 139.195 45.1427 233.199 105.711 266.373C195.639 315.625 300.779 262.829 335.721 250.363C441.646 212.595 449.206 92.505 335.536 27.4619Z" fill="#FF8779"/>
<path d="M78.5931 46.9155C98.9304 47.0392 119.359 45.1676 139.784 43.369C160.188 41.5788 180.569 40.4345 200.96 38.9732C242.236 36.0063 283.35 34.2854 324.558 32.8273C336.014 32.4258 347.486 31.6225 358.946 31.0872C363.965 30.8545 369.008 30.7982 374.044 30.2621C375.327 30.1293 376.616 29.9118 377.898 29.7299C378.348 29.6653 379.104 29.7056 379.502 29.5088C379.678 29.4308 381.304 28.318 380.611 28.5099C380.14 28.6321 380.156 29.5797 380.638 29.4473C380.728 29.4269 380.819 29.3947 380.909 29.3743C381.23 29.286 381.394 28.813 381.149 28.5351C380.71 28.025 379.229 28.6122 378.703 28.6751C375.772 29.0578 372.872 29.4336 369.94 29.6196C359.461 30.2614 348.982 30.793 338.506 31.3127C317.363 32.3539 296.261 32.556 275.127 33.3904C233.484 35.0386 191.662 38.1142 149.965 41.556C126.143 43.529 102.295 46.1105 78.5565 45.9764C78.0894 45.9766 78.1168 46.914 78.5931 46.9155Z" fill="#F26B5C"/>
<path d="M50.1707 101.793C69.9242 101.981 89.8191 98.6619 109.625 96.6516C131.404 94.4387 153.171 92.0766 174.954 89.5823C219.037 84.5291 262.879 80.8305 306.802 80.7781C332.43 80.7436 358.004 81.3618 383.614 81.6308C383.994 81.6391 384.307 80.9236 383.877 80.722C382.347 80.0242 382.982 80.202 381.316 79.9823C380.842 79.9198 380.669 80.8573 381.143 80.9198C383.394 81.2223 379.735 80.6492 379.136 80.6376C377.901 80.6194 376.663 80.6132 375.427 80.595C372.64 80.5623 369.865 80.5194 367.078 80.4867C361.516 80.411 355.956 80.3235 350.396 80.236C339.872 80.0845 329.339 79.9312 318.807 79.8763C296.564 79.7467 274.281 79.99 251.958 81.2809C207.467 83.8423 162.904 90.5248 118.387 94.8849C95.6718 97.11 72.7666 101.091 50.1298 100.877C49.6693 100.842 49.6966 101.779 50.1707 101.793Z" fill="#F26B5C"/>
<path d="M45.0843 139.118C110.82 137.755 176.691 133.791 242.576 128.774C281.768 125.793 320.95 122.037 360.159 118.028C368.281 117.2 376.405 116.359 384.523 115.492C387.295 115.191 391.546 115.762 394.239 114.342C394.512 114.197 394.624 113.597 394.318 113.475C394.315 113.473 394.312 113.473 394.309 113.472C394.305 113.471 394.302 113.471 394.3 113.469C393.856 113.309 393.5 114.17 393.944 114.337C393.418 114.143 394.486 113.517 393.412 113.553C392.855 113.573 392.281 113.689 391.725 113.759C389.718 113.992 387.714 114.213 385.712 114.422C378.798 115.166 371.888 115.886 364.971 116.592C346.54 118.487 328.115 120.346 309.685 122.13C258.259 127.1 206.844 130.771 155.485 133.728C118.652 135.854 81.8378 137.419 45.0662 138.182C44.5785 138.191 44.615 139.13 45.0843 139.118Z" fill="#F26B5C"/>
<path d="M36.3448 174.441C47.3467 170.914 58.4329 170.445 69.5039 170.059C80.5933 169.676 91.6388 168.549 102.756 167.19C126.902 164.234 151.019 160.916 175.162 159.064C223.583 155.346 271.888 154.478 320.211 153C347.895 152.153 375.672 150.181 403.263 150.826C403.737 150.839 403.909 149.902 403.435 149.888C379.783 149.341 356.003 150.88 332.274 151.68C307.797 152.502 283.327 153.08 258.854 153.878C210.194 155.479 161.698 158.778 112.933 164.984C99.8422 166.656 86.7325 168.483 73.6584 168.981C61.2077 169.457 48.7164 169.533 36.3267 173.505C35.8496 173.663 35.8677 174.599 36.3448 174.441Z" fill="#F26B5C"/>
<path d="M29.4669 206.218C78.855 204.752 128.442 195.948 177.874 193.778C202.639 192.69 227.37 192.245 252.13 191.23C277.19 190.195 302.288 188.383 327.357 186.933C355.19 185.328 383.053 183.409 410.916 179.368C411.397 179.297 411.369 178.36 410.889 178.431C361.135 185.658 311.065 187.515 261.386 189.885C211.622 192.252 162.054 192.422 112.182 197.91C84.5896 200.945 56.9746 204.468 29.4303 205.279C28.961 205.291 28.9884 206.229 29.4669 206.218Z" fill="#F26B5C"/>
<path d="M11.6202 243.831C21.0658 244.558 30.6205 242.004 40.1221 241.134C50.3617 240.191 60.5935 239.393 70.8302 238.621C91.6919 237.037 112.563 235.455 133.431 233.787C173.764 230.561 214.122 227.303 254.407 225.528C297.659 223.635 340.841 223.57 384.031 222.684C393.226 222.493 402.419 222.315 411.62 221.991C412.773 221.944 420.618 222.77 421.361 221.066C421.606 220.51 420.942 220.13 420.706 220.688C420.472 221.234 411.717 221.051 410.519 221.089C402.721 221.352 394.931 221.518 387.142 221.684C364.445 222.158 341.749 222.522 319.061 222.948C262.549 224.016 206.085 227.105 149.424 231.568C126.627 233.361 103.831 235.203 81.0394 236.911C69.8761 237.746 58.7128 238.582 47.5368 239.537C35.7401 240.551 23.4654 243.796 11.7931 242.894C11.3141 242.855 11.1413 243.792 11.6202 243.831Z" fill="#F26B5C"/>
<path d="M0.457968 284.127C52.9269 283.839 105.561 274.589 158.144 268.825C210.834 263.044 263.435 261.676 315.944 260.708C346.588 260.146 377.216 260.133 407.598 262.541C408.068 262.579 408.25 261.643 407.771 261.604C355.117 257.417 301.602 259.501 248.464 261.555C222.072 262.578 195.64 264.134 169.205 266.732C142.897 269.316 116.583 273.126 90.2719 276.348C60.3043 280.015 30.3143 283.028 0.442032 283.18C-0.0456941 283.188 -0.018349 284.126 0.457968 284.127Z" fill="#F26B5C"/>
<path d="M274.304 96.9739C274.543 98.0002 274.663 99.0542 274.78 100.101C275.067 102.686 274.696 105.139 274.059 107.587C272.859 112.191 271.643 116.798 270.497 121.41C269.676 124.738 269.375 128.171 269.263 131.59C269.188 133.98 269.167 136.377 269.18 138.77C269.201 141.421 269.343 144.07 269.381 146.719C269.435 151.048 269.403 155.374 268.313 159.595C267.886 161.21 267.296 162.781 266.723 164.35C266.22 165.717 265.589 167.035 265.086 168.402C264.185 170.822 262.76 172.896 260.944 174.703C258.252 177.401 255.502 180.056 252.785 182.705C250.471 184.959 247.932 186.902 244.993 188.304C243.179 189.174 241.331 189.946 239.315 190.225C237.299 190.504 235.307 190.501 233.314 190.082C231.249 189.64 229.241 189.015 227.34 188.095C225.157 187.048 223.266 185.553 221.433 183.998C220.226 182.981 219.03 181.928 217.852 180.872C217.445 180.505 217.063 180.082 216.73 179.633C216.172 178.875 215.659 178.074 215.162 177.27C214.759 176.608 214.454 175.912 214.627 175.068C214.689 174.711 214.603 174.291 214.524 173.922C214.028 171.748 214.459 169.63 215.182 167.602C216.116 164.968 217.427 162.514 219.157 160.287C220.216 158.933 221.253 157.549 222.194 156.11C224.102 153.177 225.144 149.935 225.383 146.442C225.441 145.427 225.288 144.393 225.206 143.366C225.082 141.564 224.945 139.782 224.804 137.983C224.769 137.555 224.682 137.136 224.613 136.713C224.056 133.647 224.311 130.568 224.533 127.495C224.777 124.245 225.71 121.177 227.156 118.285C227.915 116.79 228.923 115.444 230.033 114.186C231.872 112.097 233.61 109.921 235.732 108.08C237.885 106.217 240.24 104.738 243.038 103.949C245.091 103.369 247.177 102.888 249.062 101.815C250.612 100.919 251.916 99.7855 253.02 98.3897C254.169 96.9518 255.293 95.466 256.546 94.1326C258.227 92.3472 260.39 91.2808 262.693 90.5385C263.5 90.2846 264.327 90.0448 265.165 89.8726C268.004 89.3373 270.279 90.3174 272.086 92.5543C273.162 93.9351 273.938 95.4048 274.304 96.9739Z" fill="#D93D3D"/>
<path d="M255.096 109.7C255.415 109.336 255.931 109.195 256.365 109.411C257.022 109.737 256.918 110.752 256.638 111.429C256.38 112.053 256.113 112.704 255.856 113.357C254.805 116.082 253.558 118.76 252.952 121.631C252.688 122.887 252.588 124.17 252.392 125.436C251.997 128.008 251.613 130.578 251.202 133.141C250.943 134.763 250.724 136.389 250.366 137.981C250.033 139.516 249.619 141.042 249.115 142.524C248.352 144.775 247.504 147.007 246.626 149.219C246.166 150.376 245.562 151.487 245.03 152.622C244.279 154.187 243.545 155.762 242.791 157.315C242.218 158.498 241.616 159.675 240.983 160.833C240.593 161.553 240.235 162.24 240.263 163.1C240.299 164.03 238.665 164.439 238.272 163.595C238.166 163.368 238.135 163.068 238.158 162.67C238.207 161.57 238.686 160.605 239.158 159.669C240.283 157.491 241.293 155.275 242.244 153.033C243.031 151.17 244.039 149.4 244.811 147.527C245.698 145.353 246.467 143.127 247.238 140.913C248.272 137.943 248.596 134.836 249.061 131.762C249.358 129.79 249.711 127.831 250.024 125.868C250.266 124.289 250.45 122.685 250.733 121.11C250.874 120.29 251.08 119.467 251.38 118.702C252.408 115.996 253.496 113.315 254.568 110.625C254.7 110.284 254.865 109.963 255.096 109.7Z" fill="#FF8779"/>
<path d="M289.344 76.5139C284.012 74.3206 285.24 71.9145 284.388 70.9836C283.122 69.5957 283.486 64.657 282.777 62.9052C282.243 61.5784 281.656 60.265 281.311 58.8789C280.555 55.9051 280.025 52.8823 279.883 49.8106C279.752 47.0007 279.626 44.2023 279.466 41.3935C279.336 39.2362 278.876 37.1258 278.088 35.1205C277.739 34.2414 277.252 33.4082 276.755 32.6103C274.378 28.844 272.269 24.9167 270.188 20.9883C269.29 19.2957 268.574 17.5034 267.726 15.7683C266.613 13.4949 265.983 11.076 265.302 8.67052C264.635 6.34612 264.579 3.9706 264.737 1.5815C264.84 0.010253 264.954 -1.56724 265.562 -3.02851C266.244 -4.67892 267.015 -6.30339 267.834 -7.89461C268.778 -9.71761 269.697 -11.5572 270.327 -13.5204C271.055 -15.7902 271.784 -18.06 272.583 -20.309C273.46 -22.7939 274.291 -28.9303 275.845 -31.1017C277.528 -33.4178 280.193 -35.257 283.047 -35.516C283.179 -35.528 283.313 -35.5401 283.448 -35.5538C285.629 -35.7956 287.559 -35.0376 289.38 -33.9086C290.89 -32.9666 292.369 -28.1662 293.409 -26.7294C294.528 -25.2022 295.528 -23.624 296.232 -21.8254C297.184 -19.3598 297.684 -16.8254 297.912 -14.2172C298.092 -12.1317 298.555 -10.0971 299.214 -8.11045C299.775 -6.41159 300.324 -4.7065 300.931 -3.0326C301.225 -2.19824 301.623 -1.42004 301.992 -0.611686C302.598 0.765015 303.176 2.14277 303.828 3.49451C305.564 7.09155 306.371 10.9435 307.074 14.8225C307.387 16.5827 307.485 18.3856 307.775 20.1584C308.397 23.8888 309.266 27.5578 310.431 31.1695C311.425 34.2805 311.946 37.5017 312.206 40.7615C312.352 42.5977 312.323 44.411 312.148 46.2296C311.88 48.9606 310.915 51.4196 309.452 53.7042C307.864 56.1914 304.759 71.2539 302.561 73.1978C299.274 76.1251 294.676 78.7067 289.344 76.5139Z" fill="#D93D3D"/>
<path d="M285.194 0.27011C285.351 0.188128 285.534 0.167448 285.702 0.224568C286.534 0.508813 286.774 0.979778 286.729 2.04758C286.67 3.35894 286.562 4.681 286.609 5.99227C286.68 7.93251 286.803 9.8727 287.028 11.8021C287.248 13.6943 287.563 15.5916 287.921 17.4677C288.133 18.5762 288.493 19.6633 288.811 20.7451C289.318 22.4931 289.825 24.241 290.353 25.9783C290.941 27.9127 291.544 29.8525 292.137 31.7975C292.843 34.0997 293.65 36.3911 294.206 38.7413C294.704 40.8944 294.935 43.101 295.252 45.2916C295.508 47.0717 295.775 48.8465 295.941 50.6321C296.085 52.2418 296.197 53.8675 296.149 55.4667C296.071 57.9081 295.882 60.3657 295.656 62.8019C295.506 64.3586 288.008 119.745 287.464 121.206C287.359 121.5 287.444 125.921 287.461 128.777C287.464 129.343 287.178 130.61 286.975 131.138C285.4 135.25 281.914 129.777 283.519 125.677C284.669 122.737 285.555 120.529 285.654 120.286C286.754 117.625 293.864 60.9113 293.924 58.0914C293.952 56.9293 294.044 55.7618 294.062 54.6051C294.082 52.6861 293.825 50.7993 293.542 48.9126C293.351 47.6068 293.24 46.3009 293.076 44.9951C292.736 42.1489 292.284 39.3188 291.459 36.569C290.85 34.512 290.092 32.5031 289.446 30.4514C288.848 28.549 288.314 26.6145 287.764 24.7013C287.214 22.8415 286.653 20.987 286.114 19.1218C285.548 17.1234 285.253 15.082 285.023 13.0353C284.792 10.9886 284.545 8.93661 284.469 6.8791C284.404 5.02947 284.564 3.17431 284.659 1.32453C284.67 1.09261 284.771 0.866394 284.867 0.639572C284.934 0.484008 285.044 0.348633 285.194 0.27011Z" fill="#F26B5C"/>
<path d="M105.859 200.434C105.62 200.343 105.37 200.462 105.224 200.671C104.795 201.327 104.021 201.387 103.604 200.719C102.984 199.717 102.543 198.62 102.603 197.415C102.651 196.473 103.211 195.817 103.973 195.316C106.391 193.754 108.869 192.275 111.633 191.428C114.777 190.462 117.934 189.568 121.127 188.745C122.711 188.339 124.367 188.184 125.987 187.922C127.929 187.6 129.87 187.254 131.824 186.956C133.48 186.705 135.136 186.503 136.791 186.288C138.364 186.073 139.924 185.859 141.497 185.656C142.831 185.489 144.165 185.334 145.499 185.191C146.893 185.048 148.299 184.916 149.692 184.785C150.848 184.678 152.015 184.559 153.171 184.487C154.874 184.392 156.578 184.392 158.281 184.261C162.01 183.974 165.75 183.95 169.491 183.879C171.552 183.843 173.624 183.795 175.685 183.724C185.084 183.39 194.483 183.652 203.882 183.581C207.837 183.545 211.791 183.593 215.734 183.557C219.058 183.521 222.381 183.438 225.693 183.342C228.207 183.259 230.708 183.116 233.222 183.008C234.985 182.937 236.748 182.853 238.511 182.829C242.763 182.77 247.004 182.698 251.257 182.722C253.854 182.734 256.451 182.853 259.048 183.175C261.061 183.426 263.098 183.557 265.111 183.772C266.207 183.879 267.303 184.046 268.399 184.165C269.352 184.272 270.293 184.416 271.246 184.451C273.604 184.547 275.975 184.594 278.334 184.666C280.275 184.726 282.229 184.726 284.159 184.881C286.386 185.06 288.614 185.358 290.83 185.668C293.844 186.085 296.857 186.574 299.871 187.016C302.921 187.457 305.982 187.743 308.948 188.614C311.033 189.222 312.975 190.128 314.821 191.261C316.298 192.168 316.799 193.42 316.548 195.149C316.274 196.95 315.595 198.477 314.202 199.658C310.95 202.413 307.602 205.025 303.695 206.802C301.551 207.78 299.299 208.388 297.024 208.877C293.844 209.568 290.639 210.117 287.435 210.713C284.516 211.25 281.562 211.405 278.62 211.656C275.82 211.894 273.021 212.18 270.209 212.204C268.744 212.216 267.279 212.288 265.814 212.359C260.072 212.669 254.33 212.729 248.577 212.741C244.8 212.753 241.036 212.848 237.26 212.836C234.568 212.836 231.876 212.729 229.183 212.657C227.206 212.61 225.24 212.562 223.263 212.479C220.333 212.371 217.402 212.252 214.472 212.109C212.411 212.013 210.35 211.882 208.289 211.763C205.514 211.608 202.738 211.441 199.962 211.286C198.676 211.214 197.389 211.167 196.115 211.083C193.935 210.952 191.755 210.845 189.575 210.678C187.073 210.487 184.572 210.236 182.07 210.022C180.938 209.926 179.807 209.891 178.663 209.795C176.781 209.64 174.911 209.473 173.041 209.306C171.468 209.175 169.884 209.044 168.311 208.901C166.822 208.757 165.345 208.591 163.856 208.435C162.343 208.28 160.819 208.137 159.306 208.006C157.4 207.839 155.494 207.672 153.588 207.505C152.694 207.434 151.801 207.374 150.908 207.291C148.382 207.064 145.845 206.825 143.319 206.587C141.175 206.384 139.031 206.205 136.887 206.002C134.54 205.788 132.181 205.609 129.835 205.311C126.249 204.869 122.663 204.404 119.102 203.82C115.266 203.2 111.478 202.329 107.761 201.148C107.16 200.941 106.526 200.685 105.859 200.434Z" fill="#4A2533"/>
<path d="M348.961 118.644C349.19 120.157 349.15 121.741 348.833 123.301C348.566 124.606 348.162 125.862 347.346 126.916C346.896 127.506 346.344 128.022 345.763 128.492C343.687 130.171 341.846 132.08 340.177 134.167C339.165 135.441 338.38 136.839 337.733 138.32C336.957 140.101 336.207 141.903 335.356 143.641C334.8 144.792 334.133 145.904 333.413 146.961C332.078 148.91 330.144 150.17 328.127 151.305C326.407 152.27 324.671 153.201 322.993 154.234C321.258 155.309 319.661 156.598 318.481 158.27C317.79 159.241 317.225 160.296 316.673 161.362C316.072 162.541 315.368 163.644 314.6 164.705C313.864 165.716 313.231 166.801 312.533 167.844C311.636 169.192 310.662 170.487 309.202 171.286C308.654 171.585 308.077 171.828 307.5 172.058C306.056 172.64 304.611 173.198 303.397 174.214C303.007 174.536 302.631 174.88 302.28 175.246C301.198 176.395 300.09 177.534 299.06 178.738C298.411 179.513 297.878 180.386 297.32 181.238C296.349 182.712 295.456 184.239 294.28 185.551C293.627 186.279 292.911 186.977 292.166 187.617C290.922 188.696 289.406 189.272 287.838 189.661C286.832 189.917 285.777 190.022 284.746 190.125C284.248 190.18 283.739 190.093 283.242 190.017C282.987 189.98 282.735 189.834 282.518 189.674C280.553 188.278 279.236 186.359 278.475 184.103C277.944 182.557 277.436 180.997 277.278 179.347C277.224 178.729 277.002 178.114 276.983 177.493C276.938 176.037 276.904 174.567 276.991 173.111C277.07 171.835 277.281 170.571 277.481 169.308C277.846 166.941 278.681 164.749 279.938 162.723C280.66 161.558 281.381 160.381 282.141 159.237C282.647 158.462 283.178 157.697 283.761 156.987C284.895 155.607 285.778 154.092 286.459 152.464C287.229 150.612 287.948 148.741 288.669 146.882C289.556 144.601 290.406 142.3 291.28 140.008C292.037 138.014 293.263 136.326 294.824 134.907C295.844 133.992 296.929 133.142 297.989 132.283C301.001 129.827 303.346 126.855 304.958 123.301C305.759 121.531 306.546 119.75 307.473 118.052C308.449 116.242 309.525 114.471 310.679 112.778C312.414 110.219 314.459 107.908 316.857 105.949C318.553 104.567 320.4 103.411 322.461 102.643C324 102.065 325.59 101.925 327.211 102.13C328.734 102.319 330.258 102.233 331.756 102.006C332.394 101.914 333.017 101.656 333.645 101.457C334.552 101.162 335.479 100.96 336.441 100.888C337.261 100.828 338.058 100.913 338.823 101.181C340.637 101.824 342.361 102.654 343.771 104.003C345.09 105.264 346.124 106.682 346.502 108.528C346.647 109.222 346.909 109.893 347.172 110.565C347.634 111.733 347.978 112.924 348.277 114.143C348.587 115.624 348.883 117.083 348.961 118.644Z" fill="#D93D3D"/>
<path d="M125.969 53.6848C128.471 53.6848 130.651 54.2573 132.735 55.2114C135.582 56.4995 138.132 58.2527 140.597 60.1609C142.515 61.6398 144.028 63.4765 145.327 65.504C146.244 66.9351 147.221 68.3305 148.138 69.7736C148.924 71.014 149.949 71.98 151.152 72.8029C152.212 73.5305 153.284 74.246 154.32 74.9974C156.941 76.9176 159.145 79.1955 160.491 82.201C161.218 83.8111 161.682 85.5046 161.92 87.2578C162.183 89.1422 162.206 91.0743 162.802 92.899C163.243 94.2944 163.707 95.6779 164.243 97.0375C165.125 99.2678 165.875 101.534 166.34 103.871C166.59 105.148 166.65 106.471 166.769 107.783C166.84 108.618 166.888 109.453 166.9 110.288C166.912 110.729 166.781 111.182 166.793 111.624C166.84 113.424 166.519 115.19 166.161 116.943C165.983 117.849 165.744 118.744 165.506 119.638C165.196 120.807 164.672 121.88 164.077 122.918C163.35 124.194 162.242 125.1 161.098 125.983C159.359 127.319 157.406 127.605 155.273 127.367C153.784 127.2 152.545 126.615 151.318 125.816C148.888 124.242 146.53 122.548 144.314 120.7C142.491 119.185 140.955 117.384 139.823 115.273C138.989 113.723 138.31 112.089 137.738 110.419C137.31 109.143 136.845 107.891 136.357 106.638C135.963 105.625 135.332 104.766 134.689 103.895C133.807 102.715 132.58 101.963 131.437 101.104C129.34 99.5421 127.649 97.6458 126.505 95.2843C125.421 93.0421 123.908 91.1339 122.05 89.4881C121.133 88.6771 120.215 87.8661 119.274 87.0908C118.155 86.1725 117.237 85.0633 116.38 83.9184C114.724 81.712 113.366 79.3267 112.544 76.6671C111.972 74.8304 111.615 72.9461 111.793 71.0259C111.912 69.6663 112.139 68.3067 112.389 66.959C112.591 65.8498 112.925 64.7645 113.175 63.6553C113.616 61.7471 114.593 60.1251 115.784 58.6105C117.368 56.5949 119.477 55.3426 121.8 54.4004C122.622 54.0307 124.671 53.6252 125.969 53.6848Z" fill="#F26B5C"/>
<path d="M119.459 162.28C120.299 161.976 121.233 162.077 122.116 162.217C123.909 162.501 125.609 163.049 127.178 163.997C128.274 164.653 129.025 165.691 129.739 166.729C131.967 169.973 133.48 173.539 134.29 177.403C135.326 182.376 136.136 187.397 137.506 192.311C138.066 194.327 138.578 196.366 139.007 198.405C139.269 199.622 139.353 200.886 139.495 202.138C139.555 202.675 139.627 203.212 139.638 203.748C139.65 204.07 139.603 204.404 139.531 204.726C139.341 205.597 139.09 205.752 138.209 205.585C137.971 205.537 137.732 205.502 137.506 205.514C135.874 205.549 134.302 205.18 132.717 204.881C132.11 204.762 131.502 204.548 130.907 204.357C130.263 204.154 129.835 203.748 129.727 203.033C129.573 201.912 129.322 200.791 129.215 199.67C128.965 196.986 128.631 194.327 128.072 191.691C127.285 188.005 126.523 184.32 125.868 180.611C125.546 178.762 125.379 176.878 124.891 175.053C124.629 174.099 124.272 173.193 123.724 172.346C122.949 171.165 121.77 170.855 120.329 171.296C119.757 171.475 119.209 171.857 118.732 172.251C117.636 173.145 117.148 174.409 116.91 175.757C116.505 178.047 116.123 180.349 115.802 182.662C115.599 184.165 115.552 185.704 115.397 187.218C115.266 188.435 115.063 189.651 114.932 190.868C114.837 191.727 114.813 192.597 114.706 193.456C114.468 195.197 114.182 196.938 113.932 198.692C113.812 199.491 113.753 200.29 113.622 201.089C113.443 202.21 112.752 202.687 111.716 202.27C110.465 201.769 109.274 201.137 108.059 200.552C107.892 200.481 107.749 200.373 107.582 200.302C106.713 199.908 106.486 199.55 106.617 198.644C106.737 197.845 106.868 197.046 107.011 196.259C107.392 194.243 107.32 192.216 107.189 190.176C107.106 188.781 107.177 187.361 107.261 185.966C107.356 184.475 107.535 182.996 107.69 181.506C107.94 179.061 108.488 176.675 109.214 174.326C110.024 171.69 111.228 169.233 112.8 167.015C114.444 164.701 116.6 162.96 119.459 162.28Z" fill="#755462"/>
<path d="M289.3 206.1C288.651 206.145 287.96 206.126 287.448 205.725C287.329 205.632 287.212 205.534 287.101 205.43C286.839 205.179 286.815 204.809 286.886 204.428C287.268 202.245 287.625 200.063 288.22 197.928C288.673 196.294 288.947 194.6 289.328 192.943C289.721 191.249 290.198 189.579 290.555 187.886C290.96 185.989 291.33 184.081 291.651 182.161C291.985 180.169 292.533 178.249 293.283 176.389C294.784 172.644 296.905 169.304 299.799 166.49C300.955 165.369 302.325 164.581 303.969 164.355C305.398 164.152 306.744 164.355 307.84 165.333C308.567 165.977 309.246 166.728 309.794 167.539C311.021 169.34 311.723 171.38 312.343 173.455C312.831 175.101 312.962 176.794 313.07 178.5C313.224 180.921 313.415 183.33 313.558 185.751C313.653 187.456 313.713 189.162 313.749 190.867C313.784 192.394 313.76 193.921 313.784 195.459C313.796 196.127 313.665 196.64 312.95 196.974C312.379 197.248 311.974 197.868 311.426 198.202C310.354 198.858 309.258 199.478 308.126 200.003C307.352 200.361 306.232 200.146 306.184 198.894C306.16 198.154 306.149 197.403 306.137 196.664C306.137 196.521 306.184 196.365 306.184 196.222C306.244 194.374 306.375 192.513 306.351 190.665C306.327 188.697 306.16 186.729 306.053 184.749C305.994 183.64 305.946 182.543 305.839 181.434C305.696 179.919 305.541 178.392 304.933 176.973C304.63 176.258 303.759 175.921 303.037 176.206C302.004 176.614 301.226 177.297 300.633 178.345C299.216 180.849 298.322 183.533 297.786 186.347C297.453 188.077 297.095 189.806 296.797 191.547C296.654 192.334 296.607 193.145 296.535 193.956C296.345 196.342 296.297 198.739 295.797 201.088C295.558 202.186 295.13 203.259 294.701 204.309C294.355 205.143 293.569 205.537 292.747 205.704C291.722 205.907 290.675 205.95 289.638 206.075C289.519 206.089 289.419 206.092 289.3 206.1Z" fill="#755462"/>
<path d="M87.1608 257.273C87.0903 257.214 86.9656 257.215 86.9179 257.293C86.9135 257.3 86.9139 257.302 86.9113 257.31C86.7698 257.747 86.6357 258.18 86.0337 258.121C85.4976 258.073 85.4023 257.644 85.2713 257.238C85.2236 257.071 85.1402 256.892 85.1402 256.714C85.1402 254.805 84.9616 252.885 85.4142 250.989C86.2004 247.673 86.9152 244.334 87.6895 241.018C88.1541 239.039 88.4638 237.035 88.7378 235.019C89.0118 233.063 89.5597 231.167 90.203 229.295C91.1441 226.552 92.0851 223.808 92.9309 221.03C93.6337 218.74 94.4795 216.498 95.3372 214.267C96.5284 211.202 97.6839 208.113 98.8037 205.012C99.5542 202.925 100.221 200.814 100.936 198.715C101.055 198.381 101.21 198.047 101.377 197.725C101.972 196.592 103.092 196.425 104.033 197.284C108.619 201.47 116.97 202.544 122.867 203.366C130.169 204.38 137.543 204.488 144.904 204.595C160.438 204.833 175.972 204.965 191.505 205.382C198.748 205.573 205.741 205.656 212.936 206.288C220.607 206.956 228.314 207.41 236.01 207.624C250.185 208.03 264.385 207.648 278.513 206.503C291.366 205.466 305.101 203.366 314.512 194.529C315.179 193.897 316.18 193.205 316.918 193.754C317.24 193.992 317.371 194.398 317.49 194.791C319.503 201.458 320.885 208.28 322.231 215.114C322.886 218.453 323.458 221.817 324.03 225.168C324.232 226.373 324.304 227.601 324.447 228.818C324.614 230.237 324.78 231.668 324.935 233.087C325.031 233.982 325.09 234.876 325.162 235.771C325.269 237.047 325.376 238.335 325.483 239.611C325.495 239.79 325.495 239.969 325.519 240.148C325.638 241.698 325.817 243.249 325.841 244.799C325.853 246.111 326.091 247.399 325.936 248.735C325.733 250.512 325.853 252.325 326.174 254.102C326.258 254.543 326.246 254.996 326.234 255.449C326.222 256.01 325.984 256.284 325.543 256.332C325.054 256.38 324.792 256.165 324.637 255.557C324.571 255.292 324.322 255.113 324.055 255.169C323.578 255.268 323.145 255.458 322.72 255.676C321.755 256.165 320.79 256.63 319.861 257.179C317.18 258.777 314.274 259.743 311.272 260.506C307.293 261.508 303.422 262.832 299.526 264.108C294.892 265.623 290.259 267.125 285.601 268.568C281.551 269.821 277.405 270.763 273.248 271.598C270.139 272.218 267.053 272.886 263.944 273.47C262.074 273.816 260.18 274.09 258.286 274.305C256.177 274.544 254.069 274.699 251.96 274.854C249.995 274.997 248.029 275.116 246.064 275.212C243.205 275.355 240.334 275.462 237.463 275.581C235.938 275.641 234.414 275.736 232.901 275.736C225.563 275.748 218.225 275.748 210.887 275.724C208.731 275.712 206.586 275.605 204.43 275.545C202.453 275.486 200.487 275.426 198.51 275.378C196.354 275.319 194.209 275.271 192.053 275.188C189.611 275.092 187.157 274.949 184.715 274.83C182.238 274.711 179.76 274.615 177.294 274.46C175.245 274.329 173.196 274.126 171.135 273.971C170.004 273.888 168.872 273.84 167.74 273.756C166.585 273.673 165.429 273.542 164.262 273.446C163.404 273.375 162.535 273.315 161.677 273.244C159.473 273.053 157.281 272.886 155.077 272.671C153.148 272.48 151.23 272.218 149.3 272.003C147.608 271.812 145.917 271.645 144.237 271.431C142.26 271.18 140.282 270.87 138.305 270.596C136.864 270.393 135.41 270.214 133.957 270C132.218 269.749 130.479 269.475 128.739 269.189C126.44 268.807 124.141 268.437 121.854 268.008C119.71 267.614 117.577 267.185 115.445 266.708C112.467 266.04 109.501 265.36 106.547 264.597C101.567 263.297 96.6714 261.711 91.8469 259.91C90.1923 259.296 88.5939 258.457 87.1608 257.273Z" fill="#755462"/>
<path d="M199.781 68.7959C200.295 68.5409 200.862 68.4232 201.377 68.1677C202.77 67.5029 204.116 66.7384 205.531 66.1454C208.227 65.0387 211.018 64.2961 213.965 64.4071C215.609 64.4665 217.089 65.0596 218.468 66.0179C220.205 67.2366 220.816 69.6033 220.326 71.4349C219.874 73.1247 219.169 74.6937 218.163 76.1241C216.327 78.7477 214.029 80.8616 211.546 82.7794C209.228 84.5748 206.809 86.2418 204.432 87.97C202.79 89.1556 201.3 90.5256 199.904 92.013C198.836 93.1459 197.821 94.3348 196.864 95.5634C195.441 97.4067 194.598 99.5373 194.328 101.917C194.134 103.656 193.877 105.4 194.109 107.16C194.254 108.321 194.473 109.472 194.702 110.618C195.186 113.075 195.665 115.521 196.218 117.958C196.666 119.981 197.051 122.008 197.257 124.069C197.359 125.113 197.642 126.123 197.808 127.164C198.036 128.529 198.254 129.9 198.435 131.275C198.813 134.086 199.217 136.898 199.495 139.718C199.881 143.565 199.834 147.409 199.629 151.249C199.574 152.344 199.145 153.174 198.294 153.801C197.016 154.738 195.628 155.441 194.13 155.939C193.259 156.22 192.425 156.607 191.586 156.956C190.446 157.44 189.322 157.984 188.161 158.397C187.681 158.567 187.117 158.532 186.595 158.476C186.131 158.433 185.853 157.955 185.876 157.341C185.949 155.374 186.049 153.407 186.149 151.441C186.166 151.008 186.22 150.57 186.163 150.147C185.734 146.567 185.427 142.967 184.249 139.513C183.475 137.241 182.837 134.929 182.105 132.636C181.477 130.675 180.723 128.749 180.164 126.767C179.014 122.737 177.896 118.692 177.369 114.517C177.141 112.741 176.84 110.973 176.903 109.176C177.06 105.044 177.445 100.951 178.351 96.9405C178.714 95.3637 179.029 93.7695 179.36 92.1811C179.818 90.0088 180.635 87.9872 181.61 86.0241C183.046 83.1062 185.045 80.6344 187.181 78.2864C189.269 76.0032 191.546 73.9546 194.013 72.1406C194.958 71.4382 196.045 70.9255 197.059 70.3124C197.606 69.986 198.125 69.6104 198.696 69.3306C199.058 69.1532 199.419 68.975 199.781 68.7959Z" fill="#DADFE1"/>
<path d="M191.151 93.7903C190.803 93.9633 190.476 94.1533 190.117 94.3042C189.473 94.5692 188.83 94.56 188.272 94.0702C187.73 93.5862 187.737 92.9118 187.902 92.2684C188.488 89.896 189.674 87.9651 191.707 86.6678C191.976 86.4929 192.256 86.3128 192.525 86.138C193.085 85.7778 193.697 85.5834 194.372 85.6316C195.421 85.6994 196.151 86.5003 196.096 87.5959C196.074 88.0451 195.957 88.5141 195.782 88.916C194.949 90.822 193.669 92.6082 191.151 93.7903Z" fill="#B6DADD"/>
<path d="M187.536 127.163C186.787 126.502 186.257 125.596 186.048 124.607C185.81 123.485 185.858 122.449 186.006 121.419C186.097 120.757 186.31 120.104 186.559 119.501C186.734 119.099 187.04 118.727 187.373 118.439C188.282 117.659 189.499 117.917 190.119 118.978C190.281 119.267 190.444 119.584 190.527 119.898C190.997 121.746 191.172 123.604 190.64 125.456C190.422 126.236 190.099 126.93 189.354 127.341C188.705 127.705 188.078 127.647 187.536 127.163Z" fill="#B6DADD"/>
<path d="M205.892 83.3603C204.994 83.806 204.34 83.9118 203.655 83.7316C202.628 83.4614 202.156 82.5458 202.522 81.5285C202.559 81.4142 202.607 81.2947 202.665 81.1973C203.644 79.8485 204.843 78.8283 206.494 78.5149C207.058 78.4126 207.633 78.4696 208.022 79.0159C208.416 79.5733 208.398 80.1707 208.117 80.7621C207.535 81.9279 206.763 82.8866 205.892 83.3603Z" fill="#B6DADD"/>
<path d="M191.153 143.33C190.734 142.416 190.536 141.446 190.602 140.455C190.634 140.001 190.741 139.537 190.937 139.152C191.382 138.301 192.273 138.228 192.92 138.961C193.062 139.124 193.209 139.297 193.282 139.48C193.775 140.741 193.924 142.05 193.636 143.371C193.487 144.047 193.038 144.448 192.5 144.469C191.888 144.499 191.505 144.128 191.258 143.58C191.232 143.497 191.195 143.419 191.153 143.33Z" fill="#B6DADD"/>
<path d="M151.432 204.047C151.604 204.542 152.166 204.731 152.69 204.738C165.629 204.912 178.567 205.068 191.505 205.418C198.748 205.609 205.74 205.693 212.935 206.325C220.607 206.993 228.314 207.446 236.01 207.661C245.012 207.909 254.026 207.852 263.029 207.489C263.147 207.485 263.249 207.419 263.319 207.325C263.33 207.311 263.341 207.295 263.35 207.28C263.524 206.977 263.697 206.663 263.825 206.349C265.135 203.164 265.862 199.849 266.017 196.402C266.1 194.506 265.802 192.633 265.6 190.761C265.433 189.294 265.135 187.863 264.611 186.479C263.849 184.428 263.17 182.341 262.3 180.337C261.157 177.689 259.727 175.197 257.654 173.133C256.832 172.311 256.022 171.464 255.177 170.665C254.617 170.14 254.438 169.544 254.569 168.804C255.081 165.763 255.522 162.71 256.094 159.68C256.868 155.649 258.012 151.702 258.607 147.647C258.929 145.5 259.143 143.365 259.036 141.206C258.977 139.811 258.131 139.262 256.844 139.811C255.856 140.24 254.915 140.777 253.985 141.314C251.615 142.685 249.554 144.486 247.445 146.203C244.67 148.481 241.966 150.855 239.226 153.18C238.916 153.439 238.593 153.692 238.303 153.924C238.1 154.088 237.833 154.206 237.582 154.135C234.89 153.216 232.186 152.358 229.517 151.368C226.587 150.27 223.573 149.531 220.476 149.149C218.046 148.851 215.592 148.803 213.126 148.887C209.922 148.994 206.729 149.054 203.525 149.09C201.297 149.114 199.105 149.388 196.925 149.769C195.981 149.936 195.035 150.104 194.091 150.302C190.716 151.009 186.907 150.127 185.215 147.122C183.989 144.927 182.642 142.804 181.082 140.825C179.748 139.131 178.437 137.414 177.103 135.72C176.698 135.207 176.293 134.671 175.805 134.241C174.34 132.929 172.958 133.347 172.422 135.207C172.41 135.267 172.398 135.327 172.386 135.386C171.766 138.654 170.599 141.791 170.087 145.082C169.813 146.824 169.301 148.529 168.979 150.258C168.455 153.049 168.014 155.864 167.526 158.667C167.43 159.191 167.287 159.692 166.978 160.169C166.215 161.35 165.501 162.555 164.81 163.783C163.297 166.502 161.76 169.222 159.759 171.631C155.268 177.033 152.087 183.128 150.253 189.902C149.431 192.931 149.073 196.044 149.764 199.145C150.169 200.791 150.837 202.413 151.432 204.047Z" fill="white"/>
<path d="M225.412 186.65C226.5 185.308 227.085 184.898 228.679 184.524C229.697 184.285 231.015 184.402 231.958 184.814C233.832 185.632 233.689 187.859 233.689 189.476" stroke="#312C28" stroke-width="3.46852" stroke-linecap="round" stroke-linejoin="round"/>
<path d="M190.347 184.475C189.813 181.987 188.362 180.634 185.761 181.77C184.732 182.219 183.728 183.225 183.281 184.246C182.921 185.066 183.377 186.024 183.377 186.649" stroke="#312C28" stroke-width="3.46852" stroke-linecap="round" stroke-linejoin="round"/>
<path d="M215.462 153.979C215.775 153.979 216.078 154.07 216.346 154.233C216.585 154.379 216.821 154.53 217.01 154.719C217.677 155.375 217.701 156.257 217.486 157.068C216.772 159.799 215.199 161.874 212.65 163.162C211.935 163.532 211.185 163.699 210.446 163.186C210.28 163.067 210.065 162.936 210.006 162.769C209.779 162.101 209.481 161.397 209.72 160.682C210.327 158.797 211.101 156.985 212.602 155.613C213.055 155.196 213.603 154.874 214.115 154.528C214.295 154.406 214.478 154.297 214.664 154.19C214.905 154.051 215.184 153.979 215.462 153.979Z" fill="#B6DADD"/>
<path d="M156.648 194.191C156.651 193.896 156.719 193.593 156.853 193.331C156.892 193.254 156.932 193.177 156.971 193.098C157.436 192.203 158.508 191.75 159.473 192.072C161.117 192.621 162.296 193.694 162.951 195.304C163.262 196.07 163.353 196.938 163.008 197.689C162.994 197.721 162.979 197.753 162.963 197.785C162.618 198.5 161.831 198.918 161.105 198.703C159.497 198.226 158.079 197.439 157.209 195.912C157.052 195.63 156.929 195.324 156.804 195.015C156.697 194.749 156.645 194.477 156.648 194.191Z" fill="#B6DADD"/>
<path d="M258.346 187.498C258.346 187.815 258.27 188.13 258.102 188.4C257.653 189.123 257.103 189.767 256.452 190.319C255.57 191.071 254.605 191.643 253.39 191.583C252.604 191.548 252.127 191.023 252.044 190.224C251.901 188.781 252.64 187.779 253.652 186.932C254.319 186.383 255.046 185.918 255.88 185.656C256.809 185.37 257.44 185.56 258.072 186.324C258.206 186.504 258.346 186.683 258.346 186.907C258.346 187.102 258.346 187.299 258.346 187.498Z" fill="#B6DADD"/>
<path d="M199.271 167.814C198.506 169.719 195.705 169.571 194.918 167.674C194.782 167.346 194.675 166.996 194.59 166.633C194.292 165.369 194.364 164.081 194.399 162.793C194.411 162.161 194.638 161.576 195.09 161.088C195.483 160.682 195.793 160.193 196.21 159.811C196.853 159.239 197.616 159.012 198.438 159.442C198.688 159.573 198.938 159.776 199.105 160.002C200.117 161.35 200.236 162.924 200.105 164.534C200.01 165.667 199.688 166.753 199.271 167.814Z" fill="#B6DADD"/>
<path d="M240.18 200.182C238.88 200.293 237.269 199.292 237.611 198.033C237.751 197.517 238.14 197.031 238.655 196.509C238.846 196.318 239.096 196.199 239.275 196.008C240.311 194.887 241.621 194.267 243.051 193.849C243.849 193.611 244.647 193.682 245.421 194.016C246.788 194.606 246.666 196.695 245.635 197.769C245.359 198.057 245.038 198.315 244.683 198.549C243.313 199.455 241.8 200.027 240.18 200.182Z" fill="#B6DADD"/>
<path d="M226.107 166.071C225.415 166.234 224.661 166.329 223.989 166.096C222.417 165.524 221.976 164.081 222.81 162.614C223.751 160.956 225.276 160.157 226.991 159.62C227.884 159.334 228.718 159.704 229.278 160.324C229.85 160.956 230.148 161.815 229.719 162.733C229.028 164.224 228.027 165.393 226.443 165.977C226.333 166.014 226.22 166.045 226.107 166.071Z" fill="#B6DADD"/>
<path d="M214.318 169.579C214.597 170.29 214.513 171.109 214.282 171.837C214.236 171.985 214.181 172.132 214.115 172.274C213.341 173.968 212.15 175.256 210.327 175.84C209.279 176.174 208.35 175.637 208.112 174.624C208.064 174.433 208.052 174.206 208.1 174.015C208.612 172.346 209.279 170.736 210.685 169.603C211.233 169.173 211.912 168.887 212.579 168.637C213.127 168.434 214.127 169.006 214.318 169.579Z" fill="#B6DADD"/>
<path d="M166.986 194.139C166.668 193.12 166.583 191.98 166.943 190.975C167.431 189.651 168.897 189.246 169.992 190.116C171.624 191.416 172.172 193.193 172.065 195.209C172.053 195.531 171.91 195.853 171.767 196.139C171.374 196.998 170.588 197.344 169.695 197.034C168.468 196.604 167.658 195.686 167.134 194.541C167.077 194.411 167.029 194.276 166.986 194.139Z" fill="#B6DADD"/>
<path d="M162.426 185.966C161.786 187.359 159.557 187.394 158.993 185.969C158.772 185.409 158.727 184.749 158.852 184.082C158.995 183.331 159.329 182.615 159.603 181.899C159.674 181.709 159.805 181.53 159.96 181.399C160.961 180.528 161.95 180.719 162.569 181.899C162.736 182.21 162.867 182.567 162.903 182.913C162.986 183.963 162.879 184.976 162.426 185.966Z" fill="#B6DADD"/>
<path d="M254.284 144.914C252.175 146.942 249.864 148.683 247.839 150.794C245.981 152.738 244.099 154.658 242.491 156.817C242.4 156.929 242.399 157.045 242.45 157.139C242.522 157.27 242.638 157.389 242.753 157.485C245.04 159.071 246.648 161.385 248.852 163.078C249.019 163.209 249.269 163.09 249.364 162.947C250.984 160.49 251.58 157.628 252.557 154.897C253.688 151.724 254.427 148.623 254.903 145.284C254.963 144.938 254.582 144.64 254.284 144.914Z" fill="#E1EDEF"/>
<path d="M175.058 141.755C177.167 143.783 179.478 145.524 181.503 147.635C183.361 149.579 185.243 151.499 186.851 153.658C186.942 153.77 186.943 153.886 186.892 153.98C186.82 154.111 186.704 154.23 186.589 154.326C184.302 155.912 182.694 158.226 180.49 159.919C180.323 160.05 180.073 159.931 179.978 159.788C178.358 157.331 177.762 154.469 176.786 151.738C175.654 148.565 174.915 145.464 174.439 142.125C174.379 141.767 174.76 141.481 175.058 141.755Z" fill="#B6DADD"/>
<path d="M237.165 180.789C236.974 180.751 236.838 180.614 236.75 180.441C236.649 180.243 236.621 179.998 236.719 179.798C237.116 178.978 237.807 178.411 238.373 177.758C238.528 177.575 238.706 177.423 238.871 177.246C238.929 177.184 238.983 177.106 239.04 177.044C239.474 176.647 240.031 176.552 240.337 176.821C240.676 177.127 240.65 177.876 240.279 178.288C239.736 178.885 239.223 179.502 238.638 180.056C238.237 180.454 237.821 180.92 237.165 180.789Z" fill="#312C28"/>
<path d="M231.353 172.969C231.777 172.466 232.655 172.189 232.98 172.761C233.128 173.021 233.013 173.314 232.746 173.842C232.387 174.551 232.186 175.325 231.938 176.081C231.796 176.519 231.549 176.813 231.159 176.834C230.735 176.861 230.367 176.578 230.289 176.104C230.241 175.796 230.253 175.442 230.335 175.136C230.526 174.355 230.826 173.606 231.353 172.969Z" fill="#312C28"/>
<path d="M186.107 172.609C186.268 171.285 187.717 172.72 187.711 174.054C187.71 174.463 187.707 174.872 187.703 175.281C187.703 175.424 187.631 175.567 187.56 175.698C187.405 175.996 187.214 176.259 186.821 176.259C186.44 176.259 186.226 175.996 186.095 175.686C185.999 175.448 185.928 175.173 185.94 174.911C185.976 174.148 186.023 173.373 186.107 172.609Z" fill="#312C28"/>
<path d="M181.37 172.056C181.453 171.624 181.886 171.309 182.327 171.309C182.528 171.309 182.69 171.367 182.813 171.525C183.007 171.772 183.067 172.06 183.058 172.37C183.022 173.157 183.141 173.921 183.487 174.636C183.665 175.006 183.618 175.34 183.284 175.59C182.975 175.829 182.546 175.793 182.212 175.519C181.724 175.113 181.569 174.529 181.462 173.932C181.378 173.491 181.295 173.05 181.307 172.609C181.307 172.427 181.333 172.245 181.37 172.056Z" fill="#312C28"/>
<path d="M235.327 177.953C234.65 178.728 233.825 177.131 234.352 176.248C234.649 175.757 234.964 175.279 235.332 174.851C235.508 174.639 235.802 174.464 236.07 174.432C236.296 174.399 236.664 174.493 236.771 174.653C236.903 174.86 236.923 175.25 236.81 175.477C236.419 176.251 235.98 176.991 235.505 177.721C235.444 177.81 235.385 177.887 235.327 177.953Z" fill="#312C28"/>
<path d="M126.505 74.6871C127.601 76.2614 128.721 77.8 130.127 79.1238C131.306 80.233 132.485 81.3302 133.641 82.4632C134.963 83.7632 136.274 85.087 137.584 86.3989C137.774 86.5898 137.965 86.7806 138.132 86.9953C138.942 88.0209 139.74 89.0705 140.574 90.0842C141.968 91.8016 143.385 93.4833 144.767 95.2126C146.22 97.0135 147.412 98.9814 148.079 101.224C148.865 103.919 149.615 106.626 150.437 109.31C151.092 111.492 151.819 113.651 152.855 115.69C154.094 118.147 155.429 120.556 156.667 123.025C157.132 123.955 157.513 124.945 157.799 125.947C158.311 127.76 158.764 129.585 159.145 131.433C159.538 133.306 159.824 135.19 160.122 137.075C160.289 138.196 160.396 139.317 160.503 140.45C160.634 141.809 160.813 143.181 160.825 144.552C160.849 147.57 161.015 150.599 160.479 153.593C160.472 153.637 160.464 153.681 160.457 153.726C160.354 154.328 160.799 154.878 161.409 154.889C161.916 154.898 162.352 154.526 162.42 154.024C162.502 153.428 162.587 152.833 162.683 152.233C162.862 151.052 163.029 149.872 163.005 148.667C162.981 147.045 163.005 145.435 162.993 143.813C162.993 143.574 162.993 143.336 162.969 143.097C162.862 141.976 162.743 140.843 162.636 139.722C162.564 138.923 162.552 138.112 162.409 137.313C161.968 134.761 161.528 132.197 160.98 129.656C160.325 126.579 159.479 123.562 157.966 120.771C157.227 119.399 156.417 118.076 155.679 116.704C154.476 114.45 153.534 112.089 152.76 109.667C151.879 106.901 151.092 104.11 150.33 101.319C149.842 99.5061 149.079 97.8006 148.079 96.2502C146.935 94.4732 145.589 92.8273 144.291 91.1457C143.445 90.0604 142.539 89.0347 141.658 87.9852C140.574 86.709 139.549 85.3852 138.394 84.1806C137.095 82.821 135.678 81.5687 134.332 80.2568C133.307 79.255 132.283 78.2293 131.282 77.2036C130.151 76.0468 129.114 74.8183 128.221 73.4706C127.315 72.0991 126.351 70.7753 125.409 69.4156C125.112 68.9982 124.742 68.7001 124.218 68.7716C124.083 68.79 123.962 68.8265 123.855 68.8818C123.183 69.2275 123.432 70.2368 123.861 70.8587C124.719 72.1349 125.624 73.411 126.505 74.6871Z" fill="#FF8779"/>
<path d="M206.192 201.088C206.812 201.78 206.823 202.46 206.74 203.223C206.663 203.958 206.556 204.683 206.447 205.463C206.429 205.591 206.477 205.72 206.572 205.807C206.634 205.865 206.715 205.897 206.799 205.901C206.971 205.909 207.143 205.919 207.315 205.928C207.899 205.961 208.546 205.714 208.586 205.131C208.622 204.392 208.753 203.652 208.741 202.901C208.741 202.305 209.015 201.983 209.48 201.684C210.516 201.029 211.529 200.337 212.529 199.645C213.22 199.168 213.816 198.584 214.328 197.928C215.091 196.95 215.055 195.483 214.197 194.636C213.864 194.314 213.423 194.064 212.982 193.908C211.66 193.431 210.278 193.181 208.872 193.169C207.979 193.169 207.074 193.145 206.18 193.181C205.739 193.193 205.299 193.276 204.858 193.348C203.393 193.598 202.654 194.91 203.25 196.389C203.953 198.154 204.953 199.717 206.192 201.088Z" fill="#312C28"/>
<path d="M194.539 194.415C194.248 192.413 194.008 190.392 193.755 188.372C193.753 188.354 193.739 188.342 193.729 188.326C193.726 188.322 193.721 188.312 193.72 188.307C193.527 186.858 193.348 185.408 193.155 183.959C193.034 183.072 192.995 182.177 192.743 181.332C191.955 178.744 190.882 176.294 189.266 174.106C188.508 173.096 187.726 172.115 186.981 171.103L186.919 171.019C185.877 169.592 184.841 168.173 184.072 166.557C182.831 163.935 182.037 161.156 181.441 158.33C180.815 155.344 179.57 152.681 177.738 150.243C174.832 146.378 171.051 143.49 167.103 140.824C164.734 139.22 162.297 137.744 159.87 136.241C157.995 135.075 156.098 133.952 154.176 132.859C151.938 131.594 149.48 131.348 146.978 131.446C143.554 131.573 140.393 132.64 137.38 134.223C136.043 134.935 134.891 135.873 133.973 137.087C132.398 139.159 131.139 141.403 130.128 143.798C129.104 146.208 128.569 148.744 128.667 151.35C128.755 153.739 129.219 156.088 129.775 158.401C130.351 160.78 131.217 163.073 132.056 165.37C133.487 169.294 135.457 172.916 137.93 176.282C139.389 178.268 140.738 180.375 141.982 182.52C143.374 184.909 144.365 187.489 145.041 190.171C145.396 191.605 145.008 193.897 145.041 195.378C145.148 200.86 151.002 204.748 156.484 204.849L184.922 205.372C191.299 205.49 195.42 200.732 194.539 194.415Z" fill="#F26B5C"/>
<path d="M354.7 81.5787C354.318 84.7442 353.314 87.5737 351.212 89.976C350.115 91.2264 348.839 92.3728 347.565 93.5082C344.528 96.2226 341.904 99.198 339.927 102.603C338.878 104.408 337.853 106.228 336.756 108.015C335.219 110.521 332.923 112.392 330.115 113.787C328.892 114.393 327.615 114.935 326.379 115.539C323.921 116.75 321.821 118.336 319.888 120.103C318.194 121.647 316.617 123.275 315.344 125.115C313.791 127.374 311.446 128.869 308.977 130.245C307.645 130.98 306.157 131.459 304.672 131.915C303.606 132.242 302.546 132.614 301.52 133.025C299.615 133.8 298.236 135.122 297.057 136.584C296.143 137.727 295.228 138.881 294.445 140.098C292.832 142.594 290.533 144.397 287.658 145.726C285.129 146.892 282.622 148.084 280.091 149.262C279.192 149.68 278.396 150.191 277.708 150.841C277.289 151.239 276.837 151.598 276.373 151.956C276.025 152.219 275.578 152.188 275.186 151.784C274.603 151.175 273.998 150.55 273.596 149.855C273.091 148.977 272.622 148.036 272.411 147.089C271.868 144.696 271.379 142.288 271.058 139.882C270.685 137.032 271.226 134.281 272.518 131.683C273.192 130.327 273.941 128.992 274.64 127.64C275.252 126.442 275.915 125.252 276.418 124.005C277.184 122.103 277.24 120.121 277.019 118.087C276.779 116.006 276.503 113.908 276.546 111.834C276.616 108.154 277.617 104.72 280.273 101.794C282.299 99.5598 284.461 97.4569 287.007 95.6443C289.581 93.8134 292.546 92.6653 295.771 91.9463C299.023 91.2199 302.234 90.4205 305.267 89.1592C307.682 88.1553 309.828 86.8775 311.738 85.2639C314.486 82.9438 317.13 80.5415 319.579 77.9768C321.131 76.3448 322.988 74.9247 324.656 73.3767C326.235 71.9164 327.959 70.6112 329.863 69.4886C331.795 68.3478 333.767 67.2909 336.163 66.9551C337.729 66.7343 339.324 66.6742 340.921 66.782C341.877 66.8532 342.841 66.8807 343.783 67.0505C346.475 67.518 348.959 68.4364 351.038 70.1123C353.081 71.7609 354.284 73.78 354.716 76.135C355.038 78.0043 355.025 79.87 354.7 81.5787Z" fill="#F26B5C"/>
<path d="M50.4844 70.579C50.3345 73.7639 50.8537 76.7205 52.5274 79.4379C53.4012 80.8528 54.4682 82.1946 55.5354 83.5254C58.0793 86.7055 60.1719 90.0746 61.5552 93.7595C62.289 95.7137 62.997 97.6783 63.782 99.6225C64.881 102.349 66.834 104.574 69.3704 106.415C70.4753 107.215 71.6454 107.962 72.7631 108.762C74.9859 110.363 76.7929 112.275 78.405 114.338C79.8188 116.142 81.1035 118.009 82.0526 120.034C83.2082 122.519 85.2717 124.381 87.4779 126.148C88.6689 127.094 90.0566 127.812 91.4448 128.508C92.4419 129.007 93.4251 129.55 94.3693 130.125C96.1189 131.206 97.2581 132.738 98.1779 134.375C98.8889 135.653 99.5996 136.943 100.169 138.273C101.345 141.001 103.312 143.161 105.926 144.948C108.226 146.517 110.5 148.108 112.8 149.688C113.617 150.249 114.317 150.885 114.887 151.64C115.234 152.102 115.62 152.532 116.018 152.961C116.317 153.278 116.763 153.322 117.218 152.989C117.893 152.484 118.594 151.969 119.106 151.349C119.75 150.567 120.369 149.718 120.735 148.818C121.668 146.548 122.55 144.255 123.268 141.935C124.11 139.187 124.034 136.385 123.191 133.609C122.752 132.16 122.236 130.72 121.772 129.27C121.367 127.988 120.912 126.704 120.623 125.391C120.184 123.388 120.459 121.424 121.015 119.455C121.597 117.443 122.218 115.42 122.521 113.368C123.064 109.727 122.648 106.175 120.516 102.849C118.889 100.31 117.107 97.8782 114.898 95.6688C112.664 93.4368 109.932 91.8132 106.871 90.5696C103.785 89.3143 100.751 87.9938 97.9703 86.2474C95.7555 84.8571 93.8523 83.2414 92.2366 81.3335C89.9125 78.5901 87.7048 75.783 85.717 72.8481C84.4578 70.9815 82.8631 69.2734 81.4748 67.4703C80.1608 65.7685 78.6778 64.1958 76.9872 62.7732C75.2715 61.3279 73.503 59.9589 71.1964 59.2308C69.6882 58.7534 68.1255 58.4297 66.5334 58.2715C65.578 58.1831 64.6236 58.0505 63.6659 58.0618C60.9337 58.0766 58.3308 58.5705 56.0029 59.8788C53.7137 61.1658 52.1916 62.9575 51.3739 65.2082C50.7455 66.9982 50.4478 68.8402 50.4844 70.579Z" fill="#D93D3D"/>
<path d="M313.868 245.598C313.846 245.01 314.31 244.488 314.88 244.346C317.013 243.785 319.169 243.284 321.289 242.652C322.374 242.329 323.458 241.986 324.542 241.637C325.168 241.437 325.581 240.825 325.518 240.171C325.506 239.992 325.506 239.814 325.482 239.635C325.464 239.473 325.316 239.366 325.16 239.413C324.333 239.661 323.514 239.92 322.695 240.207C320.338 241.032 317.943 241.755 315.475 242.304C314.546 242.51 313.522 241.886 313.522 240.935C313.522 238.871 313.379 236.82 313.153 234.769C313.01 233.528 312.915 232.276 312.748 231.036C312.486 228.972 312.176 226.909 311.902 224.834C311.838 224.383 312.268 224.01 312.714 223.916C313.513 223.748 314.271 223.581 315.035 223.462C316.977 223.152 318.907 222.735 320.801 222.186C321.392 222.016 321.978 221.851 322.566 221.684C323.04 221.55 323.336 221.08 323.251 220.594C323.237 220.515 323.223 220.436 323.209 220.356C323.133 219.928 322.708 219.669 322.29 219.789C319.205 220.743 316.048 221.363 312.879 221.972C312.232 222.089 311.636 221.591 311.54 220.94C311.034 217.528 310.528 214.147 310.013 210.695C309.954 210.298 310.151 209.85 310.544 209.771C313.636 209.084 316.728 208.397 319.82 207.701C320.303 207.593 320.607 207.11 320.499 206.626C320.39 206.136 319.901 205.835 319.412 205.951C316.718 206.587 314.022 207.18 311.307 207.696C310.985 207.76 310.663 207.863 310.327 207.912C309.773 207.992 309.324 207.54 309.21 206.992C309.031 206.145 308.865 205.298 308.674 204.452C308.406 203.226 308.024 202.027 307.739 200.804C307.6 200.209 306.931 199.885 306.386 200.162C306.227 200.243 306.066 200.322 305.905 200.4C305.894 200.405 305.887 200.415 305.887 200.428C305.887 200.43 305.887 200.434 305.887 200.436C306.304 202.236 306.744 204.035 307.137 205.847C307.285 206.507 307.384 207.184 307.488 207.856C307.527 208.11 307.428 208.442 307.173 208.471C305.446 208.781 303.719 209.091 301.979 209.389C299.633 209.795 297.286 210.2 294.939 210.582C293.557 210.808 292.175 210.999 290.782 211.178C290.248 211.248 289.816 210.726 289.728 210.195C289.624 209.573 289.525 208.974 289.436 208.375C289.318 207.597 289.201 206.826 289.036 206.062C288.947 205.645 288.545 205.381 288.124 205.441C287.82 205.485 287.515 205.529 287.213 205.573C287.173 205.579 287.142 205.623 287.157 205.66C287.159 205.666 287.161 205.671 287.162 205.678C287.435 207.38 287.721 209.082 287.994 210.784C288.059 211.171 287.654 211.481 287.267 211.541C283.952 212.056 280.686 212.665 277.367 213.126C275.078 213.443 273.015 211.802 272.828 209.5C272.815 209.339 272.802 209.179 272.79 209.018C272.777 208.845 272.732 208.677 272.673 208.514C272.583 208.263 272.522 208.01 272.481 207.757C272.411 207.318 272.042 206.968 271.598 206.992C271.163 207.017 270.836 207.397 270.885 207.831C270.945 208.373 271.015 208.914 271.079 209.461C271.227 210.74 271.281 212.039 271.358 213.364C271.375 213.666 271.211 214.006 270.912 214.052C269.614 214.255 268.327 214.458 267.029 214.625C265.587 214.816 264.134 214.983 262.681 215.138C261.942 215.221 261.192 215.269 260.453 215.34C259.214 215.448 257.963 215.615 256.724 215.674C255.695 215.727 254.666 215.695 253.595 215.688C253.369 215.686 253.169 215.518 253.151 215.293C253.091 213.325 253.032 211.345 252.972 209.377C252.972 209.258 252.972 209.139 252.96 209.019C252.948 208.87 252.935 208.721 252.922 208.571C252.881 208.095 252.475 207.738 251.997 207.743C251.484 207.748 251.077 208.173 251.092 208.686C251.12 209.672 251.149 210.654 251.185 211.643C251.185 211.762 251.221 211.882 251.245 212.001C251.433 212.99 251.376 213.971 251.349 214.986C251.337 215.469 251.035 215.986 250.554 216.032C249.16 216.163 247.766 216.318 246.373 216.39C244.669 216.485 242.978 216.509 241.274 216.581C240.798 216.605 240.333 216.688 239.857 216.724C239.422 216.761 238.988 216.798 238.549 216.74C238.31 216.709 238.082 216.524 238.082 216.283C238.135 213.7 238.189 211.118 238.242 208.535C238.252 208.052 237.873 207.652 237.389 207.642C236.915 207.632 236.513 208.001 236.485 208.475C236.472 208.687 236.46 208.9 236.45 209.115C236.378 210.665 236.319 212.216 236.271 213.766C236.247 214.577 236.271 215.388 236.259 216.199C236.259 216.585 235.899 216.868 235.515 216.907C234.76 216.983 234.044 217.059 233.329 217.106C231.518 217.237 229.707 217.356 227.885 217.463C226.419 217.547 224.966 217.594 223.501 217.654C223.322 217.666 223.144 217.654 222.965 217.666C221.809 217.726 220.642 217.785 219.486 217.821C219.106 217.845 218.831 217.426 218.833 217.046C218.833 216.952 218.836 216.861 218.843 216.772C218.95 215.34 219.093 213.921 219.189 212.49C219.308 210.725 219.618 208.996 220.046 207.29C220.1 207.058 219.944 206.823 219.706 206.808C219.506 206.795 219.306 206.783 219.105 206.769C218.706 206.742 218.339 207 218.246 207.39C218.179 207.667 218.116 207.943 218.057 208.22C217.747 209.795 217.449 211.381 217.235 212.979C217.092 214.1 217.104 215.245 217.021 216.378C217.008 216.537 216.991 216.695 216.97 216.855C216.895 217.431 216.469 217.988 215.889 218.012C214.102 218.072 212.315 218.072 210.517 218.155C207.467 218.298 204.405 218.191 201.356 218.191C201.008 218.191 200.777 217.819 200.825 217.474C200.953 216.551 201.067 215.655 201.213 214.768C201.547 212.621 201.868 210.462 202.273 208.328C202.374 207.793 202.489 207.258 202.611 206.723C202.734 206.182 202.341 205.658 201.787 205.639C201.375 205.626 201.013 205.905 200.916 206.305C200.876 206.468 200.836 206.63 200.796 206.789C200.034 210.009 199.498 213.277 199.057 216.557C199.004 216.947 198.931 217.33 198.858 217.716C198.813 217.956 198.622 218.179 198.378 218.179C193.946 218.179 189.515 218.179 185.084 218.179C184.975 218.179 184.867 218.149 184.759 218.126C184.737 218.121 184.714 218.119 184.697 218.105C184.691 218.1 184.684 218.094 184.678 218.089C184.664 218.076 184.651 218.068 184.639 218.054C184.602 218.011 184.572 217.955 184.569 217.899C184.562 217.74 184.541 217.564 184.571 217.404C184.965 215.627 185.334 213.838 185.775 212.073C186.254 210.161 186.759 208.266 187.255 206.367C187.4 205.809 186.985 205.265 186.41 205.249C186.001 205.238 185.633 205.501 185.524 205.895C185.385 206.4 185.255 206.905 185.131 207.409C184.345 210.51 183.583 213.611 182.808 216.712C182.749 216.959 182.703 217.212 182.656 217.46C182.607 217.725 182.409 218.018 182.141 217.988C181.284 217.94 180.414 217.869 179.556 217.833C177.853 217.761 176.161 217.702 174.458 217.642C172.635 217.583 170.813 217.535 169.002 217.451C168.168 217.416 167.334 217.356 166.512 217.272C166.335 217.255 166.158 217.236 165.98 217.215C165.005 217.101 164.271 216.186 164.452 215.221C164.904 212.848 165.357 210.474 165.845 208.101C165.985 207.423 166.093 206.737 166.276 206.069C166.434 205.489 166.034 204.848 165.432 204.842C165.082 204.838 164.76 205.054 164.664 205.391C164.63 205.511 164.598 205.631 164.571 205.752C163.951 208.614 163.356 211.476 162.76 214.339C162.641 214.916 162.529 215.494 162.413 216.088C162.329 216.525 161.977 216.926 161.533 216.903C160.735 216.855 159.925 216.783 159.127 216.712C157.793 216.605 156.458 216.485 155.124 216.366C154.946 216.354 154.767 216.33 154.588 216.306C153.611 216.211 152.635 216.104 151.658 216.008C151.001 215.949 150.344 215.895 149.644 215.834C149.158 215.792 148.708 215.378 148.799 214.899C148.894 214.219 148.989 213.539 149.132 212.872C149.644 210.563 149.961 208.204 150.567 205.915C150.737 205.271 150.27 204.619 149.604 204.608C149.559 204.607 149.513 204.607 149.467 204.606C149.072 204.599 148.717 204.872 148.656 205.263C148.596 205.811 148.632 206.36 148.513 206.92C148.072 208.936 147.691 210.951 147.286 212.979C147.202 213.406 147.114 213.83 147.025 214.267C146.89 214.931 146.307 215.433 145.63 215.412C145.428 215.4 145.225 215.317 145.023 215.293C143.867 215.15 142.712 215.054 141.568 214.887C139.424 214.565 137.28 214.195 135.135 213.838C134.701 213.76 134.266 213.659 133.844 213.573C133.674 213.538 133.509 213.385 133.551 213.217C134.58 210.661 135.53 208.078 136.668 205.577C136.921 205.021 136.534 204.382 135.924 204.364C135.577 204.353 135.258 204.553 135.118 204.871C134.222 206.915 133.345 208.969 132.467 211.023C131.919 212.317 130.571 213.075 129.181 212.867C128.704 212.796 128.232 212.725 127.762 212.657C126.523 212.466 125.284 212.275 124.057 212.096C122.794 211.906 121.52 211.715 120.257 211.56C120.24 211.558 120.224 211.555 120.207 211.553C118.245 211.306 117.216 209.366 117.946 207.529C118.434 206.315 118.908 205.095 119.396 203.879C119.596 203.38 119.289 202.826 118.758 202.743C118.384 202.684 118.006 202.882 117.853 203.229C117.07 205.014 116.286 206.807 115.492 208.59C115.321 208.979 115.205 209.396 115.032 209.789C114.78 210.361 114.142 210.708 113.526 210.594C111.561 210.26 109.595 209.914 107.63 209.568C105.081 209.115 102.519 208.709 99.982 208.161C99.5234 208.063 99.0695 207.955 98.6173 207.845C98.1661 207.734 97.7032 207.977 97.5442 208.413C97.3586 208.923 97.6515 209.484 98.1783 209.612C99.8348 210.015 101.506 210.355 103.186 210.653C106.272 211.19 109.345 211.739 112.43 212.287C113.163 212.422 113.591 213.202 113.344 213.905C112.308 216.85 111.291 219.753 110.258 222.697C109.815 223.962 108.545 224.838 107.225 224.607C104.961 224.226 102.71 223.82 100.459 223.391C98.1385 222.954 95.8469 222.412 93.5839 221.775C93.1352 221.648 92.6661 221.9 92.5225 222.344C92.3751 222.799 92.6302 223.288 93.0897 223.423C94.3439 223.792 95.5945 224.152 96.861 224.464C99.1482 225.037 101.459 225.466 103.77 225.907C104.997 226.146 106.236 226.277 107.475 226.468C108.294 226.585 108.807 227.42 108.607 228.223C107.487 232.709 106.368 237.165 105.248 241.646C105.168 241.968 104.903 242.321 104.58 242.247C102.15 241.781 99.72 241.316 97.3018 240.827C94.5143 240.267 91.7864 239.468 89.1418 238.442C88.8549 238.326 88.6185 238.32 88.4325 238.413C88.227 238.516 88.1598 238.762 88.1154 238.987C88.0716 239.209 88.0564 239.45 88.1866 239.636C88.2183 239.681 88.2548 239.725 88.2961 239.766C88.4867 239.945 88.713 240.112 88.9512 240.219C89.3563 240.41 89.7851 240.553 90.202 240.696C93.7638 241.936 97.4209 242.819 101.114 243.546C101.884 243.696 102.654 243.833 103.456 243.976C104.06 244.083 104.53 244.651 104.402 245.252C103.758 247.864 103.079 250.464 102.472 253.088C101.817 255.902 101.209 258.741 100.625 261.579C100.543 261.968 100.6 262.416 100.705 262.795C100.707 262.803 100.708 262.813 100.711 262.822C100.719 262.847 100.747 262.86 100.772 262.868C101.001 262.938 101.229 263.009 101.458 263.079C101.866 263.205 102.296 263.06 102.376 262.641C102.853 260.208 103.27 257.763 103.83 255.354C104.616 251.979 105.497 248.615 106.343 245.252C106.471 244.761 106.995 244.488 107.498 244.557C112.075 245.178 116.565 245.85 121.012 246.563C121.198 246.592 121.425 246.726 121.388 246.91C120.829 249.903 120.245 252.885 119.697 255.878C119.411 257.429 119.161 258.991 118.923 260.554C118.684 262.116 118.446 263.678 118.256 265.241C118.208 265.612 118.171 265.986 118.143 266.363C118.106 266.842 118.437 267.271 118.909 267.364C119.468 267.475 119.999 267.081 120.064 266.514C120.098 266.209 120.135 265.904 120.173 265.599C120.471 263.297 120.745 260.983 121.115 258.693C121.603 255.688 122.175 252.706 122.723 249.712C123.018 248.11 124.552 247.031 126.172 247.208C130.653 247.696 135.078 248.341 139.495 248.961C139.887 249.01 140.112 249.473 140.088 249.867C140.084 249.927 140.078 249.987 140.067 250.046C139.686 252.157 139.281 254.268 138.876 256.379C138.233 259.755 137.577 263.118 136.934 266.493C136.755 267.435 136.541 268.365 136.374 269.296C136.358 269.388 136.346 269.475 136.338 269.559C136.298 270.004 136.685 270.311 137.128 270.371C137.278 270.391 137.428 270.412 137.577 270.432C137.827 270.465 138.099 270.343 138.137 270.095C138.661 267.399 139.233 264.716 139.757 262.021C140.377 258.765 140.96 255.509 141.544 252.253C141.825 250.672 143.247 249.559 144.834 249.799C145.731 249.935 146.62 250.084 147.512 250.201C149.311 250.44 151.122 250.643 152.908 250.941C154.492 251.202 156.104 251.262 157.686 251.576C158.094 251.657 158.46 252.007 158.412 252.42C158.364 253.076 158.257 253.72 158.245 254.376C158.186 257.214 158.257 260.053 158.09 262.903C157.971 264.954 158.126 267.03 158.257 269.081C158.329 270.143 158.555 271.204 158.769 272.254C158.798 272.392 158.832 272.511 158.874 272.614C158.981 272.88 159.27 272.996 159.556 273.02C159.975 273.054 160.435 272.899 160.527 272.489C160.583 272.237 160.567 271.968 160.509 271.681C160.187 270.154 160.056 268.604 160.044 267.065C160.008 262.331 159.961 257.608 160.211 252.873C160.234 252.394 160.668 252.003 161.148 252.008C161.197 252.008 161.246 252.01 161.295 252.014C162.355 252.145 163.415 252.301 164.475 252.444C165.655 252.599 166.834 252.754 168.013 252.909C169.193 253.064 170.372 253.231 171.551 253.362C172.909 253.517 174.267 253.672 175.637 253.803C176.531 253.887 177.424 253.946 178.306 254.03C178.587 254.061 178.712 254.422 178.715 254.706C178.717 254.864 178.717 255.025 178.711 255.187C178.639 257.19 178.687 259.194 178.58 261.198C178.413 264.573 178.52 267.972 178.532 271.359C178.532 271.876 178.687 272.203 179.017 272.349C179.612 272.611 180.286 271.985 180.307 271.335C180.39 268.043 180.438 264.752 180.497 261.46C180.509 260.446 180.474 259.421 180.509 258.407C180.545 257.155 180.64 255.902 180.712 254.65C180.712 254.466 180.963 254.387 181.145 254.364C181.225 254.353 181.303 254.346 181.379 254.352C182.153 254.4 182.928 254.471 183.69 254.519C185.834 254.65 187.978 254.781 190.123 254.877C191.909 254.96 193.708 254.996 195.495 255.067C195.839 255.089 196.082 255.426 196.105 255.77C196.183 256.899 196.275 257.997 196.305 259.087C196.388 262.319 196.424 265.551 196.496 268.783C196.508 269.141 196.591 269.498 196.674 269.844C196.805 270.345 197.056 270.536 197.473 270.536C197.901 270.536 198.187 270.333 198.259 269.844C198.33 269.379 198.283 268.902 198.271 268.437C198.199 265.622 198.39 262.808 198.116 260.005C197.985 258.633 198.092 257.25 198.092 255.867C198.092 255.466 198.428 255.165 198.827 255.147C201.258 255.038 209.207 255.045 212.295 255.159C213.015 255.186 213.548 255.743 213.506 256.463C213.411 257.656 213.268 258.836 213.185 260.017C213.101 261.329 213.054 262.641 212.994 263.953C212.982 264.132 212.899 264.299 212.899 264.477C212.887 266.278 212.875 268.067 212.875 269.868C212.875 270.047 212.959 270.214 213.006 270.393C213.041 270.515 213.081 270.621 213.126 270.714C213.557 271.602 214.939 270.693 214.745 269.725C214.674 269.379 214.626 269.009 214.626 268.664C214.674 266.934 214.745 265.205 214.805 263.464C214.805 263.404 214.817 263.344 214.817 263.285C214.936 261.83 215.055 260.375 215.162 258.92C215.234 257.942 215.27 256.952 215.365 255.974C215.411 255.417 216.018 255.079 216.577 255.079H218.367C219.296 255.079 220.225 255.079 221.154 255.079C222.048 255.079 222.953 255.091 223.846 255.079C224.74 255.067 225.633 255.008 226.527 254.984C227.42 254.948 228.314 254.924 229.219 254.912C230.148 254.9 231.077 254.9 232.006 254.912C232.553 254.92 233.104 254.9 233.674 254.906C234.284 254.913 234.769 255.425 234.746 256.034C234.687 258.455 234.639 260.876 234.567 263.297C234.544 263.953 234.448 264.597 234.425 265.253C234.401 265.885 234.377 266.517 234.425 267.137C234.436 267.387 234.567 267.662 234.722 267.865C235.139 268.425 235.925 268.306 236.152 267.662C236.271 267.328 236.342 266.97 236.366 266.612C236.45 264.943 236.497 263.273 236.557 261.591C236.628 259.504 236.688 257.405 236.747 255.318C236.747 255.053 237.037 254.882 237.299 254.848C237.708 254.796 238.121 254.739 238.534 254.722C240.119 254.65 241.691 254.59 243.275 254.531C243.335 254.531 243.395 254.519 243.454 254.519C245.026 254.4 246.599 254.292 248.171 254.173C248.588 254.137 249.005 254.089 249.41 254.054C249.772 254.013 250.137 253.981 250.512 253.99C251.049 254.002 251.459 254.471 251.459 255.008C251.459 256.057 251.483 257.107 251.459 258.156C251.411 260.244 251.34 262.343 251.28 264.43C251.269 264.632 251.185 264.835 251.173 265.05C251.161 265.646 251.102 266.254 251.173 266.839C251.245 267.387 251.697 267.71 252.09 267.65C252.472 267.59 252.841 267.149 252.889 266.684C253.127 264.573 253.353 262.462 253.258 260.339C253.246 260.041 253.317 259.743 253.317 259.444C253.317 258.431 253.341 257.429 253.294 256.415C253.269 255.801 253.209 255.181 253.248 254.548C253.278 254.044 253.708 253.682 254.211 253.636C255.069 253.553 255.926 253.481 256.784 253.374C257.963 253.231 259.143 253.064 260.322 252.909C261.501 252.754 262.681 252.599 263.86 252.456C265.134 252.301 266.397 252.157 267.672 252.014C268.494 251.919 269.328 251.788 270.15 251.74C270.649 251.717 271.143 251.545 271.673 251.499C272.247 251.45 272.627 251.987 272.627 252.563C272.568 255.378 272.52 258.18 272.449 260.995C272.425 262.104 272.33 263.201 272.282 264.299C272.258 264.955 272.234 265.622 272.294 266.278C272.304 266.42 272.342 266.559 272.39 266.696C272.508 267.028 272.84 267.244 273.191 267.244C273.515 267.244 273.827 267.063 273.956 266.766C273.995 266.676 274.027 266.585 274.045 266.493C274.14 265.932 274.224 265.372 274.247 264.811C274.331 263.046 274.402 261.293 274.426 259.528C274.462 257.035 274.426 254.555 274.438 252.062C274.438 251.459 274.94 250.97 275.532 250.855C278.413 250.294 281.265 250.063 284.099 249.689C285.756 249.469 287.409 249.249 289.075 249.027C291.573 248.695 293.886 250.455 294.189 252.956C294.391 254.519 294.534 256.093 294.796 257.656C295.094 259.456 295.487 261.233 295.821 263.022C295.885 263.376 295.947 263.726 296.009 264.076C296.11 264.648 296.699 264.994 297.251 264.815C297.71 264.667 297.986 264.206 297.896 263.733C297.657 262.465 297.39 261.207 297.155 259.933C296.857 258.288 296.607 256.642 296.345 254.996C296.249 254.352 296.19 253.696 296.107 253.04C295.952 251.8 295.773 250.559 295.642 249.319C295.577 248.644 296.164 248.074 296.834 247.971C298.179 247.764 299.48 247.567 300.788 247.363C302.194 247.136 303.611 246.946 305.017 246.659C306.708 246.302 308.376 245.836 310.068 245.479C310.121 245.468 310.175 245.454 310.229 245.44C311.156 245.194 311.906 245.882 311.974 246.838C312.057 248.174 312.117 249.522 312.164 250.869C312.236 253.29 312.152 255.711 312.307 258.133C312.328 258.428 312.339 258.723 312.344 259.018C312.354 259.607 312.912 260.043 313.475 259.872C313.844 259.76 314.092 259.419 314.088 259.034C314.061 256.434 314.006 253.825 313.951 251.227C313.999 249.367 313.915 247.482 313.868 245.598ZM131.756 217.946C132.28 216.506 133.464 215.589 134.98 215.806C137.16 216.116 139.328 216.485 141.508 216.819C142.845 217.024 144.181 217.202 145.585 217.391C145.998 217.447 146.403 217.794 146.321 218.203C145.63 221.685 144.927 225.156 144.213 228.638C144.196 228.719 144.174 228.798 144.148 228.877C144.023 229.259 143.673 229.606 143.271 229.581C138.423 229.032 133.587 228.471 128.738 227.911C128.404 227.88 128.301 227.41 128.417 227.095C129.549 224.003 130.66 220.958 131.756 217.946ZM113.723 218.394C114.898 215.143 118.246 213.25 121.666 213.751C122.54 213.879 123.412 214.006 124.286 214.134C127.647 214.626 129.693 218.086 128.536 221.28C127.938 222.911 127.364 224.55 126.768 226.229C126.517 226.937 125.824 227.448 125.081 227.338C123.378 227.076 121.674 226.79 119.971 226.515C117.767 226.17 115.563 225.824 113.36 225.478C112.235 225.294 111.765 224.354 112.097 223.263C112.593 221.632 113.139 220.011 113.723 218.394ZM122.155 243.34C121.985 244.108 121.298 244.752 120.519 244.644C118.577 244.381 116.635 244.083 114.694 243.785C113.753 243.642 112.812 243.475 111.871 243.332C110.751 243.165 109.631 243.046 108.511 242.879C107.681 242.751 107.168 241.913 107.366 241.097C108.008 238.465 108.615 235.841 109.271 233.223C110.164 229.66 113.646 227.456 117.277 228.017C121.725 228.706 124.538 233.201 123.479 237.576C123.015 239.491 122.581 241.411 122.155 243.34ZM141.913 239.456C141.509 241.897 140.824 245.533 140.457 246.777C140.384 247.023 140.165 247.254 139.912 247.208C134.766 246.433 129.608 245.753 124.438 245.18C124.018 245.131 123.809 244.622 123.897 244.208C124.387 241.879 124.946 239.576 125.486 237.273C126.529 232.807 130.912 230.075 135.468 230.594C138.024 230.885 140.57 231.175 143.117 231.465C143.35 231.491 143.43 231.815 143.383 232.045C142.88 234.524 142.332 236.974 141.913 239.456ZM160.199 234.59C160.056 235.925 159.877 237.249 159.699 238.573C159.556 239.67 159.389 240.756 159.246 241.853C159.139 242.652 159.067 243.451 158.984 244.25C158.865 245.49 158.757 246.743 158.65 247.983C158.628 248.225 158.616 248.469 158.608 248.721C158.589 249.251 158.176 249.766 157.65 249.701C156.411 249.546 155.172 249.367 153.933 249.212C151.991 248.961 150.038 248.723 148.096 248.448C146.738 248.257 145.392 248.031 144.034 247.816C143.154 247.687 142.55 246.977 142.667 246.096C142.959 243.889 143.7 239.793 144.368 236.519C144.943 233.698 147.472 232.005 150.335 232.3C151.967 232.479 153.588 232.658 155.219 232.801C156.394 232.905 157.575 232.989 158.794 233.078C159.587 233.136 160.286 233.8 160.199 234.59ZM157.578 231.119C157.376 231.095 157.173 231.024 156.959 231.024C154.993 230.988 153.04 230.785 151.086 230.499C149.502 230.272 147.893 230.117 146.297 229.926C146.064 229.903 145.928 229.652 145.975 229.423C146.727 225.716 147.479 222.037 148.241 218.28C148.298 217.999 148.501 217.688 148.787 217.714C149.502 217.761 150.204 217.833 150.919 217.893C152.313 218.012 153.707 218.119 155.1 218.239C156.101 218.334 157.114 218.465 158.114 218.561C159.008 218.644 159.889 218.704 160.783 218.775C161.336 218.82 161.859 219.207 161.839 219.761C161.838 219.802 161.835 219.843 161.831 219.884C161.688 221.065 161.509 222.246 161.354 223.427C161.271 224.047 161.199 224.667 161.14 225.287C161.009 226.742 160.902 228.197 160.759 229.652C160.668 230.535 159.885 231.21 158.997 231.21C158.525 231.21 158.053 231.183 157.578 231.119ZM179.866 239.694C179.699 241.113 179.604 242.545 179.473 243.964C179.366 245.121 179.247 246.278 179.151 247.435C179.116 247.792 179.139 248.15 179.116 248.508C179.066 249.342 179.016 250.171 178.961 251.039C178.921 251.687 178.394 252.238 177.746 252.217C177.269 252.193 176.805 252.122 176.328 252.062C174.934 251.895 173.553 251.74 172.159 251.573C171.003 251.442 169.848 251.299 168.704 251.156C167.668 251.024 166.643 250.881 165.607 250.75C164.309 250.583 163.01 250.428 161.712 250.249C161.498 250.222 161.284 250.181 161.066 250.134C160.75 250.067 160.438 249.819 160.461 249.498C160.497 248.782 160.556 248.067 160.628 247.363C160.723 246.242 160.83 245.109 160.949 243.988C161.08 242.747 161.199 241.495 161.354 240.255C161.485 239.158 161.652 238.072 161.795 236.975C161.89 236.236 161.974 235.496 162.069 234.757C162.183 233.915 162.971 233.33 163.819 233.381C164.602 233.428 165.355 233.472 166.107 233.516C166.167 233.516 166.226 233.528 166.286 233.528C167.775 233.588 169.264 233.671 170.753 233.707C173.231 233.779 175.709 233.814 178.186 233.898C178.796 233.918 179.405 234.019 180.041 234.1C180.288 234.132 180.58 234.294 180.557 234.542C180.307 236.271 180.057 237.977 179.866 239.694ZM179.914 232.097C178.472 232.109 177.043 232.121 175.601 232.097C174.112 232.061 172.623 231.99 171.134 231.918C170.122 231.87 169.109 231.799 168.109 231.739C166.834 231.668 165.547 231.632 164.273 231.548C163.273 231.485 162.57 230.521 162.657 229.523C162.867 227.112 163.121 224.701 163.424 222.283C163.657 220.436 165.314 219.109 167.168 219.276C167.287 219.288 167.406 219.324 167.525 219.324C169.109 219.383 170.682 219.455 172.266 219.515C174.089 219.574 175.899 219.634 177.722 219.705C178.913 219.753 180.104 219.813 181.296 219.884C181.756 219.909 182.209 220.295 182.157 220.753C182.156 220.762 182.155 220.77 182.153 220.779C182.01 221.864 181.808 222.949 181.677 224.047C181.57 224.846 181.534 225.645 181.45 226.444C181.403 226.981 181.331 227.505 181.272 228.042C181.161 229.051 181.05 230.053 180.933 231.098C180.874 231.628 180.447 232.097 179.914 232.097ZM197.234 235.925C197.199 236.641 197.127 237.357 197.079 238.06C196.96 239.73 196.841 241.388 196.734 243.057C196.662 244.191 196.615 245.324 196.543 246.457C196.436 248.007 196.305 249.546 196.21 251.096C196.187 251.521 196.188 251.952 196.192 252.407C196.196 252.884 195.829 253.325 195.352 253.302C194.733 253.267 194.113 253.183 193.482 253.159C191.778 253.088 190.087 253.04 188.383 252.968C187.407 252.921 186.418 252.873 185.441 252.79C185.247 252.774 185.053 252.759 184.858 252.743C182.602 252.56 180.919 250.575 181.081 248.317C181.093 248.138 181.081 247.959 181.093 247.78C181.2 246.349 181.319 244.93 181.439 243.499C181.558 242.103 181.665 240.708 181.82 239.313C181.951 238.132 182.141 236.951 182.296 235.77C182.342 235.389 182.366 235.008 182.396 234.643C182.414 234.429 182.499 234.125 182.713 234.125C183.94 234.113 185.167 234.089 186.394 234.101C187.049 234.113 187.692 234.232 188.348 234.244C189.241 234.268 190.146 234.232 191.04 234.256C192.982 234.303 194.923 234.375 196.853 234.447C197.092 234.447 197.242 234.723 197.243 234.962C197.244 235.295 197.251 235.61 197.234 235.925ZM197.353 232.181C197.353 232.467 196.969 232.673 196.686 232.622C194.578 232.276 192.446 232.61 190.337 232.431C187.955 232.24 185.56 232.3 183.178 232.264C182.909 232.264 182.736 231.964 182.766 231.696C182.97 229.85 183.148 228.005 183.356 226.17C183.45 225.335 183.542 224.502 183.646 223.663C183.905 221.573 185.81 219.725 187.871 220.159C188.157 220.218 188.467 220.206 188.765 220.206C191.671 220.206 194.566 220.206 197.473 220.206C198.018 220.206 198.421 220.708 198.357 221.249C197.923 224.943 197.463 228.547 197.353 232.181ZM215.043 238.979C214.924 240.648 214.805 242.306 214.686 243.976C214.567 245.646 214.459 247.303 214.317 248.973C214.221 250.166 214.09 251.346 213.959 252.527C213.914 252.999 213.409 253.29 212.935 253.29H198.667C198.443 253.29 198.163 253.168 198.163 252.945C198.199 251.537 197.985 250.13 198.306 248.735C198.33 248.651 198.318 248.556 198.33 248.46C198.39 247.172 198.425 245.896 198.521 244.62C198.604 243.403 198.747 242.187 198.854 240.97C198.866 240.827 198.866 240.672 198.866 240.517C198.926 238.669 198.985 236.808 199.057 234.959C199.057 234.695 199.309 234.491 199.572 234.461C199.677 234.449 199.783 234.442 199.891 234.447C200.963 234.494 202.035 234.578 203.107 234.614C203.881 234.637 204.668 234.614 205.442 234.625C208.575 234.685 211.72 234.745 214.853 234.804C215.133 234.804 215.323 235.09 215.301 235.369C215.2 236.616 215.117 237.797 215.043 238.979ZM215.647 231.858C215.569 232.413 215.092 232.825 214.531 232.825C213.423 232.825 212.315 232.837 211.207 232.825C207.407 232.765 203.619 232.705 199.819 232.646C199.53 232.646 199.277 232.421 199.233 232.134C199.167 231.693 199.236 231.254 199.271 230.809C199.307 230.392 199.367 229.986 199.402 229.569C199.569 227.911 199.724 226.253 199.903 224.595C200.034 223.379 200.177 222.162 200.308 220.958C200.355 220.6 200.638 220.287 200.997 220.258C201.029 220.256 201.062 220.254 201.094 220.254C203.905 220.183 206.705 220.123 209.516 220.075C210.469 220.063 211.434 220.099 212.387 220.063C213.542 220.028 214.71 219.944 215.865 219.896C216.364 219.875 216.75 220.352 216.722 220.85C216.516 224.524 216.167 228.149 215.647 231.858ZM235.485 242.151C235.354 243.618 235.413 245.073 235.33 246.54C235.246 248.031 235.092 249.51 234.996 251.001C234.992 251.08 234.988 251.16 234.985 251.239C234.95 252.214 234.268 253.147 233.293 253.147C230.303 253.171 227.301 253.135 224.311 253.159C221.833 253.183 219.355 253.278 216.878 253.326C216.718 253.332 216.559 253.332 216.395 253.331C216.089 253.328 215.733 253.13 215.758 252.825C215.841 252.002 215.949 251.167 216.044 250.345C216.127 249.605 216.211 248.866 216.27 248.126C216.354 247.089 216.389 246.039 216.473 245.002C216.58 243.546 216.699 242.091 216.806 240.636C216.878 239.563 216.937 238.49 217.009 237.416C217.057 236.748 217.121 236.071 217.188 235.387C217.216 235.102 217.414 234.828 217.7 234.804C220.32 234.554 222.953 234.649 225.586 234.614C227.706 234.59 229.826 234.506 231.947 234.435C232.9 234.399 233.853 234.315 234.806 234.268C235.294 234.245 235.694 234.698 235.709 235.187C235.71 235.238 235.711 235.29 235.711 235.341C235.651 237.607 235.675 239.885 235.485 242.151ZM236.104 223.283C236.057 223.546 236.068 223.82 236.068 224.094C236.068 225.287 236.104 226.492 236.057 227.684C236.032 228.453 235.988 229.218 235.939 229.992C235.857 231.271 234.871 232.381 233.591 232.443C232.757 232.491 231.911 232.383 231.077 232.467C228.933 232.693 226.765 232.479 224.633 232.67C222.453 232.872 220.273 232.717 218.093 232.801C217.776 232.801 217.549 232.477 217.542 232.16C217.539 232.013 217.54 231.869 217.557 231.727C217.7 230.487 217.878 229.247 218.033 228.006C218.117 227.386 218.2 226.766 218.248 226.146C218.331 225.049 218.367 223.939 218.45 222.842C218.582 221.104 219.83 219.671 221.573 219.681C222.011 219.684 222.446 219.689 222.881 219.67C224.371 219.598 225.848 219.455 227.337 219.336C227.396 219.336 227.456 219.324 227.515 219.324C228.921 219.264 230.315 219.216 231.709 219.133C233.019 219.05 234.317 218.906 235.616 218.799C235.686 218.793 235.758 218.796 235.828 218.802C235.96 218.812 236.164 218.846 236.164 218.978C236.235 220.421 236.366 221.852 236.104 223.283ZM237.7 231.131C237.748 230.451 237.843 229.771 237.855 229.08C237.927 225.788 237.986 222.508 238.046 219.216C238.046 218.898 238.338 218.649 238.656 218.629C238.789 218.62 238.923 218.613 239.058 218.608C241.119 218.549 243.18 218.537 245.229 218.405C246.944 218.298 248.66 218.072 250.375 217.905C250.778 217.857 251.136 218.222 251.16 218.627C251.161 218.633 251.161 218.638 251.161 218.644C251.173 219.276 251.161 219.896 251.173 220.528C251.233 223.725 251.292 226.921 251.352 230.117C251.352 230.692 250.908 231.176 250.342 231.278C250.141 231.314 249.943 231.343 249.744 231.358C248.553 231.441 247.361 231.477 246.17 231.56C244.621 231.668 243.085 231.787 241.548 231.894C241.453 231.906 241.369 231.906 241.274 231.918C240.476 231.978 239.678 232.037 238.868 232.085C238.798 232.09 238.727 232.093 238.655 232.094C238.128 232.105 237.678 231.658 237.7 231.131ZM251.354 249.895C251.342 251.107 250.427 252.135 249.22 252.241C247.862 252.36 246.492 252.467 245.134 252.587C245.074 252.587 245.015 252.599 244.955 252.599C243.442 252.658 241.917 252.718 240.405 252.79C239.511 252.837 238.63 252.921 237.736 252.956C237.234 252.977 236.858 252.492 236.892 251.991C236.967 250.903 237.042 249.857 237.117 248.818C237.141 248.52 237.141 248.222 237.152 247.924C237.212 245.657 237.26 243.38 237.343 241.113C237.379 240.016 237.462 238.907 237.522 237.81C237.569 236.858 237.624 235.913 237.681 234.91C237.707 234.444 237.999 233.959 238.463 233.91C239.559 233.826 240.667 233.779 241.763 233.719C243.454 233.612 245.146 233.481 246.837 233.373C248.052 233.302 249.279 233.242 250.494 233.182C250.955 233.159 251.348 233.539 251.358 234C251.381 235.004 251.085 235.986 251.161 236.975C251.257 238.227 251.185 239.492 251.185 240.744C251.185 241.972 251.161 243.201 251.197 244.429C251.233 245.681 251.328 246.934 251.364 248.186C251.364 248.753 251.359 249.32 251.354 249.895ZM253.163 218.036C253.163 217.84 253.409 217.733 253.604 217.725C259.238 217.495 264.842 217.071 270.494 216.075C270.971 215.991 271.439 216.336 271.46 216.819C271.52 218.847 271.579 220.874 271.651 222.902C271.698 224.094 271.758 225.287 271.829 226.48C271.877 227.195 271.948 227.899 271.996 228.615C272.019 229.011 271.681 229.337 271.292 229.419C271.017 229.477 270.744 229.53 270.471 229.557C269.518 229.652 268.565 229.688 267.624 229.771C266.445 229.867 265.254 229.986 264.074 230.093C263.36 230.165 262.657 230.237 261.942 230.296C260.465 230.427 258.976 230.535 257.499 230.666C256.439 230.761 255.378 230.904 254.306 231C254.291 231.001 254.276 231.003 254.26 231.004C253.66 231.056 253.139 230.529 253.139 229.926C253.139 227.863 253.151 225.8 253.127 223.725C253.127 223.128 253.032 222.544 252.984 221.948C252.972 221.805 252.96 221.649 252.96 221.494C253.02 220.35 253.091 219.193 253.163 218.036ZM272.544 248.621C272.541 249.114 272.21 249.631 271.722 249.701C265.814 250.42 259.907 251.116 253.977 251.823C253.687 251.858 253.341 251.686 253.341 251.394C253.27 249.247 253.294 247.089 253.127 244.942C252.972 242.974 252.96 240.994 252.984 239.026C253.008 237.142 253.103 235.27 253.175 233.385C253.175 233.156 253.425 233.004 253.651 232.966C253.996 232.908 254.356 232.848 254.723 232.813C255.962 232.693 257.213 232.574 258.452 232.467C259.309 232.395 260.179 232.348 261.037 232.264C261.918 232.181 262.812 232.061 263.693 231.966C264.372 231.894 265.051 231.799 265.73 231.751C266.826 231.668 267.934 231.632 269.03 231.548C269.745 231.501 270.447 231.417 271.162 231.381C271.634 231.358 272.028 231.764 272.107 232.23C272.151 232.491 272.187 232.749 272.187 233.003C272.21 234.924 272.175 236.844 272.199 238.752C272.234 240.958 272.306 243.177 272.377 245.383C272.413 246.457 272.496 247.53 272.544 248.603C272.544 248.609 272.544 248.615 272.544 248.621ZM301.496 211.416C305.082 210.781 308.536 213.09 309.039 216.697C309.514 220.107 307.276 223.265 303.903 223.956C302.168 224.311 300.43 224.64 298.688 224.971C295.314 225.613 292.023 223.544 291.486 220.151C290.893 216.415 293.52 212.771 297.251 212.15C298.669 211.914 300.082 211.666 301.496 211.416ZM273.819 228.638C273.747 226.873 273.676 225.12 273.628 223.355C273.557 221.172 273.509 218.99 273.437 216.819C273.416 216.164 273.799 215.561 274.445 215.446C275.028 215.342 275.594 215.248 276.165 215.197C278.112 215.039 280.038 214.718 281.97 214.379C285.618 213.739 288.951 216.214 289.574 219.865C290.201 223.537 287.851 227.064 284.169 227.631C280.914 228.133 277.642 228.521 274.369 228.993C274.119 229.029 273.819 228.89 273.819 228.638ZM293.391 245.562C293.431 246.156 292.94 246.661 292.351 246.744C291.639 246.845 290.963 246.94 290.281 247.029C289.185 247.172 288.101 247.315 287.006 247.446C285.743 247.613 284.468 247.768 283.205 247.924C281.55 248.138 279.906 248.341 278.25 248.568C277.675 248.649 277.104 248.739 276.519 248.833C275.474 249.002 274.395 248.29 274.355 247.232C274.271 245.407 274.283 243.582 274.152 241.769C273.902 238.537 274.021 235.305 273.985 232.073C273.985 231.401 274.514 230.85 275.18 230.761C280.162 230.093 285.126 229.514 290.089 228.472C290.569 228.372 291.135 228.609 291.222 229.092C291.532 230.94 291.842 232.789 292.092 234.649C292.271 235.973 292.342 237.321 292.497 238.657C292.628 239.897 292.795 241.137 292.962 242.378C293.105 243.439 293.259 244.501 293.391 245.562ZM311.712 242.235C311.712 242.757 311.33 243.209 310.829 243.355C308.849 243.933 306.858 244.404 304.851 244.804C299.611 245.849 294.79 242.102 294.19 236.793C293.896 234.19 293.58 231.588 293.115 229.001C293.023 228.487 293.282 227.897 293.796 227.804C297.619 227.064 301.455 226.349 305.291 225.597C306.72 225.311 308.138 224.953 309.567 224.631C309.8 224.579 310.025 224.754 310.058 224.99C310.137 225.555 310.203 226.071 310.27 226.587C310.509 228.328 310.759 230.058 310.961 231.811C311.128 233.254 311.211 234.721 311.366 236.164C311.581 238.18 311.724 240.207 311.712 242.235Z" fill="#B28F98"/>
<path d="M326.878 257.043C326.875 257.278 326.858 257.509 326.819 257.741C326.743 258.206 326.665 258.666 326.579 259.134C326.245 260.863 325.864 262.592 325.578 264.333C324.887 268.567 323.589 272.658 322.493 276.785C321.623 280.076 320.575 283.332 319.658 286.624C318.836 289.594 317.49 292.337 316.215 295.104C314.809 298.181 313.308 301.222 311.748 304.216C309.949 307.662 308.007 311.049 306.149 314.46C305.065 316.464 304.005 318.48 302.921 320.483C301.908 322.356 300.967 324.264 299.848 326.065C297.977 329.07 295.893 331.933 293.248 334.306C292.831 334.676 292.319 334.986 291.807 335.189C289.186 336.25 286.47 336.906 283.671 337.288C281.3 337.61 278.941 337.979 276.583 338.289C274.808 338.528 273.021 338.695 271.246 338.898C270.114 339.029 268.995 339.172 267.863 339.303C267.089 339.399 266.326 339.518 265.552 339.578C263.801 339.721 262.038 339.828 260.287 339.983C258.738 340.114 257.201 340.305 255.653 340.46C254.855 340.544 254.045 340.603 253.247 340.663C251.162 340.806 249.077 340.925 246.981 341.056C244.956 341.176 242.93 341.307 240.893 341.426C239.464 341.498 238.023 341.545 236.593 341.605C234.354 341.712 232.114 341.879 229.875 341.915C223.799 342.011 217.724 342.094 211.649 342.106C207.313 342.118 202.977 341.963 198.64 341.975C196.258 341.975 193.864 342.178 191.481 342.273C189.242 342.356 187.002 342.392 184.751 342.488C182.845 342.571 180.939 342.702 179.021 342.798C178.306 342.833 177.579 342.822 176.865 342.833C173.934 342.893 171.004 342.965 168.073 343.024C166.346 343.06 164.607 343.191 162.88 343.155C160.045 343.096 157.209 342.965 154.374 342.798C152.135 342.666 149.907 342.5 147.68 342.249C145.988 342.07 144.32 341.724 142.629 341.498C141.152 341.307 139.663 341.164 138.185 341.021C136.315 340.83 134.421 340.746 132.575 340.436C129.656 339.935 126.761 339.339 123.879 338.659C122.199 338.266 120.579 337.61 118.911 337.133C115.945 336.286 113.872 334.234 111.895 332.064C108.786 328.665 106.415 324.729 103.89 320.913C103.294 320.018 102.806 319.052 102.341 318.074C100.662 314.592 98.97 311.121 97.3857 307.591C96.528 305.683 95.8728 303.679 95.0985 301.735C94.6935 300.709 94.2051 299.707 93.8001 298.682C93.3236 297.489 92.8947 296.273 92.454 295.056C91.8941 293.506 91.3819 291.943 90.7744 290.405C89.6903 287.662 89.0828 284.787 88.2847 281.973C87.0815 277.703 86.4978 273.302 85.6163 268.973C85.4615 268.222 85.4257 267.434 85.39 266.659C85.3066 264.918 85.1636 263.2 84.8063 261.495C84.4846 260.016 84.3774 258.537 84.6395 257.046C84.7467 256.402 84.7705 255.735 84.8658 255.09C84.8675 255.077 84.8692 255.064 84.8712 255.051C84.9509 254.508 85.5712 254.025 86.0571 254.279C88.6897 255.758 91.6201 256.45 94.4195 257.512C98.029 258.883 101.722 260.016 105.498 260.839C107.869 261.352 110.239 261.805 112.622 262.199C115.147 262.616 117.696 262.986 120.245 263.296C122.676 263.594 125.118 263.785 127.548 264.023C129.418 264.202 131.288 264.357 133.17 264.524C133.23 264.524 133.289 264.536 133.349 264.536C135.267 264.596 137.173 264.667 139.091 264.727C141.187 264.799 143.272 264.846 145.369 264.93C147.811 265.037 150.264 265.144 152.707 265.288C155.065 265.431 157.412 265.622 159.771 265.789C159.83 265.789 159.89 265.8 159.949 265.8C161.891 265.86 163.833 265.908 165.774 266.003C167.537 266.087 169.288 266.218 171.051 266.325C172.159 266.397 173.255 266.468 174.363 266.516C180.736 266.802 187.109 266.766 193.482 266.707C195.4 266.695 197.306 266.6 199.224 266.516C201.285 266.421 203.334 266.277 205.395 266.17C207.932 266.039 210.469 265.955 213.007 265.8C215.008 265.681 216.997 265.466 218.987 265.311C220.893 265.168 222.799 265.025 224.705 264.918C227.063 264.775 229.422 264.667 231.781 264.548C233.186 264.477 234.592 264.429 235.986 264.369C237.808 264.298 239.631 264.226 241.453 264.19C245.468 264.119 249.47 264.095 253.485 264C255.45 263.952 257.416 263.797 259.393 263.689C260.382 263.63 261.359 263.57 262.348 263.499C264.194 263.367 266.04 263.272 267.887 263.105C269.876 262.926 271.865 262.652 273.843 262.449C275.296 262.294 276.761 262.175 278.215 262.044C280.085 261.877 281.955 261.71 283.837 261.543C284.671 261.471 285.505 261.411 286.339 261.34C288.626 261.149 290.937 261.042 293.212 260.744C295.869 260.398 298.525 259.921 301.158 259.408C305.47 258.573 309.782 257.714 314.071 256.796C316.549 256.259 319.003 255.568 321.468 254.971C322.576 254.709 323.696 254.53 324.804 254.303C325.491 254.161 326.322 254.126 326.602 254.769C326.69 254.971 326.739 255.199 326.757 255.448C326.761 255.495 326.767 255.542 326.774 255.589C326.843 256.07 326.885 256.557 326.878 257.043Z" fill="#B28F98"/>
<path d="M93.824 278.288C95.3726 278.455 96.9331 278.621 98.4817 278.765C99.5181 278.86 100.566 278.896 101.603 278.967C103.425 279.087 105.248 279.194 107.07 279.313C107.297 279.325 107.535 279.313 107.761 279.337C109.381 279.444 111.013 279.576 112.634 279.671C114.17 279.754 115.707 279.79 117.232 279.862C118.149 279.91 119.054 279.981 119.96 280.053C121.222 280.16 122.485 280.303 123.748 280.387C125.213 280.482 126.678 280.518 128.155 280.577C128.251 280.577 128.346 280.589 128.453 280.601C129.847 280.709 131.241 280.84 132.634 280.935C133.933 281.019 135.243 281.054 136.542 281.126C137.387 281.174 138.233 281.245 139.079 281.317C140.175 281.424 141.283 281.543 142.379 281.651C143.022 281.71 143.677 281.782 144.32 281.83C145.357 281.901 146.405 281.949 147.441 282.032C148.192 282.092 148.93 282.187 149.681 282.259C150.717 282.366 151.754 282.474 152.79 282.557C153.898 282.641 155.006 282.688 156.114 282.76C156.959 282.808 157.805 282.879 158.651 282.939C160.247 283.058 161.831 283.201 163.428 283.285C165.25 283.38 167.085 283.416 168.919 283.476C168.979 283.476 169.05 283.487 169.11 283.487C170.968 283.607 172.815 283.821 174.673 283.809C179.354 283.774 184.036 283.798 188.718 283.702C200.94 283.452 213.162 283.869 225.384 283.487C228.552 283.38 231.733 283.356 234.902 283.297C234.997 283.297 235.104 283.297 235.199 283.285C236.724 283.165 238.249 283.034 239.774 282.939C241.334 282.855 242.907 282.808 244.467 282.748C244.527 282.748 244.598 282.736 244.658 282.736C246.48 282.617 248.303 282.498 250.126 282.39C251.424 282.319 252.734 282.271 254.033 282.199C254.914 282.152 255.784 282.08 256.665 282.02C258.321 281.901 259.977 281.794 261.633 281.675C262.669 281.603 263.718 281.555 264.754 281.472C266.565 281.317 268.387 281.114 270.198 280.959C271.949 280.816 273.712 280.709 275.463 280.577C276.178 280.53 276.893 280.446 277.607 280.375C278.81 280.267 280.002 280.148 281.205 280.053C282.146 279.969 283.087 279.933 284.028 279.85C285.779 279.695 287.53 279.516 289.269 279.337C290.473 279.218 291.664 279.087 292.855 278.92C295.273 278.598 297.68 278.228 300.098 277.906C302.23 277.632 304.374 277.441 306.495 277.131C309.973 276.63 313.44 276.069 316.906 275.521C318.788 275.228 320.66 274.926 322.513 274.525C322.861 274.449 323.138 274.187 323.234 273.844C323.431 273.134 322.795 272.472 322.074 272.625C319.643 273.144 317.199 273.589 314.714 273.922C312.105 274.268 309.509 274.757 306.912 275.151C305.363 275.377 303.814 275.556 302.266 275.735C301.075 275.878 299.871 275.974 298.68 276.129C296.679 276.391 294.69 276.713 292.688 276.988C291.044 277.202 289.389 277.381 287.745 277.548C285.994 277.727 284.254 277.918 282.503 278.061C280.752 278.204 278.989 278.311 277.238 278.443C276.523 278.49 275.809 278.574 275.094 278.645C274.057 278.753 273.021 278.884 271.985 278.967C270.913 279.051 269.84 279.087 268.756 279.17C267.327 279.277 265.897 279.409 264.468 279.516C263.455 279.588 262.455 279.635 261.442 279.719C260.18 279.814 258.917 279.957 257.654 280.053C255.963 280.184 254.271 280.303 252.58 280.41C250.459 280.542 248.351 280.709 246.23 280.768C244.038 280.828 241.858 280.959 239.678 281.126C237.403 281.305 235.116 281.4 232.841 281.496C231.209 281.567 229.577 281.532 227.945 281.651C225.336 281.83 222.715 281.77 220.095 281.818C213.674 281.949 207.241 281.818 200.82 281.877C194.4 281.925 187.979 281.687 181.558 282.02C179.974 282.104 178.366 281.901 176.758 281.865C175.316 281.842 173.875 281.865 172.433 281.854C172.112 281.854 171.778 281.854 171.457 281.83C169.837 281.722 168.205 281.579 166.584 281.508C164.762 281.412 162.927 281.376 161.093 281.317C161.033 281.317 160.962 281.317 160.902 281.305C159.64 281.186 158.377 281.054 157.114 280.959C155.947 280.876 154.767 280.84 153.6 280.768C152.79 280.721 151.98 280.649 151.17 280.565C150.134 280.47 149.097 280.327 148.061 280.243C146.441 280.1 144.809 280.005 143.189 279.862C141.378 279.707 139.567 279.492 137.745 279.349C136.375 279.242 135.005 279.218 133.635 279.158C133.504 279.158 133.373 279.134 133.242 279.134C131.943 279.027 130.645 278.896 129.347 278.812C127.846 278.717 126.345 278.693 124.844 278.621C123.926 278.574 123.021 278.502 122.116 278.431C120.853 278.323 119.59 278.168 118.328 278.097C116.731 278.001 115.135 277.966 113.527 277.906C113.432 277.906 113.336 277.894 113.229 277.882C111.573 277.775 109.918 277.643 108.25 277.548C106.749 277.465 105.248 277.417 103.747 277.357C103.711 277.357 103.675 277.357 103.652 277.357C101.841 277.178 100.018 276.999 98.2077 276.833C96.3017 276.654 94.3838 276.451 92.466 276.308C90.9849 276.189 89.518 276.007 88.065 275.756C87.4343 275.647 86.8753 276.197 86.9983 276.825C87.0685 277.184 87.3515 277.462 87.7109 277.527C88.526 277.676 89.3426 277.812 90.1669 277.918C91.4296 278.025 92.6208 278.156 93.824 278.288Z" fill="#4A2533"/>
<path d="M151.817 160.049C151.6 158.849 151.381 157.639 151.086 156.459C150.841 155.435 150.471 154.435 150.133 153.408C150.067 153.2 150.026 153.018 150.015 152.855C149.953 151.94 151.411 151.707 151.79 152.542C152.422 153.965 152.899 155.438 153.22 156.963C153.544 158.51 153.9 160.042 154.212 161.591C154.398 162.483 154.506 163.395 154.692 164.299C154.948 165.53 155.261 166.755 155.54 167.984C155.79 169.054 156.005 170.116 156.277 171.172C156.688 172.78 157.088 174.4 157.565 175.989C158.291 178.405 159.129 180.799 160.154 183.115C160.607 184.141 163.919 195.605 164.892 198.326C165.673 200.508 166.085 201.823 166.815 203.102C167.251 203.864 166.753 204.901 165.875 204.901C165.543 204.901 165.233 204.751 165.075 204.458C163.19 200.975 159.013 185.945 158.049 183.324C157.085 180.713 156.086 178.105 155.233 175.46C154.671 173.718 154.341 171.895 153.902 170.117C153.635 169.003 153.346 167.89 153.079 166.776C152.925 166.076 152.781 165.364 152.65 164.662C152.363 163.135 152.111 161.614 151.824 160.086L151.817 160.049Z" fill="#FFAEA5"/>
<path d="M329.094 129.846C328.644 129.436 327.9 129.58 327.469 130.011C325.957 131.55 324.503 133.136 322.943 134.627C321.323 136.177 319.619 137.62 317.951 139.123C317.177 139.827 316.45 140.59 315.629 141.234C313.627 142.832 311.578 144.395 309.565 145.969C308.314 146.947 306.992 147.841 305.86 148.927C304.026 150.68 302.311 152.564 300.536 154.401C300.476 154.461 300.416 154.532 300.357 154.604C299.464 155.725 298.606 156.87 297.677 157.955C296.068 159.851 294.591 161.831 293.293 163.954C292.65 165.004 291.875 165.958 291.22 166.995C290.267 168.51 289.326 170.048 288.457 171.611C287.635 173.102 286.884 174.64 286.134 176.167C285.443 177.586 284.74 179.017 284.12 180.472C283.453 182.035 282.905 183.657 282.238 185.219C281.035 188.057 279.796 190.872 278.569 193.699C277.426 196.334 276.092 198.887 274.567 201.32C273.674 202.752 272.695 204.127 271.665 205.464C271.142 206.143 271.649 207.131 272.504 207.074C272.785 207.055 273.046 206.917 273.218 206.695C274.054 205.621 274.877 204.55 275.651 203.431C276.699 201.904 277.652 200.306 278.522 198.672C279.451 196.931 280.261 195.13 281.071 193.329C281.893 191.468 282.631 189.572 283.43 187.7C284.12 186.078 284.871 184.48 285.514 182.846C286.193 181.116 286.813 179.375 287.682 177.729C288.707 175.797 289.683 173.841 290.696 171.897C291.03 171.265 291.351 170.609 291.756 170.025C293.984 166.84 295.89 163.441 298.379 160.424C299.952 158.516 301.393 156.488 303.192 154.759C303.299 154.651 303.406 154.544 303.502 154.437C305.11 152.493 306.921 150.751 308.85 149.141C310.923 147.436 313.079 145.826 315.224 144.204C316.951 142.904 318.583 141.52 320.096 139.982C320.477 139.6 320.846 139.207 321.251 138.849C322.526 137.728 323.848 136.642 325.099 135.497C326.135 134.543 327.112 133.53 328.089 132.504C328.47 132.098 328.815 131.621 329.089 131.132C329.425 130.569 329.444 130.165 329.094 129.846Z" fill="#FF8779"/>
<path d="M252.287 208.574C252.571 208.581 252.847 208.475 253.043 208.269C253.38 207.912 253.691 207.534 254.002 207.163C255.025 205.946 256.001 204.702 256.989 203.47C257.889 202.342 258.823 201.252 259.433 199.931C260.046 198.575 260.635 197.194 261.166 195.798C262.131 193.288 263.049 190.752 263.979 188.216C264.251 187.489 264.512 186.761 264.738 186.019C265.16 184.642 265.523 183.262 265.957 181.897C266.504 180.156 267.121 178.442 267.644 176.699C268.296 174.497 268.913 172.281 269.483 170.051C270.095 167.68 270.813 165.338 271.637 163.024C272.337 161.063 272.886 159.035 273.539 157.06C274.164 155.191 274.8 153.322 275.518 151.493C276.06 150.098 276.743 148.768 277.379 147.413C277.962 146.163 278.476 144.874 279.175 143.7C280.522 141.435 281.915 139.196 283.4 137.033C285.012 134.697 286.855 132.526 289.029 130.67C291.043 128.937 293.068 127.205 295.092 125.485C295.639 125.021 296.208 124.594 296.765 124.143C298.24 122.97 299.702 121.797 301.176 120.624C302.155 119.846 303.145 119.069 304.101 118.266C304.771 117.712 305.407 117.121 306.02 116.505C307.347 115.17 308.639 113.81 309.944 112.45C310.508 111.867 311.071 111.297 311.6 110.689C313.048 109.061 314.496 107.433 315.909 105.78C316.038 105.627 316.159 105.468 316.274 105.307C316.732 104.665 317.12 103.652 316.503 103.161C316.184 102.908 315.736 103.027 315.394 103.248C314.771 103.651 314.357 104.271 313.88 104.814C312.747 106.086 311.648 107.384 310.516 108.644C309.736 109.515 308.933 110.349 308.119 111.182C306.728 112.622 305.393 114.111 303.922 115.475C302.501 116.794 300.955 117.975 299.465 119.219C298.646 119.909 297.826 120.61 296.995 121.288C295.333 122.643 293.66 123.997 291.986 125.352C291.341 125.883 290.707 126.438 290.04 126.932C287.839 128.596 285.911 130.548 284.107 132.636C282.733 134.22 281.508 135.918 280.388 137.68C279.589 138.944 278.756 140.183 277.98 141.472C276.312 144.223 275.077 147.174 273.783 150.098C273.022 151.818 272.366 153.59 271.77 155.377C270.909 157.952 270.19 160.58 269.318 163.154C268.639 165.164 267.972 167.175 267.481 169.241C266.786 172.122 266.031 174.976 265.053 177.772C264.558 179.181 264.062 180.603 263.684 182.042C263.015 184.613 262.146 187.128 261.183 189.602C260.53 191.303 259.901 193.016 259.272 194.73C258.356 197.23 257.451 199.743 255.718 201.847C255.022 202.698 254.303 203.548 253.641 204.424C252.714 205.634 251.775 206.832 250.596 207.828C250.305 208.066 250.519 208.532 250.895 208.54C251.359 208.55 251.824 208.563 252.287 208.574Z" fill="#FFAEA5"/>
<path d="M128.82 204.548C128.539 204.509 128.283 204.36 128.124 204.124C127.849 203.718 127.603 203.295 127.356 202.879C126.543 201.512 125.78 200.128 125.004 198.753C124.299 197.495 123.554 196.268 123.165 194.867C122.78 193.429 122.421 191.971 122.123 190.508C121.577 187.876 121.081 185.225 120.573 182.573C120.422 181.811 120.282 181.051 120.18 180.282C119.985 178.855 119.85 177.435 119.643 176.018C119.385 174.211 119.053 172.42 118.819 170.616C118.531 168.338 118.281 166.052 118.079 163.759C117.858 161.32 117.528 158.893 117.089 156.477C116.715 154.429 116.502 152.339 116.176 150.285C115.862 148.339 115.536 146.393 115.124 144.472C114.814 143.007 114.355 141.586 113.947 140.146C113.573 138.818 113.274 137.463 112.774 136.192C111.812 133.74 110.799 131.306 109.683 128.931C108.47 126.366 107.002 123.927 105.156 121.745C103.45 119.711 101.731 117.675 100.011 115.651C99.5467 115.105 99.0546 114.592 98.5771 114.057C97.3119 112.662 96.0584 111.268 94.7932 109.874C93.9532 108.948 93.1014 108.021 92.2878 107.075C91.7161 106.42 91.1841 105.735 90.6785 105.028C89.5849 103.497 88.5296 101.946 87.4625 100.394C87.0001 99.7281 86.5363 99.0742 86.1121 98.3888C84.9464 96.5492 83.7807 94.7096 82.6533 92.8504C82.5508 92.679 82.4571 92.5017 82.3699 92.3246C82.0217 91.6172 81.8023 90.5548 82.4911 90.1704C82.8464 89.9722 83.2696 90.1611 83.5711 90.4341C84.1214 90.9325 84.4296 91.6111 84.8126 92.2236C85.7251 93.6617 86.5993 95.1194 87.5131 96.5457C88.1423 97.5309 88.7993 98.4833 89.4682 99.4371C90.6085 101.082 91.6842 102.767 92.9156 104.35C94.1052 105.88 95.4401 107.295 96.7089 108.762C97.4061 109.575 98.1019 110.4 98.8122 111.203C100.233 112.808 101.666 114.414 103.098 116.02C103.649 116.648 104.185 117.298 104.764 117.893C106.667 119.89 108.254 122.127 109.696 124.479C110.796 126.263 111.73 128.136 112.551 130.055C113.135 131.431 113.757 132.788 114.314 134.185C115.515 137.169 116.257 140.281 117.062 143.375C117.534 145.195 117.895 147.049 118.195 148.909C118.627 151.588 118.912 154.299 119.357 156.979C119.702 159.072 120.035 161.164 120.185 163.282C120.406 166.237 120.688 169.175 121.202 172.092C121.463 173.563 121.722 175.046 121.862 176.527C122.107 179.172 122.559 181.794 123.109 184.391C123.478 186.174 123.821 187.967 124.165 189.76C124.665 192.375 125.152 195 126.522 197.356C127.071 198.308 127.644 199.262 128.154 200.234C128.874 201.578 129.607 202.911 130.61 204.083C130.859 204.366 130.572 204.791 130.199 204.738C129.74 204.673 129.279 204.611 128.82 204.548Z" fill="#F26B5C"/>
</svg>
