<svg width="327" height="265" viewBox="0 0 327 265" fill="none" xmlns="http://www.w3.org/2000/svg">
<g clip-path="url(#clip0)">
<path d="M251.56 17.5856C200.288 -12.0818 84.1929 -12.2954 31.3111 81.323C-2.5513 141.274 24.5762 214.736 69.1539 243.163C135.35 285.373 216.79 255.541 241.375 243.377C330.057 199.5 337.952 67.5735 251.56 17.5856Z" fill="#647B92"/>
<path d="M30.2653 73.9051C32.2624 64.6997 40.0345 56.6721 47.3155 51.1923C56.6437 44.1754 67.7941 42.9809 79.0861 44.7267C101.021 48.1099 122.149 58.7604 144.799 53.9906C153.628 52.1362 160.792 47.6755 167.499 41.7697C174.539 35.5715 181.171 28.5713 190.25 25.4555C201.508 21.6046 213.607 21.9554 224.417 26.909C233.221 30.9437 241.076 35.7719 251.011 36.2564C272.58 37.3006 291.519 21.2454 313.312 25.8732C313.845 25.9901 314.07 25.1632 313.537 25.0546C293.882 20.8779 276.816 33.2743 257.777 35.2039C252.534 35.7385 247.184 35.4378 242.108 33.9676C236.016 32.1967 230.583 28.8136 224.849 26.1823C215.421 21.8469 205.411 20.9948 195.284 23.2168C186.422 25.1632 179.49 29.841 172.808 35.8304C165.103 42.7303 157.805 49.6469 147.562 52.4453C122.515 59.295 99.3899 45.6122 74.9254 43.3568C64.2742 42.3711 54.3636 44.5346 45.8843 51.2257C38.8612 56.7723 31.4136 64.6245 29.4415 73.6795C29.3333 74.2142 30.1488 74.4397 30.2653 73.9051Z" fill="#3D4D5F"/>
<path d="M17.6101 102.507C19.9317 91.7647 28.9103 83.3027 37.1234 76.6702C46.5846 69.0268 56.645 64.6998 68.9438 64.8334C93.1753 65.0924 114.22 80.0115 138.643 79.7693C149.335 79.6607 159.263 76.6117 168.166 70.6808C175.73 65.6437 182.612 59.4037 190.917 55.5528C201.643 50.5826 213.018 51.7437 223.736 56.1376C232.989 59.93 241.576 65.4098 251.37 67.8072C275.752 73.7632 296.871 54.0409 321.102 58.4264C321.635 58.5266 321.868 57.6996 321.327 57.6077C299.243 53.6065 280.403 69.8789 258.56 68.108C237.133 66.3704 219.974 46.7317 197.482 52.3201C188.362 54.5838 180.865 60.4813 173.425 65.9361C163.265 73.3706 152.864 78.4912 140.041 78.8922C114.436 79.7024 92.4264 63.4468 66.9717 63.9981C55.4218 64.2487 45.9356 68.5507 36.9985 75.6928C28.5358 82.4591 19.1911 91.2301 16.7946 102.29C16.6781 102.816 17.4936 103.042 17.6101 102.507Z" fill="#3D4D5F"/>
<path d="M12.9334 138.911C25.0907 123.507 40.044 109.95 59.108 104.086C69.5428 100.878 80.4769 100.168 91.3112 101.087C104.126 102.181 116.641 106.341 129.447 107.026C139.974 107.594 150.783 105.289 160.486 101.246C169.057 97.6704 176.754 92.4829 184.75 87.8218C193.188 82.9016 202.117 78.8753 211.986 78.2655C223.852 77.5304 234.337 81.9911 245.304 85.7835C256.854 89.7848 267.655 90.5282 279.496 87.1034C293.443 83.0687 306.831 77.1378 321.635 77.3717C322.184 77.38 322.184 76.528 321.635 76.5196C309.353 76.3275 297.528 80.2285 286.02 84.1212C279.921 86.1845 273.788 88.064 267.339 88.5986C260.981 89.1332 254.765 87.9303 248.724 86.0258C238.439 82.7763 228.645 77.9898 217.711 77.3967C208.582 76.9039 199.812 79.1426 191.64 83.1271C183.178 87.2537 175.489 92.7837 167.151 97.1608C156.442 102.774 144.401 106.291 132.26 106.249C119.612 106.208 107.055 101.931 94.4899 100.544C83.9136 99.3745 73.1959 99.5917 62.8276 102.165C41.883 107.369 25.4818 121.678 12.3592 138.301C12.0014 138.727 12.5922 139.337 12.9334 138.911Z" fill="#3D4D5F"/>
<path d="M320.328 98.6062C310.916 100.193 301.638 102.507 292.244 104.203C287.401 105.08 282.491 105.932 277.557 106.124C271.149 106.375 264.8 105.013 258.626 103.443C246.71 100.419 235.143 97.0942 222.778 99.4916C211.869 101.605 202.532 107.636 193.72 114.135C184.317 121.077 174.673 128.595 163.106 131.427C149.16 134.835 137.91 128.695 125.369 123.633C113.537 118.855 102.361 120.024 90.7197 124.894C81.4332 128.779 72.854 133.891 65.0653 140.256C56.6525 147.131 48.8722 154.858 39.7355 160.78C35.0339 163.829 29.958 166.369 24.5159 167.781C22.9681 168.181 4.85279 170.337 5.90127 166.995C6.06769 166.469 5.24389 166.243 5.08579 166.77C3.41322 172.108 22.7435 169.192 25.7308 168.332C34.4847 165.826 42.1153 160.58 49.1301 154.916C57.1019 148.476 64.4329 141.183 72.8956 135.378C83.397 128.169 96.7443 121.478 109.659 121.144C123.647 120.776 134.881 130.934 148.394 132.955C159.503 134.618 170.038 130.909 179.433 125.17C189.743 118.871 198.68 110.435 209.53 104.988C222.586 98.4308 236.125 98.5561 250.038 102.073C257.053 103.844 264.018 106.007 271.249 106.734C276.516 107.269 281.684 106.751 286.893 105.957C298.202 104.228 309.294 101.321 320.569 99.4165C321.093 99.3329 320.869 98.5143 320.328 98.6062Z" fill="#3D4D5F"/>
<path d="M262.303 12.2822C256.453 12.2906 251.577 13.9028 246.135 15.799C240.301 17.8372 236.132 15.6319 230.69 13.6021C219.041 9.24161 205.702 6.80243 193.27 8.06379C188.593 8.53993 183.792 9.60081 179.806 12.2154C173.498 16.3587 167.79 21.2204 161.108 24.8123C154.118 28.563 146.421 31.0272 138.424 30.668C131.418 30.3589 125.485 27.8696 119.252 24.9543C106.837 19.1404 92.6492 12.5161 78.786 16.9935C78.2701 17.1606 78.4864 17.9792 79.0107 17.8122C92.9904 13.293 107.253 20.2848 119.735 26.1154C131.118 31.4282 142.535 33.3327 154.618 28.7384C160.975 26.3159 166.767 22.6488 172.308 18.731C177.701 14.9219 182.252 10.9708 188.868 9.5841C201.766 6.87761 216.245 9.49222 228.535 13.7274C233.345 15.3813 237.913 18.4554 243.197 17.5198C245.735 17.0687 248.098 15.9076 250.52 15.0639C254.356 13.7274 258.234 13.1426 262.294 13.1343C262.852 13.1259 262.852 12.2739 262.303 12.2822Z" fill="#3D4D5F"/>
<path d="M0.191943 197.075C23.5913 195.756 44.3611 184.696 63.8328 172.425C72.9779 166.661 82.3809 160.354 93.2151 158.433C105.897 156.186 117.463 161.649 129.729 163.829C140.804 165.8 151.938 164.806 162.98 163.052C174.772 161.181 185.306 157.414 194.976 150.305C199.394 147.055 203.555 143.472 207.824 140.03C212.658 136.138 217.584 132.12 223.834 130.942C235.633 128.728 248.157 135.469 259.407 138.151C270.774 140.866 282.424 141.659 293.632 137.959C303.227 134.793 312.305 130.257 321.492 126.105C321.991 125.88 321.558 125.145 321.068 125.37C312.447 129.271 303.942 133.465 295.005 136.597C283.838 140.515 272.563 140.256 261.071 137.666C250.304 135.244 239.461 129.722 228.302 129.706C218.625 129.689 211.602 135.837 204.479 141.668C194.426 149.904 184.707 157.155 171.909 160.387C160.06 163.386 146.821 165.107 134.63 163.695C123.346 162.384 112.62 157.196 101.245 156.938C91.476 156.712 82.4225 160.362 74.068 165.132C62.9508 171.472 52.4993 178.84 40.9993 184.545C28.1763 190.919 14.5544 195.396 0.200267 196.207C-0.348936 196.257 -0.357259 197.109 0.191943 197.075Z" fill="#3D4D5F"/>
<path d="M39.1354 213.674C48.6633 209.664 57.9414 205.73 66.4208 199.707C75.8155 193.033 85.2601 189.992 96.785 189.833C116.248 189.574 138.108 192.715 156.232 183.877C165.094 179.55 171.984 171.706 181.445 168.649C190.957 165.575 201.167 166.953 210.811 168.515C220.788 170.128 230.557 171.715 240.709 170.988C250.212 170.311 259.482 167.931 268.244 164.213C278.355 159.92 287.791 154.849 299.158 156.119C306.431 156.929 311.548 165.308 318.996 161.19C319.47 160.922 319.046 160.187 318.571 160.454C313.786 163.094 310.941 160.505 306.996 158.024C303.801 156.019 300.789 155.3 297.019 155.108C288.923 154.691 281.625 157.305 274.344 160.58C264.175 165.149 254.032 168.866 242.864 169.961C232.072 171.021 221.67 169.418 211.044 167.697C202.839 166.369 194.385 165.174 186.114 166.628C176.86 168.257 170.603 173.92 163.022 178.957C144.832 191.045 122.173 189.365 101.287 188.998C90.361 188.806 80.0094 189.942 70.5565 195.864C65.7052 198.905 61.2866 202.447 56.2023 205.128C50.6104 208.069 44.7273 210.399 38.9108 212.847C38.4115 213.064 38.6278 213.883 39.1354 213.674Z" fill="#3D4D5F"/>
<path d="M54.6804 233.212C67.1041 220.949 84.096 221.1 100.397 220.807C107.77 220.674 114.91 220.498 121.816 217.633C127.832 215.135 133.15 211.335 138.725 208.027C145.773 203.85 153.171 201.002 161.459 200.985C169.913 200.96 178.06 203.524 186.048 206.03C193.121 208.244 200.261 210.499 207.683 211.092C216.129 211.761 224.642 210.148 232.805 208.119C242.341 205.738 252.734 201.294 262.67 201.795C272.214 202.28 280.81 206.974 288.607 212.153C289.065 212.454 289.489 211.719 289.032 211.418C282.791 207.267 276.159 203.491 268.794 201.803C260.473 199.899 252.676 201.937 244.613 204.076C234.96 206.64 225.333 209.58 215.314 210.24C206.368 210.825 197.881 208.795 189.393 206.181C174.806 201.678 160.177 197.067 145.399 203.566C138.592 206.557 132.659 211.126 126.118 214.626C118.271 218.828 110.449 219.755 101.679 219.93C84.7451 220.281 67.0125 219.838 54.073 232.602C53.6902 232.995 54.2893 233.605 54.6804 233.212Z" fill="#3D4D5F"/>
<path d="M76.4231 242.459C100.721 244.974 120.176 227.707 143.409 224.55C150.199 223.623 156.84 224.257 163.413 226.145C170.237 228.1 176.844 230.932 183.909 231.951C190.599 232.92 197.015 231.475 203.68 233.095C208.689 234.315 212.941 234.983 217.934 233.262C231.465 228.593 247.391 225.886 261.413 230.13C261.937 230.289 262.162 229.47 261.637 229.311C250.603 225.978 238.03 227.031 226.946 229.612C220.073 231.216 214.173 234.557 206.95 233.028C204.479 232.502 202.074 231.742 199.569 231.383C196.174 230.89 192.929 231.466 189.534 231.5C175.687 231.642 163.488 223.13 149.575 223.247C138.05 223.339 127.233 227.808 116.773 232.227C103.85 237.69 90.7439 243.094 76.4231 241.616C75.8822 241.557 75.8905 242.409 76.4231 242.459Z" fill="#3D4D5F"/>
<path d="M230.849 101.594C230.706 101.166 230.496 100.68 230.05 100.498C229.975 100.465 229.896 100.444 229.818 100.433C229.361 100.358 228.847 100.548 228.436 100.705C228.283 100.765 228.133 100.83 227.987 100.901C227.815 100.983 227.651 101.076 227.491 101.173C227.387 101.237 227.283 101.301 227.184 101.373C226.645 101.748 226.159 102.202 225.72 102.698C224.967 103.552 224.339 104.531 223.768 105.478C223.689 105.606 223.611 105.735 223.536 105.863V105.867C222.715 107.224 221.898 108.586 221.059 109.932C220.898 110.19 220.738 110.443 220.577 110.7C220.245 111.226 219.913 111.747 219.571 112.265C219.542 112.312 219.51 112.354 219.482 112.401C219.364 112.579 219.25 112.755 219.128 112.93C219.068 113.022 219.007 113.115 218.943 113.208C217.586 115.237 216.18 117.227 214.72 119.185C214.089 120.032 213.45 120.868 212.804 121.7C212.632 121.918 212.461 122.136 212.29 122.354C212.236 122.422 212.183 122.493 212.129 122.561C210.762 124.286 209.352 125.98 207.907 127.641C207.839 127.719 207.771 127.798 207.704 127.877C206.483 129.273 205.237 130.649 203.963 131.996C203.496 132.492 203.025 132.982 202.55 133.471C202.014 134.025 201.472 134.571 200.926 135.118C198.581 137.458 196.154 139.716 193.652 141.884C194.452 140.898 195.244 139.905 196.022 138.901C197.692 136.751 199.316 134.557 200.876 132.328C201.354 131.646 201.829 130.956 202.296 130.267C203.977 127.78 205.584 125.244 207.108 122.657C207.475 122.036 207.832 121.411 208.189 120.785C208.271 120.642 208.35 120.5 208.432 120.357C208.889 119.546 209.335 118.731 209.774 117.913C210.57 116.427 211.333 114.927 212.069 113.412C212.529 112.462 212.982 111.501 213.418 110.54C214.292 108.618 215.113 106.667 215.884 104.699C216.048 104.281 216.209 103.863 216.366 103.441C216.962 101.866 217.522 100.276 218.047 98.672C218.05 98.6649 218.054 98.6542 218.054 98.647C219.471 94.3065 220.62 89.8767 221.459 85.3862C222.069 82.1138 222.522 78.8093 222.776 75.4905C222.915 73.6757 222.986 71.8538 222.936 70.0354C222.897 68.6672 222.847 67.2525 222.355 65.9593C221.994 65.0019 221.387 63.9373 220.331 63.7908C217.636 63.4193 215.866 66.9524 215.184 68.2456C214.467 69.6139 213.874 71.0429 213.35 72.4933C212.272 75.4977 211.49 78.595 210.509 81.6315C209.584 84.493 208.514 87.3046 207.307 90.0589C206.287 92.3917 205.037 94.7495 203.681 97.0752C202.546 99.0186 201.34 100.937 200.13 102.795C199.391 103.927 198.656 105.035 197.931 106.11C194.591 111.086 190.836 115.78 186.767 120.178C186.725 120.224 186.678 120.275 186.635 120.321C185.95 121.06 185.254 121.793 184.551 122.514C183.288 123.811 181.996 125.083 180.682 126.326C180.614 126.394 180.543 126.458 180.475 126.523C179.933 127.034 179.387 127.537 178.837 128.037C179.412 127.234 179.975 126.419 180.525 125.601C180.6 125.494 180.671 125.387 180.739 125.279C181.624 123.961 182.485 122.622 183.316 121.268C185.518 117.685 187.535 113.987 189.366 110.2C190.765 107.31 192.05 104.37 193.235 101.387C194.991 96.968 196.518 92.456 197.832 87.8833C198.217 86.5401 198.585 85.1897 198.934 83.8357C198.984 83.6464 199.031 83.457 199.081 83.2677C200.705 76.8873 201.929 70.4034 202.807 63.8801C203.356 59.7968 203.888 55.66 203.952 51.5338C203.985 49.5583 203.931 47.5148 203.499 45.5786C203.153 44.0246 199.384 40.1163 195.647 45.3857C193.285 48.7187 193.317 53.3057 192.831 57.3426C192.553 59.6468 192.214 61.9403 191.807 64.2195C191.557 65.6378 191.279 67.0524 190.975 68.4636C190.269 71.7323 189.423 74.9725 188.42 78.1734C186.321 84.8717 183.605 91.3735 180.325 97.5789C179.34 99.4437 178.305 101.28 177.22 103.088C177.113 103.266 177.006 103.441 176.899 103.62C174.854 106.985 172.641 110.25 170.268 113.39C170.186 113.498 170.103 113.608 170.021 113.716C169.657 114.194 169.29 114.669 168.915 115.145C168.494 115.677 168.069 116.209 167.641 116.734C167.291 117.163 166.941 117.588 166.584 118.01C165.753 118.999 164.907 119.971 164.043 120.932C163.03 122.061 161.991 123.165 160.931 124.251C160.296 124.904 159.65 125.551 158.996 126.187C158.85 126.33 158.704 126.469 158.557 126.612C157.676 127.466 156.777 128.302 155.866 129.127C155.549 129.413 155.228 129.699 154.906 129.984C154.885 130.002 154.863 130.024 154.842 130.042C154.867 130.013 154.888 129.981 154.913 129.952C155.235 129.552 155.549 129.152 155.859 128.748C156.752 127.598 157.619 126.433 158.461 125.247C158.725 124.879 158.986 124.511 159.243 124.14C159.389 123.933 159.532 123.722 159.675 123.511C160.185 122.768 160.685 122.021 161.177 121.268C162.64 119.024 164.025 116.724 165.328 114.38C165.731 113.655 166.127 112.926 166.513 112.19C167.412 110.49 168.265 108.768 169.079 107.028C170.178 104.667 171.199 102.273 172.138 99.8438C172.252 99.5508 172.363 99.2543 172.473 98.9578C173.751 95.5676 174.872 92.1166 175.825 88.6228C176.503 86.1399 177.099 83.6357 177.606 81.1135C178.391 77.2267 178.973 73.2971 179.344 69.3495C179.651 66.0843 179.815 62.8048 179.829 59.5218C179.843 55.9422 179.822 52.2519 178.841 48.7795C178.644 48.0864 178.448 47.279 177.92 46.7503C177.466 46.2966 176.81 46.1394 176.185 46.1716C174.872 46.2359 173.715 47.0647 172.944 48.0828C171.981 49.3511 171.595 50.9158 171.431 52.4769C171.242 54.2739 171.246 56.0887 171.113 57.8927C170.949 60.1219 170.696 62.344 170.357 64.5553C169.961 67.1632 169.443 69.7568 168.815 72.3218C168.815 72.3254 168.815 72.3254 168.815 72.3289C168.265 74.5688 167.626 76.7837 166.902 78.9736C166.588 79.9311 166.252 80.8813 165.906 81.8244C165.225 83.675 164.482 85.5041 163.676 87.3046C163.187 88.4013 162.673 89.4909 162.137 90.5662C162.012 90.8198 161.884 91.0735 161.755 91.3271C161.288 92.2488 160.802 93.1598 160.303 94.06C160.224 94.2029 160.146 94.3422 160.064 94.4851C159.778 94.996 159.485 95.5033 159.186 96.007C158.729 96.7858 158.261 97.5539 157.779 98.3148L157.744 98.3719C157.719 98.4112 157.694 98.447 157.669 98.4863C157.594 98.6006 157.522 98.7185 157.448 98.8328C156.405 100.455 155.313 102.041 154.164 103.588C152.683 105.588 151.116 107.525 149.471 109.393C149.199 109.704 148.921 110.011 148.646 110.318C148.446 110.54 148.243 110.758 148.043 110.979C147.911 111.122 147.779 111.265 147.643 111.408C147.426 111.64 147.208 111.872 146.987 112.101C146.416 112.697 145.834 113.29 145.241 113.869C144.888 114.219 144.506 114.58 144.099 114.952C144.046 115.002 143.992 115.052 143.939 115.098C143.657 115.355 143.364 115.616 143.061 115.877C142.689 116.202 142.3 116.531 141.908 116.859C141.151 117.492 140.362 118.127 139.563 118.746C139.402 118.867 139.245 118.992 139.085 119.113C138.931 119.231 138.778 119.349 138.624 119.464C138.571 119.506 138.514 119.549 138.46 119.589C137.404 120.385 136.347 121.139 135.351 121.814C134.366 122.482 133.438 123.072 132.621 123.54C131.715 124.061 130.944 124.436 130.38 124.615C130.38 124.615 130.244 124.658 129.994 124.736C129.934 124.754 129.869 124.776 129.798 124.797C129.309 124.951 128.542 125.194 127.582 125.497C127.075 125.658 126.518 125.833 125.918 126.023C124.716 126.401 123.359 126.83 121.96 127.269C121.9 127.291 121.835 127.309 121.771 127.33C120.611 127.694 119.43 128.07 118.284 128.43C115.118 129.427 112.26 130.327 111.096 130.695C109.133 131.313 107.17 131.931 105.207 132.549C105.496 131.46 108.705 122.046 109.729 120.918C110.175 120.428 110.632 119.946 111.1 119.474C112.684 118.331 114.312 117.245 115.953 116.184C116.699 115.702 117.445 115.223 118.191 114.748C118.248 114.709 118.309 114.673 118.366 114.637C118.384 114.627 118.402 114.616 118.416 114.605C119.009 114.226 119.601 113.848 120.194 113.465C121.903 112.365 123.606 111.251 125.262 110.072C126.05 109.511 126.825 108.939 127.589 108.346C127.649 108.3 127.714 108.25 127.774 108.203C127.931 108.082 128.088 107.957 128.245 107.832C129.045 107.196 129.844 106.51 130.587 105.77C131.979 104.384 133.171 102.802 133.767 100.958C133.781 100.912 133.799 100.862 133.813 100.815C133.981 100.262 134.099 99.6866 134.152 99.0829C134.159 99.0007 134.166 98.9221 134.17 98.8399C134.213 98.054 134.134 97.2466 133.892 96.5C133.677 95.8355 133.263 95.2318 132.56 95.0746C132.546 95.071 132.528 95.071 132.514 95.071C131.668 95.0103 130.801 95.3604 130.469 95.5211C122.082 98.7649 113.694 102.087 105.739 106.306C105.714 106.321 105.689 106.331 105.667 106.346C105.178 106.606 104.69 106.867 104.204 107.135C99.7606 109.575 95.6348 112.529 91.4982 115.473C69.42 131.192 64.2734 147.843 63.0385 152.923C60.5187 163.265 62.0891 174.054 62.9671 184.5C63.8022 194.467 64.4839 212.629 64.6338 218.416C64.6588 219.434 64.6695 220.067 64.6624 220.21C64.127 220.338 63.5881 220.47 63.0527 220.599C62.9956 220.613 63.0206 220.703 63.0777 220.688C63.6059 220.563 64.1306 220.435 64.6588 220.306C64.6303 220.788 64.6017 221.271 64.5732 221.753C64.5517 222.107 65.1049 222.107 65.1228 221.753C65.1549 221.228 65.1835 220.699 65.2156 220.17C74.0812 218.027 116.828 209.092 117.552 208.564C118.088 208.174 118.159 207.535 118.141 206.913C118.138 206.724 118.127 206.538 118.116 206.359C118.063 205.241 117.966 204.127 117.92 203.005C117.831 200.772 117.966 198.468 119.087 196.478C121.007 193.063 124.908 191.402 128.31 189.873C130.94 188.694 136.237 186.64 142.522 184.278C145.912 183.006 149.588 181.645 153.29 180.284C154.146 179.97 155.006 179.655 155.863 179.341C159.129 178.144 162.369 176.965 165.396 175.865C165.481 175.833 165.564 175.804 165.646 175.776C168.094 174.886 170.403 174.047 172.473 173.297C177.313 171.539 180.85 170.249 181.842 169.853C182.392 169.631 182.931 169.392 183.459 169.138C183.809 168.97 184.155 168.792 184.497 168.609C185.7 167.966 186.857 167.238 187.974 166.448C187.992 166.434 188.009 166.423 188.027 166.409C188.077 166.373 188.124 166.341 188.174 166.305C189.223 165.555 190.237 164.751 191.225 163.912C191.55 163.637 191.871 163.358 192.189 163.079C192.25 163.026 192.31 162.972 192.371 162.915C193.349 162.047 194.302 161.15 195.237 160.254C195.497 160 195.761 159.75 196.022 159.493C196.415 159.11 196.807 158.725 197.2 158.335C197.25 158.285 197.303 158.235 197.357 158.182C197.382 158.157 197.41 158.132 197.435 158.103C197.91 157.635 198.381 157.163 198.849 156.688C198.877 156.66 198.909 156.628 198.938 156.599C198.942 156.595 198.942 156.595 198.942 156.595C199.27 156.263 199.598 155.927 199.927 155.592C200.469 155.031 201.012 154.47 201.547 153.905C201.665 153.784 201.779 153.659 201.897 153.537C202.832 152.548 203.753 151.548 204.666 150.537C204.988 150.183 205.305 149.826 205.623 149.468C205.965 149.086 206.305 148.7 206.64 148.315C207.361 147.489 208.075 146.653 208.778 145.814C208.835 145.746 208.892 145.682 208.946 145.614C210.402 143.874 211.822 142.102 213.2 140.294C213.478 139.93 213.757 139.562 214.035 139.194C214.959 137.958 215.866 136.708 216.751 135.439C217.39 134.525 218.018 133.603 218.632 132.671C218.707 132.56 218.778 132.449 218.85 132.342C219.367 131.556 219.874 130.767 220.37 129.97C220.823 129.245 221.27 128.516 221.705 127.78C222.915 125.751 224.064 123.686 225.146 121.586C225.188 121.507 225.228 121.428 225.267 121.35C225.574 120.75 225.877 120.142 226.177 119.535C226.666 118.538 227.137 117.531 227.594 116.52C227.801 116.063 228.004 115.605 228.201 115.145C228.372 114.748 228.543 114.348 228.711 113.948C228.786 113.766 228.865 113.583 228.94 113.401C229.261 112.633 229.575 111.858 229.868 111.076C229.925 110.918 229.982 110.761 230.039 110.604C230.064 110.532 230.089 110.461 230.114 110.39C230.153 110.282 230.189 110.175 230.224 110.065C230.246 110.004 230.264 109.947 230.285 109.886C230.289 109.875 230.292 109.864 230.296 109.857C230.371 109.632 230.442 109.404 230.51 109.179C230.845 108.06 231.099 106.921 231.213 105.76C231.37 104.37 231.288 102.934 230.849 101.594Z" fill="#EBB097"/>
<path d="M326.989 93.1991C326.925 91.2129 326.386 89.123 324.751 87.8512C324.302 87.5011 323.82 87.251 323.32 87.1046C322.15 86.7545 320.897 86.9724 319.855 87.8262C318.124 89.2445 317.021 91.5701 316.046 93.5385C315.968 93.6957 315.889 93.8529 315.814 94.0137C315.814 94.0172 315.811 94.0172 315.811 94.0208C315.204 95.2783 314.637 96.5537 314.091 97.8397C312.734 101.048 311.507 104.324 310.097 107.503C306.057 116.616 301.374 125.444 296.095 133.9C293.436 138.162 290.624 142.331 287.669 146.393C286.609 147.85 285.527 149.297 284.428 150.73C283.964 151.337 283.497 151.937 283.025 152.541C282.968 152.616 282.911 152.687 282.851 152.762C281.476 154.534 280.099 156.488 278.132 157.635C277.422 158.049 276.451 158.425 275.573 158.317C277.615 155.559 279.585 152.748 281.476 149.886C281.923 149.211 282.365 148.529 282.804 147.847C283.186 147.25 283.568 146.653 283.943 146.05C287.294 140.695 290.374 135.172 293.176 129.509C293.176 129.509 293.176 129.509 293.176 129.506C293.447 128.959 293.711 128.413 293.979 127.866C294.286 127.234 294.586 126.598 294.885 125.962C294.885 125.962 294.885 125.962 294.885 125.958C294.889 125.958 294.889 125.955 294.889 125.955C297.523 120.342 299.882 114.602 301.956 108.761C303.619 104.081 305.097 99.333 306.385 94.5352C306.892 92.6418 307.374 90.7413 307.82 88.8336C308.591 85.5577 309.362 82.2496 309.751 78.9059C310.129 75.6585 310.111 72.2504 308.923 69.1603C308.812 68.8745 307.791 67.1847 304.989 67.8742C301.727 68.678 299.807 76.8624 298.869 79.7882C298.369 81.3423 297.858 82.8927 297.334 84.4395C295.564 89.6696 293.636 94.8353 291.438 99.9117C290.367 102.387 289.246 104.842 288.076 107.275C287.701 108.057 287.319 108.839 286.934 109.614C285.306 112.89 283.596 116.127 281.808 119.317C278.271 125.623 274.431 131.756 270.327 137.704C268.485 140.373 266.686 143.31 264.138 145.371C263.845 145.607 263.542 145.828 263.228 146.032C262.475 146.518 261.661 146.9 260.794 147.104C260.787 147.107 260.776 147.107 260.765 147.111C260.787 147.079 260.804 147.046 260.826 147.014C262.493 144.303 264.092 141.552 265.623 138.765C268.128 134.196 270.455 129.527 272.589 124.772C272.946 123.976 273.3 123.179 273.646 122.379C275.505 118.085 277.211 113.723 278.757 109.304C278.857 109.021 278.953 108.739 279.053 108.457C279.353 107.585 279.649 106.714 279.935 105.842C279.935 105.842 279.935 105.842 279.935 105.838C279.974 105.728 280.01 105.617 280.045 105.506C280.987 102.627 281.862 99.7224 282.669 96.8037C283.497 93.8065 284.314 90.7842 284.856 87.719C284.978 87.0331 285.085 86.3401 285.17 85.6435C285.463 83.2642 285.502 80.8564 285.063 78.4915C284.785 76.9982 284.046 74.351 282.34 74.0223C282.083 73.9723 281.805 73.9759 281.505 74.0438C281.394 74.0688 281.28 74.1009 281.162 74.1438C280.099 74.5261 279.353 75.5478 278.803 76.4873C278.039 77.7877 277.379 79.1488 276.776 80.5277C276.209 81.821 275.695 83.1356 275.206 84.4574C274.638 85.9864 274.106 87.5226 273.56 89.0587C272.5 92.0381 271.34 94.9675 269.97 97.8183C269.445 98.9079 268.899 99.9832 268.335 101.048C268.296 101.123 268.257 101.201 268.214 101.276C267.596 102.445 266.954 103.602 266.297 104.749C266.283 104.774 266.269 104.802 266.251 104.827C266.244 104.842 266.237 104.852 266.229 104.867C266.215 104.895 266.197 104.92 266.183 104.949C266.112 105.074 266.04 105.203 265.965 105.328C265.94 105.37 265.915 105.413 265.89 105.456C265.89 105.46 265.887 105.46 265.887 105.463C265.88 105.478 265.869 105.492 265.862 105.506C265.819 105.581 265.776 105.656 265.73 105.735C265.698 105.792 265.662 105.853 265.626 105.91C265.608 105.942 265.591 105.974 265.569 106.006C265.537 106.06 265.508 106.113 265.476 106.163C265.359 106.367 265.237 106.571 265.116 106.774C264.359 108.068 263.588 109.354 262.81 110.633C262.685 110.84 262.557 111.051 262.428 111.258C261.465 112.844 260.487 114.427 259.509 116.006C258.31 117.938 257.107 119.867 255.911 121.8C255.693 122.154 255.476 122.504 255.258 122.857C255.219 122.922 255.18 122.986 255.137 123.05C254.651 123.836 254.17 124.622 253.684 125.408C253.638 125.483 253.591 125.558 253.545 125.633C253.149 126.276 252.756 126.916 252.356 127.559C252.289 127.666 252.224 127.773 252.153 127.88C251.682 128.634 251.207 129.388 250.729 130.138C250.294 130.817 249.851 131.496 249.401 132.167C249.326 132.278 249.255 132.389 249.18 132.496C248.709 133.196 248.231 133.893 247.742 134.582C246.992 135.636 246.221 136.676 245.415 137.694C245.115 138.076 244.808 138.455 244.497 138.833C242.931 140.727 241.228 142.534 239.379 144.174C239.033 144.481 238.68 144.785 238.323 145.082C237.773 145.535 237.216 145.975 236.642 146.396C236.292 146.657 235.935 146.907 235.578 147.154C235.992 146.582 236.399 146.003 236.802 145.424C237.459 144.481 238.105 143.528 238.737 142.567C240.361 140.102 241.899 137.583 243.355 135.011C243.598 134.589 243.833 134.164 244.069 133.736C244.069 133.732 244.069 133.732 244.073 133.732C244.447 133.053 244.815 132.374 245.175 131.692C245.507 131.067 245.832 130.442 246.153 129.813C246.246 129.627 246.339 129.445 246.432 129.259C246.628 128.873 246.821 128.484 247.01 128.095C247.124 127.866 247.235 127.637 247.345 127.409C247.381 127.334 247.42 127.255 247.456 127.177C247.592 126.898 247.724 126.616 247.859 126.333C247.899 126.251 247.938 126.169 247.974 126.087C248.038 125.951 248.102 125.812 248.166 125.676C248.766 124.39 249.348 123.093 249.904 121.786C249.983 121.604 250.062 121.418 250.136 121.236C250.297 120.857 250.454 120.482 250.608 120.103C251.139 118.813 251.65 117.517 252.139 116.209C252.799 114.452 253.42 112.68 254.002 110.897C254.184 110.347 254.359 109.793 254.534 109.239C254.712 108.664 254.89 108.089 255.062 107.51C255.294 106.724 255.522 105.935 255.74 105.145C255.779 105.002 255.818 104.86 255.858 104.713C255.911 104.517 255.965 104.32 256.018 104.124C256.329 102.966 256.625 101.802 256.903 100.633C257.31 98.9222 257.839 97.1931 257.353 95.4391C257.05 94.3423 256.211 93.2634 254.955 93.7672C254.694 93.8708 254.455 94.0351 254.23 94.2244C254.095 94.3423 253.963 94.4709 253.838 94.6031C253.741 94.7067 253.648 94.8139 253.556 94.9211C253.356 95.1568 253.167 95.3926 252.985 95.6034C252.353 96.3429 251.75 97.1074 251.175 97.8897C250.433 98.9007 249.744 99.9439 249.094 101.008C248.887 101.344 248.687 101.684 248.488 102.027C248.366 102.23 248.252 102.434 248.134 102.641C247.106 104.463 246.178 106.342 245.311 108.253C245.258 108.375 245.204 108.493 245.15 108.614C245.004 108.939 244.858 109.268 244.715 109.593C244.33 110.472 243.951 111.358 243.584 112.247C243.384 112.726 243.188 113.201 242.991 113.68C242.724 114.334 242.459 114.987 242.195 115.641C242.195 115.641 242.195 115.645 242.192 115.645C242.152 115.745 242.11 115.848 242.07 115.948C242.013 116.088 241.956 116.231 241.899 116.373C241.86 116.47 241.821 116.566 241.781 116.663C241.721 116.809 241.664 116.956 241.603 117.102C241.578 117.17 241.549 117.238 241.521 117.302C241.431 117.524 241.342 117.745 241.249 117.967C241.221 118.035 241.192 118.103 241.167 118.17C241.067 118.417 240.964 118.667 240.864 118.913C240.6 119.557 240.332 120.2 240.061 120.839C238.987 123.379 237.848 125.898 236.549 128.33C236.378 128.656 236.199 128.977 236.021 129.295C235.635 129.992 235.232 130.678 234.814 131.353C234.632 131.646 234.45 131.935 234.261 132.224C232.277 135.282 229.896 137.976 227.205 140.377C226.648 140.873 226.081 141.359 225.496 141.834C225.235 142.045 224.975 142.252 224.71 142.459C224.214 142.845 223.715 143.227 223.211 143.603C221.248 145.071 219.228 146.468 217.183 147.832C217.115 147.879 217.044 147.925 216.976 147.972C216.409 148.35 215.838 148.725 215.267 149.101C214.931 149.322 214.596 149.54 214.26 149.758C213.375 150.337 212.486 150.915 211.601 151.49C211.148 151.787 210.695 152.08 210.238 152.373C210.181 152.412 210.12 152.451 210.059 152.487C209.089 153.116 208.114 153.741 207.136 154.359C206.669 154.659 206.198 154.956 205.727 155.252C204.859 155.802 203.988 156.345 203.118 156.888C202.961 156.985 202.803 157.085 202.646 157.178C202.55 157.239 202.45 157.299 202.354 157.36C201.533 157.867 200.712 158.371 199.888 158.875C199.798 158.932 199.706 158.985 199.616 159.043C199.416 159.164 199.217 159.286 199.017 159.407C198.674 159.614 198.335 159.821 197.992 160.029C197.685 160.214 197.382 160.397 197.082 160.572C197.011 160.614 196.939 160.657 196.868 160.7C196.593 160.865 196.326 161.022 196.058 161.179C196.026 161.197 195.997 161.215 195.965 161.232C194.862 161.876 193.817 162.472 192.803 163.029C192.717 163.076 192.632 163.126 192.546 163.172C192.103 163.415 191.668 163.651 191.236 163.883C189.969 164.562 188.752 165.194 187.542 165.805C187.456 165.848 187.374 165.891 187.289 165.93C187.128 166.012 186.964 166.095 186.803 166.177C186.564 166.298 186.322 166.416 186.082 166.538C185.672 166.741 185.262 166.941 184.851 167.145C184.226 167.452 183.591 167.759 182.949 168.074C182.745 168.174 182.538 168.274 182.331 168.374C179.869 169.571 177.238 170.849 174.155 172.421C173.598 172.704 173.045 172.986 172.488 173.268C166.292 176.401 160.032 179.463 154.079 183.039C153.661 183.289 153.24 183.546 152.826 183.803C152.747 183.853 152.665 183.903 152.583 183.953C152.533 183.985 152.483 184.014 152.433 184.046C152.244 184.164 152.055 184.282 151.866 184.4C151.816 184.432 151.762 184.464 151.712 184.496C151.523 184.618 151.33 184.739 151.141 184.864C150.959 184.982 150.777 185.096 150.599 185.218C149.471 185.954 148.361 186.715 147.265 187.504C146.601 187.983 145.938 188.472 145.284 188.98C143.932 190.033 142.622 191.162 141.444 192.402C140.805 193.074 140.206 193.781 139.656 194.524C139.467 194.781 139.285 195.042 139.106 195.31C138.899 195.624 138.699 195.946 138.51 196.274C138.343 196.564 138.185 196.857 138.036 197.157C137.725 197.778 137.461 198.414 137.236 199.061C137.086 199.486 136.954 199.915 136.836 200.347C136.708 200.819 136.597 201.297 136.501 201.776C136.497 201.783 136.497 201.79 136.497 201.797C135.88 204.93 135.926 208.214 136.03 211.382C136.24 217.688 138.414 228.605 140.284 237.118C140.791 239.426 141.276 241.555 141.694 243.37C142.422 246.524 142.943 248.721 143.029 249.221C142.397 249.339 141.769 249.457 141.137 249.575C141.08 249.586 141.105 249.675 141.162 249.664C141.79 249.547 142.415 249.429 143.043 249.314C143.1 249.668 143.193 249.657 143.132 249.296C154.985 247.078 163.647 245.403 175.5 243.184C178.677 242.591 181.853 241.994 185.026 241.401C186.564 241.112 188.106 240.823 189.644 240.537C191.083 240.269 192.664 240.144 194.038 239.64C196.176 238.858 195.84 236.536 195.705 234.7C195.658 234.06 195.676 233.428 195.751 232.81C195.997 230.809 196.854 228.934 198.11 227.308C198.581 226.697 199.755 225.976 201.444 225.186C212.329 220.088 244.54 212.09 246.889 211.493C263.149 207.356 286.734 175.197 292.508 167.813C298.569 160.064 303.83 151.712 308.451 143.035C309.465 141.13 310.45 139.208 311.41 137.276C311.756 136.572 312.103 135.868 312.442 135.161C315.59 128.631 318.427 121.957 321.05 115.202C321.818 113.226 322.603 111.243 323.342 109.239C324.402 106.378 325.369 103.481 326.068 100.519C326.643 98.1648 327.071 95.657 326.989 93.1991Z" fill="#F7C8B5"/>
<path d="M121.401 209.117C121.18 208.149 120.677 207.199 119.642 206.945C118.964 206.777 118.225 206.913 117.536 206.999C116.69 207.103 57.7898 219.885 54.3956 220.678C52.7003 221.074 51.005 221.474 49.3061 221.871C48.1141 222.15 46.8221 222.425 46.3938 223.746C46.2082 224.318 46.1975 224.922 46.2189 225.508C46.2474 226.315 46.3081 227.122 46.3617 227.926C46.4687 229.566 46.5936 231.206 46.7364 232.842C47.0255 236.164 47.3895 239.472 47.8285 242.77C47.9963 244.038 48.1783 245.303 48.3675 246.567C48.4317 246.585 48.4995 246.606 48.5602 246.632C52.0543 245.206 118.849 232.024 119.695 231.849C120.381 231.706 121.105 231.613 121.765 231.367C122.276 231.174 122.715 230.845 122.886 230.313C123.097 229.666 124.913 230.556 124.888 229.905C124.771 226.504 121.712 210.493 121.401 209.117Z" fill="white"/>
<path d="M212.145 240.362C211.46 234.999 210.385 227.362 210.114 226.39C209.85 225.447 209.322 224.525 208.337 224.264C207.691 224.093 207.006 224.218 206.363 224.289C206.235 224.304 204.422 224.647 201.463 225.215C199.632 225.565 197.362 226.004 194.785 226.501C178.332 229.68 149.247 235.346 140.721 237.064C140.574 237.093 140.435 237.121 140.3 237.15C139.325 237.347 138.683 237.482 138.429 237.539C136.859 237.904 135.289 238.268 133.722 238.633C132.619 238.886 131.423 239.14 131.099 240.415C130.956 240.969 130.984 241.551 131.038 242.119C131.095 242.705 134.079 254.069 134.304 255.695L159.719 250.057L161.047 249.907L212.598 244.073C212.491 243.13 212.331 241.833 212.145 240.362Z" fill="white"/>
<path d="M212.29 240.338C212.226 239.97 212.191 239.752 212.191 239.735C212.191 239.71 212.158 239.692 212.133 239.695C207.115 240.778 153.387 251.359 134.445 255.675C134.224 255.725 141.373 296.118 144.849 311.369L228.48 308.883C227.869 305.507 212.569 241.985 212.29 240.338Z" fill="#647B92"/>
<path d="M124.83 229.044C124.83 229.041 124.83 229.041 124.83 229.044C124.694 228.255 124.619 227.78 124.612 227.68C124.612 227.655 124.58 227.637 124.555 227.64C115.475 229.594 52.7048 244.53 48.2435 245.794C47.1514 246.105 55.5472 304.744 55.5793 309.888H139.242C137.625 300.993 125.397 232.359 124.83 229.044Z" fill="#3D4D5F"/>
<path d="M146.319 144.185C138.989 144.285 131.668 144.921 124.43 146.1C120.818 146.685 117.228 147.407 113.67 148.261C110.44 149.036 107.227 149.915 104.104 151.055C98.344 153.155 92.9119 156.213 88.7682 160.8C85.0813 164.883 82.483 169.885 81.009 175.176C79.5243 180.502 79.1602 186.146 79.9526 191.619C80.0525 192.312 80.1738 193.002 80.3095 193.691C80.3452 193.867 80.6093 193.791 80.5736 193.616C79.4886 188.172 79.5778 182.503 80.8056 177.09C82.0226 171.732 84.3639 166.598 87.8295 162.318C91.6805 157.563 96.8307 154.241 102.47 151.973C108.723 149.458 115.426 147.979 122.043 146.789C129.174 145.507 136.401 144.749 143.646 144.524C144.538 144.496 145.431 144.478 146.323 144.463C146.498 144.46 146.498 144.181 146.319 144.185Z" fill="white" stroke="white" stroke-width="0.770781"/>
<path d="M297.712 151.805C296.595 151.355 295.257 151.658 294.111 151.83C288.615 152.652 283.4 154.749 278.55 157.414C268.585 162.883 260.166 170.664 250.544 176.658C245.754 179.641 240.639 182.199 235.154 183.607C229.029 185.175 222.751 184.853 216.487 184.839C204.802 184.814 192.692 185.864 181.999 190.941C173.337 195.053 165.61 201.983 161.981 211.011C161.531 212.129 161.153 213.268 160.838 214.433C160.792 214.605 161.056 214.676 161.103 214.508C163.669 205.03 170.785 197.475 179.18 192.72C189.088 187.108 200.701 185.464 211.923 185.168C217.997 185.007 224.132 185.532 230.182 184.814C235.471 184.189 240.522 182.406 245.251 179.991C255.005 175.011 263.203 167.627 272.268 161.583C276.823 158.542 281.63 155.792 286.805 153.966C289.382 153.059 292.045 152.38 294.754 152.023C296.217 151.83 297.812 151.651 298.783 153.012C299.522 154.045 299.622 155.395 299.283 156.592C298.897 157.949 298.051 159.121 297.238 160.25C297.134 160.393 297.373 160.532 297.477 160.389C298.851 158.475 300.4 156.153 299.465 153.709C299.144 152.873 298.548 152.141 297.712 151.805Z" fill="#D7997F" stroke="#D7997F" stroke-width="0.770781"/>
<path d="M288.171 157.399C287.033 158.067 286.026 158.993 285.12 159.943C284.435 160.664 283.36 161.808 283.806 162.904C284.142 163.73 285.138 163.948 285.855 164.308C286.43 164.598 286.79 164.998 287.104 165.559C287.375 166.045 287.618 166.559 288.075 166.906C288.928 167.556 290.152 167.463 291.066 166.995C291.533 166.755 293.086 165.091 293.935 163.262C294.881 161.225 295.056 158.964 294.189 157.871C292.704 156.01 290.013 156.317 288.171 157.399Z" fill="#DC9C81"/>
<path d="M83.2863 139.466C87.587 137.722 92.0091 136.293 96.5168 135.182C96.6311 135.154 96.5847 134.975 96.4669 135.004C91.9591 136.111 87.5406 137.544 83.2363 139.287C83.1293 139.333 83.1757 139.512 83.2863 139.466Z" fill="white" stroke="white" stroke-width="0.770781"/>
<path d="M301.771 140.866C299.836 139.748 297.831 138.769 295.757 137.94C295.646 137.897 295.6 138.072 295.707 138.119C297.766 138.944 299.758 139.916 301.678 141.027C301.778 141.084 301.871 140.923 301.771 140.866Z" fill="#D7997F" stroke="#D7997F" stroke-width="0.770781"/>
<path d="M314.811 114.569C312.88 113.451 310.871 112.472 308.797 111.643C308.686 111.6 308.64 111.775 308.747 111.822C310.806 112.647 312.798 113.619 314.718 114.73C314.822 114.787 314.914 114.63 314.811 114.569Z" fill="#D7997F" stroke="#D7997F" stroke-width="0.770781"/>
<path d="M302.566 95.6853C300.029 94.9494 297.587 93.9348 295.275 92.6523C295.171 92.5952 295.078 92.7524 295.182 92.8095C297.505 94.0956 299.964 95.1209 302.516 95.8603C302.631 95.8961 302.677 95.721 302.566 95.6853Z" fill="#D7997F" stroke="#D7997F" stroke-width="0.770781"/>
<path d="M272.564 92.3093C274.32 93.0309 276.137 93.5739 278 93.9312C278.114 93.9526 278.164 93.7776 278.05 93.7526C276.187 93.3953 274.37 92.8523 272.614 92.1307C272.504 92.0842 272.457 92.2629 272.564 92.3093Z" fill="#D7997F" stroke="#D7997F" stroke-width="0.770781"/>
<path d="M209.713 85.8183C211.358 86.5721 213.003 87.3259 214.649 88.0797C214.756 88.1297 214.848 87.9689 214.741 87.9225C213.096 87.1687 211.451 86.4149 209.805 85.6611C209.698 85.6111 209.605 85.7719 209.713 85.8183Z" fill="white" stroke="white" stroke-width="0.770781"/>
<path d="M191.301 69.3173C192.593 69.6959 193.86 70.1496 195.099 70.6784C195.206 70.7248 195.299 70.564 195.191 70.5212C193.939 69.9889 192.657 69.528 191.348 69.1422C191.237 69.1065 191.187 69.2816 191.301 69.3173Z" fill="white" stroke="white" stroke-width="0.770781"/>
<path d="M171.15 70.4034C172.602 70.832 174.073 71.2036 175.557 71.5144C175.672 71.5394 175.722 71.3608 175.607 71.3358C174.123 71.025 172.656 70.657 171.2 70.2247C171.085 70.1926 171.035 70.3676 171.15 70.4034Z" fill="#D7997F"/>
<path d="M197.086 115.212C196.097 114.623 195.112 114.033 194.124 113.444C194.02 113.383 193.931 113.54 194.031 113.601C195.02 114.191 196.005 114.78 196.993 115.37C197.097 115.43 197.19 115.273 197.086 115.212Z" fill="white" stroke="white" stroke-width="0.770781"/>
<path d="M290.635 117.313C288.811 116.434 286.905 115.748 284.939 115.273C284.814 115.244 284.764 115.434 284.885 115.462C286.837 115.934 288.725 116.609 290.535 117.484C290.649 117.538 290.749 117.366 290.635 117.313Z" fill="#D7997F" stroke="#D7997F" stroke-width="0.770781"/>
<path d="M268.399 114.509C266.576 113.631 264.67 112.945 262.703 112.469C262.578 112.441 262.528 112.63 262.65 112.659C264.602 113.13 266.49 113.806 268.299 114.681C268.414 114.734 268.514 114.563 268.399 114.509Z" fill="#D7997F" stroke="#D7997F" stroke-width="0.770781"/>
<path d="M63.9879 229.666C62.8636 228.508 61.7251 228.451 59.9441 229.155C59.1161 229.484 58.5879 230.245 58.4165 231.184C58.2702 231.988 58.1453 233.16 58.6271 233.853C58.8591 234.428 59.2945 234.896 59.8049 235.182C61.0684 235.889 62.9457 235.732 64.0985 234.749C65.1978 233.813 65.7438 231.473 63.9879 229.666Z" fill="#647B92"/>
<path d="M149.258 144.221C149.201 144.207 149.14 144.207 149.076 144.221C148.965 144.239 148.851 144.282 148.755 144.31C148.744 144.314 148.733 144.314 148.726 144.317C148.401 144.407 148.08 144.492 147.759 144.582C145.532 145.189 143.301 145.8 141.071 146.407C140.917 146.45 140.764 146.493 140.607 146.532C140.649 146.264 140.689 145.996 140.731 145.728C140.785 145.378 140.842 145.028 140.896 144.675C140.913 144.56 140.735 144.517 140.717 144.632L140.592 145.421L140.414 146.582L140.103 146.668C139.907 146.718 139.718 146.772 139.522 146.825C139.411 146.854 139.464 147.029 139.575 146.997C139.775 146.943 139.975 146.89 140.171 146.836C140.243 146.818 140.31 146.797 140.378 146.779C140.36 146.89 140.342 147 140.328 147.107C140.264 147.525 140.2 147.947 140.132 148.365C139.754 150.794 139.375 153.22 138.993 155.649C138.979 155.731 138.968 155.81 138.954 155.892C138.897 156.271 138.836 156.649 138.779 157.032C138.615 158.086 138.451 159.143 138.283 160.2C138.115 161.258 137.951 162.315 137.787 163.373C137.751 163.609 137.712 163.844 137.676 164.077C137.662 164.152 137.651 164.23 137.641 164.305C137.63 164.384 137.616 164.459 137.605 164.537C137.487 165.284 137.373 166.027 137.255 166.77C137.095 167.799 136.934 168.824 136.773 169.846C136.766 169.9 136.802 169.967 136.866 169.96C138.294 169.739 139.729 169.603 141.17 169.549C141.213 169.549 141.245 169.517 141.256 169.478C141.542 168.614 141.827 167.749 142.113 166.888C142.388 166.056 142.662 165.223 142.937 164.391C142.987 164.234 143.041 164.08 143.091 163.923C143.201 163.584 143.315 163.248 143.426 162.908C143.833 161.676 144.243 160.44 144.65 159.207C144.907 158.432 145.164 157.653 145.421 156.878C145.607 156.317 145.792 155.76 145.974 155.199C145.985 155.174 145.992 155.149 145.999 155.12C146.032 155.024 146.064 154.928 146.096 154.835C146.831 152.605 147.57 150.38 148.305 148.151L148.537 147.45L148.555 147.393L148.633 147.154L148.873 146.429C148.969 146.15 149.058 145.871 149.151 145.589C149.151 145.582 149.154 145.575 149.158 145.568C149.208 145.418 149.279 145.253 149.344 145.089C149.408 144.921 149.461 144.753 149.476 144.589C149.497 144.417 149.454 144.271 149.258 144.221Z" fill="#F7C8B5"/>
<path d="M175.144 141.067C175.115 140.884 175.037 140.749 174.833 140.752C174.662 140.752 174.48 140.902 174.341 140.977L173.47 141.474C173.17 141.645 172.867 141.817 172.567 141.988C171.832 142.41 171.096 142.828 170.361 143.246C169.569 143.699 168.773 144.15 167.981 144.6C167.663 144.782 167.345 144.964 167.028 145.143C167.003 144.875 166.978 144.607 166.953 144.339C166.917 143.985 166.885 143.628 166.849 143.274C166.838 143.156 166.656 143.16 166.667 143.274L166.767 144.339L166.853 145.239C166.585 145.389 166.321 145.543 166.05 145.696C165.95 145.754 166.043 145.907 166.146 145.85C166.385 145.714 166.628 145.575 166.871 145.436C167.235 149.244 167.599 153.045 167.97 156.85C168.02 157.368 168.07 157.886 168.12 158.404C168.155 158.797 168.195 159.186 168.23 159.579C168.27 159.997 168.312 160.415 168.352 160.833C168.423 161.587 168.498 162.34 168.569 163.098C168.627 163.691 168.684 164.284 168.741 164.877C168.741 164.884 168.741 164.891 168.741 164.898C168.748 164.973 168.755 165.048 168.762 165.12C168.876 166.306 168.991 167.495 169.105 168.681C169.112 168.731 169.162 168.792 169.223 168.767C170.55 168.199 171.903 167.71 173.288 167.299C173.327 167.288 173.348 167.252 173.352 167.21C173.398 166.534 173.445 165.859 173.491 165.184C173.495 165.163 173.495 165.141 173.495 165.12C173.502 165.027 173.509 164.934 173.516 164.841C173.527 164.698 173.538 164.555 173.545 164.412C173.645 163.008 173.737 161.601 173.834 160.193C173.877 159.565 173.919 158.932 173.962 158.3C174.005 157.675 174.048 157.046 174.091 156.421C174.187 155.017 174.284 153.613 174.38 152.209C174.551 149.74 174.719 147.268 174.887 144.8C174.93 144.2 174.969 143.596 175.012 142.992C175.033 142.692 175.054 142.392 175.072 142.088C175.101 141.774 175.194 141.388 175.144 141.067Z" fill="#EBB097"/>
<path d="M172.778 156.585C171.775 156.646 170.775 156.71 169.772 156.774C169.38 156.799 168.973 156.81 168.57 156.824C168.37 156.831 168.17 156.842 167.974 156.856C168.024 157.374 168.074 157.892 168.124 158.41C168.159 158.803 168.198 159.193 168.234 159.586C168.273 160.004 168.316 160.422 168.356 160.84C168.93 160.779 169.512 160.829 170.122 160.958C170.782 161.093 171.464 161.236 172.117 160.975C172.563 160.797 172.91 160.429 173.377 160.286C173.527 160.239 173.684 160.214 173.838 160.207C173.88 159.579 173.923 158.946 173.966 158.314C174.009 157.689 174.052 157.06 174.095 156.435C173.627 156.456 173.12 156.563 172.778 156.585Z" fill="#D7997F"/>
<path d="M142.247 166.913C142.201 166.909 142.158 166.902 142.115 166.899C140.345 166.684 139.049 166.734 137.261 166.781C137.229 166.781 137.197 166.784 137.165 166.784C137.072 166.788 137.108 166.874 136.872 167.299C135.066 169.599 133.199 171.311 130.84 173.047C130.255 173.479 129.659 173.886 129.045 174.276C128.435 174.665 127.785 175.005 127.2 175.44C126.736 175.787 126.311 176.244 126.068 176.762C125.844 177.237 125.772 177.766 125.961 178.32C125.979 178.37 126.026 178.391 126.076 178.381C129.259 177.702 132.446 177.023 135.634 176.341C135.726 176.319 135.816 176.301 135.908 176.284C136.522 176.155 137.136 176.023 137.746 175.891C137.871 175.866 138 175.837 138.125 175.808C138.856 175.651 139.588 175.498 140.323 175.34C140.777 175.244 141.408 175.237 141.619 174.74C141.74 174.454 141.751 174.111 141.797 173.804C141.797 173.797 141.797 173.79 141.801 173.783C141.819 173.668 141.844 173.233 141.876 172.625C141.961 171.05 142.101 168.317 142.311 167.027C142.322 166.977 142.301 166.92 142.247 166.913Z" fill="white"/>
<path d="M173.977 165.227C173.966 165.198 173.945 165.177 173.912 165.17C173.77 165.152 173.634 165.137 173.498 165.127C173.413 165.116 173.327 165.109 173.245 165.102C172.488 165.037 171.807 165.016 171.114 165.023C170.672 165.023 170.222 165.037 169.744 165.052C169.451 165.062 169.148 165.073 168.83 165.084C168.798 165.084 168.78 165.094 168.766 165.127C168.73 165.184 168.694 165.316 168.545 165.598C167.956 166.363 167.36 167.063 166.742 167.72C165.482 169.06 164.133 170.221 162.563 171.4C161.981 171.836 161.385 172.25 160.778 172.647C160.618 172.75 160.454 172.854 160.286 172.954C160.186 173.015 160.082 173.079 159.979 173.14C159.625 173.354 159.276 173.572 158.947 173.822C158.491 174.168 158.073 174.622 157.834 175.133C157.609 175.615 157.534 176.155 157.73 176.712C157.748 176.762 157.795 176.78 157.845 176.773C158.826 176.555 159.808 176.337 160.793 176.119C160.91 176.094 161.025 176.069 161.142 176.04C161.367 175.99 161.592 175.94 161.817 175.89C162.331 175.776 162.841 175.665 163.355 175.547C164.697 175.251 166.043 174.951 167.385 174.654C167.877 174.544 168.373 174.433 168.866 174.326C169.933 174.09 170.997 173.851 172.064 173.618C172.517 173.518 173.152 173.5 173.356 173.004C173.477 172.711 173.481 172.357 173.527 172.046C173.545 171.943 173.563 171.575 173.588 171.053C173.663 169.51 173.78 166.623 173.987 165.284C173.987 165.266 173.984 165.245 173.977 165.227Z" fill="white"/>
<path d="M179.495 28.9635C179.52 28.9385 179.538 28.917 179.556 28.8992C179.563 28.8849 179.573 28.8742 179.581 28.8599C179.588 28.8456 179.595 28.8313 179.602 28.8206C179.609 28.792 179.623 28.7527 179.641 28.6955C179.659 28.5705 179.691 28.4455 179.72 28.3204C179.72 28.2704 179.741 28.0811 179.745 27.9703C179.745 27.9096 179.745 27.8524 179.745 27.7917C179.588 27.3809 179.427 26.9736 179.27 26.5628C179.124 26.1841 178.974 25.8054 178.817 25.4268C178.638 24.9909 178.67 25.0624 178.474 24.6373C178.142 23.9192 177.782 23.2154 177.364 22.5402C176.586 21.2792 175.701 20.2825 174.47 19.5251C172.849 18.5284 170.954 18.0068 169.073 17.8139C168.93 17.7996 168.791 17.771 168.656 17.7389C167.621 18.2712 166.661 18.9214 165.875 19.7895C164.098 21.7614 163.873 24.5694 163.477 27.0737C163.238 28.5884 163.017 30.1031 162.86 31.6285C162.72 32.9682 162.56 34.3543 162.652 35.7011C162.713 36.6156 162.956 37.6623 163.755 38.2161C164.658 38.8448 165.982 38.6448 167.046 38.559C167.05 41.7278 166.978 44.8965 166.839 48.0617C166.835 48.1153 166.878 48.176 166.943 48.1653C168.634 47.8188 170.326 47.4758 172.021 47.1293C172.86 46.9578 173.709 46.8185 174.541 46.6149C175.148 46.4648 175.187 46.0861 175.226 45.5181C175.44 42.478 175.101 39.3164 176.379 36.4584C177.129 34.783 178.271 33.3504 179.402 31.9179C178.724 31.1212 178.538 29.9245 179.495 28.9635Z" fill="#EBB097"/>
<path d="M143.09 60.0008C142.719 60.0758 142.348 60.1437 141.976 60.208C141.58 58.0538 141.188 55.9032 140.795 53.749C140.688 53.1632 140.527 52.6416 140.335 52.145C139.867 50.9304 139.218 49.8837 138.732 48.5083C137.462 44.918 135.698 41.242 134.075 37.8124C133.589 36.7871 133.147 35.7404 132.79 34.6687C132.468 33.7113 132.215 32.736 132.051 31.7322C132.04 31.6714 131.99 31.6357 131.93 31.6571C130.991 31.9465 130.423 32.1358 129.781 32.4645C129.613 32.5502 129.445 32.6431 129.26 32.7539C129.089 32.8539 128.903 32.9682 128.703 33.0968C128.621 33.1504 128.682 33.2612 128.764 33.2612C129.039 33.9435 129.303 34.7223 129.56 35.5689C131.494 41.96 132.915 52.2415 133.321 55.6674C133.457 56.8142 133.914 57.9574 134.406 59.0041C134.77 59.7793 135.342 60.3652 136.155 60.6581C137.069 60.9832 138.079 60.9511 139.028 60.8475C139.132 60.8368 139.235 60.8225 139.342 60.8117C140.178 60.7117 141.013 60.576 141.844 60.4259C141.887 60.4902 142.001 60.4759 142.009 60.3973C142.376 60.3295 142.744 60.258 143.111 60.1866C143.222 60.158 143.208 59.9758 143.09 60.0008Z" fill="#EBB097"/>
<path d="M178.12 137.501C178.035 130.706 177.949 123.912 177.867 117.117C177.824 113.719 177.781 110.322 177.739 106.925C177.696 103.506 176.614 96.4038 176.318 92.9993C175.736 86.351 175.094 83.5324 173.313 77.0949C173.106 76.3411 172.952 75.5444 172.653 74.8192C172.456 74.3477 172.128 73.9476 171.585 73.7761C170.893 73.5582 170.058 73.6403 169.337 73.6296C168.409 73.6153 167.481 73.6046 166.553 73.5903C162.745 73.5367 158.937 73.4796 155.128 73.426C154.607 73.4188 154.09 73.4117 153.569 73.4045C153.33 73.6082 153.026 73.7546 152.655 73.8082C150.103 78.5917 147.948 83.5395 146.217 88.5981C144.389 93.9496 133.653 132.746 132.383 138.326C131.098 143.964 130.077 149.64 129.085 155.317C128.964 156.017 128.842 156.717 128.717 157.417C128.707 157.471 128.753 157.517 128.814 157.514C135.192 157.11 141.58 156.903 147.965 156.885C148.012 156.885 148.055 156.835 148.047 156.796C147.423 152.941 149.643 149.329 150.988 145.764C152.466 141.852 152.63 137.715 153.697 133.729C154.807 129.595 156.624 125.63 157.837 121.518C158.03 120.868 158.212 120.218 158.391 119.564C158.412 119.664 158.437 119.764 158.458 119.864C159.154 122.972 159.311 126.141 159.476 129.309C159.797 135.422 160.086 141.563 159.554 147.69C159.258 151.101 158.701 154.499 157.766 157.828C157.755 157.867 157.791 157.918 157.837 157.921C164.619 158.528 171.468 158.578 178.285 158.068C178.335 158.064 178.367 158.021 178.367 157.978L178.12 137.501Z" fill="#3BB3BD"/>
<path d="M191.322 61.2476C191.03 59.2328 190.473 57.2679 189.884 55.3209C189.27 53.299 188.649 51.277 188.032 49.255C187.553 47.6867 187.168 45.8647 185.901 44.718C184.616 43.5569 182.657 43.1425 181.018 42.746C179.965 42.4924 178.905 42.2852 177.838 42.103C177.738 42.0851 177.642 42.0708 177.542 42.0565C176.992 42.3995 176.225 42.3495 175.604 42.3387C174.951 42.328 174.305 42.2244 173.652 42.2066C172.856 42.1816 172.128 42.3745 171.353 42.5066C169.979 42.7424 168.594 42.8032 167.213 42.9461C165.739 43.0997 164.269 43.2962 162.795 43.4462C162.631 43.4641 162.502 43.3855 162.424 43.2676C162.324 43.2926 162.22 43.3212 162.12 43.3462C160.525 43.7499 158.919 44.1392 157.341 44.6215C155.585 45.1574 141.17 50.6446 140.741 51.2198C140.324 51.7735 140.434 51.3806 140.352 52.0486C140.128 53.9206 139.225 61.294 139.314 61.4262C139.424 61.5941 152.969 60.9975 153.065 61.0618C153.233 61.1726 152.327 74.2155 152.509 74.5192C152.794 75.005 153.483 74.9765 153.968 74.9979C155.821 75.0908 170.847 74.9264 171.796 74.8407C172.463 74.78 172.795 74.6121 173.045 73.969C173.705 72.2828 178.095 65.5667 179.551 62.7587C179.837 63.5947 180.123 64.4342 180.415 65.2666C180.622 65.8596 180.751 66.8135 181.529 66.8778C181.9 66.9063 182.3 66.8063 182.664 66.7563C183.188 66.6813 183.709 66.5991 184.231 66.5098C186.208 66.174 188.167 65.7489 190.105 65.2344C190.83 65.0415 191.501 64.9201 191.536 64.0555C191.569 63.1267 191.454 62.1657 191.322 61.2476Z" fill="white"/>
<path d="M193.203 72.058C192.986 71.9018 192.761 71.7414 192.527 71.5726C191.703 70.9733 190.772 70.2854 189.761 69.53C189.612 69.4202 189.467 69.3105 189.314 69.1923C187.835 68.0824 183.456 66.7775 181.705 66.7775C180.21 65.6295 181.465 63.2036 179.926 62.0176C178.906 61.2284 177.887 60.4434 176.892 59.6711C175.264 58.4092 173.688 57.1937 172.238 56.0795C168.558 53.2434 165.706 51.0868 164.903 50.6268C164.844 50.593 164.78 50.6141 164.738 50.6647C164.674 50.7492 164.61 50.8293 164.542 50.9138C164.521 50.8336 164.385 50.7829 164.317 50.8758C161.095 54.9358 158.065 59.1478 155.239 63.4906C154.568 64.5161 153.909 65.5543 153.267 66.5968C152.838 67.2847 152.417 67.9768 152.001 68.669C151.397 69.6692 150.807 70.6779 150.229 71.695C149.876 72.3112 149.608 72.7923 150.169 73.3705C150.377 73.5858 152.519 75.2444 155.558 77.5867C156.004 77.9286 156.472 78.2873 156.956 78.6629C157.373 78.9794 157.802 79.3086 158.24 79.6505C158.414 79.7855 158.588 79.9206 158.762 80.0556C160.228 81.1825 161.792 82.3853 163.378 83.605C163.522 83.7147 163.662 83.8245 163.803 83.9342C163.888 83.9975 163.968 84.0608 164.053 84.1283C170.335 88.9691 176.743 93.9577 178.507 95.5614C178.562 95.6121 178.656 95.6121 178.694 95.5403C179.527 94.1645 180.364 92.8055 181.197 91.4634C183.084 88.4289 184.971 85.4578 186.858 82.4739C186.956 82.322 187.049 82.1743 187.147 82.0224C189.183 78.8106 191.214 75.5736 193.245 72.2268C193.275 72.1593 193.254 72.0917 193.203 72.058Z" fill="#3D4D5F"/>
<path d="M187.736 76.0091C187.144 76.4163 172.875 81.9822 166.101 83.7827C166.065 83.7934 166.019 83.7862 165.997 83.7505L165.394 82.6859C165.201 82.3644 164.877 81.9572 165.076 81.5678C165.291 81.1498 176.544 73.8656 178.703 72.651C179.499 72.2044 181.494 71.5864 182.037 70.829C182.758 69.8145 182.536 66.9101 182.49 66.7779C182.601 66.76 182.711 66.7422 182.818 66.7243C183.343 66.6493 183.864 66.5671 184.385 66.4778C186.212 66.167 188.029 65.7812 189.824 65.3168C189.824 66.3885 189.867 68.5355 189.617 71.9151C189.51 73.2726 189.407 74.8587 187.736 76.0091Z" fill="#EBB097"/>
<path d="M175.361 41.7172C175.247 41.6993 175.137 41.685 175.022 41.6672C174.844 41.6422 174.662 41.6171 174.483 41.5886C172.342 41.2778 170.122 41.0098 168.038 41.7636C168.002 41.7779 167.988 41.8029 167.984 41.8315C167.663 41.9137 167.342 41.9994 167.02 42.0816C165.621 42.4424 164.222 42.8068 162.823 43.1676C162.691 43.2033 162.556 43.2355 162.423 43.2712C162.324 43.2962 162.22 43.3212 162.12 43.3498C162.234 44.1464 162.655 44.8895 163.273 45.4289C164.265 46.2935 165.607 46.6185 166.899 46.6507C166.96 46.6507 167.02 46.6543 167.078 46.6543C170.079 46.6757 172.795 45.2146 175.308 43.6892C175.586 43.5177 175.861 43.3498 176.136 43.1819C176.639 42.8711 177.142 42.5531 177.642 42.2316C177.71 42.1887 177.774 42.1494 177.838 42.1066C177.01 41.9637 176.186 41.8351 175.361 41.7172Z" fill="#EBB097"/>
<path d="M169.541 80.0386C169.155 79.7528 168.898 79.6314 168.466 79.4277C168.57 79.3992 168.673 79.3599 168.777 79.3134C168.88 79.267 168.83 79.0919 168.723 79.1384C167.695 79.6099 166.618 79.5814 165.55 79.4099C164.605 79.2598 163.752 79.0419 162.852 79.4778C162.36 79.7171 161.878 79.985 161.392 80.2423C161.028 80.4316 159.24 81.4212 158.298 82.007C157.916 82.2428 157.748 82.7465 157.973 83.1324C157.973 83.1324 157.973 83.1359 157.977 83.1359C158.027 83.3288 158.209 83.4146 158.398 83.4467C158.73 83.5075 159.447 83.2038 159.769 83.0288C159.936 82.9359 160.179 82.8108 160.382 82.6644C160.386 82.6679 160.39 82.6715 160.393 82.6751C160.432 82.7322 160.475 82.7858 160.514 82.843C159.836 83.2824 159.347 83.5253 159.126 83.8504C158.833 84.6757 159.801 84.7435 160.275 84.7114C160.457 84.6971 160.532 84.9007 160.468 85.04C160.033 86.0117 161.382 86.0868 161.881 86.0439C161.971 86.0368 162.078 86.1153 162.096 86.2047C162.199 86.7727 162.627 87.087 163.07 86.9191C163.127 86.8906 163.184 86.8584 163.245 86.8263C163.345 86.7584 168.377 84.0862 168.534 83.7968C168.827 83.2503 169.134 82.7144 169.459 82.1857C169.633 81.8963 169.815 81.6141 170.001 81.3319C170.097 81.189 170.276 81.0175 170.279 80.8317C170.29 80.4995 169.766 80.203 169.541 80.0386Z" fill="#EBB097"/>
<path d="M132.815 34.5545C132.765 33.8722 132.786 33.1755 132.736 32.4932C132.704 32.0502 132.69 30.8142 131.594 30.139C131.151 29.8639 130.716 29.5781 130.291 29.278C129.731 28.8779 129.349 28.3563 128.907 27.8419C128.739 27.649 128.525 27.4632 128.278 27.6597C127.993 27.8883 128.093 28.3742 128.196 28.6636C128.418 29.2673 128.874 29.8139 129.392 30.2854C128.849 30.2533 128.343 30.164 127.789 30.0568C127.739 30.0497 127.693 30.0461 127.643 30.0389C127.186 29.8103 126.769 29.5317 126.451 29.0994C126.076 28.5921 125.851 27.9919 125.652 27.3989C125.537 27.0703 125.116 26.1486 124.699 26.8095C124.502 27.1238 124.72 27.5883 124.823 27.8883C125.002 28.4028 125.23 28.9029 125.498 29.378C125.687 29.7138 125.869 30.0032 126.069 30.2533C125.445 29.7531 124.913 29.1601 124.502 28.4671C124.056 27.7061 123.838 26.8452 123.435 26.0664C123.3 25.802 123.046 25.4555 122.696 25.6163C122.379 25.7627 122.411 26.2093 122.479 26.563C122.357 26.5165 122.222 26.5773 122.082 26.8309C121.636 27.6347 122.407 28.8743 122.746 29.5781C123.157 30.4212 123.678 31.2 124.449 31.7037C124.384 31.7573 124.324 31.8109 124.26 31.868C123.235 31.1321 122.507 30.1104 122.118 28.8922C122.05 28.6778 121.426 26.6951 120.965 27.6311C120.801 27.9634 121.055 28.5671 121.137 28.885C121.308 29.5281 121.536 30.1533 121.818 30.7534C122.222 31.6144 122.839 32.4503 123.956 33.0184C125.584 33.8507 127.743 34.6867 129.388 35.4905C129.463 35.5405 129.513 35.5619 129.553 35.5726C129.602 35.5905 129.635 35.5976 129.681 35.6191C129.824 35.687 129.938 35.5012 129.845 35.4083C130.948 35.194 131.637 34.8296 132.75 34.6867C132.765 34.6867 132.775 34.6831 132.786 34.676C132.822 34.6545 132.818 34.6152 132.815 34.5545Z" fill="#EBB097"/>
<path d="M186.284 41.2348C186.148 40.674 185.941 40.1631 185.677 39.6808C185.627 39.5844 185.573 39.4879 185.513 39.395C185.227 38.9199 184.881 38.4769 184.495 38.0482C184.199 37.7231 183.917 37.373 183.81 36.9372C183.692 36.4478 183.767 35.9476 183.885 35.4689C184.057 34.7652 184.285 34.0864 184.385 33.3648C184.553 32.1823 184.503 30.9712 184.249 29.8066C184.231 29.7245 184.214 29.6423 184.196 29.5601C183.882 28.2562 183.311 27.0094 182.504 25.9377C182.058 25.3447 181.462 24.7838 181.333 24.0229C181.208 23.3048 181.476 22.5689 181.423 21.8437C181.251 19.4037 179.295 17.4174 177.054 16.6815C175.551 16.1885 173.906 16.7994 172.382 16.4243C162.424 13.9808 163.392 23.5334 163.449 23.5549C164.309 23.9085 167.642 24.1729 169.327 22.9226C169.869 23.7907 170.683 22.0723 170.83 23.069C171.054 24.5909 171.361 26.3521 172.828 27.1809C173.653 27.6489 174.731 27.8275 175.095 28.8278C175.462 29.8281 175.012 30.8926 174.545 31.7715C174.077 32.6431 173.606 33.4755 173.467 34.4686C173.342 35.3868 173.449 36.3227 173.649 37.223C173.906 38.3769 174.306 39.4986 174.673 40.6239C174.731 40.8061 174.834 41.3063 175.016 41.6635C175.105 41.8386 175.212 41.9815 175.341 42.0351C175.344 42.0386 175.352 42.0386 175.359 42.0422C175.373 42.0529 175.387 42.0601 175.409 42.0601C176.033 42.0922 176.647 42.1351 177.254 42.1887C177.379 42.1994 177.507 42.2137 177.632 42.2244C178.717 42.3316 179.791 42.4852 180.887 42.7138C180.923 42.721 180.955 42.7281 180.991 42.7353C180.998 42.7353 181.005 42.7388 181.012 42.7388C181.219 42.7817 181.437 42.8317 181.651 42.8817C182.126 42.9925 182.611 43.1211 183.068 43.2711H183.071C183.232 43.3211 183.389 43.3783 183.543 43.439C184.478 43.7963 185.216 44.2607 185.995 44.8751C186.041 44.8894 186.091 44.9573 186.127 44.9394C186.137 44.9359 186.144 44.9252 186.152 44.9037C186.541 43.7212 186.583 42.453 186.284 41.2348Z" fill="#B28F98"/>
<path d="M157.973 48.1549C156.299 52.0131 150.892 55.3962 152.68 60.1904C152.762 60.4083 153.112 60.3118 153.03 60.0904C151.295 55.4426 156.649 52.1131 158.287 48.3371C158.384 48.1227 158.07 47.9405 157.973 48.1549Z" fill="#647B92"/>
<path d="M178.438 55.4387C178.385 55.2101 178.035 55.3101 178.089 55.5388C178.463 57.1714 178.813 58.8075 179.138 60.4509C179.184 60.6795 179.534 60.5795 179.488 60.3508C179.166 58.7075 178.817 57.0713 178.438 55.4387Z" fill="#647B92"/>
<path d="M161.656 83.8968C161.391 84.0682 161.131 84.2361 160.867 84.4076C160.67 84.5362 160.856 84.847 161.052 84.722C161.316 84.5505 161.577 84.3826 161.841 84.2111C162.037 84.0825 161.855 83.7682 161.656 83.8968Z" fill="#D7997F"/>
<path d="M162.941 85.1543C162.701 85.3115 162.462 85.4687 162.223 85.6259C162.027 85.7545 162.213 86.0689 162.409 85.9403L163.126 85.4687C163.322 85.3401 163.137 85.0257 162.941 85.1543Z" fill="#D7997F"/>
<path d="M167.034 79.5206C167.013 79.5099 166.991 79.5027 166.966 79.4992C166.124 79.417 165.303 79.1169 164.472 78.924C163.79 78.7668 163.101 78.6811 162.391 78.849C161.673 79.0169 160.96 79.3884 160.289 79.6849C159.86 79.8778 158.668 80.2315 158.465 80.6995C158.222 81.2604 158.847 81.3532 159.446 81.3247C159.835 81.3068 160.21 81.2389 160.331 81.2211C161.663 80.9853 162.962 80.6209 164.182 80.06C164.507 79.91 164.828 79.7492 165.139 79.5706C165.178 79.5456 165.2 79.517 165.214 79.4849C165.789 79.6385 166.363 79.8064 166.966 79.8635C167.177 79.885 167.198 79.5956 167.034 79.5206Z" fill="#EBB097"/>
<path d="M125.483 30.7033C124.402 30.121 123.885 29.0243 123.449 27.9311C123.363 27.7168 123.014 27.8132 123.099 28.0311C123.57 29.2136 124.134 30.3925 125.301 31.0213C125.508 31.1284 125.69 30.8141 125.483 30.7033Z" fill="#D7997F"/>
<path d="M131.144 34.1969C130.983 33.4789 130.605 32.7715 129.88 32.4965C129.395 32.3143 128.863 32.3786 128.356 32.3822C127.553 32.3857 126.786 32.325 126.022 32.0606C125.801 31.982 125.708 32.3357 125.929 32.4143C126.725 32.693 127.521 32.7537 128.36 32.7501C128.906 32.7465 129.448 32.6787 129.937 32.9609C130.448 33.2538 130.669 33.7361 130.794 34.297C130.844 34.5256 131.194 34.4256 131.144 34.1969Z" fill="#D7997F"/>
<path d="M173.784 28.6526C173.427 28.699 173.152 28.8955 172.977 29.2099C172.774 29.5671 172.802 30.2495 172.442 30.4817C172.246 30.6067 172.431 30.9211 172.628 30.7961C173.241 30.3995 172.959 29.1242 173.788 29.017C174.016 28.9884 174.016 28.624 173.784 28.6526Z" fill="#D7997F"/>
<path d="M173.334 32.5039C173.163 32.6898 172.873 32.6934 172.702 32.5074C172.542 32.3358 172.288 32.5968 172.449 32.7685C172.752 33.094 173.298 33.0868 173.594 32.7614C173.751 32.5861 173.494 32.3286 173.334 32.5039Z" fill="#D7997F"/>
<path d="M158.622 114.373C158.062 111.805 157.502 109.232 156.938 106.664C156.888 106.435 156.538 106.535 156.588 106.764C157.148 109.332 157.709 111.905 158.272 114.473C158.322 114.702 158.672 114.602 158.622 114.373Z" fill="white" stroke="white" stroke-width="0.770781"/>
<path d="M164.123 32.636C164.112 32.7182 164.098 32.8003 164.087 32.8789C164.073 32.9718 164.059 33.0611 164.037 33.1504C163.955 33.597 163.848 34.04 163.723 34.4758C163.673 34.6508 163.641 35.0724 163.438 35.1546C163.223 35.2439 163.081 34.9866 162.984 34.8473C162.706 34.4436 162.438 34.3329 162.32 33.8542C162.292 33.7292 162.353 33.5612 162.431 33.4112C162.524 33.2326 162.638 33.0861 162.638 33.0861C162.638 33.0861 162.627 32.8789 162.645 32.7539C162.645 32.7503 162.645 32.7467 162.645 32.7432C162.438 32.5931 162.228 32.4181 162.213 32.2109C162.199 32.0322 162.306 31.8751 162.395 31.7286C162.577 31.4249 162.674 31.132 162.685 30.7926C162.649 30.789 162.617 30.7855 162.581 30.7783C162.338 30.7355 161.996 30.7283 161.785 30.5783C161.385 30.2925 161.617 29.6816 161.821 29.3422C162.196 28.7242 162.731 28.2312 163.084 27.5917C163.488 26.8522 163.737 26.0449 163.841 25.2089C163.855 25.0946 164.037 25.091 164.023 25.2089C163.948 25.8448 163.784 26.4664 163.538 27.0559C163.584 27.0344 163.645 27.0523 163.662 27.1094C163.727 27.3345 163.687 27.6024 163.684 27.8382C163.684 27.974 163.684 28.1133 163.684 28.249C164.234 29.6351 164.33 31.1499 164.123 32.636Z" fill="#EBB097"/>
<path d="M165.57 32.7013C165.399 32.8448 165.117 33.2593 164.902 33.3887C164.118 33.875 163.183 33.963 162.292 33.815C162.509 33.2888 162.527 33.2228 162.555 32.6721C162.995 32.6554 163.432 32.6086 163.873 32.5311C164.229 32.4615 164.659 32.2755 165.054 32.2326C165.193 32.2136 165.334 32.2126 165.46 32.2434C165.71 32.2991 165.758 32.5439 165.57 32.7013Z" fill="white"/>
<path d="M167.816 27.3952C167.716 27.3381 165.607 25.9877 165.632 26.127C165.725 26.6486 165.964 27.063 166.424 27.2595C166.567 27.3202 166.592 27.3631 166.746 27.3952C166.464 27.4631 166.2 27.4988 165.978 27.8632C165.925 27.9525 166.171 27.8739 166.321 27.8418C166.339 27.8382 167.756 27.5453 167.763 27.5346C167.766 27.5381 167.848 27.4131 167.816 27.3952Z" fill="#1F2144"/>
<path d="M125.805 14.3881C123.97 14.9597 122.536 15.492 122.307 16.0279C122.079 16.5637 123.678 31.793 124.452 31.6894C125.227 31.5858 131.872 29.7496 132.101 29.1208C132.329 28.4885 130.209 13.4128 129.524 13.3557C128.839 13.2985 125.805 14.3881 125.805 14.3881Z" fill="white"/>
<path d="M129.324 15.3383L123.682 17.2031L125.288 28.8027L131.209 27.1952L129.324 15.3383Z" fill="#B6DADD"/>
<path d="M175.869 25.9307C178.103 27.2132 179.106 32.2289 176.786 35.0975C174.466 37.9662 170.105 35.5727 169.641 32.3718C169.102 28.6207 170.222 22.6869 175.869 25.9307Z" fill="white"/>
<path d="M168.05 15.5526C168.05 15.5526 170.388 15.5561 171.651 18.7642C172.504 20.9219 173.939 26.3235 173.939 26.3235L171.376 27.0772C171.376 27.0772 171.019 21.8579 169.659 19.3429C168.132 16.5136 165.173 17.0566 165.173 17.0566C165.173 17.0566 164.588 15.2882 168.05 15.5526Z" fill="white"/>
<path d="M174.66 26.8451C176.041 27.3059 177.379 29.4208 176.612 32.3717C175.845 35.3225 172.065 35.1689 171.287 32.2823C170.516 29.3958 172.418 26.0985 174.66 26.8451Z" fill="#B6DADD"/>
<path d="M127.111 31.4501C128.838 33.9936 129.452 37.216 129.966 40.1989C130.644 44.1179 130.598 47.9761 129.313 51.77C127.104 58.2933 123.431 64.7487 124.102 71.8721C124.748 78.7526 128.638 85.0794 132.704 90.4666C134.881 93.3496 137.215 96.0575 138.325 99.562C139.267 102.541 139.51 105.732 139.206 108.836C138.942 111.544 138.261 116.249 135.088 117.085C132.108 117.867 129.549 114.12 128.303 111.93C124.894 105.935 124.613 98.7368 126.415 92.1885C128.257 85.5081 132.05 79.317 137.058 74.5479C141.894 69.9394 147.715 66.5635 153.361 63.0696C156.163 61.337 158.918 59.5579 161.774 57.9146C164.318 56.4463 166.888 54.9459 169.09 52.9811C173.652 48.9121 175.447 42.2174 173.48 36.3657C173.37 36.0406 172.852 36.1799 172.963 36.5086C174.162 40.0739 173.905 44.6145 172.285 48.0226C170.975 50.7805 168.644 52.8632 166.174 54.5744C163.712 56.2784 161.046 57.661 158.483 59.2078C155.678 60.8976 152.937 62.6981 150.149 64.42C144.307 68.0246 138.414 71.8078 133.914 77.0807C129.581 82.1607 126.379 88.4625 125.219 95.0608C124.145 101.166 124.952 107.736 128.339 113.03C129.509 114.859 131.155 116.999 133.357 117.588C135.441 118.149 137.176 116.778 138.136 115.027C140.788 110.194 140.331 102.988 138.346 98.0437C137.015 94.7285 134.517 92.0385 132.414 89.1984C130.066 86.0225 128.017 82.6287 126.511 78.9705C124.637 74.4228 124.091 69.8537 125.212 65.0416C126.219 60.7118 128.096 56.6857 129.609 52.5238C131.005 48.687 131.251 44.7574 130.598 40.7419C130.07 37.4982 129.452 33.9508 127.571 31.1785C127.382 30.8963 126.918 31.1643 127.111 31.4501Z" fill="white"/>
<path d="M128.825 28.3135C128.211 28.6743 127.826 29.0422 128.193 29.7067C128.561 30.3712 130.067 29.6281 129.881 29.0101C129.692 28.3921 129.2 28.092 128.825 28.3135Z" fill="#B6DADD"/>
<path d="M162.964 184.462C162.811 184.402 162.554 184.455 162.379 184.47L161.29 184.555C158.596 184.773 155.901 184.995 153.21 185.209C153.321 185.034 153.428 184.859 153.538 184.687C153.553 184.662 153.571 184.637 153.588 184.609C153.799 184.277 154.01 183.944 154.22 183.609C154.281 183.509 154.12 183.444 154.056 183.544L153.339 184.68L153.256 184.813L152.996 185.227C152.725 185.248 152.453 185.27 152.186 185.291C152.121 185.298 152.057 185.302 151.993 185.309C151.914 185.316 151.879 185.381 151.897 185.423C151.904 185.452 151.932 185.477 151.982 185.47C152.286 185.445 152.589 185.42 152.892 185.398C150.879 188.589 148.87 191.775 146.857 194.969C146.429 195.648 146.004 196.323 145.572 197.002C145.515 197.091 145.458 197.184 145.401 197.273C144.719 198.359 144.034 199.445 143.349 200.528C143.342 200.542 143.334 200.553 143.327 200.563C142.328 202.146 141.332 203.728 140.329 205.315C140.301 205.358 140.311 205.425 140.379 205.429C141.925 205.447 143.449 205.54 144.948 205.711C144.99 205.715 144.826 205.179 144.855 205.147C145.968 203.857 147.103 202.625 148.245 201.406C148.634 200.992 149.027 200.581 149.416 200.17C150.126 199.42 150.84 198.677 151.55 197.923C152.375 197.052 153.196 196.173 154.006 195.273C154.47 194.762 154.927 194.244 155.384 193.715C157.082 191.75 158.781 189.782 160.48 187.813C160.894 187.335 161.312 186.856 161.726 186.374C161.936 186.134 162.14 185.895 162.35 185.656C162.572 185.398 162.896 185.113 163.05 184.834C163.136 184.677 163.146 184.537 162.964 184.462Z" fill="#755462"/>
<path d="M143.714 186.649C143.56 186.581 143.303 186.631 143.125 186.641C142.761 186.659 142.4 186.684 142.036 186.702C139.338 186.859 136.64 187.013 133.938 187.167C134.288 186.641 134.638 186.116 134.987 185.588C135.055 185.491 134.891 185.423 134.823 185.52L133.72 187.177C133.385 187.195 133.049 187.213 132.714 187.235C132.585 187.242 132.571 187.402 132.7 187.395C133.003 187.381 133.306 187.36 133.61 187.345C131.608 190.36 129.605 193.376 127.603 196.391C126.879 197.48 126.154 198.57 125.433 199.659C125.312 199.842 125.19 200.024 125.069 200.206C124.619 200.888 124.166 201.567 123.713 202.249C123.706 202.264 123.698 202.274 123.688 202.285C122.653 203.846 121.614 205.404 120.579 206.961C120.551 207.008 120.558 207.076 120.629 207.076C121.464 207.104 122.289 207.158 123.106 207.233C123.806 207.294 124.502 207.372 125.187 207.469C125.23 207.476 125.076 206.933 125.108 206.901C126.25 205.64 127.414 204.432 128.585 203.246C128.638 203.189 128.692 203.135 128.749 203.078C129.687 202.132 130.63 201.192 131.565 200.245C131.697 200.117 131.825 199.984 131.954 199.852C133.281 198.513 134.606 197.152 135.901 195.719C137.129 194.361 138.357 193.008 139.588 191.65C140.106 191.078 140.623 190.507 141.141 189.939C141.565 189.471 141.99 188.999 142.418 188.528C142.629 188.292 142.843 188.06 143.054 187.824C143.286 187.57 143.617 187.295 143.775 187.02C143.874 186.863 143.892 186.731 143.714 186.649Z" fill="#755462"/>
<path d="M148.31 201.428C148.285 201.424 148.263 201.421 148.242 201.414C146.122 201.021 145.162 200.806 143.324 200.574C143.277 200.567 143.227 200.563 143.177 200.556C143.081 200.546 142.985 200.86 142.681 201.264C140.458 203.361 138.384 204.611 135.679 206.036C135.008 206.39 134.326 206.722 133.634 207.03C132.941 207.337 132.22 207.587 131.553 207.948C131.018 208.233 130.507 208.641 130.175 209.137C129.872 209.595 129.715 210.13 129.825 210.727C129.833 210.763 129.854 210.784 129.879 210.798C129.893 210.806 129.911 210.809 129.933 210.809C130.057 210.802 130.193 210.791 130.336 210.784C134.062 210.556 143.513 209.977 145.115 209.88C145.601 209.852 146.254 209.937 146.547 209.462C146.721 209.18 146.782 208.812 146.882 208.501C146.911 208.412 146.971 208.141 147.053 207.748C147.35 206.351 147.924 203.404 148.36 201.553C148.374 201.507 148.363 201.439 148.31 201.428Z" fill="#755462"/>
<path d="M128.659 203.26C128.634 203.257 128.613 203.25 128.592 203.246C127.524 203.021 126.754 202.85 126.015 202.7C125.294 202.553 124.601 202.424 123.695 202.289C123.648 202.282 123.602 202.274 123.552 202.267C123.456 202.253 123.352 202.571 123.038 202.964C120.765 205.007 118.662 206.208 115.925 207.572C115.247 207.908 114.554 208.226 113.855 208.515C113.155 208.805 112.427 209.037 111.753 209.38C110.893 209.816 110.09 210.545 109.954 211.498C109.95 211.498 109.95 211.502 109.954 211.506C109.925 211.702 109.929 211.906 109.961 212.12C109.972 212.174 110.015 212.202 110.068 212.202C112.299 212.12 117.438 211.927 121.175 211.788C123.127 211.716 124.698 211.656 125.269 211.634C125.754 211.616 126.404 211.72 126.711 211.248C126.889 210.97 126.964 210.605 127.068 210.298C127.11 210.18 127.21 209.766 127.346 209.173C127.692 207.68 128.27 205.075 128.709 203.389C128.72 203.339 128.713 203.271 128.659 203.26Z" fill="#755462"/>
<path d="M175.76 161.513C170.088 158.305 162.343 155.936 159.592 156.822C158.364 157.219 157.154 157.698 156.04 158.355C154.923 159.016 153.953 159.866 153.078 160.823C151.154 162.931 149.445 165.257 147.671 167.493C145.762 169.897 127.367 193.997 123.212 199.409C123.169 199.463 123.219 199.552 123.287 199.556C128.559 199.717 131.1 200.517 136.817 200.427C136.857 200.427 136.903 200.402 136.91 200.363C137.228 199.024 137.877 197.78 138.82 196.773C139.758 195.773 140.936 195.137 142.168 194.569C143.317 194.04 144.384 193.375 145.476 192.718C147.935 191.239 148.189 187.856 149.816 186.363C151.708 184.627 154.506 184.805 156.562 183.333C160.131 180.772 158.442 179.139 161.519 176.124C162.511 175.153 163.703 174.424 164.831 173.624C165.948 172.83 166.915 171.937 167.743 170.844C168.586 169.737 169.35 168.572 170.195 167.465C170.984 166.432 171.798 165.425 172.615 164.417C175.453 160.92 179.279 163.503 175.76 161.513Z" fill="#F26B5C"/>
<path d="M235.086 94.5552C234.429 94.0408 233.63 93.8229 232.816 93.805C232.62 93.3013 232.391 92.8083 232.145 92.3296C231.695 91.4579 231.156 90.6113 230.396 89.9789C227.619 87.6676 223.575 88.7071 221.491 91.3972C220.117 92.3296 218.754 93.2477 217.822 94.6267C216.812 96.1164 216.619 100.05 216.494 102.697C216.37 105.398 216.609 110.152 216.969 111.514C217.215 112.439 217.669 113.461 218.6 113.871C219.649 114.336 221.841 114.139 222.912 113.839C222.665 116.351 221.513 122.838 221.994 126.114C222.002 126.171 222.059 126.225 222.119 126.2C223.786 125.51 225.453 124.817 227.12 124.128C227.944 123.785 228.79 123.47 229.6 123.095C230.193 122.824 230.003 122.424 230.085 121.834C230.756 116.997 231.313 113.01 232.059 109.827C232.734 106.937 234.479 104.465 235.618 101.757C236.528 99.5816 237.274 96.2664 235.086 94.5552Z" fill="#856170"/>
<path d="M225.343 169.637C225.293 168.715 224.39 168.044 223.779 167.454C222.919 166.625 222.045 165.807 221.138 165.032C220.399 164.4 219.661 164.021 218.672 164.171C217.608 164.332 216.545 164.753 215.542 165.125C214.828 165.389 214.121 165.682 213.425 165.997C207.558 163.135 201.68 160.281 195.609 157.873C192.525 156.651 189.391 155.547 186.204 154.629C184.659 154.183 183.103 153.783 181.536 153.429C180.03 153.089 178.481 152.729 176.928 152.797C174.241 152.914 172.217 154.679 170.586 156.665C168.609 159.07 166.838 161.663 165.072 164.221C161.413 169.515 157.969 174.956 154.45 180.347C150.92 185.756 143.804 196.595 143.861 196.612C146.234 197.366 156.72 198.552 157.309 198.724C157.744 198.849 158.205 198.945 158.654 198.842C160.485 198.416 160.689 195.873 161.003 194.401C161.403 192.54 161.606 192.615 163.116 191.5C164.458 190.511 166.153 189.635 168.03 187.17C169.13 185.724 169.744 183.887 170.572 182.269C170.982 181.465 171.467 180.697 172.088 180.04C172.795 179.293 173.666 178.782 174.583 178.332C175.386 177.939 176.211 177.578 176.95 177.068C177.289 176.835 177.603 176.571 177.881 176.267C178.252 175.864 178.566 175.371 179.095 175.164C180.187 174.738 181.568 175.671 182.528 176.107C183.613 176.6 184.705 177.082 185.797 177.557C190.205 179.458 201.99 184.916 204.267 185.716C208.379 187.16 210.067 186.824 212.233 186.36C214.093 185.959 215.967 184.177 217.287 182.862C218.772 181.387 220.107 179.751 221.288 178.025C222.516 176.235 223.576 174.331 224.45 172.345C224.65 171.888 224.843 171.427 225.025 170.962C225.182 170.541 225.368 170.094 225.343 169.637Z" fill="#F26B5C"/>
<path d="M240.529 143.215C240.065 145.501 239.326 147.731 238.312 149.831C237.316 151.903 236.028 153.811 234.797 155.744C234.411 156.351 234.029 156.962 233.665 157.583C233.601 157.691 233.537 157.801 233.476 157.908C232.72 159.23 232.052 160.602 231.585 162.06C230.981 163.967 230.696 165.968 230.078 167.868C230.032 168.015 229.982 168.161 229.929 168.308C229.886 168.433 229.836 168.561 229.786 168.686C229.771 168.722 229.761 168.754 229.746 168.79C229.332 169.83 228.772 170.776 228.065 171.637C227.33 172.538 226.492 173.349 225.742 174.238C224.2 176.067 223.029 178.175 222.262 180.436C222.241 180.504 222.137 180.515 222.102 180.458C220.649 178.268 219.193 176.078 217.637 173.956C216.252 172.07 214.785 170.24 213.179 168.54C211.526 166.79 209.692 165.289 207.85 163.753C207.368 163.349 206.583 162.899 205.67 162.413C205.573 162.36 205.477 162.31 205.377 162.256C203.003 161.002 199.959 159.53 199.224 158.055C194.873 155.483 196.251 153.643 191.718 151.396C191.004 151.046 190.348 150.581 190.562 149.692C190.826 148.595 191.34 147.509 191.747 146.459C192.625 144.19 199.913 129.497 201.137 127.761C202.265 126.157 203.582 124.649 205.195 123.513C206.994 122.248 209.082 121.67 211.198 121.18C214.321 120.459 216.48 119.78 219.121 119.326C219.246 119.305 219.371 119.283 219.496 119.265C220.367 119.126 221.295 119.008 222.33 118.926C222.398 118.987 222.473 119.04 222.562 119.083C223.897 119.673 225.164 119.237 226.463 118.769C227.241 118.49 227.791 118.458 228.597 118.633C229.158 118.758 229.654 118.79 230.182 118.69C230.557 119.394 230.974 120.073 231.428 120.727C231.499 120.834 231.574 120.941 231.652 121.045C232.455 122.173 233.366 123.234 234.322 124.242C235.221 125.185 236.167 126.089 237.127 126.975C238.03 127.811 238.976 128.64 239.619 129.704C239.622 129.711 239.629 129.718 239.633 129.722C239.697 129.833 239.761 129.94 239.818 130.051C240.789 131.894 240.964 134.202 241.06 136.238C241.064 136.277 241.064 136.32 241.064 136.36C241.064 136.374 241.064 136.392 241.068 136.406C241.168 138.699 240.982 140.982 240.529 143.215Z" fill="white"/>
<path d="M231.395 120.366C231.259 119.966 231.12 119.569 230.981 119.169C230.881 118.876 230.803 118.405 230.606 118.147C230.599 118.133 230.588 118.122 230.581 118.112C230.406 117.908 230.149 117.933 229.896 117.919L228.6 117.844C228.104 117.815 227.612 117.787 227.119 117.762C227.094 117.762 227.062 117.765 227.016 117.772C226.545 117.876 225.056 118.59 224.553 118.958C224.503 118.908 224.453 118.855 224.403 118.805C224.118 118.526 223.829 118.251 223.529 117.987C223.258 117.747 222.961 117.412 222.637 117.24C222.587 117.215 222.537 117.197 222.487 117.187C222.073 117.104 221.684 117.554 221.38 117.801C220.934 118.169 220.524 118.565 220.145 118.994C220.081 119.066 220.02 119.133 219.963 119.209C219.92 119.259 219.878 119.309 219.838 119.359C219.806 119.398 219.813 119.444 219.838 119.473C219.788 119.512 219.774 119.601 219.849 119.641C219.885 119.659 219.92 119.673 219.956 119.687C220.217 119.794 220.477 119.83 220.763 119.873C221.202 119.941 221.619 120.066 222.03 120.237C222.058 120.252 222.09 120.262 222.119 120.277C222.44 120.416 222.751 120.57 223.061 120.723C223.193 120.788 223.325 120.852 223.457 120.913C223.511 120.941 223.564 120.963 223.622 120.988C223.736 121.038 223.854 121.088 223.971 121.138C224 121.148 224.028 121.159 224.061 121.17C224.136 121.198 224.21 121.227 224.285 121.252C224.368 121.281 224.457 121.309 224.539 121.334C224.746 121.398 224.956 121.452 225.167 121.495C226.284 121.734 227.451 121.734 228.583 121.57C229.118 121.491 229.653 121.373 230.174 121.227C230.281 121.195 230.389 121.166 230.496 121.13C230.56 121.113 230.621 121.091 230.685 121.073C231.002 120.97 231.299 120.934 231.402 120.759C231.409 120.745 231.42 120.73 231.424 120.716C231.452 120.634 231.449 120.523 231.395 120.366Z" fill="white"/>
<path d="M168.401 159.298C164.094 165.103 159.836 170.944 155.631 176.824C155.489 177.024 155.788 177.26 155.931 177.06C160.136 171.18 164.393 165.339 168.701 159.534C168.844 159.337 168.548 159.102 168.401 159.298Z" fill="white"/>
<path d="M180.924 169.09C180.991 167.836 180.659 166.429 180.902 165.214C180.949 164.975 180.574 164.921 180.527 165.161C180.285 166.389 180.613 167.779 180.549 169.037C180.481 170.369 180.267 171.68 179.949 172.973C179.892 173.209 180.267 173.263 180.324 173.027C180.642 171.73 180.852 170.419 180.924 169.09Z" fill="white"/>
<path d="M178.776 170.602C178.551 172.084 178.069 173.463 177.323 174.76C177.202 174.971 177.551 175.121 177.673 174.91C178.433 173.577 178.922 172.166 179.15 170.652C179.19 170.412 178.811 170.359 178.776 170.602Z" fill="white"/>
<path d="M231.663 121.063C230.703 121.456 229.743 121.849 228.783 122.238C227.919 122.592 226.97 123.145 226.053 123.338C224.814 123.599 224.229 121.666 223.89 120.691C223.14 121.063 222.391 121.495 221.613 121.784C221.245 121.924 220.885 122.013 220.506 121.834C219.714 121.459 219.364 120.259 219.125 119.337C219.25 119.316 219.375 119.294 219.5 119.276C219.785 120.323 220.242 121.698 221.452 121.438C222.262 121.263 223.165 120.612 223.915 120.252C224 120.209 224.132 120.248 224.165 120.345C224.372 120.913 224.582 121.598 224.925 122.102C225.749 123.31 226.574 122.724 227.577 122.317C228.861 121.791 230.146 121.266 231.431 120.741C231.51 120.852 231.585 120.959 231.663 121.063Z" fill="#556D84"/>
<path d="M224.024 120.998C222.358 125.053 220.991 129.211 219.899 133.455C219.485 135.07 219.063 136.713 218.239 138.178C217.518 139.453 216.49 140.504 215.451 141.522C214.37 142.583 213.242 143.633 212.436 144.926C211.436 146.541 211.136 148.431 210.858 150.278C210.626 151.818 210.476 153.589 209.723 154.986C209.373 155.633 208.82 155.897 208.263 156.333C207.532 156.901 207.093 157.705 206.793 158.566C206.386 159.738 206.172 161.181 205.679 162.421C205.583 162.367 205.487 162.317 205.387 162.263C206.143 160.366 206.183 157.873 207.578 156.433C208.246 155.747 209.099 155.486 209.509 154.547C209.855 153.757 210.034 152.886 210.191 152.046C210.498 150.41 210.626 148.735 211.087 147.127C211.918 144.212 214.085 142.454 216.094 140.343C217.265 139.114 218.157 137.764 218.728 136.16C219.317 134.516 219.667 132.787 220.138 131.108C221.116 127.621 222.301 124.199 223.678 120.848C223.771 120.623 224.117 120.773 224.024 120.998Z" fill="#556D84"/>
<path d="M218.703 157.226C218.568 157.158 218.353 157.051 218.075 156.912C216.323 156.026 212.118 153.872 210.38 153.172C210.23 153.111 210.098 153.061 209.991 153.025C209.93 153.004 209.873 152.986 209.827 152.975C208.742 152.689 207.643 152.625 206.529 152.807C205.494 152.979 204.495 153.322 203.531 153.765C202.303 154.325 201.122 155.04 199.973 155.744C199.916 155.779 199.898 155.851 199.937 155.908C200.665 156.919 201.854 156.258 202.699 155.801C203.056 155.608 203.424 155.436 203.799 155.286C204.63 154.958 205.494 154.747 206.376 154.647C205.558 155.086 204.734 155.515 203.92 155.954C203.281 156.297 202.642 156.648 202.018 157.019C201.9 157.087 201.779 157.158 201.661 157.23C201.34 157.423 200.883 157.816 201.208 158.237C201.536 158.666 202.293 158.452 202.696 158.323C202.978 158.23 203.627 157.98 204.366 157.673C205.598 157.162 207.086 156.497 207.561 156.158C207.586 156.14 207.675 156.169 207.81 156.222C207.914 156.265 208.046 156.322 208.192 156.394C208.628 156.601 209.209 156.901 209.688 157.141C210.455 157.523 211.137 158.091 211.933 158.419C212.646 158.712 213.46 158.827 214.174 158.441C214.178 158.441 214.178 158.441 214.181 158.437C215.098 158.97 215.969 159.856 216.919 160.409C217.176 160.559 217.436 160.684 217.707 160.77C217.772 160.792 217.825 160.749 217.839 160.681C218.025 159.82 218.56 158.219 218.767 157.366C218.775 157.305 218.757 157.255 218.703 157.226Z" fill="#755462"/>
<path d="M240.443 160.341C240.553 159.323 240.592 158.302 240.564 157.28C240.55 156.726 240.518 156.176 240.493 155.626C240.482 155.397 240.471 155.165 240.46 154.933C240.439 154.4 240.421 153.865 240.428 153.332C240.432 152.693 240.464 152.057 240.546 151.41C240.678 150.392 240.849 149.381 240.996 148.37C240.999 148.363 240.999 148.359 240.999 148.352C241.028 148.159 241.056 147.963 241.081 147.77C241.167 147.159 241.235 146.541 241.278 145.919C241.281 145.866 241.285 145.809 241.288 145.755C241.403 143.922 241.367 142.083 241.253 140.25C241.253 140.243 241.253 140.232 241.253 140.225C241.231 139.903 241.217 139.582 241.203 139.264C241.16 138.314 241.128 137.374 241.074 136.428C241.071 136.413 241.071 136.399 241.071 136.381C241.039 135.795 240.989 135.209 240.924 134.62C240.817 133.68 240.671 132.594 240.161 131.751C239.925 131.362 239.611 131.022 239.19 130.772C238.929 130.619 238.658 130.512 238.38 130.444C238.33 130.429 238.28 130.419 238.23 130.412C237.655 130.301 237.059 130.358 236.484 130.512C236.042 130.626 235.617 130.801 235.217 131.008C235.135 131.051 235.05 131.097 234.964 131.144L234.921 131.169C234.554 131.373 234.193 131.59 233.84 131.83C232.994 132.394 232.194 133.044 231.456 133.723C231.081 134.066 230.72 134.427 230.371 134.798C230.246 134.931 230.121 135.066 229.999 135.206C228.433 136.971 227.173 139.007 226.298 141.2C225.824 142.393 225.524 143.683 225.21 144.973C224.699 147.073 224.16 149.167 222.79 150.839C222.265 151.478 221.619 152.018 220.856 152.353C220.445 152.536 220.01 152.657 219.574 152.746C219.199 152.821 218.775 152.818 218.411 152.936C217.297 153.286 218.007 154.99 218.55 155.626C218.386 156.058 218.229 156.487 218.072 156.923C217.658 158.076 217.269 159.245 216.908 160.416C216.894 160.466 216.88 160.513 216.862 160.563C216.83 160.666 216.798 160.77 216.769 160.874C216.676 161.184 216.583 161.495 216.494 161.806C216.48 161.867 216.505 161.928 216.569 161.938C216.876 161.995 217.183 162.063 217.486 162.135C218.125 162.288 218.753 162.478 219.367 162.703C219.446 162.731 219.521 162.76 219.596 162.789C219.778 162.856 219.956 162.928 220.135 163.006C220.62 163.21 221.095 163.439 221.559 163.689C222.358 164.121 223.125 164.614 223.846 165.168C224.492 165.664 225.074 166.261 225.77 166.69C226.516 167.143 227.355 167.236 228.197 167.376C228.84 167.479 229.468 167.651 230.071 167.886C230.328 167.983 230.578 168.097 230.828 168.222C231.249 168.433 231.652 168.679 232.03 168.955C232.344 169.187 232.637 169.483 232.997 169.648C233.561 169.894 234.282 169.758 234.853 169.605C237.934 168.769 239.404 165.611 240.039 162.749C240.225 161.942 240.357 161.145 240.443 160.341Z" fill="white"/>
<path d="M229.936 168.311C229.893 168.436 229.843 168.565 229.793 168.69C229.389 168.436 228.458 168.554 228.076 168.444C227.519 168.279 227.027 167.961 226.538 167.654C225.767 167.165 225.082 166.797 224.157 166.689C223.486 166.614 222.804 166.6 222.191 166.293C221.256 165.818 220.77 164.853 220.281 163.978C219.446 162.481 218.386 161.645 216.844 160.916C216.623 160.813 216.773 160.463 216.994 160.566C218.282 161.177 219.446 161.877 220.217 163.11C221.081 164.492 221.548 165.943 223.368 166.236C224.143 166.361 224.889 166.347 225.613 166.679C226.224 166.957 226.755 167.383 227.341 167.708C228.08 168.122 228.743 168.065 229.539 168.197C229.693 168.218 229.825 168.254 229.936 168.311Z" fill="#556D84"/>
<path d="M236.924 162.099C236.203 161.46 235.478 160.816 234.75 160.184C234.151 159.659 233.565 159.112 232.77 158.912C232.059 158.734 231.32 158.841 230.6 158.744C229.732 158.627 228.951 158.248 228.18 157.851C227.005 157.248 225.849 156.597 224.489 156.619C223.633 156.633 222.798 156.887 221.945 156.923C220.827 156.969 219.757 156.712 218.743 156.247C218.522 156.144 218.372 156.494 218.593 156.597C219.999 157.244 221.441 157.416 222.965 157.194C223.968 157.048 224.9 156.898 225.892 157.212C226.549 157.419 227.159 157.751 227.766 158.066C228.376 158.384 228.99 158.709 229.647 158.92C230.417 159.166 231.178 159.12 231.974 159.191C233.876 159.362 235.332 161.202 236.688 162.406C236.874 162.56 237.109 162.26 236.924 162.099Z" fill="#556D84"/>
<path d="M234.432 161.899C234.336 161.674 233.986 161.817 234.079 162.042C234.386 162.767 234.675 163.489 234.689 164.289C234.693 164.532 235.071 164.482 235.068 164.239C235.053 163.414 234.75 162.653 234.432 161.899Z" fill="#556D84"/>
<path d="M216.102 163.11C216.03 163.357 215.855 163.642 215.591 163.692C215.456 163.717 204.377 161.231 202.903 160.888C202.764 160.856 202.621 160.82 202.475 160.788C194.894 159.023 178.123 154.751 177.06 154.425C176.078 154.129 175.054 153.718 174.458 152.832C173.894 152 170.792 138.2 169.429 131.344C169.4 131.205 169.372 131.069 169.347 130.937C169.229 130.344 169.129 129.815 169.047 129.365C169.036 129.311 169.068 129.279 169.104 129.265C169.083 128.861 169.525 128.565 169.936 128.54C170.071 128.529 170.782 128.665 171.899 128.904C178.241 130.251 197.653 134.895 198.445 135.127C198.685 135.199 198.956 135.259 199.22 135.342C199.391 135.395 199.559 135.459 199.716 135.542C199.937 135.656 200.126 135.806 200.262 136.02C200.662 136.66 200.669 137.592 200.794 138.314C200.794 138.314 203.535 153.754 204.17 157.394C204.185 157.48 204.199 157.555 204.209 157.626C205.216 157.966 213.543 160.466 214.842 161.102C215.595 161.47 216.38 162.17 216.102 163.11Z" fill="#8EA7C0"/>
<path d="M216.148 162.574C216.066 161.903 215.441 161.395 214.838 161.099C213.942 160.659 209.709 159.334 206.836 158.444C206.722 158.409 206.604 158.373 206.493 158.337C205.519 158.034 204.741 157.794 204.359 157.673C204.298 157.655 204.245 157.637 204.206 157.623C204.191 157.551 204.181 157.476 204.163 157.391C203.442 157.276 202.721 157.162 202.007 157.019C200.629 156.751 199.277 156.383 198.01 155.765C195.208 154.39 193.859 151.753 192.385 149.156C192.056 148.574 191.71 148.02 191.339 147.495C190.336 146.066 189.151 144.837 187.624 143.837C185.589 142.504 183.33 141.583 181.171 140.475C179.668 139.707 178.187 138.828 176.959 137.681C176.342 137.103 175.789 136.46 175.328 135.724C173.968 133.559 173.472 130.926 171.895 128.904C171.524 128.825 171.195 128.758 170.92 128.704C170.367 128.593 170.021 128.536 169.932 128.543C169.693 128.557 169.443 128.668 169.282 128.836C169.164 128.954 169.093 129.104 169.1 129.272C169.065 129.286 169.032 129.318 169.043 129.372C169.125 129.822 169.229 130.354 169.343 130.944C169.368 131.076 169.396 131.212 169.425 131.351C170.788 138.207 173.89 152.007 174.454 152.839C174.561 152.996 174.679 153.139 174.811 153.264C174.864 153.318 174.918 153.368 174.971 153.414C175.557 153.922 176.317 154.208 177.059 154.433C178.119 154.758 194.837 159.012 202.432 160.784C202.446 160.788 202.457 160.792 202.471 160.795C202.553 160.813 202.632 160.831 202.714 160.849C202.778 160.863 202.839 160.877 202.899 160.895C203.281 160.984 204.316 161.217 205.64 161.517C205.744 161.538 205.851 161.563 205.962 161.588C208.46 162.149 211.829 162.899 213.849 163.339C214.877 163.564 215.555 163.703 215.587 163.699C215.848 163.653 216.023 163.364 216.094 163.117C216.158 162.924 216.169 162.742 216.148 162.574Z" fill="#647B92"/>
<path d="M237.998 97.3666C238.12 96.5485 237.67 95.4804 236.935 95.1588C237.998 94.2907 237.948 92.5117 236.639 91.6471C235.55 90.9255 234.09 90.7326 232.816 90.6647C232.456 90.6469 232.038 90.7076 231.681 90.6576C230.953 90.554 231.199 90.3932 231.042 89.9181C230.903 89.493 230.603 89.1321 230.261 88.8535C228.233 87.1887 225.375 87.8818 223.337 89.0607C222.08 89.7859 220.506 89.9967 219.482 91.072C218.618 91.9758 218.183 93.1869 217.855 94.3658C217.84 94.4158 217.808 94.5265 217.812 94.5658C217.83 94.7159 217.93 94.7837 218.112 94.7373C220.082 94.2229 223.661 94.3586 225.032 96.252C225.767 97.2666 226.121 98.4919 226.356 99.7065C226.474 100.303 226.499 101.018 226.674 101.65C227.031 102.239 227.805 102.311 228.519 102.625C229.076 102.868 229.493 103.315 229.697 103.89C229.968 104.647 229.782 105.444 229.768 106.223C229.747 107.362 230.068 107.73 230.557 108.588C230.739 108.906 230.775 109.199 230.832 109.556C230.946 110.245 231.035 110.245 231.463 110.717C231.621 110.892 231.71 111.085 231.749 111.288C231.828 111.246 231.888 111.135 231.956 111.024C232.984 108.848 234.222 106.876 235.247 104.701C236.078 102.932 236.835 101.153 236.921 99.1921C237.47 98.7563 237.881 98.1561 237.998 97.3666Z" fill="#381925"/>
<path d="M228.182 103.365C227.883 103.44 227.658 103.804 227.518 104.058C227.279 104.49 227.347 105.087 227.051 105.465C226.901 105.658 227.197 105.894 227.351 105.701C227.554 105.444 227.586 105.172 227.647 104.858C227.686 104.651 227.736 104.454 227.836 104.265C227.883 104.172 228.072 103.833 228.204 103.758C228.297 103.761 228.382 103.69 228.396 103.597C228.396 103.59 228.4 103.586 228.4 103.579C228.411 103.468 228.304 103.336 228.182 103.365Z" fill="white"/>
<path d="M228.857 106.423C228.782 106.705 228.665 106.998 228.404 107.155C228.161 107.302 227.819 107.43 227.533 107.412C227.291 107.394 227.237 107.773 227.48 107.787C227.872 107.816 228.318 107.666 228.643 107.452C228.982 107.23 229.132 106.851 229.232 106.476C229.296 106.24 228.922 106.19 228.857 106.423Z" fill="white"/>
<path d="M186.693 144.03C187.339 144.608 187.439 145.555 186.914 146.144C186.389 146.734 185.436 146.745 184.79 146.166C184.144 145.587 184.044 144.64 184.569 144.051C185.094 143.462 186.047 143.451 186.693 144.03Z" fill="white"/>
<path d="M231.677 139.028C231.759 138.8 231.409 138.646 231.327 138.878C230.456 141.372 229.935 143.951 229.782 146.591C229.767 146.834 230.142 146.888 230.156 146.645C230.31 144.037 230.817 141.49 231.677 139.028Z" fill="#556D84"/>
<path d="M230.242 138.735C230.096 137.463 230.16 136.217 230.435 134.966C230.489 134.727 230.11 134.677 230.06 134.913C229.777 136.195 229.717 137.478 229.867 138.782C229.895 139.024 230.271 138.978 230.242 138.735Z" fill="#556D84"/>
<path d="M205.348 133.17C204.177 135.242 203.378 137.46 202.946 139.8C202.903 140.039 203.278 140.093 203.321 139.854C203.745 137.546 204.541 135.363 205.694 133.323C205.819 133.109 205.469 132.959 205.348 133.17Z" fill="#556D84"/>
<path d="M223.311 107.748C221.42 108.27 217.747 107.991 217.615 107.962C217.455 107.93 217.29 108.13 217.372 108.284C218.568 110.581 222.605 110.649 223.551 108.073C223.608 107.916 223.49 107.698 223.311 107.748Z" fill="white"/>
<path d="M219.189 105.801C218.365 105.68 218.247 105.026 218.675 104.347C218.836 104.097 219.029 103.865 219.171 103.604C219.507 102.997 219.543 102.386 219.528 101.704C219.521 101.478 219.179 101.525 219.182 101.75C219.207 102.757 218.932 103.308 218.401 104.136C218.197 104.451 217.933 104.826 217.944 105.219C217.965 105.88 218.583 106.069 219.136 106.148C219.364 106.18 219.414 105.833 219.189 105.801Z" fill="white"/>
<path d="M224.486 101.907C224.104 101.436 223.951 100.96 223.28 100.871C222.751 100.8 222.212 100.985 221.798 101.314C221.752 101.35 221.877 101.371 221.884 101.364C221.884 101.361 224.6 102.05 224.486 101.907Z" fill="white"/>
<path d="M217.115 100.921C217.012 100.946 216.93 101.011 216.858 101.086C216.819 101.125 216.508 101.476 216.601 101.49C216.68 101.501 217.857 101.343 217.822 101.283C217.672 101.05 217.408 100.846 217.115 100.921Z" fill="white"/>
<path d="M223.654 99.6029C223.961 99.7351 224.201 99.9352 224.472 100.124C224.711 100.292 225.075 100.475 225.368 100.31C225.867 100.032 225.321 99.2385 225.096 98.967C224.557 98.3276 222.791 98.2347 222.759 98.2418C222.684 98.2597 222.591 98.2847 222.502 98.3168C222.498 98.3168 222.495 98.3168 222.491 98.3168C222.487 98.3168 222.487 98.3204 222.487 98.3204C222.313 98.3883 222.152 98.499 222.163 98.6919C222.177 98.9777 222.569 99.1671 222.787 99.2671C223.069 99.4029 223.369 99.4815 223.654 99.6029Z" fill="#381925"/>
<path d="M216.28 98.4561C215.93 98.549 215.723 98.9062 215.905 99.2384C216.116 99.6207 216.494 99.6136 216.844 99.4421C216.983 99.3742 217.668 98.9526 217.686 98.9026C217.922 98.1881 216.79 98.3168 216.28 98.4561Z" fill="#381925"/>
</g>
<defs>
<clipPath id="clip0">
<rect width="327" height="265" rx="20" fill="white"/>
</clipPath>
</defs>
</svg>
