<svg width="372" height="298" viewBox="0 0 372 298" fill="none" xmlns="http://www.w3.org/2000/svg">
<path d="M299.54 41.8739C239.867 30.0756 90.7923 94.7406 68.4251 189.303C57.5714 235.195 119.126 323.956 183.694 335.472C279.56 352.569 358.101 273.261 385.747 251.473C469.561 185.446 421.563 65.9924 299.54 41.8739Z" fill="#2F3D4D"/>
<path d="M142.491 101.937C145.096 91.2998 155.119 81.9878 164.649 75.5234C177.299 66.9296 192.565 65.5844 208.022 67.7912C236.737 71.8742 264.813 83.8529 294.386 77.3855C305.441 74.9697 314.327 69.6937 322.685 63.0778C332.153 55.5928 341.084 47.3757 353.554 43.859C369.496 39.3744 385.247 40.6434 400.145 47.0305C410.945 51.6618 421.007 56.196 433.331 56.3057C461.021 56.5619 485.204 38.5959 513.322 43.6915C513.846 43.7861 514.081 43.083 513.556 42.9884C488.819 38.5023 467.328 51.6568 443.621 54.8808C436.38 55.8719 428.897 55.8697 421.741 54.3418C414.227 52.7311 407.469 49.3547 400.58 46.3983C387.881 40.9596 375.06 39.0494 361.052 41.4492C349.322 43.4549 339.961 48.3525 331.151 55.2571C320.949 63.2333 311.585 71.9257 298.182 75.686C265.39 84.8797 234.485 69.2092 202.317 66.3886C188.411 65.1714 175.223 67.4046 164.075 74.9967C154.5 81.5097 144.329 91.016 141.7 101.741C141.57 102.191 142.372 102.396 142.491 101.937Z" fill="#6D8CAA"/>
<path d="M136.713 146.23C138.86 133.228 150.324 122.374 160.892 113.785C172.535 104.324 185.374 98.7939 201.378 98.039C218.411 97.2252 234.314 101.431 250.598 105.157C265.539 108.569 281.096 110.707 296.53 108.942C309.257 107.481 320.609 103.118 330.685 96.1858C340.84 89.2048 349.865 80.6256 361.575 75.5664C375.208 69.6639 390.004 70.8699 404.006 75.1448C416.733 79.0275 428.868 84.6946 442.434 86.0379C456.604 87.44 469.957 83.4494 482.819 78.6647C490.222 75.9095 497.548 72.9485 505.253 70.9189C509.335 69.8404 513.518 69.0168 517.768 68.6442C521.28 68.3304 525.809 69.3207 529.131 68.5854C528.605 68.703 528.829 69.409 529.354 69.2913C529.712 69.2129 530.059 69.1344 530.417 69.056C530.752 68.9775 530.842 68.5265 530.518 68.3795C526.201 66.4577 519.077 67.6343 514.435 68.2814C507.535 69.2423 500.892 71.2523 494.439 73.5466C481.152 78.2627 468.213 84.1946 453.729 85.4006C424.461 87.8518 399.868 65.2223 370.365 71.8994C358.801 74.5173 349.485 81.2139 340.628 87.9106C328.381 97.1565 316.359 105.177 300.008 107.736C282.147 110.52 264.153 107.618 246.885 103.53C231.306 99.843 215.939 96.3231 199.656 97.4016C184.423 98.4115 172.065 103.824 160.915 112.785C150.055 121.512 138.122 132.728 135.919 146.033C135.83 146.494 136.635 146.69 136.713 146.23Z" fill="#6D8CAA"/>
<path d="M88.1657 150.055C87.9467 150.4 88.1432 150.496 88.5374 150.604C107.375 155.786 151.218 160.133 168.044 158.687C181.856 157.5 195.187 153.578 207.31 147.735C218.572 142.303 228.861 135.4 240.336 130.292C254.114 124.164 269.291 121.84 284.523 124.674C298.995 127.37 312.359 133.773 327.178 135.204C344.938 136.92 361.009 129.655 377.472 125.115C387.392 122.38 397.714 119.899 408.194 119.909C409.983 119.909 423.806 120.791 423.661 121.576C423.571 122.036 424.377 122.242 424.466 121.772C424.992 119.007 406.169 119.183 404.112 119.311C386.866 120.35 371.063 126.664 354.847 131.272C346.213 133.724 337.176 135.312 328.073 134.567C319.092 133.841 310.514 131.106 302.059 128.537C287.968 124.252 273.988 121.164 259.046 123.693C245.883 125.919 234.408 132.067 223.269 138.322C210.028 145.764 196.764 152.627 181.319 155.941C172.059 157.932 162.396 158.873 152.89 157.883C143.599 156.922 104.958 155.525 89.9116 149.673C89.296 149.433 88.5196 149.497 88.1657 150.055Z" fill="#6D8CAA"/>
<path d="M428.156 151.157C411.817 146.412 395.388 146.196 378.567 149C369.352 150.53 360.382 153.01 351.156 154.501C340.911 156.158 331.069 155.981 320.858 154.187C304.631 151.334 289.096 146.51 272.309 148.647C257.748 150.51 245.222 157.079 233.658 164.737C221.043 173.091 208.752 182.631 193.464 187.053C184.852 189.543 175.748 190.023 166.891 188.317C158.682 186.739 151.167 183.395 143.427 180.63C135.99 177.973 128.34 175.924 120.232 176.248C112.605 176.561 105.156 178.503 98.144 181.052C85.6741 185.592 78.3173 187.663 67.3716 196.34C66.8126 196.783 67.8706 197.229 68.4041 196.755C79.6071 186.809 103.77 177.62 120.243 176.983C138.629 176.267 153.526 187.749 171.331 189.739C186.004 191.376 199.76 186.709 211.895 179.807C225.17 172.257 236.611 162.364 250.635 155.824C267.892 147.775 285.808 147.726 304.485 151.589C313.69 153.491 322.86 155.775 332.333 156.364C342.141 156.971 351.726 155.334 361.21 153.314C383.857 148.49 405.229 145.294 427.921 151.883C428.447 152.02 428.671 151.314 428.156 151.157Z" fill="#6D8CAA"/>
<path d="M111.183 215.183C95.2244 214.551 78.1094 221.989 73.2671 226.46C72.9409 226.762 72.3905 226.656 72.2327 226.241C72.1343 225.982 72.2342 225.688 72.4692 225.541C90.0455 214.583 106.948 212.996 120.499 215.497C129.211 217.105 137.689 219.468 146.513 220.693C155.941 221.997 165.257 221.909 174.707 220.899C192.377 219.017 210.104 216.144 225.112 207.251C232.662 202.79 239.394 197.397 246.317 192.24C251.607 188.298 257.031 183.984 263.529 181.66C277.162 176.787 291.723 182.18 304.987 185.367C324.089 189.955 343.012 191.906 362.282 186.779C371.061 184.445 379.248 180.945 387.557 177.601C393.518 175.199 399.703 173.101 406.324 172.807C414.007 172.464 421.187 174.797 428.468 176.601C432.729 177.66 437.057 178.582 441.497 178.67C444.069 178.729 446.653 178.503 449.169 178.033C449.549 177.964 455.018 176.533 452.983 175.719C452.491 175.523 452.916 174.885 453.408 175.081C455.052 175.738 454.627 175.356 455.398 176.68C455.533 176.905 455.421 177.14 455.152 177.219C447.223 179.67 439.719 179.866 431.588 178.101C421.489 175.905 412.083 172.336 401.47 174.072C392.31 175.572 384.046 180.082 375.557 183.259C366.934 186.484 357.976 189.073 348.649 190.181C331.314 192.24 314.438 188.563 297.886 184.376C289.9 182.357 281.647 179.994 273.214 180.484C263.909 181.033 256.874 185.514 249.918 190.563C237.504 199.584 225.895 209.614 210.585 214.81C195.554 219.909 177.738 222.439 161.622 222.497C153.961 222.527 146.367 221.586 138.885 220.183C129.692 218.468 120.633 215.556 111.183 215.183Z" fill="#6D8CAA"/>
<path d="M78.7736 270.295C91.4225 265.893 103.68 261.579 114.987 254.833C127.781 247.205 140.542 243.989 156.043 244.195C182.369 244.548 211.872 248.676 236.186 237.547C247.895 232.194 257.167 223.517 270.453 221.046C283.728 218.575 297.439 221.164 310.513 223.379C323.923 225.654 337.254 227.017 350.909 225.684C363.603 224.448 375.447 220.967 387.134 216.604C400.845 211.486 414.858 207.564 429.576 212.31C438.467 215.173 449.394 221.222 458.9 216.928C459.381 216.712 458.956 216.075 458.475 216.291C447.795 221.115 435.504 212.506 425.248 210.319C414.601 208.045 403.775 209.898 393.788 213.369C381.162 217.752 369.128 222.517 355.595 224.389C340.475 226.478 325.667 225.193 310.737 222.664C299.162 220.703 287.206 218.477 275.351 219.624C263.273 220.791 254.975 226.125 245.189 231.919C233.155 239.048 220.417 242.881 205.9 243.764C191.316 244.656 176.733 244.195 162.16 243.626C147.453 243.058 133.53 243.96 120.646 250.725C114.182 254.117 108.265 258.108 101.499 261.079C94.073 264.344 86.2555 266.893 78.5387 269.58C78.0578 269.756 78.2703 270.462 78.7736 270.295Z" fill="#6D8CAA"/>
<path d="M104.838 307.459C120.987 292.84 143.466 292.664 165.141 291.899C174.077 291.585 182.789 291.242 191.165 288.222C199.307 285.281 206.398 280.633 213.801 276.535C222.715 271.593 232.12 267.936 242.812 267.475C254.097 266.995 265.079 269.75 275.793 272.505C285.501 275.005 295.309 277.603 305.475 278.045C315.708 278.486 325.438 276.182 335.034 273.319C346.922 269.779 358.553 266.112 371.325 266.74C383.303 267.338 396.176 269.769 406.476 275.358C406.935 275.603 407.36 274.976 406.901 274.721C390.371 265.759 367.914 263.779 349.439 268.377C338.378 271.132 327.82 275.417 316.368 276.848C304.368 278.339 292.647 276.015 281.162 273.113C261.243 268.093 241.548 263.053 221.865 271.622C213.332 275.339 205.872 280.623 197.551 284.663C187.464 289.565 177.353 290.703 165.991 291.124C143.824 291.938 120.752 291.977 104.234 306.93C103.865 307.283 104.457 307.802 104.838 307.459Z" fill="#6D8CAA"/>
<path d="M163.593 52.085C163.957 50.4403 164.507 48.8139 165.095 47.3309C171.292 31.6996 189.838 26.6428 193.226 30.4263C195.653 33.1359 194.49 35.113 193.342 35.9841C198.32 32.7436 207.934 27.2282 209.539 29.2211C210.166 29.9993 212.977 32.872 213.943 32.6143C218.108 31.504 222.52 31.0571 223.761 33.3128C223.788 33.3605 223.813 33.4081 223.837 33.4558C224.94 35.6308 227.58 42.1536 229.047 44.102C229.998 45.3656 229.308 47.2294 228.04 49.0635C226.512 51.2719 228.418 55.7418 227.478 58.2561C226.638 60.5037 217.559 66.8133 211.154 70.9723C210.748 71.2359 210.598 73.1824 210.705 73.6537C211.324 76.3595 203.946 81.5395 197.732 81.7181C193.516 81.8393 182.01 83.0956 175.059 77.4894C168.117 71.8901 161.665 60.796 163.593 52.085Z" fill="#2F3D4D"/>
<path d="M125.269 122.355C126.593 122.219 127.962 122.097 129.233 122.44C129.621 122.544 130.059 122.327 129.974 121.935C129.938 121.77 129.792 121.539 129.63 121.493C128.22 121.091 126.724 121.185 125.247 121.339C124.607 121.398 124.615 122.42 125.269 122.355Z" fill="#AB4211"/>
<path d="M189.635 113.45C204.124 113.012 187.26 96.6145 173.817 91.1975C173.633 91.1233 173.451 91.0462 173.269 90.9662C163.413 86.6275 158.084 79.9949 155.29 74.9357C152.965 70.7279 148.947 65.969 145.063 68.8039C143.48 69.962 142.733 71.1646 142.389 72.1263C141.948 73.3566 142.375 74.6608 142.901 75.8571C144.511 79.5243 148.555 88.1614 154.041 95.8516C164.111 109.979 174.296 113.919 189.635 113.45Z" fill="#3E929B"/>
<path d="M345.54 272.502C346.068 273.463 347.02 275.09 347.965 276.742C349.44 279.32 348.584 282.485 346.1 284.113L345.312 284.63C343.032 286.125 339.881 285.595 338.565 283.209C337.949 282.102 337.132 281.141 336.354 280.143C335.145 278.59 333.951 277.025 332.936 275.333C332.169 274.066 331.277 272.899 330.268 271.809C329.511 271.004 328.849 270.111 328.155 269.25C328.103 269.187 328.052 269.123 328.001 269.059C327.448 268.362 326.695 267.751 325.833 267.971C325.27 268.11 324.705 268.263 324.149 268.453C322.019 269.165 319.83 269.411 317.596 269.325C315.686 269.249 313.804 268.942 311.928 268.586C311.442 268.494 310.954 268.415 310.477 268.295C309.704 268.105 308.922 267.928 308.163 267.675C306.558 267.132 304.964 266.555 303.376 265.978C302.252 265.569 301.131 265.133 300.01 264.703C299.113 264.356 298.279 263.897 297.455 263.417C296.577 262.91 295.699 262.403 294.785 261.955C293.368 261.264 292.037 260.441 290.725 259.578C289.235 258.595 287.73 257.624 286.299 256.563C284.967 255.57 283.718 254.473 282.436 253.415C282.061 253.102 281.704 252.755 281.354 252.409C280.189 251.266 279.031 250.116 277.873 248.974C277.7 248.797 277.406 248.901 277.441 249.146C277.458 249.264 277.487 249.373 277.508 249.476C277.811 251.007 278.127 252.539 278.473 254.068C278.629 254.788 278.888 255.484 279.082 256.194C279.846 258.991 280.983 261.64 282.298 264.218C282.448 264.519 282.611 264.822 282.73 265.134C283.371 266.81 284.353 268.301 285.297 269.815C285.799 270.618 286.269 271.453 286.786 272.25C287.358 273.125 287.944 273.995 288.571 274.827C289.197 275.659 289.886 276.449 290.543 277.263C290.679 277.435 290.822 277.6 290.937 277.777C291.857 279.188 292.922 280.559 293.147 282.229C293.168 282.388 293.189 282.548 293.211 282.707C293.341 283.667 293.362 284.627 293.383 285.594L293.386 285.739C293.396 286.378 293.52 287.016 293.522 287.661C293.522 288.681 293.653 289.681 293.791 290.682C293.886 291.381 293.945 292.082 293.99 292.789C294.065 294.08 294.119 295.369 294.188 296.652C294.267 298.15 294.359 299.656 294.438 301.153C294.459 301.46 294.451 301.764 294.472 302.071C294.565 303.57 294.665 305.069 294.758 306.568C294.779 306.875 294.757 307.185 294.777 307.492C294.867 308.962 294.971 310.427 295.068 311.897C295.077 312.043 295.082 312.238 295.084 312.468C295.102 314.858 293.616 317.091 291.432 318.061C288.218 319.488 284.688 317.648 284.13 314.178L284.092 313.942C283.581 310.765 283.057 307.504 282.74 306.365C282.221 304.504 281.658 302.652 281.117 300.796C280.615 299.086 280.135 297.371 279.648 295.656C279.387 294.739 279.148 293.818 278.893 292.903C278.444 291.299 277.131 290.146 275.553 289.612C275.375 289.551 275.197 289.49 275.019 289.428C273.539 288.907 272.042 288.405 270.641 287.694C268.804 286.762 266.953 285.835 265.162 284.817C263.611 283.933 262.131 282.929 260.623 281.979C260.464 281.883 260.321 281.767 260.178 281.651C258.256 280.057 256.318 278.482 254.655 276.615C254.548 276.503 254.432 276.404 254.332 276.286C253.769 275.639 253.198 274.997 252.644 274.337C252.145 273.747 251.669 273.145 251.193 272.544L251.193 272.544C250.772 272.012 250.36 271.475 249.963 270.925C249.529 270.328 249.117 269.72 248.715 269.099C248.011 268.017 247.3 266.941 246.642 265.829C246.175 265.03 245.807 264.179 245.369 263.37C244.47 261.719 243.615 260.052 242.843 258.346C242.509 257.62 242.131 256.916 241.752 256.212C240.958 254.751 240.201 253.281 239.595 251.729C239.022 250.265 238.44 248.815 237.829 247.368C237.023 245.467 236.431 243.498 235.987 241.483C235.503 239.265 234.967 237.062 234.447 234.847C234.382 234.554 234.055 234.398 233.763 234.467C232.911 234.669 232.09 234.86 231.269 235.047C229.436 235.462 227.587 235.782 225.717 235.973C224.251 236.119 222.78 236.236 221.305 236.339C219.772 236.449 218.236 236.523 216.7 236.597L216.699 236.597C215.134 236.675 213.566 236.717 211.994 236.787C211.101 236.831 210.208 236.874 209.322 236.976C208.033 237.121 206.734 237.053 205.447 237.001C203.539 236.918 201.638 236.708 199.733 236.661C197.55 236.61 195.366 236.459 193.184 236.343C192.875 236.328 192.576 236.286 192.27 236.243L192.265 236.242C191.14 236.088 190.009 235.92 188.88 235.787C187.352 235.614 185.819 235.483 184.29 235.31C183.582 235.227 182.886 235.109 182.188 234.999C181.191 234.839 180.188 234.671 179.184 234.51C178.277 234.368 177.36 234.253 176.448 234.096C173.14 233.529 169.893 232.686 166.634 231.892C164.935 231.472 163.279 230.88 161.609 230.336C160.795 230.07 159.995 229.749 159.195 229.421C158.598 229.181 158.015 228.886 157.428 228.618C156.282 228.1 155.091 227.656 153.992 227.037C152.007 225.918 150.084 224.692 148.247 223.335C147.935 223.103 147.525 223.051 147.156 223.175C146.837 223.282 146.528 223.385 146.219 223.486C145.008 223.872 143.747 223.915 142.499 223.958L142.476 223.959C140.57 224.032 138.665 223.985 136.755 223.796C135.041 223.622 133.319 223.533 131.609 223.331C131.118 223.274 130.639 223.182 130.15 223.11C129.361 222.996 128.562 222.902 127.772 222.787C126.348 222.577 124.922 222.317 123.487 222.141C121.299 221.863 119.152 221.412 117.006 220.96L116.769 220.911C115.597 220.666 114.435 220.338 113.277 220.039C110.002 219.186 106.702 218.435 103.386 217.755C102.845 217.648 102.294 217.555 101.754 217.442C100.699 217.225 99.6499 216.967 98.593 216.772C97.0428 216.483 95.4867 216.243 93.9167 216.242C90.4361 216.236 86.9539 216.004 83.4783 216.317C82.3151 216.421 81.1519 216.525 79.9871 216.643C79.5621 216.692 79.1347 216.762 78.708 216.825C77.2481 217.036 75.7844 217.218 74.3281 217.457C73.2993 217.626 72.2725 217.838 71.2511 218.065C69.3541 218.487 67.468 218.938 65.6733 219.697C64.3716 220.252 63.0798 220.844 61.8065 221.459C60.2769 222.2 58.7728 222.966 57.2732 223.753C55.6438 224.616 54.0313 225.518 52.4073 226.396C50.35 227.514 48.2936 228.625 46.2372 229.737C44.7727 230.528 43.2904 231.288 41.8444 232.103C39.8589 233.215 37.8956 234.38 35.9872 235.622C35.7799 235.753 35.5717 235.892 35.3475 235.986C34.9217 236.162 34.4938 236.176 34.1352 235.843C33.5264 235.283 32.8793 234.746 32.3418 234.123C31.498 233.145 30.8109 232.044 30.2074 230.896C30.1489 230.789 30.106 230.671 30.0553 230.559C29.8294 230.065 29.8769 229.602 30.252 229.193C30.3336 229.104 30.416 229.007 30.5038 228.925C31.287 228.189 32.0462 227.414 32.8665 226.724C34.4806 225.369 36.1143 224.039 37.7508 222.706L38.3577 222.212C39.2852 221.457 40.2266 220.703 41.1726 219.972C42.9001 218.638 44.6523 217.335 46.3745 215.986C48.7466 214.126 51.223 212.405 53.657 210.623C55.3145 209.401 57.0337 208.257 58.7283 207.082C60.6779 205.732 62.6391 204.404 64.6968 203.222C67.0133 201.893 69.4708 200.936 72.0936 200.444C74.4184 200.009 76.7638 199.641 79.0976 199.25C79.9525 199.109 80.8011 198.961 81.6527 198.849C82.9012 198.684 84.1506 198.513 85.4082 198.392C87.0034 198.239 88.585 198.022 90.1925 198.006C90.3203 198.006 90.4427 197.992 90.5643 197.985C91.6682 197.903 92.7737 197.806 93.8759 197.738C95.007 197.666 96.1475 197.694 97.2872 197.608C98.9079 197.48 100.543 197.474 102.175 197.426C102.575 197.409 102.978 197.428 103.379 197.404C104.787 197.329 106.201 197.205 107.613 197.159C109.917 197.083 112.231 197.044 114.538 196.997C114.937 196.987 115.339 197.013 115.739 196.997C116.037 196.995 116.232 196.679 116.211 196.381C116.184 196.007 116.13 195.539 116.063 195.096C115.947 194.324 115.372 193.732 114.627 193.494C114.164 193.346 113.694 193.2 113.218 193.072C110.332 192.3 107.442 191.57 104.557 190.791C102.353 190.198 100.172 189.538 97.9751 188.946C95.8058 188.364 93.6269 187.803 91.4423 187.291C88.871 186.683 86.2606 186.227 83.6622 185.73C83.3914 185.677 83.1222 185.61 82.8506 185.563L82.8463 185.563C81.1223 185.253 79.3983 184.944 77.6726 184.649C76.2514 184.411 74.8231 184.172 73.3916 183.961C72.3928 183.815 71.3822 183.71 70.3731 183.591C69.7004 183.512 69.024 183.404 68.3509 183.388C66.7149 183.344 65.081 183.343 63.4487 183.328C63.1713 183.331 62.8931 183.341 62.6202 183.365C61.729 183.451 60.8441 183.546 59.9583 183.647C58.8573 183.765 57.7526 183.855 56.6591 184.031C54.6529 184.354 52.6513 184.699 50.6588 185.088C47.9383 185.625 45.2294 186.185 42.5242 186.773C40.1833 187.284 37.84 187.816 35.5119 188.399C33.6311 188.865 31.7837 189.469 29.902 189.942C25.4512 191.054 21.1116 192.548 16.7317 193.903C16.2523 194.052 15.8863 194.023 15.559 193.666C15.3517 193.436 15.1295 193.211 14.9753 192.952C14.6316 192.373 14.3034 191.782 14.0207 191.168C13.4267 189.879 13.0186 188.52 12.7268 187.14C12.6236 186.649 12.5797 186.153 12.5756 185.659C12.5674 184.67 13.0152 183.71 13.895 183.26C15.181 182.596 16.4724 181.948 17.77 181.307C19.4818 180.467 21.2052 179.65 23.0024 178.99C25.0221 178.25 27.0435 177.496 29.0472 176.712C33.2099 175.091 37.4076 173.594 41.7027 172.357C44.182 171.636 46.6415 170.841 49.1918 170.362C50.5805 170.093 51.9691 169.825 53.3623 169.578C54.0589 169.454 54.7609 169.346 55.4596 169.265C56.7135 169.115 57.9702 169.001 59.2233 168.858C60.4475 168.719 61.6664 168.565 62.9021 168.569C63.1437 168.569 63.3947 168.549 63.6387 168.528C64.5859 168.448 65.5381 168.326 66.4865 168.296C68.5838 168.225 70.6761 168.195 72.7692 168.158C75.1397 168.118 77.5172 168.079 79.8853 168.061C81.6416 168.048 83.4 168.078 85.1555 168.072C86.3851 168.068 87.6188 168.029 88.8508 168.004C89.0363 167.997 89.2194 168.012 89.4032 168.019C89.9547 168.042 90.5099 168.093 91.0631 168.102C95.3458 168.174 99.6309 168.225 103.904 168.501C104.242 168.527 104.583 168.525 104.92 168.557C106.179 168.663 107.431 168.775 108.688 168.902C109.734 169.004 110.769 169.147 111.807 169.262C111.875 169.27 111.943 169.28 112.012 169.291C112.622 169.385 113.062 168.944 113.018 168.328C112.98 167.87 112.877 167.418 112.874 166.957C112.857 165.418 112.589 163.898 112.449 162.373C112.352 161.27 112.146 160.183 112.056 159.081C111.858 156.72 111.393 154.398 111.036 152.067C110.722 150.032 110.335 148.01 109.919 145.998C109.364 143.29 108.911 140.565 108.189 137.894C107.495 135.347 106.853 132.784 105.901 130.313C105.764 129.971 105.678 129.613 105.563 129.26C105.251 128.295 104.93 127.336 104.603 126.376C104.525 126.126 104.168 126.102 103.96 126.261C103.881 126.322 103.804 126.381 103.729 126.443C103.32 126.771 102.931 127.122 102.504 127.426C101.705 127.998 100.87 128.516 100.088 129.118C98.861 130.065 97.4921 130.768 96.1702 131.554C95.2283 132.112 94.2364 132.592 93.2489 133.07L93.136 133.124C91.1241 134.099 88.9312 134.5 86.7813 135.019C86.6939 135.037 86.6011 135.04 86.5075 135.05C85.7145 135.148 84.919 135.267 84.1267 135.358C83.4281 135.439 82.7183 135.554 82.0147 135.556C80.8988 135.559 79.8061 135.728 78.7126 135.904C76.6924 136.226 74.8689 136.989 73.2927 138.305C72.5602 138.913 71.8216 139.513 71.1006 140.144C69.8814 141.205 68.5875 142.115 67.0228 142.611C65.5909 143.066 64.1692 143.133 62.7888 142.488C61.7851 142.023 60.7847 141.53 59.8268 140.977C58.5156 140.228 57.5198 139.154 56.8186 137.81C56.6508 137.486 56.4691 137.16 56.2786 136.847C55.8809 136.184 55.6088 135.478 55.4431 134.715C55.0256 132.774 55.3912 131.06 56.8582 129.646C56.946 129.564 57.0284 129.467 57.1162 129.385C58.3825 128.167 59.6417 126.948 60.9133 125.744C61.7138 124.981 62.4772 124.171 63.149 123.294C63.7863 122.469 64.4112 121.629 65.0554 120.805C66.468 119.008 67.6749 117.089 68.6972 115.048C69.2907 113.871 69.8711 112.685 70.4251 111.482C71.5236 109.096 72.9139 106.886 74.5417 104.832C75.8858 103.134 77.3878 101.603 79.0943 100.267C80.8634 98.8809 82.7175 97.6184 84.6927 96.5332C85.3187 96.1918 85.5395 95.4838 85.4721 94.7741C85.4656 94.7053 85.4584 94.6363 85.4503 94.5676C85.3167 93.5316 85.1902 92.4964 85.1782 91.4535C85.1758 91.2335 85.1795 91.0214 85.1622 90.8068C85.0233 89.2742 84.8547 87.7522 84.7368 86.2221C84.6156 84.5994 84.3361 82.9936 84.0777 81.3902C83.8662 80.1112 83.8691 78.822 83.7145 77.5426C83.6965 77.3871 83.6951 77.2266 83.7616 77.0843C83.875 76.8416 84.2063 76.7558 84.4569 76.8506C84.8798 76.9996 85.177 77.3109 85.4412 77.6609C86.6535 79.2491 87.8736 80.8311 89.085 82.4262C91.0034 84.9549 92.8224 87.5427 94.3557 90.3236C94.4685 90.5281 94.7373 90.5967 94.9695 90.5713C95.0349 90.5642 95.0988 90.5544 95.1616 90.539C95.9311 90.3391 96.7023 90.1253 97.4735 89.9114C97.7571 89.8353 97.9457 89.5671 97.9637 89.274C97.9908 88.8342 97.992 88.4057 97.9426 87.9828C97.8346 87.0915 97.8684 86.2027 97.8742 85.3106C97.8845 83.9585 97.9018 82.6073 97.9191 81.256C97.9232 80.9801 97.9133 80.7027 97.9455 80.4301C98.0935 79.1155 98.0716 77.795 97.9929 76.475C97.9245 75.3687 98.0049 74.2658 98.1693 73.1727C98.2155 72.9018 98.3045 72.6289 98.4121 72.3794C98.5822 71.9519 99.1968 72.0875 99.513 72.4216C99.6372 72.5528 99.7525 72.6991 99.8709 72.8417C100.938 74.1577 101.864 75.5776 102.745 77.0205C104.668 80.1732 106.432 83.4134 107.998 86.7579C108.358 87.5182 108.725 88.2721 109.095 89.0294L109.207 89.2599C109.417 89.6908 109.739 90.0692 110.159 90.3001C111.568 91.0612 112.979 91.8153 114.388 92.5765C116.011 93.4549 117.606 94.3867 119.255 95.2256C121.372 96.304 123.385 97.5542 125.362 98.864C127.003 99.95 128.634 101.056 130.223 102.221C131.858 103.42 133.457 104.678 135.049 105.935C137.058 107.518 138.96 109.223 140.812 110.986C142.109 112.215 143.407 113.445 144.648 114.725C146.402 116.54 148.092 118.418 149.838 120.239C152.961 123.512 156.14 126.735 159.128 130.133C160.757 131.983 162.356 133.851 163.93 135.744C165.841 138.038 167.721 140.349 169.868 142.437C171.042 143.574 172.265 144.647 173.595 145.597C174.801 146.455 176.007 147.312 177.206 148.169C178.156 148.848 179.115 149.513 180.16 150.054L180.161 150.055C181.473 150.734 182.785 151.412 184.106 152.071C184.656 152.348 185.225 152.585 185.793 152.829C187.132 153.405 188.532 153.761 189.93 154.138C191.804 154.635 193.692 155.07 195.577 155.533C196.564 155.777 197.544 156.084 198.541 156.244C200.668 156.579 202.805 156.838 204.938 157.124C205.728 157.232 206.528 157.319 207.317 157.433C208.288 157.576 209.264 157.733 210.233 157.89C211.717 158.135 213.208 158.389 214.692 158.635C215.542 158.777 216.392 158.92 217.243 159.055C218.665 159.28 220.107 159.464 221.526 159.723C224.857 160.335 228.192 160.912 231.579 161.112C232.404 161.16 233.231 161.257 234.06 161.341C235.063 161.445 236.072 161.563 237.082 161.675C243.267 162.368 249.739 163.754 255.947 163.826C260.643 164.372 265.639 164.415 270.062 166.19C271.459 166.751 272.863 167.32 274.25 167.909C274.899 168.191 275.563 168.46 276.158 168.835C277.648 169.761 279.111 170.727 280.565 171.713C282.229 172.838 283.695 174.208 285.219 175.499C286.136 176.281 286.988 177.125 287.776 178.032C288.547 178.91 289.301 179.806 290.071 180.683C291.561 182.389 292.814 184.23 293.773 186.285C295.11 189.163 296.135 192.153 296.894 195.233C297.37 197.166 297.713 199.134 297.977 201.113C298.237 203.064 298.397 205.017 298.435 206.984C298.457 208.248 298.451 209.502 298.508 210.762C298.613 213.248 298.625 215.736 298.63 218.223C298.636 220.222 298.756 222.213 299.164 224.174C299.683 226.637 300.52 228.939 302.115 230.955C303.55 232.768 304.979 234.566 306.746 236.085C308.314 237.432 309.858 238.797 311.627 239.877C312.363 240.325 313.081 240.806 313.782 241.306C314.837 242.061 315.974 242.663 317.171 243.172C317.821 243.447 318.487 243.703 319.108 244.038C320.631 244.855 322.223 245.517 323.815 246.172C325.902 247.028 328.052 247.656 330.323 247.796C330.989 247.833 331.464 248.373 331.828 248.931C332.098 249.345 332.371 249.755 332.667 250.148C333.915 251.797 334.972 253.558 335.997 255.351C336.938 257.007 337.811 258.704 338.897 260.277C340.365 262.406 341.589 264.675 342.706 267.01C343.595 268.872 344.545 270.699 345.54 272.502Z" fill="white"/>
<path d="M347.961 278.868C348.064 278.788 348.204 278.82 348.274 278.929C349.099 280.375 349.888 281.832 350.742 283.266C351.907 285.226 353.11 287.154 354.396 289.04C354.532 289.244 354.675 289.449 354.774 289.671C354.961 290.092 354.984 290.52 354.66 290.886C354.113 291.508 353.592 292.167 352.981 292.719C352.023 293.585 350.939 294.298 349.805 294.928C349.7 294.988 349.583 295.034 349.472 295.087C348.982 295.332 348.52 295.288 348.102 294.923C348.011 294.843 347.911 294.77 347.828 294.677C347.074 293.911 346.288 293.171 345.573 292.366C344.009 290.588 342.468 288.784 340.935 286.981C340.295 286.232 340.339 285.12 341.07 284.46C342.043 283.582 343.061 282.756 344.076 281.927C345.347 280.885 346.653 279.879 347.961 278.868Z" fill="#2F3D4D"/>
<path d="M68.0248 124.976C68.5565 125.648 69.1822 126.246 69.7288 126.912C70.549 127.909 71.2996 128.953 72.0415 130.011C72.9046 131.246 73.6606 132.547 74.4008 133.86C74.4437 133.935 74.4859 134.011 74.5275 134.086C75.3235 135.536 74.5308 137.277 73.2614 138.338C72.5281 138.953 71.7895 139.553 71.0694 140.177C69.8571 141.238 68.5562 142.148 66.9915 142.644C65.5595 143.099 64.1449 143.166 62.7574 142.521C61.7538 142.055 60.7534 141.562 59.7954 141.01C58.4843 140.261 57.4893 139.18 56.7873 137.843C56.6196 137.519 56.4378 137.193 56.2474 136.88C55.8496 136.217 55.5784 135.505 55.4119 134.748C54.9952 132.801 55.36 131.094 56.8271 129.679C56.9157 129.591 56.9973 129.501 57.0851 129.419C58.3506 128.208 59.6107 126.982 60.8823 125.779C61.6898 125.016 62.4454 124.213 63.1181 123.328C63.8925 122.329 65.3603 122.167 66.2525 123.062C66.3018 123.112 66.351 123.162 66.4 123.212C66.9721 123.782 67.5302 124.351 68.0248 124.976Z" fill="#2F3D4D"/>
<path d="M25.8859 183.818C26.3616 185.085 26.756 186.379 27.2474 187.634C27.8262 189.112 26.9412 190.733 25.4195 191.186C22.4945 192.056 19.5982 193.018 16.6803 193.921C16.208 194.071 15.8419 194.042 15.5077 193.683C15.2995 193.46 15.0773 193.236 14.924 192.97C14.5811 192.384 14.253 191.793 13.9694 191.185C13.3755 189.897 12.9674 188.538 12.6756 187.158C12.5724 186.667 12.5285 186.171 12.5244 185.676C12.5163 184.689 12.965 183.728 13.8437 183.278C15.1289 182.622 16.4211 181.966 17.7186 181.325C19.4304 180.486 21.1537 179.668 22.9508 179.008C23.3673 178.853 23.8341 179.041 24.0211 179.444C24.2607 179.961 24.4934 180.48 24.7191 181.002C25.1416 181.937 25.536 182.87 25.8859 183.818Z" fill="#2F3D4D"/>
<path d="M46.2491 229.461C46.3263 229.566 46.2918 229.706 46.1803 229.773C44.7158 230.564 43.2415 231.319 41.7877 232.139C39.8014 233.259 37.846 234.417 35.9306 235.658C35.7233 235.79 35.5151 235.928 35.2909 236.022C34.8651 236.199 34.4373 236.212 34.0787 235.879C33.4699 235.319 32.8228 234.782 32.2853 234.159C31.4416 233.181 30.7545 232.08 30.151 230.932C30.0925 230.826 30.0496 230.707 29.9989 230.595C29.7661 230.1 29.8204 229.639 30.1955 229.23C30.2771 229.14 30.3526 229.043 30.4474 228.962C31.2305 228.225 31.9889 227.457 32.81 226.76C34.6236 225.238 36.4627 223.74 38.3011 222.249C39.0647 221.627 40.1754 221.697 40.8186 222.443C41.6741 223.435 42.4755 224.472 43.2806 225.506C44.2929 226.801 45.2688 228.13 46.2491 229.461Z" fill="#2F3D4D"/>
<path d="M287.252 251.66C288.439 250.39 289.835 249.4 291.397 248.627C292.958 247.861 294.585 247.323 296.295 247.036C296.752 246.962 297.216 246.938 297.661 246.842C298.581 246.632 299.513 246.685 300.417 246.784C301.575 246.906 302.72 247.14 303.849 247.45C305.294 247.847 306.629 248.451 307.886 249.243C308.924 249.897 309.951 250.585 310.929 251.33C311.952 252.11 312.965 252.923 313.864 253.851C314.466 254.468 315.046 255.096 315.592 255.769C317.154 257.703 318.32 259.86 319.274 262.133C320.077 264.062 320.65 266.071 321.031 268.135C321.139 268.704 320.743 269.24 320.166 269.293C319.299 269.372 318.423 269.394 317.54 269.361C316.944 269.337 316.345 269.288 315.753 269.227C315.678 269.219 315.614 269.178 315.575 269.113C315.515 269.016 315.387 268.975 315.283 269.022C315.228 269.046 315.176 269.07 315.125 269.092C315.053 269.124 314.974 269.136 314.896 269.126C313.887 268.99 312.875 268.816 311.872 268.623C311.386 268.53 310.906 268.445 310.422 268.332C309.649 268.141 308.867 267.964 308.108 267.712C306.502 267.169 304.915 266.592 303.32 266.015C302.189 265.605 301.076 265.17 299.954 264.74C299.057 264.393 298.23 263.935 297.399 263.454C296.521 262.947 295.636 262.439 294.729 261.992C293.312 261.301 291.981 260.478 290.669 259.615C289.179 258.632 287.681 257.662 286.243 256.6C285.413 255.99 285.165 254.854 285.678 253.96C286.017 253.369 286.382 252.793 286.779 252.235C286.931 252.033 287.082 251.839 287.252 251.66Z" fill="#B6DADD"/>
<path d="M239.97 247.045C240.426 247.035 240.891 247.069 241.35 247.094C241.625 247.113 241.901 247.181 242.17 247.184C243.847 247.183 245.47 247.523 247.087 247.905C249.402 248.453 251.596 249.314 253.711 250.413C255.867 251.531 257.73 253.019 259.45 254.702C260.444 255.669 261.303 256.755 262.124 257.865C262.908 258.928 263.66 260.022 264.299 261.174C265.428 263.22 266.355 265.363 267.012 267.622C267.587 269.61 267.962 271.616 267.958 273.692C267.957 274.428 267.919 275.168 267.938 275.907C267.964 276.774 267.8 277.619 267.658 278.467C267.311 280.445 266.704 282.336 265.68 284.086C265.532 284.343 265.372 284.598 265.206 284.848C265.182 284.884 265.137 284.893 265.097 284.875C263.546 283.991 262.066 282.987 260.558 282.038C260.399 281.941 260.256 281.825 260.114 281.709C258.199 280.116 256.26 278.542 254.591 276.673C254.49 276.562 254.368 276.456 254.267 276.345C253.704 275.698 253.127 275.049 252.579 274.396C252.087 273.807 251.604 273.204 251.128 272.603C250.708 272.072 250.295 271.534 249.898 270.984C249.464 270.388 249.054 269.773 248.65 269.158C247.947 268.077 247.228 267 246.578 265.889C246.11 265.097 245.749 264.24 245.305 263.43C244.405 261.779 243.551 260.113 242.779 258.407C242.452 257.681 242.066 256.977 241.688 256.273C240.894 254.813 240.137 253.342 239.531 251.79C238.965 250.328 238.376 248.877 237.765 247.43C237.721 247.338 237.79 247.236 237.892 247.226C238.092 247.208 238.292 247.191 238.49 247.183C238.994 247.129 239.485 247.059 239.97 247.045Z" fill="#B6DADD"/>
<path d="M90.6051 200.259C90.4341 200.685 90.2559 201.111 90.0779 201.536C89.0522 203.966 87.5002 205.98 85.3427 207.525C83.7895 208.646 82.1299 209.584 80.3833 210.356C79.3182 210.833 78.2238 211.257 77.1157 211.616C75.7117 212.074 74.2826 212.444 72.8073 212.603C71.8646 212.705 70.9198 212.884 69.963 212.864C68.8295 212.836 67.6893 212.865 66.5599 212.682C65.681 212.544 64.7997 212.426 63.9283 212.224C62.0128 211.779 60.2671 210.978 58.6505 209.867C58.1183 209.499 57.7457 209.044 57.5165 208.458C57.4213 208.195 57.5226 207.908 57.7532 207.75C58.0613 207.538 58.3706 207.328 58.6769 207.114C60.6267 205.763 62.588 204.435 64.6458 203.254C66.9633 201.918 69.4201 200.967 72.0429 200.476C74.3686 200.034 76.7133 199.672 79.0472 199.281C79.8951 199.14 80.7439 198.992 81.6025 198.88C82.8519 198.709 84.1005 198.544 85.3582 198.423C86.9464 198.27 88.5351 198.053 90.1427 198.037C90.2635 198.037 90.3859 198.023 90.5145 198.017C90.9563 197.981 91.3209 198.361 91.1845 198.782C91.145 198.904 91.0998 199.026 91.0487 199.149C90.878 199.512 90.7556 199.887 90.6051 200.259Z" fill="#B6DADD"/>
<path d="M76.242 171.232C75.7189 171.752 75.1517 172.224 74.5783 172.687C73.5968 173.479 72.6153 174.27 71.5064 174.877C70.5875 175.378 69.6625 175.871 68.716 176.305C67.7923 176.728 66.8408 177.084 65.8375 177.277C64.7835 177.479 63.7269 177.702 62.6638 177.86C61.2388 178.075 59.8096 178.325 58.3599 178.268C57.3129 178.229 56.2646 178.262 55.22 178.203C54.3936 178.162 53.5658 178.072 52.75 177.94C51.4462 177.73 50.1601 177.43 48.8918 177.039C47.6584 176.653 46.4354 176.24 45.275 175.657C43.9453 174.992 42.6999 174.2 41.5108 173.328C41.1495 173.063 41.2539 172.508 41.6831 172.379C44.1688 171.665 46.6293 170.864 49.1727 170.384C50.5606 170.122 51.9564 169.854 53.3435 169.599C54.0402 169.476 54.7422 169.367 55.4409 169.286C56.6948 169.137 57.9517 169.022 59.2048 168.879C60.4291 168.74 61.648 168.586 62.8838 168.59C63.1324 168.591 63.3765 168.57 63.6205 168.549C64.5678 168.469 65.5192 168.354 66.4677 168.324C68.558 168.252 70.6574 168.222 72.7507 168.185C74.1702 168.16 75.5893 168.138 77.0107 168.12C77.7953 168.11 78.3356 168.837 77.858 169.46C77.3707 170.097 76.8121 170.676 76.242 171.232Z" fill="#B6DADD"/>
<path d="M113.152 172.323C113.215 173.053 113.263 173.788 113.34 174.52C113.522 176.284 113.777 178.043 113.996 179.797C114.066 180.344 114.116 180.888 114.186 181.435C114.341 182.65 114.497 183.859 114.652 185.074C114.782 186.138 114.876 187.205 115.042 188.266C115.279 189.81 115.568 191.338 115.819 192.884C115.865 193.151 115.867 193.435 115.842 193.708C115.827 193.834 115.681 193.883 115.562 193.843C114.785 193.58 113.982 193.308 113.166 193.089C112.001 192.778 110.836 192.472 109.671 192.167C108.199 191.781 107.141 190.431 107.537 188.962C107.688 188.399 107.867 187.846 108.053 187.294C108.249 186.715 108.419 186.119 108.677 185.561C109.102 184.669 109.41 183.742 109.705 182.806C109.965 181.986 110.234 181.154 110.229 180.296C110.224 179.013 110.127 177.726 110.065 176.444C110.062 176.351 110.023 176.262 110.012 176.175C109.91 175.597 109.921 175.017 110.032 174.435C110.068 174.255 110.118 174.07 110.118 173.893C110.115 172.589 110.412 171.341 110.75 170.099C110.769 170.033 110.788 169.968 110.807 169.902C110.929 169.487 111.339 169.233 111.77 169.284C112.153 169.329 112.55 169.446 112.915 169.294C112.918 169.292 112.921 169.29 112.922 169.287C112.931 169.271 112.959 169.276 112.959 169.294C112.948 170.325 113.063 171.325 113.152 172.323Z" fill="#B6DADD"/>
<path d="M106.54 123.26C107.298 122.499 108.011 121.691 108.736 120.905C109.193 120.406 109.669 119.923 110.08 119.391C110.868 118.371 111.644 117.336 112.385 116.29C112.863 115.617 113.268 114.892 113.726 114.202C113.934 113.888 114.115 113.556 114.309 113.238C114.67 112.647 115.407 112.028 115.916 112.498C116.198 112.757 116.208 113.092 116.132 113.437C116.118 113.499 116.09 113.552 116.083 113.615C115.815 115.1 115.245 116.499 114.834 117.939C114.819 118.001 114.799 118.055 114.771 118.108C114.196 119.365 113.636 120.624 113.027 121.87C112.679 122.587 112.264 123.275 111.857 123.957C111.308 124.877 110.759 125.797 110.117 126.664C109.072 128.068 107.873 129.322 106.612 130.519C106.377 130.742 105.989 130.647 105.875 130.344C105.745 130.003 105.653 129.638 105.537 129.291C105.217 128.333 104.905 127.368 104.577 126.408C104.489 126.165 104.379 125.843 104.531 125.633C104.931 125.078 105.769 124.032 106.54 123.26Z" fill="#B6DADD"/>
<path d="M222.906 214.743C222.825 215.227 222.649 215.692 222.349 216.104C221.819 216.66 221.32 217.244 220.767 217.762C219.887 218.584 218.85 219.192 217.851 219.851C216.684 220.616 215.457 221.236 214.145 221.685C213.304 221.977 212.451 222.249 211.614 222.544C210.137 223.074 208.597 223.379 207.076 223.767C206.87 223.819 206.65 223.823 206.436 223.841C206.163 223.863 205.889 223.885 205.61 223.902C204.785 223.963 203.956 224.059 203.133 224.085C201.322 224.141 199.513 224.133 197.697 223.951C195.882 223.769 194.112 223.419 192.382 222.843C191.372 222.506 190.5 221.972 189.804 221.142C189.119 220.322 189.072 219.388 189.7 218.541C189.908 218.264 190.16 218.054 190.459 217.886C191.783 217.136 193.156 216.553 194.672 216.33C196.346 216.077 198.015 215.83 199.695 215.611C201.862 215.333 204.01 214.906 206.172 214.549C206.474 214.495 206.782 214.476 207.085 214.433C208.392 214.232 209.706 214.077 211.005 213.822C212.181 213.6 213.334 213.245 214.509 213.013C215.926 212.731 217.361 212.493 218.787 212.285C219.639 212.163 220.493 212.145 221.339 212.422C222.11 212.678 222.53 213.266 222.86 213.923C222.97 214.161 222.944 214.477 222.906 214.743Z" fill="#E1EDEF"/>
<path d="M281.667 177.175C281.65 177.756 281.572 178.318 281.425 178.85C281.109 179.989 280.274 180.884 279.468 181.75C278.701 182.574 277.936 183.393 277.099 184.13C275.068 185.916 272.539 187.094 270.131 188.421C267.314 189.955 264.287 191.094 260.972 191.768C258.846 192.207 256.683 192.593 254.572 193.046C250.849 193.865 246.873 194.083 242.982 194.522C242.453 194.582 241.872 194.511 241.311 194.479C240.593 194.436 239.876 194.392 239.142 194.334C236.974 194.189 234.811 194.132 232.637 193.898C227.854 193.383 223.051 192.702 218.168 191.573C213.286 190.444 208.461 188.902 203.661 186.794C200.858 185.563 198.348 183.875 196.199 181.495C194.081 179.143 193.613 176.731 194.969 174.791C195.419 174.157 196.01 173.711 196.743 173.389C199.979 171.951 203.409 170.957 207.348 170.939C211.696 170.902 216.033 170.876 220.411 170.93C226.058 171.008 231.599 170.698 237.204 170.57C237.984 170.543 238.796 170.607 239.582 170.606C242.976 170.57 246.406 170.65 249.759 170.471C252.796 170.331 255.724 169.841 258.757 169.676C262.412 169.47 266.131 169.384 269.84 169.372C272.055 169.37 274.313 169.636 276.66 170.654C278.798 171.593 280.129 173.251 281.246 175.057C281.624 175.706 281.672 176.506 281.667 177.175Z" fill="#E1EDEF"/>
<path d="M219.82 227.47C220.971 226.868 222.193 226.445 223.42 226.044C224.617 225.654 225.83 225.315 227.053 224.998C228.864 224.524 230.687 224.073 232.507 223.635C233.041 223.507 233.597 223.431 234.143 223.381C235.062 223.298 235.977 223.257 236.9 223.196C237.022 223.189 237.14 223.153 237.262 223.139C237.6 223.108 237.93 223.076 238.267 223.052C238.983 223.009 239.672 223.189 240.358 223.334C241.087 223.483 241.764 223.769 242.235 224.412C242.657 224.986 242.752 225.564 242.454 226.223C242.205 226.775 241.821 227.197 241.315 227.513C240.301 228.152 239.27 228.768 238.134 229.179C237.443 229.431 236.758 229.705 236.072 229.978C234.521 230.596 232.912 230.988 231.277 231.291C229.526 231.617 227.795 232.022 226.018 232.21C225.774 232.236 225.53 232.262 225.287 232.287C223.778 232.447 222.25 232.491 220.751 232.261C220.705 232.254 220.66 232.247 220.614 232.239C219.945 232.132 219.313 231.888 218.731 231.522C217.58 230.798 217.424 229.412 218.375 228.454C218.802 228.03 219.305 227.742 219.82 227.47Z" fill="#E1EDEF"/>
<path d="M123.538 190.638C123.918 189.768 124.952 188.955 126.188 189.497C126.384 189.584 126.587 189.665 126.766 189.778C127.429 190.182 128 190.702 128.436 191.335C128.873 191.967 129.281 192.61 129.694 193.261C130.928 195.206 132.033 197.22 133.054 199.282C133.174 199.53 133.294 199.785 133.437 200.014C134.45 201.6 135.155 203.334 135.943 205.028C136.249 205.687 136.323 206.383 136.239 207.096C136.162 207.745 135.71 208.266 135.08 208.369C134.536 208.461 133.983 208.452 133.451 208.206C132.233 207.63 131.232 206.782 130.322 205.825C129.88 205.355 129.469 204.86 129.051 204.372C128.85 204.143 128.659 203.901 128.466 203.665C127.533 202.486 126.754 201.197 125.906 199.956C125.041 198.678 124.366 197.295 123.855 195.847C123.483 194.783 123.158 193.682 123.247 192.509C123.228 191.883 123.274 191.251 123.538 190.638Z" fill="#E1EDEF"/>
<path d="M112.947 144.111C112.524 143.062 112.139 141.99 111.753 140.924C111.431 140.043 111.376 139.123 111.471 138.199C111.556 137.415 111.932 136.815 112.718 136.539C113.237 136.359 113.738 136.383 114.238 136.605C115.501 137.157 116.392 138.155 117.154 139.222C118.85 141.59 120.07 144.192 120.633 147.07C120.811 147.97 121.01 148.872 120.959 149.907C120.957 150.042 120.971 150.284 120.949 150.53C120.867 151.349 120.561 152.071 119.986 152.669C119.525 153.146 118.909 153.251 118.302 152.974C118.134 152.897 117.968 152.8 117.841 152.671C117.491 152.326 117.11 151.997 116.823 151.602C115.79 150.184 114.963 148.642 114.219 147.059C113.765 146.092 113.348 145.108 112.947 144.111Z" fill="#E1EDEF"/>
<path d="M99.9942 77.5556C100.136 78.5216 100.299 79.49 100.433 80.4552C100.511 81.0027 100.553 81.5461 100.617 82.092C100.705 82.91 100.807 83.7297 100.887 84.5538C100.968 85.371 101.056 86.196 101.115 87.0177C101.129 87.2104 101.139 87.404 101.148 87.6001C101.189 88.5293 100.937 89.5701 100.008 89.6006C99.8529 89.6077 99.6983 89.6127 99.5439 89.616C98.6722 89.6346 98.0469 88.8618 97.9382 87.9968C97.8303 87.1056 97.8572 86.2161 97.87 85.325C97.8804 83.9731 97.8977 82.622 97.9151 81.271C97.9192 80.9951 97.9163 80.7185 97.9415 80.4452C98.0895 79.1308 98.0677 77.8105 97.9891 76.4906C97.9216 75.3775 98.0011 74.2817 98.1656 73.1888C98.2048 72.9172 98.3 72.6521 98.4084 72.3956C98.4902 72.212 98.6318 72.0542 98.8961 72.0417C98.9301 72.0401 98.9634 72.0456 98.9947 72.0589C99.091 72.0999 99.1537 72.1945 99.1732 72.2974C99.3156 73.0476 99.4515 73.7975 99.5744 74.552C99.7401 75.5562 99.8488 76.5608 99.9942 77.5556Z" fill="#E1EDEF"/>
<path d="M87.3506 87.3179C87.869 89.306 88.417 91.2833 88.9433 93.2652C88.9828 93.4115 88.9998 93.5694 89.0175 93.7202C89.0525 94.0857 88.9173 94.3886 88.6222 94.6018C88.4751 94.7049 88.3148 94.7993 88.1438 94.8642C87.4292 95.1414 86.7191 95.4403 85.9822 95.6653C85.7461 95.7395 85.5116 95.5697 85.4964 95.3226C85.4816 95.0837 85.4644 94.8352 85.4345 94.5877C85.308 93.5526 85.1745 92.5167 85.1626 91.4739C85.1593 91.261 85.1638 91.0419 85.1465 90.8273C85.0068 89.3019 84.8321 87.7723 84.7213 86.2432C84.6002 84.6207 84.3208 83.0151 84.0624 81.4119C83.858 80.1338 83.8539 78.844 83.6994 77.5648C83.6813 77.4093 83.6799 77.2488 83.7464 77.1065C83.8598 76.8638 84.1911 76.7781 84.4416 76.8729C84.6049 76.9313 84.7079 77.0871 84.7522 77.2548C85.2302 79.0622 85.7068 80.8755 86.1707 82.6874C86.5861 84.2241 86.95 85.7759 87.3506 87.3179Z" fill="#E1EDEF"/>
<path d="M97.0188 199.689C98.079 199.374 99.1673 199.183 100.285 199.166C101.524 199.142 102.735 199.355 103.932 199.624C105.082 199.88 106.168 200.369 107.082 201.114C108.061 201.91 108.065 203.016 107.041 203.745C106.747 203.951 106.387 204.108 106.042 204.202C105.258 204.411 104.466 204.558 103.664 204.655C102.519 204.794 101.367 204.674 100.217 204.581C100.183 204.579 100.149 204.576 100.116 204.574C99.4676 204.526 98.8275 204.472 98.198 204.327C97.3546 204.128 96.543 203.841 95.801 203.385C94.7346 202.728 94.6106 201.552 95.4627 200.653C95.9021 200.181 96.4223 199.866 97.0188 199.689Z" fill="#E1EDEF"/>
<path d="M102.355 97.5703C101.81 97.9737 101.218 98.2937 100.625 98.6207C98.8991 99.5794 97.0948 100.359 95.2077 100.937C94.3973 101.182 93.5779 101.263 92.7423 101.178C91.5267 101.064 90.8751 99.9029 91.4204 98.8335C91.5412 98.5927 91.6917 98.3412 91.8908 98.1591C92.2436 97.8181 92.622 97.5013 93.0112 97.2141C93.9069 96.5473 94.902 96.0623 95.9317 95.645C97.4465 95.0299 98.9956 94.5463 100.67 94.623C101.011 94.6277 101.348 94.6035 101.684 94.6431C102.393 94.7195 102.87 95.1299 103.135 95.7705C103.213 95.9567 103.233 96.2071 103.176 96.3916C103.015 96.8475 102.775 97.2584 102.355 97.5703Z" fill="#E1EDEF"/>
<path d="M277.446 265.313C277.849 265.269 278.24 265.329 278.609 265.514C279.729 266.078 280.615 266.933 281.448 267.825C282.009 268.429 282.505 269.104 282.994 269.771C283.704 270.74 284.284 271.786 284.667 272.936C285.018 273.991 284.445 274.816 283.41 274.801C282.906 274.798 282.494 274.671 282.124 274.437C281.08 273.775 280.101 273.037 279.287 272.105C279.024 271.805 278.801 271.474 278.53 271.18C277.793 270.377 277.233 269.461 276.735 268.51C276.497 268.057 276.337 267.542 276.212 267.038C276.01 266.221 276.612 265.399 277.446 265.313Z" fill="#E1EDEF"/>
<path d="M326.217 250.997C326.858 251.1 327.473 251.307 328.038 251.636C328.491 251.895 328.944 252.154 329.396 252.412C330.933 253.295 332.062 254.568 332.974 256.05C333.237 256.471 333.38 256.941 333.404 257.341C333.394 258.388 332.474 259.08 331.547 258.815C331.073 258.674 330.61 258.507 330.165 258.298C328.704 257.616 327.442 256.632 326.137 255.706C325.691 255.391 325.324 254.951 324.968 254.534C324.569 254.062 324.24 253.541 324.107 252.923C324.071 252.749 324.023 252.552 324.057 252.386C324.307 251.346 325.136 250.827 326.217 250.997Z" fill="#E1EDEF"/>
<path d="M90.8461 174.58C90.5385 174.778 90.1993 174.943 89.8473 175.036C88.9878 175.275 88.0958 175.369 87.2087 175.42C86.2866 175.467 85.3578 175.45 84.4402 175.399C83.5515 175.344 82.6714 175.155 81.8676 174.742C81.8233 174.719 81.7798 174.695 81.7372 174.671C80.622 174.043 80.5239 172.283 81.6266 171.633C81.8201 171.519 82.0325 171.423 82.2552 171.337C82.3372 171.304 82.4325 171.28 82.5199 171.261C83.1786 171.098 83.8357 170.949 84.5158 170.965C85.1321 170.981 85.7491 170.99 86.3617 170.977C87.487 170.954 88.5575 171.214 89.612 171.551C89.9339 171.653 90.2361 171.802 90.5374 171.957C90.8721 172.131 91.1322 172.396 91.3061 172.728C91.6804 173.41 91.5064 174.162 90.8461 174.58Z" fill="#E1EDEF"/>
<path d="M286.841 290.899C286.954 289.523 289.187 289.396 289.751 290.656C289.914 291.022 290.107 291.371 290.263 291.737C290.714 292.789 291.02 293.873 291.004 295.026C291.001 295.295 290.945 295.586 290.839 295.821C290.461 296.62 289.607 296.817 288.925 296.269C288.588 295.996 288.321 295.667 288.119 295.274C287.523 294.12 287.112 292.91 286.887 291.63C286.839 291.358 286.823 291.116 286.841 290.899Z" fill="#E1EDEF"/>
<path d="M167.949 170.065C168.239 170.3 168.672 170.235 169.032 170.132C169.247 170.071 169.456 170.009 169.662 169.94C172.7 168.881 175.525 167.393 178.248 165.694C180.172 164.497 181.974 163.136 183.734 161.707C186.059 159.827 188.156 157.707 190.216 155.541C191.959 153.713 193.459 151.721 194.809 149.606C195.585 148.394 196.228 147.095 196.924 145.831C197.233 145.265 197.212 144.717 196.774 144.212C196.449 143.84 196.154 143.444 195.811 143.099C194.917 142.186 194.007 141.293 193.105 140.386C192.845 140.121 192.607 139.846 192.34 139.587C191 138.296 189.612 137.055 188.074 135.996C186.195 134.705 184.118 133.822 181.977 133.06C180.497 132.532 179.005 132.051 177.607 131.32C176.423 130.698 175.337 129.961 174.406 129.001C173.52 128.082 172.53 127.257 171.787 126.213C170.347 124.202 168.925 122.171 167.883 119.915C166.831 117.637 165.449 115.562 163.809 113.682C161.806 111.392 159.479 109.495 156.628 108.309C155.367 107.792 154.046 107.488 152.724 107.191C151.298 106.874 149.87 106.578 148.476 106.109C146.726 105.521 145.153 104.584 143.589 103.628C142.231 102.795 141.032 101.754 139.833 100.72C138.492 99.5629 137.157 98.4068 135.824 97.2436C135.399 96.8677 134.984 96.4717 134.584 96.0703C133.599 95.0898 132.44 94.3156 131.32 93.5037C130.039 92.5663 128.617 91.8462 127.246 91.0613C125.643 90.1426 123.968 89.3432 122.178 88.8561C120.967 88.5222 119.711 88.3317 118.474 88.094C116.245 87.6614 113.995 87.7648 111.749 87.8333C110.9 87.8609 110.067 88.0533 109.272 88.3494C108.544 88.6179 108.409 89.1617 108.894 89.7502C108.999 89.883 109.119 90.0105 109.241 90.117C109.726 90.5213 110.195 90.9449 110.705 91.3168C111.538 91.9107 112.224 92.6576 112.927 93.3851C114.11 94.6156 115.063 95.996 115.981 97.422C116.911 98.8777 117.682 100.407 118.272 102.035C118.587 102.915 118.992 103.763 119.359 104.622C119.689 105.383 120.041 106.133 120.347 106.906C120.905 108.318 121.592 109.66 122.54 110.841C124.163 112.861 126.072 114.566 128.439 115.702C129.575 116.247 130.682 116.859 131.738 117.55C133.083 118.431 134.295 119.481 135.393 120.652C135.777 121.066 136.113 121.537 136.396 122.024C137.03 123.098 137.64 124.19 138.032 125.377C138.326 126.261 138.552 127.174 138.786 128.08C139.331 130.206 139.986 132.302 140.744 134.368C141.325 135.953 142.155 137.404 143.231 138.707C143.349 138.848 143.467 138.99 143.57 139.143C144.441 140.429 145.593 141.444 146.711 142.51C148.16 143.893 149.766 145.038 151.461 146.081C152.356 146.633 153.2 147.242 153.993 147.931C155.094 148.89 156.204 149.842 157.096 151.017C157.728 151.857 158.3 152.732 158.743 153.677C159.732 155.77 160.742 157.866 161.657 159.992C162.292 161.47 163.107 162.877 163.855 164.304C164.388 165.323 164.943 166.338 165.637 167.263C166.171 167.978 166.712 168.693 167.262 169.389C167.46 169.639 167.703 169.866 167.949 170.065Z" fill="#B6DADD"/>
<path d="M91.6713 108.226C91.9288 107.827 92.0857 107.329 91.9877 106.864C91.914 106.49 91.6724 106.215 91.2914 106.153C90.9973 106.098 90.6785 106.072 90.386 106.121C89.6761 106.238 89.0321 106.533 88.4477 106.938C88.011 107.236 87.7299 107.646 87.6333 108.171C87.525 108.774 87.8007 109.321 88.3682 109.557C88.702 109.693 89.054 109.752 89.4091 109.672C90.2734 109.474 91.0206 109.072 91.5755 108.36C91.6097 108.317 91.6414 108.272 91.6713 108.226Z" fill="#2F3D4D"/>
<path d="M61.2542 133.716C61.3905 133.025 61.352 132.314 61.2521 131.618C61.2373 131.503 61.1874 131.384 61.1367 131.271C60.8589 130.735 60.3672 130.628 59.9344 131.045C59.718 131.253 59.5379 131.515 59.4068 131.783C59.0626 132.472 58.8615 133.214 58.7506 133.973C58.6879 134.384 58.7312 134.8 58.854 135.204C59.0853 135.954 59.7641 136.161 60.3589 135.636C60.5728 135.449 60.7451 135.193 60.8605 134.937C61.0441 134.544 61.171 134.136 61.2542 133.716Z" fill="#B6DADD"/>
<path d="M178.188 155.11C176.074 152.856 173.665 150.928 171.17 149.132C169.147 147.675 167.046 146.33 164.971 144.952C162.374 143.236 159.784 141.521 157.424 139.486C154.897 137.304 152.647 134.871 150.686 132.167C149.671 130.772 148.733 129.329 147.763 127.911C146.976 126.756 146.236 125.563 145.409 124.439C143.603 121.98 141.624 119.671 139.326 117.643C137.95 116.425 136.519 115.3 134.923 114.376C133.115 113.327 131.325 112.237 129.526 111.168C127.846 110.169 126.317 108.976 125.083 107.456C123.905 106 122.712 104.548 121.605 103.029C120.376 101.34 119.242 99.5768 117.857 98.0038C116.855 96.8584 115.956 95.626 114.804 94.6117C114.501 94.3493 114.206 94.0808 113.92 93.799C112.961 92.8358 111.891 92.0226 110.728 91.3471C110.705 91.3321 110.684 91.314 110.662 91.298C110.164 90.9386 109.705 90.5245 109.231 90.1222C109.102 90.0149 108.989 89.8882 108.884 89.7554C108.584 89.3976 108.993 89.0434 109.459 89.0065C109.556 88.9988 109.653 88.989 109.75 88.9788C109.857 88.9702 109.965 88.9616 110.072 88.96C112.917 88.87 115.727 89.1372 118.503 89.8184C121.216 90.4851 123.646 91.749 126.023 93.1626C127.716 94.1697 129.235 95.383 130.562 96.843C130.744 97.0486 130.956 97.2366 131.154 97.4299C132.153 98.412 133.153 99.3872 134.153 100.369C134.395 100.603 134.605 100.876 134.863 101.098C135.925 102.03 136.986 102.97 138.072 103.885C138.687 104.396 139.308 104.909 139.991 105.322C142.353 106.741 144.814 107.98 147.369 109.032C149.165 109.768 150.962 110.49 152.748 111.253C153.451 111.555 154.132 111.926 154.796 112.316C156.124 113.103 157.401 113.962 158.436 115.132C158.849 115.606 159.237 116.105 159.618 116.611C160.791 118.173 161.871 119.795 162.668 121.597C163.037 122.441 163.466 123.256 163.926 124.055C165.541 126.866 167.525 129.381 170.135 131.347C171.499 132.372 172.843 133.444 174.354 134.246C176.66 135.481 178.955 136.743 181.307 137.884C183.867 139.128 186.444 140.346 188.833 141.902C189.71 142.473 190.605 143.018 191.44 143.648C192.964 144.812 194.345 146.128 195.637 147.532C195.787 147.695 195.814 147.939 195.705 148.133C195.531 148.446 195.098 148.49 194.86 148.222C194.828 148.186 194.796 148.15 194.764 148.113C193.317 146.526 191.749 145.066 189.98 143.858C188.33 142.729 186.629 141.671 184.838 140.773C182.571 139.635 180.279 138.529 178.02 137.377C175.474 136.078 172.929 134.765 170.634 133.021C168.944 131.745 167.34 130.408 165.97 128.773C164.313 126.8 162.923 124.673 161.87 122.339C161.069 120.572 160.074 118.946 158.921 117.4C158.326 116.6 157.734 115.779 156.973 115.123C155.651 113.983 154.193 113.031 152.602 112.306C151.429 111.771 150.239 111.262 149.029 110.794C146.161 109.698 143.384 108.421 140.706 106.916C139.673 106.333 138.641 105.751 137.746 104.966C137.314 104.589 136.89 104.213 136.457 103.843C135.184 102.772 133.918 101.702 132.815 100.446C132.484 100.066 132.106 99.7172 131.743 99.3627C130.806 98.4517 129.869 97.5407 128.916 96.6421C128.5 96.253 128.093 95.8508 127.643 95.5073C126.037 94.305 124.327 93.2675 122.509 92.4157C121.479 91.9331 120.462 91.4023 119.35 91.1297C118.17 90.8348 116.989 90.547 115.793 90.3282C114.923 90.1628 114.026 90.1046 113.142 90.0018C113.121 89.9993 113.1 90.0142 113.095 90.0345C113.09 90.0494 113.098 90.0643 113.111 90.072C113.183 90.1136 113.25 90.1582 113.33 90.1869C115.143 90.8964 116.855 91.8065 118.502 92.8366C119.468 93.4393 120.477 93.9832 121.392 94.6578C122.778 95.6783 124.104 96.7839 125.438 97.8763C126.565 98.8026 127.682 99.756 128.776 100.721C129.954 101.759 131.131 102.798 132.252 103.894C133.055 104.675 133.77 105.546 134.524 106.379C135.536 107.497 136.548 108.615 137.568 109.727C139.254 111.57 141.165 113.141 143.328 114.38C145.185 115.442 147.079 116.424 149.055 117.266C150.773 117.999 152.415 118.894 153.858 120.091C154.977 121.024 156.028 122.055 157.081 123.064C157.489 123.459 157.848 123.906 158.201 124.351C158.701 124.991 159.169 125.662 159.66 126.315C160.625 127.591 161.567 128.878 162.347 130.281C164 133.246 166.169 135.818 168.479 138.28C169.306 139.163 170.259 139.935 171.149 140.762C171.809 141.371 172.538 141.875 173.308 142.334C175.716 143.78 178.247 144.971 180.822 146.089C183.187 147.118 185.464 148.293 187.533 149.848C188.394 150.495 189.297 151.097 190.076 151.841C190.595 152.337 191.091 152.854 191.58 153.379C191.753 153.565 191.762 153.85 191.598 154.044C191.407 154.27 191.064 154.275 190.859 154.062C189.853 153.022 188.811 152.02 187.612 151.168C185.508 149.666 183.328 148.332 180.965 147.289C178.486 146.196 176 145.11 173.662 143.729C172.852 143.251 172.016 142.806 171.29 142.217C169.599 140.835 167.95 139.393 166.536 137.711C166.162 137.263 165.797 136.809 165.408 136.366C164.167 134.966 163.072 133.47 162.093 131.888C161.352 130.702 160.633 129.505 159.855 128.336C159.335 127.56 158.701 126.854 158.19 126.071C156.834 124.013 154.99 122.421 153.136 120.85C151.851 119.756 150.361 118.957 148.813 118.293C146.973 117.502 145.2 116.578 143.436 115.633C142.988 115.396 142.548 115.146 142.119 114.869C139.635 113.28 137.495 111.306 135.57 109.074C134.495 107.828 133.389 106.606 132.282 105.392C130.871 103.858 129.257 102.549 127.707 101.169C125.611 99.3066 123.398 97.5865 121.227 95.8145C120.307 95.0614 119.266 94.4924 118.251 93.884C116.665 92.932 115.068 92.0142 113.346 91.3154C113.083 91.208 112.921 91.4839 113.139 91.6666C113.168 91.6909 113.197 91.7155 113.225 91.7404C114.113 92.5251 114.984 93.3292 115.848 94.1325C116.656 94.8794 117.361 95.7064 118.042 96.5589C118.957 97.7152 119.964 98.8117 120.802 100.023C122.215 102.074 123.69 104.083 125.26 106.018C126.555 107.623 128.016 109.035 129.809 110.089C131.498 111.074 133.169 112.086 134.848 113.091C136.394 114.017 137.899 114.988 139.273 116.17C141.892 118.42 144.194 120.951 146.216 123.74C147.413 125.398 148.533 127.109 149.683 128.804C150.549 130.075 151.369 131.376 152.32 132.586C154.556 135.435 157.092 137.966 159.956 140.188C161.661 141.508 163.478 142.672 165.262 143.874C167.855 145.617 170.508 147.276 173 149.164C174.604 150.38 176.173 151.656 177.635 153.047C179.438 154.754 181.041 156.643 182.589 158.576C183.139 159.258 183.684 159.944 184.233 160.628C184.41 160.848 184.38 161.172 184.167 161.358C183.954 161.544 183.635 161.51 183.456 161.292C183.216 160.998 182.978 160.703 182.743 160.401C181.289 158.571 179.777 156.813 178.188 155.11Z" fill="white"/>
<path d="M141.934 128.525C143.066 129.884 144.223 131.225 145.261 132.658C146.948 134.982 148.973 136.964 151.257 138.685C152.132 139.341 153.049 139.93 153.932 140.58C156.063 142.149 158.16 143.763 160.308 145.306C161.926 146.467 163.48 147.691 164.882 149.111C165.962 150.201 167.007 151.337 168.069 152.447C170.372 154.851 172.293 157.536 173.974 160.391C175.022 162.165 175.926 164.015 176.876 165.841C176.898 165.881 176.918 165.921 176.938 165.962C177.053 166.193 176.962 166.474 176.739 166.604C176.663 166.648 176.586 166.693 176.51 166.737C176.385 166.809 176.233 166.755 176.165 166.629C175.43 165.21 174.635 163.82 173.9 162.401C172.61 159.904 171.02 157.606 169.275 155.416C167.796 153.563 166.182 151.828 164.48 150.175C163.448 149.168 162.377 148.185 161.238 147.3C159.468 145.922 157.616 144.641 155.804 143.316C154.477 142.344 153.176 141.327 151.839 140.376C150.77 139.619 149.7 138.87 148.732 137.984C147.61 136.959 146.466 135.938 145.536 134.724C144.421 133.275 143.33 131.807 142.145 130.406C141.297 129.407 140.487 128.383 139.454 127.567C138.807 127.048 138.336 126.346 138.089 125.555C138.069 125.492 138.05 125.429 138.029 125.366C138 125.268 138.11 125.183 138.191 125.245C138.387 125.395 138.585 125.545 138.779 125.695C139.892 126.563 141.018 127.432 141.934 128.525Z" fill="white"/>
<path d="M283.737 228.409C283.863 228.126 283.985 227.871 284.095 227.608C284.338 227.049 284.61 226.493 284.874 225.943C285.242 225.171 285.617 224.401 285.992 223.623C286.256 223.073 286.514 222.516 286.792 221.968C286.885 221.78 287.026 221.606 287.166 221.445C287.322 221.265 287.569 221.216 287.749 221.315C287.935 221.422 288.038 221.64 287.982 221.867C287.93 222.073 287.869 222.286 287.782 222.481C287.427 223.261 287.079 224.042 286.69 224.811C286.349 225.479 286.129 226.14 286.207 226.922C286.319 228.019 286.41 229.113 286.357 230.226C286.296 231.586 286.061 232.912 285.751 234.214C285.473 235.372 285.035 236.489 284.769 237.662C284.515 238.794 284.095 239.885 283.832 241.03C283.562 242.174 283.406 243.318 283.368 244.482C283.313 246.148 283.581 247.787 283.749 249.437C283.881 250.784 283.956 252.132 283.861 253.481C283.823 253.966 283.265 254.177 282.891 253.865C282.723 253.724 282.555 253.584 282.388 253.442C282.013 253.129 281.657 252.782 281.307 252.436C280.142 251.293 278.985 250.144 277.827 249.002C277.621 248.793 277.486 248.524 277.516 248.232C277.841 245.062 278.755 241.958 279.774 238.944C280.975 235.388 282.223 231.851 283.737 228.409Z" fill="#B6DADD"/>
<path d="M195.946 62.9204C195.162 61.7047 194.634 60.2651 195.088 58.8916C195.609 57.3202 196.916 55.4956 200.192 55.6403C204.436 55.8329 205.856 61.6886 203.035 64.979C201.04 67.3066 197.606 65.4966 195.946 62.9204Z" fill="#F7C8B5"/>
<path d="M180.647 71.0312C180.718 71.0324 180.785 71.0119 180.84 70.9687L181.722 70.2992C181.862 70.1951 181.893 69.993 181.782 69.8522C181.678 69.7122 181.475 69.6813 181.334 69.7924L180.451 70.4618C180.311 70.5659 180.28 70.768 180.391 70.9088C180.46 70.9879 180.555 71.0274 180.647 71.0312Z" fill="white"/>
<path d="M201.07 61.3324L210.089 79.8127C211.009 81.6976 210.377 83.9729 208.617 85.115C207.023 86.1497 204.93 85.9697 203.537 84.6783L203.164 84.3327C200.966 82.2965 197.243 82.8695 194.383 83.7622C194.001 83.8812 193.596 83.9774 193.167 84.0432C189.325 84.6323 177.355 75.5296 173.55 64.8447C171.638 59.4788 176.978 55.7695 178.857 56.8735C179.737 57.3904 179.346 58.9949 180.26 59.4476C181.86 60.24 185.524 57.8913 188.723 55.989C192.857 53.5295 195.432 58.048 199.039 61.2289C201.028 62.9825 202.322 63.2508 202.322 63.2508" fill="#F7C8B5"/>
<path d="M159.713 211.33C157.522 210.063 154.184 211.125 153.046 213.387C152.239 214.993 151.345 216.747 150.613 218.179C149.734 219.897 150.192 221.994 151.708 223.187C153.611 224.684 156.396 224.173 157.646 222.098L161.037 216.469C162.11 214.687 161.514 212.371 159.713 211.33Z" fill="white"/>
<path d="M201.09 85.6492C201.65 84.9934 202.272 84.3987 202.961 83.8794L210.296 78.3484C211.438 77.4869 213.07 77.7721 213.852 78.9696C214.479 79.9297 215.702 80.3553 216.848 80.2975C218.527 80.2129 221.223 80.4681 224.618 82.1386C240.513 89.9594 262.314 115.392 268.582 127.358C271.029 132.031 276.757 142.247 278.721 149.803C279.054 151.082 275.998 151.749 276.207 153.049C277.855 163.161 274.511 178.359 251.311 181.02C245.976 181.633 239.029 181.287 231.754 180.463C231.317 180.413 230.597 183.616 231.021 183.733C231.131 183.763 231.218 183.847 231.251 183.956L233.11 190.012C235.753 198.623 228.269 206.678 219.678 203.972C198.944 197.441 169.005 184.681 169.557 165.569C169.598 164.156 169.989 162.77 170.468 161.44C172.67 155.325 174.392 151.382 188.946 148.357C190.268 148.082 191.65 147.949 193.056 147.925C201.044 147.792 209.369 140.099 206.661 132.585C204.561 126.755 197.232 124.685 192.121 128.194C184.991 133.092 174.938 139.24 164.626 143.074C163.572 143.466 162.479 143.741 161.369 143.918C152.503 145.333 145.973 145.821 141.667 145.956C137.532 146.085 133.745 144.184 132.455 140.254C132.265 139.673 132.074 139.037 131.886 138.341C130.175 132 135.696 126.871 142.1 125.405C149.437 123.726 159.301 120.76 167.878 115.757C181.912 107.574 197.376 89.9972 201.09 85.6492Z" fill="#3BB3BD"/>
<path d="M234.028 197.135C233.093 193.559 234.485 189.781 237.477 187.602C238.603 186.782 239.693 185.966 240.472 185.333C242.03 184.067 244.657 184.915 245.698 186.501C247.453 189.177 248.266 195.614 248.52 197.235C250.016 206.656 251.025 214.192 250.032 219.666C249.628 221.895 247.532 221.29 245.881 217.98C242.958 212.122 240.731 202.14 239.187 202.131C237.077 202.117 235.135 200.932 234.53 198.915C234.368 198.374 234.198 197.778 234.028 197.135Z" fill="#556D84"/>
<path d="M146.766 75.5553C149.797 75.3361 150.419 69.4327 149.77 66.4646C149.295 64.2956 148.761 61.4926 148.36 58.3793C148.36 53.5586 150.821 45.4169 146.748 53.1407C146.631 53.364 146.368 54.2541 146.309 54.4994C145.768 56.7437 145.563 56.085 145.093 53.8249C144.474 50.8458 143.632 47.1335 142.898 45.0546C142.508 43.9515 140.581 43.0024 139.448 42.7104C137.943 42.3225 136.835 55.7815 137.219 57.2881C137.556 58.6119 137.992 60.013 138.521 61.3911C140.547 66.6696 142.426 70.3501 143.708 72.5954C144.758 74.4323 144.656 75.7079 146.766 75.5553Z" fill="#EBB097"/>
<path d="M191.18 60.353C189.151 60.7449 187.147 61.168 185.222 61.9475C184.588 62.2058 184.169 61.2356 184.797 60.9764C186.797 60.1632 188.897 59.7089 191.019 59.3068C191.688 59.1801 191.841 60.2254 191.18 60.353Z" fill="#2F3D4D"/>
<path d="M177.309 64.6785C176.407 65.7626 175.113 66.907 174.634 68.2535C174.41 68.893 173.427 68.494 173.651 67.8544C174.17 66.4064 175.499 65.2024 176.461 64.0403C176.891 63.5241 177.74 64.1554 177.309 64.6785Z" fill="#2F3D4D"/>
<path d="M180.181 68.6647C180.144 68.5397 180.107 68.4131 180.069 68.2863C179.99 68.0204 180.12 67.7397 180.374 67.6292C180.662 67.5041 181.001 67.6414 181.109 67.9361C181.63 69.3538 182.062 70.8006 182.582 72.2131C183.138 73.7025 183.752 75.8433 185.165 76.7534C185.74 77.1186 185.1 77.9643 184.525 77.5991C183.178 76.7322 182.504 74.9242 181.946 73.5126C181.201 71.6397 180.662 69.699 179.932 67.8208C179.687 67.1897 180.639 66.7704 180.906 67.3969C181.116 67.9034 181.13 67.9687 181.23 68.5048C181.35 69.1707 180.308 69.3314 180.181 68.6647Z" fill="white"/>
<path d="M187.742 75.0168C187.611 75.1575 187.554 75.3423 187.411 75.4744C187.203 75.6699 186.949 75.711 186.674 75.6858C186.393 75.6598 186.177 75.379 186.21 75.0991C186.236 74.8822 186.297 74.6694 186.451 74.5031C186.517 74.4328 186.586 74.3842 186.669 74.3443C186.744 74.3106 186.819 74.22 186.696 74.3546C186.892 74.1435 187.192 74.0724 187.441 74.2507C187.651 74.403 187.741 74.7826 187.546 74.9937C187.451 75.0924 187.364 75.1854 187.237 75.2412C187.228 75.245 187.225 75.2465 187.217 75.2512C187.174 75.2761 187.102 75.2901 187.137 75.2551C187.149 75.2428 187.165 75.2278 187.184 75.21C187.19 75.2038 187.202 75.1872 187.207 75.1795C187.255 75.1067 187.182 75.1137 187.128 75.0455C187.044 74.9388 186.96 74.8321 186.875 74.7255C186.827 74.6638 186.748 74.6272 186.693 74.6834C186.644 74.7335 186.631 74.7789 186.721 74.6271C186.775 74.5341 186.82 74.4542 186.893 74.3777C187.343 73.8773 188.2 74.5102 187.742 75.0168Z" fill="white"/>
<path d="M192.244 78.3319C193.458 76.895 194.265 75.1764 194.947 73.4359C195.192 72.8059 196.176 73.1979 195.93 73.8349C195.217 75.6568 194.358 77.4613 193.086 78.9623C192.655 79.4854 191.806 78.8542 192.244 78.3319Z" fill="#2F3D4D"/>
<path d="M197.727 58.9414C198.867 57.8286 200.789 56.7794 202.082 58.2848C202.906 59.2462 203.061 60.9436 202.292 61.9797C201.81 62.6315 201.016 62.8569 200.237 62.7156C199.569 62.5945 199.686 61.5455 200.361 61.6674C200.944 61.7786 201.341 61.6126 201.559 61.1494C201.777 60.6862 201.769 60.0902 201.608 59.5894C201.446 59.0957 201.113 58.6668 200.639 58.5898C199.774 58.4526 198.943 59.2333 198.381 59.7766C197.893 60.2434 197.245 59.4091 197.727 58.9414Z" fill="white"/>
<path d="M153.363 72.8768C152.833 76.3424 149.482 78.4913 146.183 78.8683C145.507 78.9446 145.345 77.9054 146.023 77.8222C148.825 77.5001 151.852 75.7452 152.313 72.7461C152.413 72.0848 153.472 72.2023 153.363 72.8768Z" fill="#3BB3BD"/>
<path d="M144.905 128.881C144.709 128.979 144.549 129.13 144.352 129.228C144.111 129.348 143.865 129.376 143.589 129.372C143.269 129.37 143.007 128.934 143.162 128.648C143.298 128.401 143.444 128.191 143.707 128.066C143.888 127.981 144.103 127.964 144.29 127.886C144.918 127.627 145.345 128.592 144.716 128.859C144.567 128.919 144.42 128.959 144.266 128.997C144.281 128.992 144.17 129.022 144.2 129.011C144.153 129.026 144.122 128.995 144.097 128.952C144.045 128.863 143.993 128.775 143.941 128.687C143.846 128.527 143.958 128.274 144.113 128.17C144.249 128.079 144.38 127.97 144.494 127.91C145.085 127.604 145.51 128.576 144.905 128.881Z" fill="white"/>
<path d="M140.428 128.687C140.313 129.418 139.818 129.757 139.1 129.814C138.863 129.836 138.634 129.731 138.532 129.506C138.376 129.147 138.31 128.742 138.583 128.413C138.815 128.135 139.208 128.061 139.522 127.928C140.152 127.654 140.571 128.626 139.948 128.9C139.806 128.961 139.606 129.086 139.449 129.089C139.37 129.094 139.359 129.192 139.436 129.024C139.465 128.961 139.384 129.015 139.323 128.982C139.3 128.969 139.276 128.956 139.252 128.943C139.162 128.893 139.193 128.754 139.291 128.725C139.315 128.718 139.334 128.71 139.346 128.701C139.368 128.684 139.365 128.654 139.368 128.626C139.37 128.612 139.373 128.592 139.376 128.563C139.483 127.895 140.536 128.012 140.428 128.687Z" fill="white"/>
<path d="M204.519 120.629C207.058 118.625 209.944 117.108 212.415 115.019C215.111 112.733 217.686 110.149 219.839 107.347C219.978 107.166 220.256 107.18 220.374 107.375C220.494 107.575 220.37 107.836 220.141 107.88C217.902 108.316 216.141 109.853 214.284 111.101C212.701 112.166 210.973 112.986 209.533 114.24C209.361 114.39 209.087 114.316 209.026 114.096C208.966 113.884 209.145 113.683 209.363 113.719C209.403 113.726 209.442 113.732 209.482 113.738C210.151 113.853 210.034 114.901 209.358 114.787C209.163 114.756 208.968 114.719 208.773 114.689C208.3 114.605 208.179 114.067 208.507 113.751C210.366 111.965 212.803 110.828 214.915 109.362C216.618 108.181 218.376 107.013 220.48 106.765C220.934 106.712 221.264 107.226 220.985 107.604C218.894 110.39 216.384 112.872 213.8 115.203C211.151 117.597 207.978 119.257 205.182 121.457C204.641 121.883 203.986 121.055 204.519 120.629Z" fill="#3E929B"/>
<path d="M213.158 83.1424C207.384 85.226 201.779 89.6673 196.981 93.4172C196.442 93.8354 195.786 93.0074 196.326 92.5891C199.175 90.3668 202.098 88.3517 205.16 86.4308C207.638 84.8804 209.963 83.1774 212.732 82.1784C213.378 81.9427 213.804 82.9067 213.158 83.1424Z" fill="white"/>
<path d="M174.827 112.849C176.93 113.875 178.97 115.015 180.851 116.412C182.092 117.338 184.583 119.041 185.039 120.596C185.182 121.073 184.697 121.569 184.232 121.231C184.141 121.163 184.049 121.096 183.958 121.029C183.409 120.624 184.049 119.778 184.598 120.183C184.736 120.285 184.739 120.49 184.604 120.596C184.567 120.625 184.53 120.655 184.493 120.684C184.288 120.845 183.979 120.749 183.854 120.521C183.064 119.084 180.831 117.691 179.667 116.868C178.014 115.703 176.247 114.723 174.427 113.836C173.816 113.53 174.209 112.549 174.827 112.849Z" fill="#3E929B"/>
<path d="M173.449 115.505C175.632 116.754 177.335 118.641 179.466 119.968C180.041 120.326 179.402 121.172 178.826 120.814C176.695 119.486 174.992 117.6 172.809 116.351C172.224 116.013 172.863 115.174 173.449 115.505Z" fill="#3E929B"/>
<path d="M175.267 93.235C175.44 96.3441 174.959 100.177 172.46 102.327C172.254 102.508 171.876 102.463 171.717 102.239C169.86 99.6192 171.358 95.8355 171.355 92.9164C171.35 92.2357 172.407 92.3672 172.406 93.04C172.411 95.4691 171.081 98.9943 172.35 101.272C172.42 101.397 172.321 101.559 172.179 101.543C172.036 101.526 171.979 101.344 172.082 101.243C174.02 99.3164 174.368 95.9866 174.225 93.3958C174.184 92.725 175.227 92.5572 175.267 93.235Z" fill="#3BB3BD"/>
<path d="M86.7263 96.4203C89.3822 95.3318 90.5063 91.6316 88.8395 89.2995C83.006 81.1378 69.8195 63.068 68.2766 64.2971C66.7734 65.4912 75.8233 84.0357 80.3121 92.9812C81.7191 95.785 83.8197 97.6116 86.7263 96.4203Z" fill="#3BB3BD"/>
<path d="M189.231 65.9038C189.189 65.3036 188.008 63.9319 187.385 64.6309C187.188 64.8557 187.07 65.4299 187.044 65.7173C187.018 66.0543 187.185 66.322 186.971 66.6368C186.842 66.8271 186.557 66.8928 186.347 66.8043C186.238 66.7632 186.16 66.7044 186.076 66.6307C185.56 66.1951 186.19 65.3505 186.713 65.7829C186.715 65.7842 186.717 65.7862 186.718 65.7878C186.732 65.8051 186.723 65.8303 186.702 65.836C186.513 65.8861 186.324 65.9413 186.129 65.99C186.127 65.9905 186.126 65.9873 186.127 65.9854C186.129 65.9829 186.133 65.9861 186.133 65.989C186.111 66.0679 186.092 66.1491 186.071 66.2294C186.065 66.2535 186.029 66.2502 186.026 66.2255C186 65.9907 185.951 65.7691 185.987 65.522C186.034 65.2372 186.126 64.9433 186.209 64.6625C186.39 64.032 186.791 63.5265 187.472 63.4154C188.725 63.2086 190.172 64.4983 190.261 65.7274C190.328 66.4226 189.279 66.5825 189.231 65.9038Z" fill="#2F3D4D"/>
<path d="M177.266 70.4014C177.057 70.2492 176.707 70.8032 176.664 70.9327C176.446 71.5731 175.463 71.174 175.68 70.5336C175.975 69.6614 177.063 68.9391 177.899 69.5548C178.455 69.9603 177.823 70.8069 177.266 70.4014Z" fill="#2F3D4D"/>
<path d="M313.985 182.409C312.552 182.225 311.135 182.332 309.726 182.629C308.476 182.896 307.228 183.184 305.975 183.429C304.964 183.625 303.936 183.667 302.903 183.7C301.537 183.74 300.268 183.332 298.985 182.958C298.333 182.772 297.696 182.546 297.019 182.47C296.638 182.43 296.26 182.34 295.885 182.272C294.565 182.034 293.289 182.287 292.001 182.56C290.523 182.878 289.263 183.647 288.02 184.441C287.506 184.775 286.991 185.116 286.504 185.492C286.155 185.761 285.845 186.09 285.543 186.413C284.886 187.104 284.159 187.716 283.381 188.266C282.15 189.135 281.093 190.164 280.452 191.573C280.147 192.241 279.756 192.868 279.378 193.506C279.122 193.947 279.136 194.015 279.485 194.365C279.787 194.669 280.076 194.999 280.309 195.352C280.923 196.272 281.504 197.213 282.101 198.143C282.135 198.197 282.165 198.253 282.2 198.305C282.623 198.939 282.908 199.048 283.691 198.866C284.322 198.723 284.945 198.55 285.566 198.383C286.54 198.128 287.531 198.021 288.534 198.06C289.392 198.097 290.25 198.169 291.107 198.249C292.312 198.354 293.41 198.782 294.441 199.382C296.08 200.339 297.499 201.543 298.673 203.039C300.319 205.149 301.981 207.249 303.646 209.343C304.088 209.893 304.539 210.439 305.027 210.949C305.344 211.278 305.703 211.587 306.09 211.83C307.417 212.661 308.751 213.493 310.121 214.261C310.661 214.566 311.289 214.733 311.893 214.908C313.055 215.242 314.269 215.407 315.407 215.85C316.87 216.423 318.109 217.292 319.132 218.488C320.301 219.846 321.057 221.402 321.59 223.089C322.19 224.993 322.798 226.898 323.437 228.788C324.116 230.795 325.086 232.664 326.254 234.418C327.135 235.735 328.102 236.991 329.227 238.116C329.689 238.578 330.228 238.984 330.775 239.356C332.166 240.323 333.644 241.158 335.154 241.914C335.877 242.273 336.674 242.491 337.437 242.766C337.886 242.929 338.337 243.078 338.784 243.248C339.509 243.529 340.132 243.983 340.743 244.455C341.756 245.239 342.692 246.106 343.565 247.032C344.514 248.04 345.143 249.258 345.722 250.501C346.433 252.033 347.063 253.604 347.648 255.187C348.085 256.385 348.562 257.57 349 258.768C349.391 259.848 349.71 260.962 350.14 262.029C350.783 263.61 354.481 273.168 355.181 274.719C355.497 275.415 355.862 276.092 356.249 276.761C356.464 277.132 356.736 277.472 357.019 277.794C357.505 278.347 358.174 278.457 358.838 278.293C359.426 278.148 359.997 277.884 360.551 277.63C361.95 276.985 363.343 276.332 364.714 275.645C365.606 275.2 366.455 274.658 367.346 274.219C368.964 273.428 370.601 272.684 372.234 271.925C372.347 271.872 372.477 271.876 372.617 271.92C377.041 273.302 378.44 269.013 382.553 266.871C383.188 266.542 380.791 258.134 381.376 257.707C381.959 257.287 382.064 256.777 381.767 256.122C381.163 254.794 380.55 253.471 379.939 252.141C379.222 250.572 378.598 248.973 378.1 247.323C377.209 244.311 376.665 241.224 376.015 238.164C375.655 236.45 375.248 234.748 374.781 233.06C374.442 231.841 373.834 230.728 373.042 229.726C372.534 229.082 371.904 228.562 371.243 228.086C370.094 227.266 368.928 226.456 367.769 225.647C366.979 225.1 366.115 224.694 365.257 224.291C364.564 223.959 363.886 223.594 363.217 223.217C362.498 222.808 361.946 222.197 361.416 221.584C360.459 220.481 359.608 219.294 358.907 218.009C358.196 216.708 357.634 215.353 357.176 213.949C356.69 212.445 356.213 210.936 355.681 209.444C355.168 208.028 354.593 206.634 353.774 205.36C353.268 204.572 352.687 203.832 352.025 203.162C351.24 202.363 350.447 201.563 349.651 200.783C348.789 199.939 347.808 199.242 346.77 198.64C345.705 198.025 344.618 197.449 343.533 196.865C342.498 196.315 341.388 195.942 340.274 195.59C339.436 195.327 338.603 195.073 337.751 194.872C337.093 194.714 336.424 194.603 335.751 194.542C333.533 194.345 331.555 193.487 329.676 192.37C328.903 191.912 328.249 191.301 327.653 190.63C326.562 189.412 325.356 188.327 324.079 187.298C323.399 186.746 322.728 186.181 322.087 185.58C321.069 184.622 319.916 183.923 318.572 183.528C317.391 183.183 316.217 182.84 315.03 182.522C314.707 182.444 314.339 182.443 313.985 182.409Z" fill="#3BB3BD"/>
<path d="M374.955 255.425C373.723 251.82 372.609 248.175 371.765 244.453C371.45 243.059 371.082 241.674 370.635 240.323C369.895 238.065 368.65 236.07 367.231 234.175C366.367 233.013 365.34 232.032 364.105 231.272C362.635 230.366 361.161 229.482 359.676 228.609C358.428 227.882 357.149 227.192 356.011 226.287C354.363 224.975 352.963 223.423 351.6 221.835C350.462 220.505 349.549 219.037 348.846 217.435C348.495 216.631 348.111 215.848 347.704 215.067C346.593 212.922 345.309 210.876 343.94 208.884C343.486 208.222 343.015 207.572 342.48 206.979C341.642 206.061 340.768 205.171 339.856 204.323C338.529 203.096 337.12 201.981 335.41 201.311C334.279 200.869 333.143 200.419 331.989 200.051C330.449 199.562 328.881 199.169 327.338 198.694C326.12 198.32 324.902 197.916 323.716 197.462C322.143 196.858 320.678 196.033 319.376 194.956C317.703 193.559 315.899 192.365 314.015 191.275C312.944 190.659 311.854 190.096 310.696 189.677C309.251 189.152 307.796 188.639 306.282 188.329C304.513 187.964 302.733 187.718 300.937 187.505C299.283 187.309 297.627 187.22 295.957 187.323C293.84 187.457 291.794 187.96 289.769 188.562C288.541 188.927 287.352 189.409 286.3 190.151C285.446 190.75 284.625 191.398 283.802 192.054C282.698 192.936 281.6 193.827 280.296 194.435C280.251 194.456 280.205 194.478 280.16 194.5C279.932 194.611 279.663 194.559 279.485 194.379C279.157 194.047 279.485 193.657 279.901 193.445C280.852 192.962 281.737 192.379 282.559 191.695C283.125 191.221 283.692 190.747 284.276 190.292C285.455 189.361 286.703 188.546 288.117 188.027C292.071 186.566 296.137 185.878 300.36 186.385C302.014 186.581 303.655 186.839 305.297 187.091C307.751 187.462 310.1 188.214 312.347 189.232C314.776 190.34 317.057 191.732 319.118 193.43C320.782 194.802 322.561 195.977 324.6 196.69C326.136 197.228 327.698 197.714 329.268 198.166C330.966 198.653 332.675 199.128 334.33 199.749C335.952 200.356 337.517 201.059 338.89 202.145C341.275 204.043 343.42 206.155 345.11 208.722C346.898 211.433 348.581 214.2 349.891 217.181C350.504 218.569 351.285 219.849 352.274 221.003C352.729 221.527 353.176 222.057 353.635 222.568C355.276 224.404 357.108 225.994 359.287 227.191C360.956 228.111 362.576 229.122 364.219 230.094C365.805 231.031 367.135 232.245 368.216 233.735C369.665 235.723 370.933 237.809 371.689 240.158C372.121 241.484 372.465 242.842 372.788 244.202C373.525 247.295 374.346 250.364 375.375 253.377C376.057 255.371 376.639 257.393 377.238 259.404C377.254 259.459 377.27 259.514 377.287 259.568C377.362 259.813 377.252 260.076 377.025 260.193C377.001 260.205 376.977 260.217 376.953 260.229C376.709 260.355 376.407 260.237 376.325 259.975C375.888 258.446 375.464 256.919 374.955 255.425Z" fill="#B6DADD"/>
<path d="M369.783 260.127C368.602 257.577 367.446 255.012 366.314 252.437C365.051 249.567 363.547 246.846 361.52 244.429C360.53 243.246 359.584 242.031 358.419 241.019C357.556 240.276 356.654 239.581 355.782 238.85C354.263 237.574 352.758 236.272 351.228 235.015C350.096 234.083 349.056 233.063 348.129 231.923C347.139 230.705 346.15 229.487 345.143 228.28C344.109 227.038 343.169 225.723 342.341 224.331C341.447 222.839 340.437 221.422 339.399 220.027C338.918 219.389 338.447 218.738 338.008 218.073C336.559 215.854 335.005 213.72 333.166 211.798C332.143 210.731 331.147 209.641 330.003 208.699C328.242 207.247 326.218 206.235 324.155 205.301C322.551 204.575 320.855 204.11 319.195 203.545C316.916 202.773 314.706 201.85 312.677 200.527C311.066 199.475 309.431 198.469 307.823 197.404C305.478 195.846 303.033 194.511 300.352 193.629C298.647 193.069 296.93 192.599 295.137 192.473C294.66 192.441 294.182 192.415 293.705 192.383C291.75 192.272 289.874 192.661 288.055 193.344C286.103 194.076 284.291 195.092 282.478 196.114C282.212 196.264 281.938 196.407 281.662 196.545C281.418 196.667 281.122 196.58 280.974 196.352C280.798 196.08 280.898 195.717 281.188 195.575C281.458 195.442 281.726 195.305 281.987 195.156C283.789 194.153 285.597 193.158 287.519 192.398C289.236 191.715 291.023 191.306 292.867 191.299C295.325 191.29 297.742 191.631 300.091 192.412C302.702 193.286 305.188 194.399 307.49 195.926C309.388 197.184 311.32 198.385 313.236 199.626C315.337 200.979 317.62 201.933 319.991 202.682C322.241 203.391 324.452 204.177 326.555 205.257C328.432 206.216 330.199 207.316 331.708 208.799C332.6 209.671 333.464 210.573 334.304 211.485C335.576 212.865 336.767 214.315 337.81 215.883C338.548 216.996 339.31 218.099 340.098 219.179C341.19 220.686 342.276 222.192 343.256 223.782C343.9 224.831 344.585 225.853 345.348 226.819C346.714 228.559 348.139 230.261 349.566 231.957C350.018 232.495 350.521 233.001 351.055 233.464C352.945 235.088 354.853 236.695 356.773 238.282C358.173 239.438 359.587 240.569 360.805 241.931C363.395 244.839 365.552 248.012 367.092 251.591C368.217 254.201 369.387 256.798 370.546 259.386C370.954 260.293 371.453 261.138 372.078 261.901C372.288 262.158 372.216 262.551 371.915 262.69C371.724 262.778 371.497 262.733 371.359 262.575C370.727 261.847 370.199 261.021 369.783 260.127Z" fill="#B6DADD"/>
<path d="M360.701 264.801C360.148 263.009 359.548 261.235 359.002 259.444C358.247 256.93 357.187 254.552 356.002 252.218C355.102 250.457 353.901 248.891 352.706 247.325C351.22 245.372 349.417 243.745 347.362 242.417C346.318 241.741 345.223 241.134 344.135 240.529C342.642 239.698 341.112 238.938 339.688 237.985C338.298 237.047 336.929 236.077 335.768 234.851C333.666 232.647 331.885 230.197 330.335 227.581C328.838 225.056 327.358 222.521 325.87 219.984C324.803 218.165 323.666 216.403 322.226 214.835C320.116 212.536 317.637 210.798 314.751 209.633C313.55 209.146 312.329 208.721 311.14 208.215C309.396 207.474 307.67 206.678 306.218 205.431C305.421 204.752 304.633 204.061 303.911 203.305C302.337 201.657 300.705 200.075 298.885 198.689C297.635 197.739 296.278 197.009 294.79 196.518C293.389 196.053 291.935 195.9 290.475 195.804C289.45 195.738 288.44 195.827 287.449 196.064C286.52 196.285 285.599 196.531 284.682 196.791C283.89 197.018 283.139 197.328 282.418 197.702C282.166 197.832 281.855 197.755 281.703 197.516C281.539 197.256 281.625 196.91 281.899 196.77C283.391 196.009 284.991 195.522 286.626 195.142C287.752 194.884 288.891 194.665 290.052 194.739C290.957 194.793 291.864 194.876 292.765 194.98C294.497 195.186 296.12 195.757 297.646 196.603C299.365 197.556 300.846 198.838 302.281 200.168C303.356 201.159 304.338 202.246 305.377 203.273C306.806 204.695 308.417 205.876 310.281 206.666C311.596 207.22 312.908 207.796 314.251 208.291C318.53 209.855 321.986 212.506 324.665 216.161C325.366 217.114 325.965 218.139 326.582 219.145C327.512 220.667 328.442 222.189 329.321 223.743C330.653 226.102 332.002 228.443 333.601 230.637C334.589 231.992 335.665 233.279 336.864 234.464C338.319 235.899 340.024 237.014 341.778 238.039C343.374 238.965 345.012 239.827 346.62 240.727C348.279 241.659 349.776 242.801 351.176 244.094C352.497 245.313 353.598 246.714 354.637 248.166C355.402 249.226 356.172 250.288 356.777 251.451C358.026 253.856 359.132 256.317 359.936 258.907C360.691 261.327 361.539 263.717 362.115 266.191C362.142 266.311 362.171 266.431 362.201 266.551C362.312 266.989 362.124 267.456 361.726 267.669C361.721 267.672 361.716 267.674 361.711 267.676C361.613 267.722 361.501 267.677 361.464 267.576C361.177 266.649 360.985 265.713 360.701 264.801Z" fill="#B6DADD"/>
<path d="M115.638 130.578C117.316 131.415 122.223 132.036 126.739 132.43C130.582 132.765 134.105 135.237 134.991 138.992C135.805 142.445 133.793 145.458 130.289 146.016C121.788 147.371 107.629 147.446 107.629 146.561C107.629 145.42 108.544 143.821 107.629 142.451C106.714 141.081 106.943 139.711 107.629 138.341C107.881 137.839 109.937 137.573 112.524 137.447C113.457 137.402 114.519 133.465 113.807 132.861C109.231 128.979 112.435 128.979 115.638 130.578Z" fill="#F7C8B5"/>
<path d="M141.383 44.1511C141.76 46.5956 142.344 49.0447 142.641 51.4961C142.761 52.4833 143.171 53.4029 143.328 54.382C143.409 54.891 143.488 55.4007 143.671 55.8853C143.796 56.2152 143.814 56.2662 143.671 55.9106" stroke="white" stroke-width="0.770781" stroke-linecap="round" stroke-linejoin="round"/>
<path d="M138.979 42.6669C139.23 44.2501 139.348 45.8391 139.609 47.4303C139.895 49.1764 139.922 50.9875 140.473 52.6821C140.899 53.9922 141.136 55.3816 141.611 56.6717C141.811 57.214 142.592 58.7167 142.183 58.3081" stroke="white" stroke-width="0.770781" stroke-linecap="round" stroke-linejoin="round"/>
<path d="M137.95 51.0013C138.629 53.7958 139.19 56.5685 140.353 59.2216C140.717 60.0518 140.9 61.0046 141.179 61.8729C141.246 62.0796 141.497 62.6565 141.497 62.6467" stroke="white" stroke-width="0.770781" stroke-linecap="round" stroke-linejoin="round"/>
<path d="M107.742 139.597C108.49 140.759 109.737 140.534 110.997 140.651C112.559 140.796 114.004 140.601 115.56 140.518C116.903 140.445 118.339 140.267 119.648 139.94C120.137 139.818 120.78 139.597 121.243 139.597" stroke="white" stroke-width="0.770781" stroke-linecap="round" stroke-linejoin="round"/>
<path d="M107.629 142.224C109.549 143.695 112.707 143.555 115.028 143.474C116.676 143.416 118.199 143.086 119.782 142.655C120.387 142.491 121.513 142.109 121.816 142.109" stroke="white" stroke-width="0.770781" stroke-linecap="round" stroke-linejoin="round"/>
<path d="M108.201 144.735C109.418 145.661 111.216 145.763 112.701 145.763C114.092 145.763 115.649 145.68 117.011 145.421C118.052 145.223 119.156 145.121 120.164 144.786C120.703 144.606 121.225 144.278 121.816 144.278" stroke="white" stroke-width="0.770781" stroke-linecap="round" stroke-linejoin="round"/>
<path d="M205.794 125.326C207.045 127.199 207.715 129.404 208.514 131.491C209.822 134.904 210.975 138.365 212.341 141.754C214.685 147.568 217.294 153.17 220.058 158.803C221.533 161.81 223.546 166.235 224.787 168.711" stroke="#3E929B" stroke-width="1.54156" stroke-linecap="round" stroke-linejoin="round"/>
<path d="M209.915 130.121C213.403 134.994 215.301 141.099 217.975 146.435C220.507 151.489 222.934 156.802 225.831 161.657C227.78 164.923 230.72 169.587 232.111 172.364" stroke="white" stroke-width="1.54156" stroke-linecap="round" stroke-linejoin="round"/>
<path d="M276.046 151.357C266.745 158.665 257.314 165.664 247.671 172.516C246.44 173.391 245.242 174.299 244.035 175.206C243.731 175.434 242.459 176.083 242.459 176.55C242.459 176.622 243.845 175.15 244.01 174.876" stroke="white" stroke-width="1.54156" stroke-linecap="round" stroke-linejoin="round"/>
<path d="M215.865 132.176C216.951 131.628 218.572 130.483 219.298 130.121" stroke="white" stroke-width="1.54156" stroke-linecap="round" stroke-linejoin="round"/>
<path d="M222.043 146.79C223.416 146.105 224.789 145.42 226.162 144.735" stroke="white" stroke-width="1.54156" stroke-linecap="round" stroke-linejoin="round"/>
<path d="M227.992 159.805C229.306 159.244 230.913 158.26 231.882 157.294" stroke="white" stroke-width="1.54156" stroke-linecap="round" stroke-linejoin="round"/>
<path d="M179.71 164.829C182.88 166.6 185.966 168.962 189.537 169.852C189.908 169.945 192.296 170.431 192.296 170.766" stroke="#3E929B" stroke-width="1.54156" stroke-linecap="round" stroke-linejoin="round"/>
<path d="M176.964 167.569C179.992 168.615 182.983 169.787 186.104 170.55C187.531 170.899 190.571 170.871 191.38 171.679" stroke="#3E929B" stroke-width="1.54156" stroke-linecap="round" stroke-linejoin="round"/>
<path d="M176.705 170.686C179.454 171.361 182.022 172.624 184.653 173.644C190.879 176.056 197.114 178.628 203.616 180.201C208.772 181.448 213.933 182.45 219.251 182.693C220.368 182.744 220.148 182.725 219.327 182.696" stroke="#3E929B" stroke-width="1.54156" stroke-linecap="round" stroke-linejoin="round"/>
<path d="M229.138 184.923C228.426 190.069 229.855 195.923 231.629 200.729C232.326 202.616 233.03 204.509 233.816 206.361C234.343 207.604 233.651 206.116 233.485 205.702" stroke="white" stroke-width="1.54156" stroke-linecap="round" stroke-linejoin="round"/>
<path d="M227.305 184.694C227.305 188.799 227.388 193.015 227.864 197.088C227.947 197.796 228.488 201.027 228.22 198.623" stroke="white" stroke-width="1.54156" stroke-linecap="round" stroke-linejoin="round"/>
<path d="M72.8472 68.0126C72.7238 68.7826 72.6352 69.6649 72.2688 70.3657C72.0657 70.7542 71.7906 71.3015 71.6967 71.7231C71.6528 71.9204 71.4029 72.3442 71.2709 72.4906C71.2175 72.5498 71.0166 73.0773 71.0166 72.9219" stroke="#B6DADD" stroke-width="1.54156" stroke-linecap="round" stroke-linejoin="round"/>
<path d="M75.2504 70.9808C75.2228 72.5457 74.4778 73.9909 73.8138 75.3764C73.6576 75.7022 72.8477 76.6537 72.8477 76.8035" stroke="#B6DADD" stroke-width="1.54156" stroke-linecap="round" stroke-linejoin="round"/>
<path d="M77.9964 74.4064C77.9964 76.3999 77.0304 77.8541 76.1149 79.544C75.7725 80.1762 75.2287 80.7291 74.9072 81.3707" stroke="#B6DADD" stroke-width="1.54156" stroke-linecap="round" stroke-linejoin="round"/>
<path d="M80.5131 77.8314C80.6719 78.7822 80.2967 80.3471 79.8775 81.2058C79.4426 82.0964 78.9919 83.0107 78.4791 83.8571C78.1152 84.4575 77.6628 84.9769 77.3349 85.595C77.2504 85.7542 76.8568 86.1633 77.0807 86.0517" stroke="#B6DADD" stroke-width="1.54156" stroke-linecap="round" stroke-linejoin="round"/>
<path d="M83.4871 81.8273C83.1511 84.2578 82.1359 86.6636 80.6966 88.6521C80.4492 88.9939 79.9948 89.3827 79.8258 89.7621C79.7293 89.9788 79.5524 90.4122 79.3682 90.5042" stroke="#B6DADD" stroke-width="1.54156" stroke-linecap="round" stroke-linejoin="round"/>
<path d="M86.2335 86.1655C86.2084 87.4666 85.6832 88.7932 85.2038 89.9966C84.7699 91.0853 84.3812 92.2543 83.7672 93.2567C83.3762 93.8952 82.9404 94.4751 82.407 95.0074C82.286 95.1281 82.1846 95.3117 82.0574 95.4133C81.9586 95.4921 81.8857 95.4711 81.8857 95.5275" stroke="#B6DADD" stroke-width="1.54156" stroke-linecap="round" stroke-linejoin="round"/>
<path d="M88.6356 89.3623C88.6356 90.9509 88.0996 92.5085 87.6949 94.0433C87.5371 94.6417 87.2176 95.2042 87.0338 95.8002C86.9608 96.0372 86.8069 96.3641 86.5762 96.4408" stroke="#B6DADD" stroke-width="1.54156" stroke-linecap="round" stroke-linejoin="round"/>
</svg>
