<svg width="43" height="40" viewBox="0 0 43 40" fill="none" xmlns="http://www.w3.org/2000/svg">
<path d="M9.08105 2L22.773 31.8254" stroke="white" stroke-width="2.8" stroke-miterlimit="10" stroke-linecap="round"/>
<path d="M15.9679 17.449C16.4993 18.6109 15.2731 20.3072 13.5098 21.1089C11.7465 21.9106 9.62701 21.7363 9.08984 20.5744" stroke="white" stroke-width="2.8" stroke-miterlimit="10"/>
<path d="M22.852 14.3293C23.3833 15.4912 22.4433 17.054 20.6799 17.8556C18.9225 18.6573 16.5753 18.5818 16.0439 17.4199" stroke="white" stroke-width="2.8" stroke-miterlimit="10"/>
<path d="M29.3271 11.3781C29.8585 12.54 28.8133 14.155 27.0559 14.9509C25.2984 15.7526 23.3833 15.4795 22.8519 14.3176L22.8227 14.2537C19.372 7.86341 14.1521 4.1454 10.6313 5.7488C7.11054 7.35219 6.49163 13.789 9.09573 20.5744C9.62706 21.7362 8.63447 23.328 6.87699 24.1239C5.11952 24.9256 3.20439 24.6467 2.67306 23.4849C0.477676 16.5194 3.78827 8.85682 10.6313 5.7488C17.4744 2.64077 25.4677 5.16786 29.3213 11.3781H29.3271Z" stroke="white" stroke-width="2.8" stroke-miterlimit="10"/>
<path d="M3.73828 37.5766C3.73828 37.5766 13.4599 38.9302 19.7074 34.1723C25.3944 29.8443 32.6578 26.7537 36.599 30.617" stroke="white" stroke-width="2.8" stroke-miterlimit="10" stroke-linecap="round"/>
<path d="M24.2793 37.8379C26.0309 37.2976 27.7709 36.496 29.3007 35.3341C33.1776 32.3829 37.4283 29.9372 41.4103 30.1056" stroke="white" stroke-width="2.8" stroke-miterlimit="10" stroke-linecap="round"/>
</svg>
