<svg width="356" height="300" viewBox="0 0 356 300" fill="none" xmlns="http://www.w3.org/2000/svg">
<path d="M337.497 115.652C319.788 66.0112 204.099 -7.68732 122.338 26.6092C82.6594 43.2548 41.5524 117.219 61.6638 170.264C91.5246 249.021 186.809 263.67 215.698 272.103C303.259 297.681 373.717 217.156 337.497 115.652Z" fill="#3BB3BD"/>
<path d="M0.649034 96.4451C2.38899 84.4425 11.6778 74.4223 20.2416 66.493C29.6755 57.7581 40.0789 52.653 53.047 51.956C66.8489 51.2047 79.7354 55.0879 92.93 58.5275C105.037 61.6775 117.643 63.6508 130.149 62.0215C140.462 60.6728 149.66 56.6448 157.825 50.2452C166.053 43.8004 173.367 35.8802 182.855 31.2095C193.902 25.7604 205.891 26.8737 217.237 30.8203C227.55 34.4047 237.383 39.6366 248.375 40.8767C259.857 42.1711 270.677 38.487 281.099 34.0698C287.098 31.5263 293.034 28.7927 299.278 26.919C302.585 25.9233 305.975 25.1629 309.418 24.819C312.264 24.5293 315.934 25.4435 318.626 24.7647C318.2 24.8733 318.381 25.525 318.807 25.4164C319.097 25.344 319.378 25.2716 319.668 25.1991C319.94 25.1267 320.012 24.7104 319.749 24.5746C316.251 22.8004 310.479 23.8866 306.718 24.4841C301.126 25.3711 295.743 27.2267 290.515 29.3448C279.749 33.6987 269.264 39.175 257.528 40.2883C233.812 42.5513 213.884 21.6599 189.978 27.8241C180.607 30.2409 173.059 36.4233 165.881 42.6056C155.958 51.1413 146.216 58.5456 132.967 60.9081C118.495 63.4788 103.914 60.7995 89.9214 57.0249C77.2976 53.6215 64.8461 50.3719 51.6514 51.3676C39.3086 52.2999 29.2948 57.2965 20.2598 65.5697C11.4603 73.6257 1.79088 83.9809 0.00561391 96.264C-0.0668842 96.6895 0.585598 96.8705 0.649034 96.4451Z" fill="#755462"/>
<path d="M55.9215 89.9823C55.7463 90.2961 55.9129 90.3973 56.2558 90.5046C71.539 95.283 107.022 99.2889 120.645 97.9551C131.837 96.8598 142.639 93.2391 152.462 87.8443C161.588 82.8297 169.925 76.4573 179.223 71.7414C190.388 66.084 202.685 63.9388 215.028 66.5547C226.755 69.0439 237.584 74.9547 249.591 76.2763C263.982 77.8603 277.005 71.153 290.345 66.9621C298.383 64.4366 306.747 62.1465 315.239 62.1556C316.689 62.1556 327.889 62.9702 327.772 63.6944C327.699 64.1198 328.352 64.3099 328.424 63.8754C328.85 61.3228 313.598 61.4858 311.931 61.6034C297.957 62.5629 285.152 68.3922 272.012 72.6465C265.016 74.9094 257.693 76.3758 250.316 75.6879C243.039 75.0181 236.089 72.4926 229.238 70.1211C217.819 66.1655 206.491 63.3142 194.384 65.6496C183.718 67.7043 174.42 73.3797 165.394 79.1547C154.664 86.0249 143.917 92.3611 131.402 95.4206C123.898 97.2581 116.068 98.1271 108.365 97.2128C100.846 96.3271 69.5959 95.0392 57.3747 89.6515C56.8492 89.4198 56.2014 89.4808 55.9215 89.9823Z" fill="#755462"/>
<path d="M330.884 97.6215C317.644 93.2405 304.331 93.0413 290.702 95.6301C283.235 97.0422 275.967 99.3323 268.49 100.708C260.189 102.238 252.214 102.075 243.94 100.418C230.791 97.7844 218.204 93.331 204.601 95.3043C192.802 97.0241 182.652 103.089 173.282 110.158C163.06 117.87 153.1 126.677 140.712 130.76C133.734 133.059 126.358 133.502 119.18 131.927C112.529 130.47 106.439 127.383 100.168 124.831C94.1413 122.378 87.9427 120.486 81.3725 120.785C75.1921 121.074 69.1566 122.867 63.4746 125.22C53.3701 129.411 47.409 131.323 38.5396 139.334C38.0781 139.751 38.9906 140.106 39.4289 139.664C48.5295 130.502 68.0588 122.05 81.3816 121.464C96.28 120.803 108.351 131.402 122.778 133.24C134.668 134.752 145.814 130.443 155.647 124.071C166.404 117.101 175.674 107.968 187.038 101.93C201.021 94.4987 215.539 94.4534 230.673 98.0198C238.131 99.7758 245.563 101.885 253.238 102.428C261.186 102.989 268.952 101.478 276.637 99.6129C294.988 95.1594 312.306 92.2086 330.694 98.2913C331.119 98.4181 331.301 97.7663 330.884 97.6215Z" fill="#755462"/>
<path d="M74.0384 156.73C61.1868 156.15 47.4096 162.929 43.3887 167.065C43.1058 167.356 42.5852 167.262 42.4567 166.878C42.3872 166.669 42.4634 166.439 42.6422 166.311C56.8938 156.177 70.6 154.71 81.5873 157.02C88.6468 158.504 95.516 160.686 102.666 161.817C110.306 163.021 117.854 162.939 125.512 162.007C139.83 160.269 154.194 157.617 166.356 149.407C172.473 145.289 177.928 140.31 183.538 135.549C187.824 131.91 192.219 127.928 197.485 125.782C208.531 121.284 220.331 126.262 231.078 129.204C246.557 133.44 261.89 135.241 277.504 130.507C284.618 128.353 291.252 125.121 297.985 122.035C302.815 119.817 307.827 117.88 313.192 117.609C319.417 117.292 325.235 119.446 331.135 121.112C334.587 122.089 338.095 122.94 341.692 123.021C343.777 123.076 345.87 122.868 347.909 122.433C348.217 122.37 352.649 121.048 350.999 120.297C350.6 120.116 350.945 119.528 351.344 119.709C352.676 120.315 352.331 119.962 352.957 121.184C353.065 121.392 352.975 121.609 352.757 121.682C346.332 123.945 340.251 124.126 333.663 122.496C325.48 120.469 317.859 117.174 309.258 118.776C301.836 120.161 295.139 124.325 288.261 127.258C281.274 130.236 274.015 132.625 266.457 133.648C252.411 135.549 238.736 132.155 225.324 128.29C218.853 126.425 212.165 124.243 205.332 124.696C197.793 125.203 192.092 129.34 186.456 134.001C176.397 142.329 166.99 151.589 154.584 156.386C142.404 161.093 127.968 163.428 114.909 163.483C108.702 163.51 102.548 162.641 96.4856 161.346C89.0365 159.762 81.696 157.074 74.0384 156.73Z" fill="#755462"/>
<path d="M50.5433 219.879C60.4319 215.004 70.0109 210.237 78.6411 203.293C88.407 195.441 98.4742 191.651 111.009 190.832C132.299 189.443 156.435 191.321 175.244 179.498C184.303 173.81 191.146 165.222 201.693 162.083C212.231 158.946 223.498 160.435 234.222 161.623C245.222 162.844 256.09 163.23 267.02 161.114C277.181 159.151 286.487 155.178 295.602 150.402C306.296 144.8 317.322 140.279 329.562 143.688C336.957 145.744 346.232 150.599 353.59 146.029C353.963 145.799 353.572 145.24 353.199 145.47C344.932 150.604 334.364 143.482 325.918 142.138C317.15 140.738 308.544 143.148 300.736 146.991C290.864 151.846 281.499 157.014 270.709 159.618C258.652 162.524 246.597 162.306 234.349 160.95C224.855 159.899 215.033 158.629 205.543 160.456C195.875 162.316 189.569 167.764 182.097 173.734C172.908 181.076 162.905 185.433 151.246 187.19C139.533 188.96 127.72 189.485 115.908 189.91C103.987 190.344 92.8084 192.081 82.906 199.145C77.9375 202.687 73.456 206.744 68.2122 209.918C62.4574 213.406 56.3331 216.261 50.3004 219.235C49.9251 219.429 50.1492 220.065 50.5433 219.879Z" fill="#755462"/>
<path d="M101.767 241.541C114.42 227.639 132.621 226.903 150.153 225.644C157.381 225.126 164.427 224.587 171.123 221.587C177.631 218.665 183.238 214.195 189.115 210.225C196.189 205.437 203.7 201.823 212.346 201.125C221.471 200.393 230.446 202.655 239.204 204.924C247.139 206.983 255.159 209.131 263.405 209.278C271.706 209.424 279.519 207.05 287.207 204.163C296.732 200.594 306.045 196.913 316.407 197.166C326.125 197.412 336.622 199.327 345.127 204.221C345.506 204.436 345.832 203.846 345.453 203.622C331.804 195.775 313.558 194.521 298.729 199.236C289.851 202.06 281.426 206.283 272.192 207.896C262.517 209.578 252.957 207.733 243.57 205.348C227.291 201.224 211.193 197.077 195.502 205.486C188.699 209.133 182.812 214.2 176.191 218.14C168.164 222.921 160.009 224.228 150.818 224.907C132.89 226.224 114.205 226.849 101.263 241.068C100.974 241.403 101.469 241.867 101.767 241.541Z" fill="#755462"/>
<path d="M103.123 275.008C126.65 274.183 143.668 256.835 164.489 248.409C169.949 246.197 175.693 244.69 181.592 244.34C188.851 243.912 195.928 245.575 203.02 246.816C209.552 247.96 216.189 248.681 222.749 247.278C229.37 245.859 235.551 242.805 241.41 239.498C249.245 235.074 256.489 229.589 265.728 228.699C274.552 227.85 283.255 230.287 291.853 231.852C292.282 231.929 292.386 231.26 291.957 231.183C278.749 228.767 265.386 225.112 252.862 232.013C245.854 235.875 239.237 240.411 231.855 243.569C223.951 246.954 216.116 247.987 207.606 246.859C195.284 245.222 184.082 242.014 171.71 245.269C160.941 248.107 151.385 254.111 141.928 259.784C129.863 267.023 117.448 273.838 103.044 274.343C102.607 274.349 102.686 275.023 103.123 275.008Z" fill="#755462"/>
<path d="M82.3583 241.283C81.3876 241.482 72.1419 262.303 64.7661 281.153C57.3983 300.004 54.4225 309.044 55.067 309.298C55.7114 309.561 110.939 312.142 130.074 311.88C149.218 311.618 173.916 312.007 202.241 310.069C230.567 308.131 240.911 312.691 263.157 311.896C285.404 311.102 319.546 310.069 320.191 309.942C320.835 309.815 329.373 281.281 334.544 267.204C339.716 253.128 344.761 238.67 344.506 238.28C344.252 237.899 93.7443 238.987 82.3583 241.283Z" fill="#4A2533"/>
<path d="M222.707 80.2455C222.38 80.0312 222.029 79.9132 221.669 79.8709C220.529 79.7369 219.154 79.0265 219.134 77.8783C219.134 77.5685 218.884 77.2936 218.826 76.9893C218.812 76.9163 218.796 76.8444 218.776 76.7741C218.642 76.3019 217.856 76.0283 217.668 75.5751C217.313 74.7192 216.796 73.8479 216.063 72.8816C214.241 70.5064 211.766 68.1073 208.886 67.0746C206.61 66.2564 202.895 66.2564 200.905 67.7578C199.054 69.1533 197.466 71.2724 196.022 73.3857C194.606 75.4581 192.042 77.3647 191.739 79.8563C191.143 84.988 191.357 88.3642 192.233 93.4323C192.745 96.3016 195.12 98.4026 197.58 100.042C198.105 100.392 198.401 101.013 198.272 101.63C197.91 103.429 197.309 105.162 196.24 106.711C196.169 106.815 196.082 106.908 196.02 107.016C195.94 107.128 195.861 107.247 195.773 107.35C195.239 108.017 197.029 108.632 197.742 109.103C200.17 110.704 203.567 111.072 206.3 111.393C209.357 111.754 212.699 112.078 215.415 110.584C216.129 110.191 217.696 109.836 217.304 109.121C215.275 105.507 215.259 101.456 215.315 97.4201C215.315 97.2103 215.242 96.9906 215.296 96.7878C215.525 95.929 215.774 95.0786 216.045 94.2355C216.761 92.0124 219.041 90.5757 220.687 88.9198C221.88 87.7209 222.804 86.1162 223.319 84.853C223.908 83.4548 224.218 81.2147 222.707 80.2455Z" fill="#755462"/>
<path d="M197.403 82.7003C197.077 82.6844 196.774 82.7003 196.559 82.7082C195.501 82.7638 193.783 82.8273 193.424 84.0582C193.082 85.2415 194.992 85.2494 195.66 85.2336C196.655 85.2018 198.692 85.2177 199.129 84.0821C199.543 83.002 198.374 82.7479 197.403 82.7003Z" fill="#FFF6E4"/>
<path d="M211.559 83.0337C211.232 83.002 210.93 83.002 210.715 83.002C209.649 83.0099 207.93 83.002 207.525 84.217C207.127 85.3844 209.036 85.4797 209.705 85.4876C210.699 85.5035 212.728 85.6067 213.222 84.487C213.683 83.4228 212.529 83.1131 211.559 83.0337Z" fill="#FFF6E4"/>
<path d="M196.399 82.9224C196.129 82.6524 195.667 82.6842 195.357 82.8748C195.351 82.8779 195.346 82.8822 195.341 82.8872C195.325 82.9047 195.307 82.9173 195.284 82.9252C195.268 82.9306 195.254 82.9427 195.241 82.952C194.89 83.1888 194.735 83.6999 194.665 84.066C194.506 84.8442 195.262 85.6145 196.073 85.0428C196.606 84.6616 196.901 83.4148 196.399 82.9224Z" fill="#471F1E"/>
<path d="M210.517 83.121C210.246 82.851 209.785 82.8748 209.474 83.0734C209.468 83.0765 209.463 83.0808 209.458 83.0858C209.442 83.1033 209.424 83.1159 209.401 83.1238C209.386 83.1292 209.372 83.1413 209.358 83.1506C209.007 83.388 208.852 83.9146 208.782 84.2884C208.623 85.0825 209.379 85.8687 210.19 85.289C210.731 84.8999 211.018 83.6293 210.517 83.121Z" fill="#471F1E"/>
<path d="M238.818 87.8318C236.845 85.679 236.463 83.3435 235.779 80.6029C235.325 78.8076 234.713 77.0043 233.328 75.7095C232.453 74.8913 231.212 74.4385 230.432 73.5329C229.207 72.103 229.469 70.1329 228.96 68.4488C228.379 66.5264 226.907 64.2147 225.316 62.9596C223.876 61.8316 222.149 61.8157 220.422 61.5456C218.123 61.1881 217.447 60.068 216.468 58.0106C216.062 57.1685 215.688 56.4059 215.044 55.7228C213.75 54.353 212.921 52.1523 213.264 50.2994C213.492 49.062 213.358 47.8354 212.593 46.8415C211.511 45.4355 209.172 44.7364 207.612 44.0532C206.427 43.5369 204.589 42.3374 203.212 42.8299C202.082 43.2271 201.303 44.8159 200.952 45.8327C200.706 46.5556 200.929 47.0799 200.785 47.7471C200.666 48.3111 200.34 48.6368 200.117 49.1691C199.911 49.6631 199.8 50.2116 199.776 50.7801C199.673 53.1469 198.619 55.612 196.401 56.4456C194.683 57.097 193.258 58.4237 192.264 59.9409C191.651 60.8863 191.293 62.0302 190.617 62.9278C189.559 64.3339 188.174 64.3339 186.71 64.9217C185.103 65.5652 184.291 66.9077 183.854 68.5362C183.559 69.6404 183.559 70.8002 183.265 71.9044C182.787 73.7394 181.864 74.7244 180.496 75.8525C178.944 77.1314 177.735 78.5295 177.138 80.4837C176.796 81.6197 176.78 82.8113 176.478 83.9552C175.969 85.8617 174.632 87.093 173.51 88.6341C173.425 88.7505 173.343 88.8667 173.263 88.9829C172.076 90.7228 170.824 93.4235 172.46 94.7509C173.605 95.6883 175.348 95.3626 176.653 96.0854C178.077 96.8798 178.897 98.2223 180.48 98.8578C181.602 99.3106 182.66 99.4377 183.83 99.1835C185.962 98.7149 187.14 98.2938 189.368 99.0088C190.688 99.4298 191.906 99.8508 193.306 99.7078C194.468 99.5887 195.303 99.4934 196.393 99.1756C196.29 99.2074 193.744 95.72 193.378 94.8224C192.128 91.7402 192.383 86.9421 192.24 83.6136C192.144 81.3973 193.051 82.0566 193.378 79.7688C193.465 79.1333 193.425 78.8076 193.831 78.2833C194.173 77.8384 194.73 77.6478 195.192 77.3777C195.478 77.2109 195.757 77.052 196.035 76.8772C196.298 76.7183 196.544 76.4721 196.823 76.337C198.168 75.6698 199.449 74.9548 200.547 73.7076C201.603 72.5156 202.452 71.1788 203.229 69.7988C203.679 68.9973 204.834 68.7586 205.711 69.0366C207.254 69.5133 208.384 69.0208 209.721 70.4904C210.079 70.8796 210.278 71.6502 210.628 72.0871C211.026 72.5875 211.463 72.9609 211.98 73.3343C213.222 74.2399 214.168 75.0899 215.258 76.202C216.691 77.6637 217.9 78.5851 218.298 80.7538C218.378 81.2066 218.767 81.1113 219.078 81.0239C219.643 80.865 220.223 80.7697 220.812 80.8571C221.441 80.9524 222.053 81.2702 222.427 81.7786C223.366 83.0734 222.738 85.115 222.181 86.4337C221.664 87.6491 220.749 88.7374 219.587 89.4047C218.99 89.7463 218.338 89.9766 217.661 90.072C216.961 90.1673 216.301 89.9687 215.8 90.5645C215.521 90.8981 215.736 92.1532 215.744 92.5902C215.784 94.457 215.139 94.0598 214.749 94.8144C213.977 96.3158 212.378 96.8719 211.638 98.3892C211.471 98.7387 211.67 99.1597 212.084 99.1677C213.627 99.1994 215.075 100.034 216.563 100.018C217.439 100.01 218.051 99.549 218.791 99.1994C219.857 98.699 220.669 98.3494 221.855 98.2859C222.364 98.2621 222.865 98.3256 223.382 98.27C224.695 98.127 225.92 97.5709 227.17 97.1896C229.421 96.4985 231.275 96.9513 233.153 95.434C235.309 93.6943 238.205 93.9644 240.211 92.0659C240.235 92.0416 240.257 92.0168 240.283 91.9951C240.348 91.9419 240.408 91.8705 240.441 91.7719C241.03 90.0084 239.948 89.0631 238.818 87.8318Z" fill="#4A2533"/>
<path d="M192.733 80.8724C192.655 80.9113 192.589 80.9686 192.518 81.0193C192.217 81.2353 192.113 81.6245 192.526 81.8095C193.234 82.1272 194.102 81.6666 194.842 81.4998C195.868 81.2616 196.934 81.1107 197.977 80.9201C198.239 80.8724 198.502 80.658 198.518 80.4277C198.661 78.3629 193.791 80.3086 192.733 80.8724Z" fill="#4A2533"/>
<path d="M213.579 80.9361C213.664 80.9782 213.735 81.0424 213.812 81.0982C214.122 81.326 214.227 81.7118 213.794 81.889C213.054 82.1828 212.147 81.7064 211.367 81.5158C210.293 81.2458 209.179 81.0711 208.089 80.8566C207.811 80.8011 207.54 80.5787 207.524 80.3563C207.381 78.2757 212.473 80.3484 213.579 80.9361Z" fill="#4A2533"/>
<path d="M204.691 88.3875C203.54 88.4381 202.675 87.4009 202.824 86.2581C203.065 84.4084 203.282 82.5533 203.466 80.6899C203.53 80.0306 202.495 80.0306 202.432 80.6899C202.161 83.3829 201.843 86.0759 201.453 88.7609C201.405 89.1025 201.58 89.3964 201.954 89.4123C202.869 89.452 203.776 89.452 204.699 89.4123C205.36 89.3885 205.36 88.3558 204.691 88.3875Z" fill="#4A2533"/>
<path d="M206.928 91.4622C205.814 92.9711 203.379 93.5508 201.907 92.177C201.422 91.7243 200.69 92.4549 201.175 92.9076C203.172 94.7658 206.307 94.0352 207.819 91.9784C208.217 91.4464 207.318 90.9302 206.928 91.4622Z" fill="#4A2533"/>
<path d="M207.35 102.122C204.429 102.644 201.551 102.525 198.723 101.754C198.476 101.687 198.33 101.433 198.377 101.181C198.432 100.885 198.73 100.7 199.02 100.778C201.666 101.491 204.341 101.613 207.071 101.13C207.724 101.003 208.002 101.995 207.35 102.122Z" fill="#4A2533"/>
<path d="M221.036 88.777C220.558 88.3162 219.826 89.0471 220.304 89.5078C221.402 90.5723 221.672 92.5821 221.219 94.0437C220.869 95.1877 218.736 96.4746 217.344 96.5699C213.222 96.8479 215.355 94.2741 214.83 92.7807C214.456 91.7162 213.509 91.8433 214.774 90.191C215.267 89.5555 216.898 88.5466 217.734 88.634C218.394 88.6975 218.394 87.6648 217.734 87.6013C215.951 87.4186 212.745 89.7223 213.119 91.74C213.23 92.3438 213.684 92.7409 213.787 93.3526C213.899 94.012 213.596 94.5283 213.604 95.1797C213.612 96.2362 214.352 97.1895 215.299 97.6344C216.683 98.2858 217.782 97.3722 219.142 97.0783C220.248 96.84 220.877 96.7526 221.561 95.7199C222.898 93.6942 222.77 90.4531 221.036 88.777Z" fill="white"/>
<path d="M201.589 58.4634C199.879 58.8367 199.282 60.3937 197.858 61.2676C196.521 62.0858 195.073 62.4591 193.911 63.603C192.956 64.5484 192.248 65.732 191.771 66.9871C191.349 68.0993 191.293 69.4418 190.681 70.4824C190.1 71.4754 189.066 71.9441 188.214 72.6273C187.045 73.5646 186.122 74.7562 185.541 76.1384C184.697 78.1641 184.872 80.5393 183.759 82.4617C182.796 84.1061 181.053 85.0435 179.915 86.5369C178.897 87.8874 178.754 89.4364 178.149 90.9696C177.902 91.5892 178.905 91.8593 179.144 91.2476C179.955 89.1822 180.17 87.5935 181.865 85.9809C182.851 85.0435 183.934 84.1776 184.642 82.994C185.398 81.715 185.557 80.2295 185.859 78.7996C186.352 76.4641 187.283 74.6768 189.209 73.1913C190.402 72.2698 191.262 71.7693 191.874 70.3315C192.487 68.8936 192.543 67.4161 193.354 66.0339C194.412 64.2306 195.916 63.4124 197.707 62.5068C199.163 61.7601 200.308 59.8138 201.852 59.4802C202.512 59.3134 202.234 58.3204 201.589 58.4634Z" fill="#755462"/>
<path d="M189.616 80.9604C188.995 81.9295 188.255 82.8828 187.778 83.9314C187.165 85.2739 187.308 86.6482 186.457 87.8954C185.081 89.9052 183.967 91.478 183.792 93.9883C183.744 94.6556 184.778 94.6476 184.826 93.9883C184.945 92.2724 185.51 90.8664 186.576 89.5159C187.078 88.8725 187.619 88.4197 187.929 87.6332C188.343 86.5926 188.303 85.4487 188.741 84.408C189.178 83.3674 189.91 82.422 190.515 81.4767C190.873 80.9207 189.974 80.4043 189.616 80.9604Z" fill="#755462"/>
<path d="M205.592 60.3858C204.041 61.1722 202.728 62.4274 201.463 63.611C200.142 64.8423 199.792 65.8512 198.98 67.4082C197.986 69.3067 196.474 69.839 195.01 71.1735C194.087 72.0156 193.61 73.1436 193.212 74.2955C192.989 74.923 193.992 75.1931 194.206 74.5735C195.209 71.7137 197.97 71.0226 199.498 68.5997C200.253 67.4002 200.564 66.01 201.55 64.9376C202.776 63.6031 204.534 62.0858 206.117 61.2835C206.706 60.9737 206.181 60.0839 205.592 60.3858Z" fill="#755462"/>
<path d="M231.825 85.2104C230.95 83.3039 230.472 81.5563 229.295 79.8007C227.504 77.1316 228.252 73.819 225.627 71.6344C224.282 70.5223 222.77 70.1886 221.227 69.5134C219.277 68.6555 218.752 67.8134 218.044 65.9943C217.821 65.4382 217.614 64.8742 217.36 64.334C215.991 61.363 213.899 58.964 210.756 57.8757C210.127 57.6532 209.857 58.6542 210.477 58.8686C214.654 60.3144 215.967 63.9607 217.535 67.6784C218.601 70.2125 220.853 70.2522 223.128 71.3246C225.643 72.5003 226.43 73.9461 226.836 76.5993C227.027 77.8544 227.305 78.6329 227.974 79.7054C228.889 81.1829 229.637 82.438 230.234 84.0904C230.91 85.9651 232.143 87.6095 232.183 89.6669C232.199 90.3342 233.233 90.3342 233.217 89.6669C233.193 87.9749 232.517 86.7198 231.825 85.2104Z" fill="#755462"/>
<path d="M220.121 76.3528C219.078 73.1673 216.548 71.8724 213.994 70.0453C211.615 68.3454 212.443 64.5879 208.783 64.5085C208.114 64.4926 208.114 65.5253 208.783 65.5412C211.384 65.5968 211.201 69.1556 212.944 70.5617C215.323 72.4841 218.084 73.4533 219.126 76.6229C219.333 77.2504 220.336 76.9803 220.121 76.3528Z" fill="#755462"/>
<path d="M204.366 45.6259C203.499 46.8334 202.488 48.438 202.281 49.9473C202.241 50.2651 202.225 50.5352 202.393 50.8291C202.544 51.0992 202.854 51.2422 203.045 51.4726C203.546 52.0445 203.793 52.688 203.833 53.4506C203.873 54.1099 204.907 54.1179 204.867 53.4506C204.795 52.2193 204.326 51.5441 203.618 50.5908C202.79 49.4787 204.557 47.1273 205.265 46.1422C205.647 45.61 204.756 45.0937 204.366 45.6259Z" fill="#755462"/>
<path d="M208.678 48.7313C209.02 48.1594 208.129 47.643 207.787 48.207C207.151 49.2715 207.143 50.5663 207.771 51.6388C208.105 52.2107 208.996 51.6944 208.662 51.1145C208.217 50.3519 208.225 49.486 208.678 48.7313Z" fill="#755462"/>
<path d="M181.005 260.92C181.192 263.775 178.488 265.859 175.627 265.856C166.866 265.848 158.191 266.98 150.053 270.389C143.194 273.273 135.986 277.404 128.379 277.634C126.486 277.682 124.56 277.499 122.619 276.991C119.85 276.26 116.731 274.584 116.412 271.517C116.03 267.744 119.691 265.186 122.42 263.24C123.406 262.541 124.385 261.842 125.372 261.151C128.499 258.974 131.633 256.782 134.601 254.406C136.59 252.818 138.5 251.141 140.29 249.338C141.675 247.932 142.948 246.343 144.659 245.279C149.074 242.514 154.509 243.793 159.394 244.254C162.279 244.527 165.174 244.535 168.07 244.532C174.278 244.526 179.354 248.453 180.121 254.613C180.392 256.71 180.837 258.815 181.005 260.92Z" fill="#3BB3BD"/>
<path d="M240.417 190.037C240.305 188.949 239.995 187.932 239.669 186.709C238.992 184.23 239.247 181.609 239.008 179.067C238.626 175.016 237.807 171.02 237.711 166.968C237.671 167.389 237.632 167.818 237.592 168.239C237.632 167.818 237.671 167.389 237.711 166.968C237.697 166.438 237.695 165.9 237.714 165.369C237.715 165.325 237.774 165.312 237.797 165.35C237.819 165.385 237.871 165.37 237.875 165.329C239.464 149.869 242.222 133.903 235.284 119.041C235.249 118.966 235.186 118.907 235.109 118.876C232.078 117.709 228.84 116.565 225.912 114.984C225.609 114.825 225.315 114.666 225.012 114.491C223.556 113.641 222.188 112.68 220.978 111.528C220.708 111.266 220.437 111.004 220.183 110.726C219.146 109.588 218.258 108.268 217.583 106.737C217.576 106.722 217.566 106.705 217.556 106.693C217.526 106.657 217.507 106.618 217.495 106.573C217.43 106.327 217.21 106.136 216.897 106.238C216.236 106.452 215.552 106.643 214.852 106.81C214.518 106.881 214.191 106.953 213.849 107.008C212.783 107.215 211.685 107.35 210.571 107.429C210.229 107.461 209.887 107.485 209.537 107.493C208.582 107.548 207.619 107.548 206.664 107.517C206.322 107.509 205.98 107.493 205.638 107.477C204.325 107.405 203.012 107.278 201.715 107.096C201.365 107.056 201.023 107 200.681 106.937C199.488 106.754 198.326 106.516 197.196 106.246C196.846 106.174 196.504 106.087 196.17 105.999C195.766 105.899 195.369 105.79 194.98 105.674C194.962 105.669 194.938 105.664 194.918 105.662C194.849 105.655 194.786 105.636 194.72 105.613C194.567 105.561 194.395 105.591 194.244 105.761C193.106 107.143 191.762 108.247 190.29 109.145C189.979 109.344 189.661 109.526 189.327 109.701C187.179 110.869 184.815 111.671 182.428 112.354L181.426 112.633C181.139 112.712 180.837 112.791 180.543 112.871C176.851 113.864 173.111 114.754 169.507 116.009C169.173 116.12 168.846 116.239 168.512 116.358C167.319 116.803 166.157 117.288 165.003 117.836C161.956 119.287 159.744 122.048 158.772 125.281C152.182 147.204 163.12 171.793 159.626 195.14C159.616 195.207 159.559 195.256 159.491 195.256C159.418 195.256 159.358 195.313 159.354 195.385C159.207 197.959 159.583 200.628 161.876 201.683C162.696 202.056 163.603 202.096 164.454 202.327C165.807 202.692 166.81 203.391 168.011 204.058C169.364 204.813 170.812 205.266 172.316 205.464C175.936 206.163 179.62 207.053 183.304 207.18C183.646 207.188 183.996 207.204 184.338 207.204C184.998 207.204 185.675 207.172 186.335 207.101C188.77 206.87 191.149 206.68 193.592 206.648C196.337 206.608 199.488 206.163 202.193 206.743C202.4 206.795 202.624 206.721 202.835 206.754C205.606 207.181 208.27 207.49 211.287 207.085C215.878 206.441 220.008 204.908 224.662 204.71C224.837 204.702 225.028 204.686 225.203 204.686C225.333 204.68 225.436 204.639 225.513 204.577C225.564 204.536 225.624 204.503 225.689 204.503C229.142 204.734 233.176 204.662 235.786 202.668C238.809 200.356 239.852 195.884 240.377 192.325C240.44 191.944 240.472 191.578 240.472 191.229C240.488 190.8 240.464 190.419 240.417 190.037Z" fill="white"/>
<path d="M151.381 255.916C147.761 257.266 144.968 259.832 141.73 261.842C137.776 264.297 133.558 266.386 129.485 268.618C128.904 268.936 129.421 269.834 130.01 269.508C133.821 267.419 137.704 265.409 141.459 263.208C144.921 261.175 147.865 258.323 151.668 256.901C152.273 256.679 152.002 255.678 151.381 255.916Z" fill="#B6DADD"/>
<path d="M140.647 253.175C135.38 256.559 130.105 259.943 124.838 263.335C124.281 263.693 124.798 264.59 125.363 264.225C130.63 260.841 135.905 257.457 141.173 254.065C141.73 253.707 141.212 252.818 140.647 253.175Z" fill="#B6DADD"/>
<path d="M145.533 254.549C139.629 258.029 133.829 261.659 128.124 265.448C127.575 265.814 128.092 266.711 128.649 266.338C134.354 262.549 140.154 258.911 146.058 255.439C146.623 255.105 146.106 254.208 145.533 254.549Z" fill="#B6DADD"/>
<path d="M158.423 257.878C153.513 259.912 148.668 262.096 143.918 264.472C141.562 265.647 139.231 266.871 136.916 268.134C134.338 269.54 131.847 271.224 128.959 271.891C128.315 272.042 128.585 273.035 129.238 272.884C134.004 271.78 138.364 268.467 142.684 266.259C147.92 263.582 153.267 261.135 158.701 258.879C159.306 258.625 159.043 257.624 158.423 257.878Z" fill="#B6DADD"/>
<path d="M163.658 262.017C151.19 264.766 139.724 270.446 127.94 275.164C127.328 275.41 127.598 276.411 128.219 276.157C140.002 271.438 151.468 265.759 163.936 263.01C164.581 262.867 164.31 261.874 163.658 262.017Z" fill="#B6DADD"/>
<path d="M299.249 220.24C298.97 217.459 298.047 214.711 296.329 212.51C296.01 212.089 295.668 211.708 295.318 211.351C292.525 208.602 288.714 207.712 284.823 207.236C284.211 207.164 283.59 207.109 282.977 207.061C282.937 207.061 282.906 207.061 282.866 207.053C282.277 207.013 281.688 206.989 281.092 206.981C277.758 206.918 274.408 207.252 271.098 207.688C269.546 207.895 268.003 208.117 266.451 208.356C262.553 208.951 258.67 209.651 254.811 210.445C254.644 210.477 254.477 210.516 254.309 210.548C252.503 210.922 250.705 211.319 248.915 211.732C248.644 211.795 248.382 211.859 248.111 211.923C246.663 212.262 245.215 212.611 243.771 212.979C243.148 213.138 242.509 212.866 242.136 212.344C241.762 211.787 241.364 211.239 240.958 210.691C240.871 210.572 240.775 210.453 240.68 210.326C240.274 209.794 239.852 209.269 239.415 208.753C239.391 208.729 239.375 208.705 239.351 208.681C238.905 208.149 238.444 207.617 237.982 207.101C237.935 207.045 237.887 206.989 237.831 206.934C235.941 204.809 232.785 204.301 229.949 204.515C228.635 204.615 227.291 204.588 226.016 204.514C225.742 204.498 225.47 204.67 225.196 204.67C220.327 204.765 216.046 206.409 211.28 207.069C208.261 207.482 205.597 207.166 202.818 206.745C202.607 206.713 202.386 206.777 202.177 206.735C199.48 206.155 196.329 206.6 193.584 206.632C191.142 206.664 188.755 206.862 186.328 207.093C181.625 207.545 176.915 206.354 172.3 205.456C170.804 205.25 169.356 204.805 167.996 204.042C166.213 203.049 164.099 203.511 162.844 205.12C160.979 207.51 159.275 210.009 157.732 212.622C157.419 213.137 156.789 213.391 156.214 213.208C155.469 212.972 154.728 212.734 153.984 212.502C153.753 212.431 153.515 212.351 153.284 212.28C152.234 211.954 151.183 211.637 150.125 211.335C149.95 211.287 149.767 211.239 149.592 211.184C148.629 210.914 147.666 210.659 146.704 210.413C146.513 210.366 146.33 210.318 146.139 210.27C145.08 210.008 144.022 209.77 142.956 209.539C142.717 209.484 142.471 209.436 142.224 209.388C141.142 209.166 140.06 208.959 138.97 208.769C135.222 208.133 131.411 207.728 127.512 207.617C122.858 207.482 118.314 207.688 114.384 210.485C112.952 211.496 111.756 212.735 110.78 214.123C110.769 214.139 110.759 214.155 110.748 214.17C110.736 214.186 110.726 214.202 110.715 214.218C110.403 214.664 110.122 215.124 109.856 215.6C109.833 215.64 109.809 215.688 109.785 215.728C109.268 216.681 108.83 217.69 108.488 218.73C108.464 218.802 108.44 218.873 108.416 218.937C108.257 219.445 108.114 219.954 107.987 220.478C107.971 220.534 107.963 220.581 107.955 220.637C107.843 221.121 107.756 221.614 107.684 222.107C107.676 222.178 107.66 222.25 107.652 222.321C107.581 222.829 107.533 223.346 107.493 223.862C107.485 223.965 107.477 224.077 107.477 224.18C107.446 224.704 107.43 225.228 107.438 225.745C107.533 231.274 110.477 235.786 114.177 239.71C115.529 241.156 116.978 242.522 118.481 243.825C124.958 249.465 132.652 253.453 140.505 256.829C148.868 260.412 157.413 263.955 166.166 266.465C175.562 269.15 185.254 270.516 194.635 273.281C199.568 274.735 204.461 276.284 209.45 277.539C211.861 278.15 214.28 278.73 216.722 279.167C218.886 279.556 221.544 280.24 223.748 279.993C225.021 279.85 224.655 277.721 224.567 276.887C224.528 276.522 224.504 276.172 224.496 275.823C224.416 274.234 224.599 272.772 225.053 271.168C225.284 270.373 225.506 269.579 225.729 268.769C225.833 268.3 225.936 267.847 226.039 267.394C226.199 266.64 226.31 265.869 226.35 265.083C226.429 263.526 226.692 262.008 227.36 260.587C227.503 260.285 227.663 259.991 227.83 259.697C228.931 257.693 231.255 256.501 233.519 256.822C234.732 256.994 235.947 257.137 237.163 257.21C240.266 257.393 243.329 256.742 246.424 256.972C246.896 257.006 247.193 256.377 247.623 256.179C256.533 252.09 265.499 248.093 274.655 244.572C282.062 241.712 291.785 239.003 296.726 232.298C299.193 228.978 299.662 224.235 299.249 220.24Z" fill="#755462"/>
<path d="M287.647 288.676C286.987 291.774 283.693 293.117 280.86 293.53C278.792 293.832 276.787 293.792 274.837 293.482C267.398 292.291 260.778 287.286 254.349 283.584C246.703 279.164 238.265 276.989 229.604 275.96C226.685 275.613 224.166 273.168 224.702 270.278C224.782 269.833 224.885 269.388 224.989 268.936C225.045 268.721 225.092 268.491 225.156 268.276C225.418 267.244 225.705 266.211 225.983 265.186C226.063 264.852 226.15 264.527 226.23 264.193C226.254 264.114 226.27 264.026 226.294 263.947C226.453 263.288 226.604 262.636 226.747 261.993C226.819 261.651 226.906 261.309 226.986 260.984C227.233 259.943 227.495 258.926 227.813 257.933C227.925 257.592 228.044 257.25 228.179 256.925C228.826 255.214 230.568 254.253 232.393 254.369C237.644 254.701 242.822 255.705 248.079 255.812C249.583 255.844 251.15 255.804 252.702 255.836C256.243 255.892 259.775 256.273 262.6 258.593C264.104 259.832 265.154 261.508 266.316 263.041C266.363 263.113 266.419 263.176 266.467 263.248C268.026 265.305 269.737 267.236 271.535 269.094C274.264 271.922 277.184 274.56 280.089 277.213C280.924 277.976 281.775 278.754 282.611 279.525C285.109 281.821 288.467 284.871 287.647 288.676Z" fill="#3BB3BD"/>
<path d="M275.275 285.928C267.899 279.97 261.072 274.004 251.914 270.978C243.715 268.254 235.043 266.766 226.534 265.28C226.244 265.229 226.058 264.945 226.13 264.66C226.196 264.398 226.453 264.23 226.719 264.276C235.817 265.859 245.206 267.41 253.887 270.565C262.464 273.694 269.013 279.541 275.999 285.189C276.516 285.618 275.776 286.341 275.275 285.928Z" fill="#B6DADD"/>
<path d="M279.039 282.083C276.048 278.119 271.918 275.339 268.712 271.557C267.255 269.826 265.632 268.571 263.762 267.292C261.893 265.997 260.429 264.162 258.487 263.018C254.469 260.643 248.764 260.198 244.213 259.546C239.005 258.8 233.752 258.375 228.505 257.984C228.158 257.959 227.926 257.611 228.047 257.284C228.128 257.067 228.344 256.937 228.576 256.954C233.896 257.359 239.209 257.793 244.491 258.545C249.146 259.221 254.859 259.705 259.004 262.12C261.2 263.399 262.887 265.449 264.996 266.871C266.818 268.086 268.306 269.46 269.714 271.16C272.849 274.934 276.955 277.627 279.922 281.559C280.328 282.091 279.429 282.599 279.039 282.083Z" fill="#B6DADD"/>
<path d="M277.718 283.219C270.796 276.84 264.319 269.992 255.296 266.664C250.833 265.02 246.154 264.042 241.507 263.073C236.67 262.064 231.84 261.119 226.891 260.968C226.223 260.944 226.223 261.977 226.891 262.001C232.047 262.16 237.075 263.192 242.104 264.249C246.178 265.107 250.252 265.989 254.19 267.363C263.42 270.58 269.968 277.475 276.994 283.95C277.471 284.403 278.211 283.672 277.718 283.219Z" fill="#B6DADD"/>
<path d="M275.865 289.637C271.687 287.27 268.274 283.902 264.399 281.106C260.763 278.476 256.793 276.363 252.663 274.631C248.271 272.789 243.696 271.382 239.073 270.246C234.673 269.166 230.026 267.887 225.459 268.181C224.799 268.221 224.791 269.253 225.459 269.214C230.209 268.904 235.087 270.294 239.67 271.454C244.237 272.614 248.756 274.036 253.085 275.918C257.151 277.69 261.049 279.859 264.598 282.52C268.186 285.213 271.417 288.311 275.347 290.527C275.92 290.853 276.445 289.963 275.865 289.637Z" fill="#B6DADD"/>
<path d="M275.76 291.441C267.358 288.033 260.308 282.099 251.962 278.548C247.53 276.657 242.939 275.132 238.364 273.638C234.155 272.264 229.922 271.136 225.466 271.152C224.798 271.152 224.798 272.185 225.466 272.185C230.479 272.169 235.165 273.654 239.868 275.227C244.411 276.745 248.978 278.27 253.33 280.272C261.008 283.807 267.628 289.248 275.49 292.434C276.102 292.688 276.373 291.687 275.76 291.441Z" fill="#B6DADD"/>
<path d="M132.715 267.227C132.396 265.519 130.59 264.542 129.341 263.557C129.062 263.338 128.786 263.124 128.509 262.917C126.688 261.556 124.267 261.915 122.419 263.24C119.69 265.178 116.022 267.744 116.411 271.517C116.73 274.583 119.849 276.259 122.618 276.99C122.656 277 122.694 277.01 122.732 277.02C126.143 277.891 129.414 275.718 130.996 272.574C131.76 271.017 133.049 269.054 132.715 267.227Z" fill="#B6DADD"/>
<path d="M282.635 279.517C281.108 278.093 278.872 277.698 276.996 278.615C276.585 278.816 276.176 279.022 275.769 279.231C274.464 279.89 273.413 280.359 273.039 281.852C272.594 283.654 272.762 285.652 273.187 287.664C273.953 291.29 277.209 294.057 280.877 293.522C283.709 293.109 287.003 291.766 287.664 288.668C288.467 284.871 285.118 281.821 282.635 279.517Z" fill="#B6DADD"/>
<path d="M262.608 258.585C261.464 257.642 260.202 257.018 258.871 256.607C255.852 255.674 253.391 258.831 254.421 261.818C254.811 263.009 255.049 263.994 256.235 264.574C257.541 265.208 259.184 265.24 260.859 264.945C263.848 264.419 264.95 260.515 262.608 258.585Z" fill="#B6DADD"/>
<path d="M222.332 221.519C213.57 225.172 212.924 237.068 221.779 240.49C225.251 241.832 228.749 243.111 232.27 244.325C233.079 244.595 231.949 245.688 231.583 246.458C230.798 248.109 230.709 249.918 230.297 251.753C229.748 254.152 228.753 256.456 228.093 258.815C228.013 259.117 227.925 259.403 227.854 259.705C227.281 261.778 226.82 263.867 226.382 265.972C226.286 266.441 226.175 266.91 226.064 267.394C225.96 267.847 225.857 268.3 225.753 268.769C225.276 270.906 224.886 273.114 225.212 275.195C225.276 275.64 224.838 275.91 224.52 275.823C224.361 275.791 224.242 275.68 224.21 275.465C223.82 272.955 224.417 270.572 224.902 268.109C225.475 265.218 226.064 262.334 226.827 259.482C227.615 256.535 228.864 253.699 229.445 250.704C230.016 247.741 228.403 244.06 225.572 243.015C224.096 242.47 222.624 241.914 221.154 241.346C211.686 237.676 202.345 233.53 193.33 228.954C186.893 225.689 180.56 222.496 173.717 220.192C168.231 218.348 162.716 216.625 157.673 213.777C157.422 213.635 157.333 213.32 157.479 213.072C157.625 212.822 157.948 212.739 158.2 212.882C163.675 215.989 169.727 217.707 175.666 219.771C181.689 221.868 187.315 224.728 192.988 227.62C195.615 228.961 198.685 229.117 201.466 228.132C208.071 225.793 214.712 223.498 221.202 220.867C224.958 219.342 228.506 217.499 232.373 216.252C235.583 215.214 238.8 214.27 241.707 212.593C241.946 212.455 242.251 212.517 242.401 212.748C242.564 213 242.488 213.34 242.229 213.489C239.49 215.067 236.495 216.022 233.463 216.991C229.62 218.222 226.048 219.97 222.332 221.519Z" fill="#4A2533"/>
<path d="M220.416 110.958C220.667 111.229 220.572 111.67 220.222 111.79C215.362 113.445 209.686 113.973 204.779 113.625C201.437 113.387 198.143 112.736 194.897 111.973C193.122 111.556 191.39 111.139 189.935 110.154C189.633 109.949 189.682 109.503 189.995 109.316C190.176 109.208 190.4 109.222 190.575 109.339C190.887 109.549 191.216 109.733 191.558 109.897C192.681 110.433 194.057 109.675 194.734 108.63C194.845 108.457 194.955 108.286 195.056 108.112C195.39 107.543 195.692 106.958 195.979 106.365C196.086 106.146 196.331 106.033 196.568 106.091C196.881 106.168 197.058 106.511 196.916 106.801C196.677 107.293 196.424 107.782 196.154 108.263C196.06 108.43 195.953 108.598 195.842 108.769C195.106 109.896 195.778 111.13 197.093 111.417C198.196 111.654 199.302 111.06 199.69 109.999C200.006 109.134 200.294 108.258 200.548 107.369C200.621 107.116 200.87 106.958 201.13 106.998C201.434 107.044 201.633 107.344 201.546 107.638C201.346 108.312 201.13 108.982 200.898 109.647C200.478 110.854 201.206 112.188 202.474 112.35C203.235 112.447 203.998 112.526 204.762 112.581C204.849 112.587 204.901 112.51 204.922 112.426C205.167 110.93 205.386 109.434 205.579 107.932C205.613 107.668 205.847 107.476 206.113 107.486C206.409 107.496 206.634 107.755 206.598 108.049C206.483 108.965 206.358 109.878 206.222 110.791C206.075 111.783 206.79 112.691 207.792 112.686C208.861 112.68 209.643 111.637 209.561 110.572C209.495 109.708 209.503 108.824 209.525 107.951C209.531 107.685 209.748 107.473 210.013 107.457C210.312 107.439 210.564 107.677 210.556 107.976C210.531 109.012 210.523 110.066 210.649 111.072C210.758 111.945 211.573 112.498 212.446 112.396C213.62 112.26 214.349 111.027 214.19 109.855C214.083 109.068 214.026 108.272 213.922 107.477C213.886 107.206 214.076 106.952 214.344 106.897C214.621 106.839 214.886 107.024 214.918 107.306C215.01 108.123 215.055 108.951 215.171 109.76C215.354 111.041 216.645 111.722 217.896 111.393C218.562 111.218 219.218 111.024 219.858 110.807C220.054 110.74 220.275 110.806 220.416 110.958Z" fill="#3E929B"/>
<path d="M228.896 123.133C228.455 120.164 230.839 117.631 233.758 118.334C238.125 119.385 244.362 121.599 250.164 126.232C259.012 133.294 263.436 159.74 263.436 166.865C263.436 176.58 275.825 171.282 279.357 169.518C282.89 167.755 293.512 165.102 297.936 165.983C300.744 166.543 302.838 173.156 303.992 177.911C304.761 181.081 304.583 184.517 302.509 187.035C301.421 188.356 299.928 189.725 297.936 190.721C292.629 193.374 267.86 205.734 252.822 198.672C241.937 193.556 243.823 170.774 241.325 169.526C240.089 168.911 235.754 169.322 235.551 167.956L228.896 123.133Z" fill="white"/>
<path d="M276.71 200.821C279.352 200.71 280.983 198.692 283.434 198.025C286.115 197.302 288.335 197.659 290.738 195.952C291.947 195.086 292.934 194.101 294.39 193.6C295.687 193.155 297.055 192.996 298.328 192.48C300.832 191.466 303.131 189.75 305.399 188.256C305.69 188.064 306.011 187.913 306.357 187.873C307.16 187.801 308.744 186.856 309.579 186.427C309.993 186.212 310.598 185.887 310.749 185.418C310.932 184.854 310.327 184.179 310.065 183.718C309.309 182.383 308.585 181.025 307.916 179.643C306.587 176.902 305.45 174.074 304.614 171.143C304.2 169.689 303.858 168.22 303.588 166.726C303.575 166.664 303.548 166.605 303.53 166.544C303.488 166.403 303.378 166.289 303.182 166.25C301.638 165.964 299.084 166.234 297.756 167.028C297.23 167.338 297.063 167.322 296.849 167.973C296.339 169.506 297.588 171.778 298.018 173.184C298.607 175.091 299.005 177.037 299.729 178.904C300.326 180.445 300.946 182.034 301.782 183.464C303.016 185.592 302.675 188.921 300.557 190.172C299.722 190.664 298.869 191.113 297.986 191.479C295.91 192.337 293.65 192.432 291.788 193.775C290.563 194.657 289.528 195.658 288.072 196.182C286.823 196.627 285.574 196.659 284.277 196.841C281.492 197.231 279.487 199.685 276.702 199.796C276.05 199.812 276.042 200.845 276.71 200.821Z" fill="#3E929B"/>
<path d="M173.594 116.829C173.702 116.235 173.381 115.655 172.795 115.508C170.258 114.874 163.119 113.963 154.843 120.576C145.995 127.638 140.521 142.025 138.397 165.268C137.514 174.944 126.008 169.685 122.476 167.922C118.935 166.158 114.718 157.03 110.294 157.912C108.935 158.183 107.135 159.187 105.292 160.448C99.6234 164.328 97.3798 171.772 101.162 177.507C103.083 180.42 105.775 183.428 109.498 185.716C121.489 193.08 129.39 206.37 149.019 197.067C159.888 191.912 158.018 169.169 160.516 167.922C160.802 167.779 164.429 166.929 164.486 166.614L173.594 116.829Z" fill="white"/>
<path d="M116.424 192.719C114.083 191.651 113.239 188.867 110.987 187.567C109.938 186.958 108.879 186.499 107.972 185.686C106.908 184.733 106.381 183.525 105.644 182.341C104.521 180.548 102.621 179.679 101.154 178.228C100.534 177.616 99.967 176.944 99.4314 176.242C98.0526 174.433 98.9306 171.465 100.743 170.09C101.967 169.159 103.053 168.034 104.114 166.931C105.391 165.597 106.417 164.078 107.596 162.666C108.469 161.621 110.332 160.122 110.439 158.64C110.484 158.015 110.336 157.964 110.001 157.518C109.142 156.381 107.061 155.26 105.638 154.967C105.458 154.928 105.324 154.988 105.237 155.091C105.197 155.137 105.155 155.181 105.124 155.233C104.37 156.405 103.562 157.542 102.694 158.626C100.941 160.818 98.9685 162.835 96.8639 164.699C95.7988 165.642 94.7048 166.543 93.5893 167.411C93.2009 167.709 92.449 168.07 92.4017 168.616C92.3606 169.075 92.7725 169.558 93.0439 169.888C93.6025 170.55 94.6222 171.897 95.2916 172.24C95.5809 172.384 95.7985 172.635 95.9813 172.902C97.3913 174.961 98.7517 177.213 100.535 178.956C101.445 179.841 102.557 180.455 103.51 181.288C104.576 182.224 105.073 183.407 105.803 184.566C107.249 186.86 109.281 187.333 111.316 188.88C113.183 190.305 113.864 192.591 116.081 193.603C116.621 193.856 116.98 192.974 116.424 192.719Z" fill="#3E929B"/>
<path d="M302.107 167.064C302.111 166.608 302.13 166.157 302.17 165.704C302.337 163.84 303.184 158.64 307.485 156.257C312.784 153.318 314.773 157.107 310.978 159.093C307.182 161.079 303.546 164.646 307.747 166.608C311.948 168.57 314.789 165.091 315.179 161.055C315.569 157.02 310.023 157.592 312.076 154.184C314.129 150.776 315.951 152.992 317.86 155.987C319.438 158.468 322.495 159.979 323.322 157.157C323.693 155.892 323.934 154.49 323.947 152.968C324.011 145.771 325.674 146.407 326.708 148.695C326.848 149.005 326.964 149.362 327.059 149.748C327.232 150.446 330.036 151.641 330.281 152.317C331.394 155.399 331.251 161.802 327.949 168.53C325.419 173.675 320.386 177.208 313.874 178.668C309.777 179.586 305.168 178.276 303.507 174.419C302.229 171.451 302.096 168.388 302.107 167.064Z" fill="#755462"/>
<path d="M171.871 119.774C170.593 119.084 169.537 118.095 168.797 116.881C168.63 116.608 168.767 116.258 169.07 116.154C169.318 116.068 169.588 116.18 169.726 116.404C170.37 117.449 171.268 118.284 172.388 118.892C172.977 119.21 172.451 120.092 171.871 119.774Z" fill="#3BB3BD"/>
<path d="M168.004 124.874C166.221 125.398 164.32 125.914 162.522 125.136C161.917 124.874 161.392 125.763 161.996 126.025C164.081 126.923 166.174 126.478 168.274 125.866C168.919 125.684 168.648 124.683 168.004 124.874Z" fill="#3BB3BD"/>
<path d="M176.032 130.18C175.603 129.02 175.459 127.837 175.587 126.605C175.658 125.946 174.616 125.946 174.552 126.605C174.417 127.924 174.584 129.211 175.038 130.45C175.261 131.07 176.263 130.8 176.032 130.18Z" fill="#3BB3BD"/>
<path d="M184.313 119.591C183.247 120.488 181.95 120.941 180.558 120.949C179.89 120.949 179.89 121.981 180.558 121.981C182.237 121.981 183.764 121.402 185.045 120.322C185.555 119.893 184.823 119.162 184.313 119.591Z" fill="#3BB3BD"/>
<path d="M181.921 112.488C182.2 112.41 182.49 112.577 182.549 112.862C182.716 113.667 182.798 114.487 182.804 115.317C182.812 115.993 181.778 115.993 181.77 115.317C181.763 114.582 181.694 113.842 181.545 113.122C181.487 112.845 181.647 112.563 181.921 112.488Z" fill="#3BB3BD"/>
<path d="M195.851 121.235C194.992 120.346 194.363 119.297 193.989 118.121C193.79 117.494 192.788 117.764 192.995 118.399C193.424 119.75 194.141 120.949 195.119 121.974C195.589 122.443 196.313 121.712 195.851 121.235Z" fill="#3BB3BD"/>
<path d="M190.998 128.901C189.845 128.377 188.659 127.948 187.426 127.63C186.781 127.463 186.503 128.456 187.147 128.623C188.285 128.917 189.399 129.306 190.473 129.79C191.078 130.068 191.603 129.179 190.998 128.901Z" fill="#3BB3BD"/>
<path d="M202.679 133.103C201.374 132.555 200.594 131.268 199.894 130.116C199.544 129.552 198.653 130.069 199.003 130.641C199.87 132.063 200.817 133.437 202.408 134.104C203.013 134.358 203.284 133.358 202.679 133.103Z" fill="#3BB3BD"/>
<path d="M206.737 123.293C205.806 124.055 204.692 124.516 203.498 124.643C202.846 124.706 202.838 125.747 203.498 125.675C204.986 125.524 206.307 124.976 207.469 124.023C207.978 123.602 207.246 122.872 206.737 123.293Z" fill="#3BB3BD"/>
<path d="M203.705 117.439C203.235 116.136 203.092 114.81 203.267 113.435C203.355 112.776 202.312 112.784 202.233 113.435C202.05 114.897 202.209 116.327 202.702 117.709C202.933 118.337 203.928 118.067 203.705 117.439Z" fill="#3BB3BD"/>
<path d="M216.285 121.251C215.768 120.131 215.608 118.916 215.831 117.7C215.951 117.049 214.956 116.771 214.837 117.422C214.566 118.932 214.749 120.378 215.394 121.768C215.672 122.379 216.563 121.855 216.285 121.251Z" fill="#3BB3BD"/>
<path d="M212.504 128.456C211.605 129.449 210.857 130.553 210.292 131.769C210.014 132.365 210.905 132.897 211.184 132.293C211.709 131.157 212.385 130.117 213.228 129.195C213.682 128.695 212.958 127.964 212.504 128.456Z" fill="#3BB3BD"/>
<path d="M225.658 124.135C224.656 124.214 223.645 124.23 222.643 124.191C221.975 124.167 221.975 125.199 222.643 125.223C223.653 125.263 224.656 125.247 225.658 125.167C226.319 125.112 226.319 124.079 225.658 124.135Z" fill="#3BB3BD"/>
<path d="M225.42 114.717C225.682 114.862 225.77 115.199 225.604 115.448C225.074 116.24 224.537 117.02 224.011 117.811C223.637 118.359 222.738 117.843 223.112 117.286C223.667 116.486 224.21 115.679 224.752 114.877C224.899 114.659 225.189 114.59 225.42 114.717Z" fill="#3BB3BD"/>
<path d="M232.493 121.513C232.127 120.965 231.228 121.482 231.602 122.038C232.087 122.769 232.358 123.571 232.382 124.453C232.406 125.112 233.44 125.12 233.416 124.453C233.384 123.396 233.082 122.395 232.493 121.513Z" fill="#3BB3BD"/>
<path d="M204.62 139.26C203.45 139.76 202.488 140.547 201.732 141.556C201.334 142.088 202.225 142.604 202.623 142.08C203.275 141.214 204.151 140.579 205.145 140.15C205.758 139.895 205.225 139.006 204.62 139.26Z" fill="#3BB3BD"/>
<path d="M207.032 151.962C206.029 151.883 205.114 151.557 204.279 151.001C203.722 150.636 203.204 151.525 203.753 151.891C204.74 152.542 205.846 152.899 207.024 152.987C207.692 153.042 207.692 152.01 207.032 151.962Z" fill="#3BB3BD"/>
<path d="M217.183 150.31C217.048 149.659 216.053 149.937 216.188 150.588C216.371 151.494 216.411 152.415 216.284 153.329C216.196 153.98 217.191 154.258 217.278 153.607C217.43 152.487 217.406 151.406 217.183 150.31Z" fill="#3BB3BD"/>
<path d="M214.239 159.851C213.213 159.636 212.393 159.024 211.9 158.095C211.59 157.507 210.699 158.032 211.009 158.619C211.614 159.763 212.696 160.589 213.961 160.852C214.613 160.979 214.892 159.986 214.239 159.851Z" fill="#3BB3BD"/>
<path d="M206.148 163.465C205.821 164.49 205.408 165.483 204.914 166.436C204.612 167.024 205.503 167.548 205.805 166.96C206.338 165.928 206.784 164.847 207.142 163.743C207.349 163.107 206.346 162.837 206.148 163.465Z" fill="#3BB3BD"/>
<path d="M213.445 170.901C212.649 170.217 211.957 169.439 211.392 168.557C211.034 168.001 210.135 168.517 210.501 169.081C211.114 170.035 211.854 170.893 212.721 171.631C213.214 172.06 213.954 171.329 213.445 170.901Z" fill="#3BB3BD"/>
<path d="M208.152 176.731C207.778 177.7 207.277 178.606 206.672 179.456C206.29 179.996 207.181 180.512 207.563 179.98C208.216 179.059 208.741 178.066 209.147 177.009C209.385 176.382 208.391 176.112 208.152 176.731Z" fill="#3BB3BD"/>
<path d="M214.287 185.469C213.563 184.794 212.966 184.023 212.497 183.142C212.179 182.554 211.287 183.078 211.606 183.666C212.115 184.611 212.775 185.461 213.555 186.2C214.04 186.653 214.772 185.922 214.287 185.469Z" fill="#3BB3BD"/>
<path d="M204.223 202.04C203.3 202.175 202.361 202.032 201.518 201.643C200.913 201.373 200.388 202.263 200.993 202.533C202.122 203.049 203.268 203.208 204.493 203.033C205.154 202.946 204.875 201.945 204.223 202.04Z" fill="#3BB3BD"/>
<path d="M208.677 190.418C208.311 191.475 207.866 192.492 207.357 193.485C207.054 194.072 207.945 194.597 208.248 194.009C208.797 192.937 209.274 191.832 209.672 190.696C209.895 190.061 208.892 189.791 208.677 190.418Z" fill="#3BB3BD"/>
<path d="M217.757 198.751C216.508 198.926 215.275 198.839 214.058 198.521C213.413 198.354 213.135 199.347 213.779 199.514C215.187 199.879 216.588 199.943 218.028 199.744C218.688 199.657 218.41 198.656 217.757 198.751Z" fill="#3BB3BD"/>
<path d="M223.127 189.846C222.507 190.553 221.751 191.061 220.852 191.339C220.215 191.538 220.486 192.53 221.13 192.332C222.197 192.006 223.127 191.411 223.859 190.569C224.297 190.077 223.565 189.346 223.127 189.846Z" fill="#3BB3BD"/>
<path d="M223.231 181.18C222.371 180.648 221.632 179.98 221.003 179.194C220.581 178.678 219.857 179.408 220.271 179.925C220.955 180.775 221.783 181.49 222.714 182.07C223.279 182.419 223.796 181.529 223.231 181.18Z" fill="#3BB3BD"/>
<path d="M222.276 167.079C222.029 167.802 221.743 168.509 221.409 169.2C221.122 169.796 222.013 170.32 222.3 169.725C222.666 168.954 222.992 168.16 223.27 167.349C223.485 166.73 222.491 166.46 222.276 167.079Z" fill="#3BB3BD"/>
<path d="M235.006 161.519C234.76 162.241 234.473 162.948 234.139 163.64C233.853 164.235 234.744 164.76 235.03 164.164C235.396 163.393 235.722 162.599 236.001 161.789C236.216 161.169 235.221 160.899 235.006 161.519Z" fill="#3BB3BD"/>
<path d="M226.135 156.268C225.435 157.007 224.83 157.817 224.313 158.691C223.979 159.263 224.87 159.787 225.204 159.215C225.674 158.413 226.223 157.674 226.867 156.999C227.321 156.514 226.589 155.775 226.135 156.268Z" fill="#3BB3BD"/>
<path d="M232.501 154.679C231.801 155.418 231.196 156.228 230.679 157.102C230.345 157.674 231.236 158.198 231.57 157.626C232.04 156.824 232.589 156.085 233.233 155.41C233.687 154.925 232.955 154.187 232.501 154.679Z" fill="#3BB3BD"/>
<path d="M234.099 172.735C233.184 172.243 232.389 171.607 231.712 170.829C231.275 170.328 230.543 171.059 230.98 171.56C231.72 172.402 232.596 173.101 233.582 173.625C234.163 173.943 234.688 173.045 234.099 172.735Z" fill="#3BB3BD"/>
<path d="M233.153 184.278C232.182 184.293 231.267 184.095 230.4 183.642C229.811 183.341 229.286 184.23 229.875 184.532C230.893 185.064 231.999 185.326 233.145 185.302C233.821 185.294 233.821 184.262 233.153 184.278Z" fill="#3BB3BD"/>
<path d="M240.474 190.894C240.473 191.082 240.367 191.262 240.205 191.359C239.978 191.497 239.75 191.639 239.525 191.776C238.952 192.118 238.435 191.22 239.008 190.879C239.231 190.747 239.453 190.615 239.676 190.484C240.026 190.276 240.474 190.487 240.474 190.894Z" fill="#3BB3BD"/>
<path d="M230.909 197.012V199.419C230.909 200.086 231.944 200.086 231.944 199.419V197.012C231.944 196.352 230.909 196.352 230.909 197.012Z" fill="#3BB3BD"/>
<path d="M225.648 204.415C225.663 204.449 225.639 204.487 225.603 204.487C225.588 204.487 225.573 204.494 225.563 204.506C225.483 204.599 225.361 204.662 225.197 204.67C224.877 204.67 224.572 204.486 224.503 204.174C224.478 204.056 224.457 203.935 224.441 203.812C224.361 203.153 225.396 203.161 225.475 203.812C225.503 204.023 225.563 204.228 225.648 204.415Z" fill="#3BB3BD"/>
<path d="M192.821 200.665C192.025 200.316 191.381 199.824 190.848 199.141C190.434 198.617 189.71 199.355 190.116 199.871C190.696 200.61 191.436 201.182 192.296 201.555C192.9 201.817 193.434 200.927 192.821 200.665Z" fill="#3BB3BD"/>
<path d="M184.618 205.885C184.495 206.13 184.409 206.384 184.365 206.647C184.317 206.94 184.087 207.196 183.789 207.188C183.517 207.182 183.298 206.958 183.326 206.688C183.372 206.237 183.495 205.799 183.719 205.353C184.029 204.765 184.92 205.281 184.618 205.885Z" fill="#3BB3BD"/>
<path d="M179.62 200.595C178.514 200.698 177.432 200.904 176.366 201.23C175.729 201.42 176 202.421 176.644 202.223C177.615 201.929 178.609 201.722 179.62 201.619C180.272 201.571 180.28 200.531 179.62 200.595Z" fill="#3BB3BD"/>
<path d="M160.31 132.571C159.318 132.618 158.354 132.465 157.449 132.137C157.179 132.039 157.057 131.731 157.17 131.467C157.284 131.199 157.596 131.083 157.871 131.18C158.639 131.453 159.458 131.571 160.31 131.538C160.978 131.506 160.97 132.539 160.31 132.571Z" fill="#3BB3BD"/>
<path d="M195.001 146.521C194.731 145.559 194.404 144.614 194.015 143.693C193.76 143.089 192.757 143.351 193.02 143.971C193.41 144.892 193.736 145.837 194.007 146.799C194.19 147.442 195.184 147.164 195.001 146.521Z" fill="#3BB3BD"/>
<path d="M178.068 147.077C176.541 147.529 174.997 147.625 173.422 147.339C172.769 147.22 172.491 148.212 173.143 148.331C174.894 148.649 176.628 148.57 178.339 148.069C178.983 147.879 178.713 146.886 178.068 147.077Z" fill="#3BB3BD"/>
<path d="M173.818 137.239C174.011 137.031 174.336 137.022 174.559 137.197C175.19 137.694 175.913 138.051 176.707 138.267C177.351 138.441 177.081 139.434 176.436 139.259C175.472 139.002 174.601 138.559 173.852 137.942C173.637 137.764 173.629 137.443 173.818 137.239Z" fill="#3BB3BD"/>
<path d="M185.921 133.802C184.322 133.667 182.778 133.993 181.346 134.716C180.749 135.018 181.274 135.907 181.871 135.605C183.144 134.962 184.505 134.716 185.921 134.835C186.589 134.89 186.581 133.858 185.921 133.802Z" fill="#3BB3BD"/>
<path d="M186.981 149.873C186.352 148.824 185.795 147.744 185.302 146.624C185.031 146.02 184.14 146.545 184.411 147.148C184.904 148.268 185.461 149.349 186.09 150.397C186.424 150.961 187.323 150.445 186.981 149.873Z" fill="#3BB3BD"/>
<path d="M194.857 136.678C194.022 136.583 193.202 136.344 192.438 135.987C191.842 135.709 191.316 136.598 191.913 136.876C192.852 137.321 193.823 137.591 194.849 137.702C195.518 137.782 195.51 136.749 194.857 136.678Z" fill="#3BB3BD"/>
<path d="M167.884 166.206C166.587 166.738 165.226 167.286 163.826 166.849C163.189 166.65 162.919 167.643 163.547 167.841C165.131 168.342 166.682 167.81 168.154 167.198C168.767 166.952 168.496 165.951 167.884 166.206Z" fill="#3BB3BD"/>
<path d="M166.166 144.058C165.275 143.081 164.24 142.271 163.079 141.628C162.498 141.31 161.973 142.2 162.553 142.517C163.636 143.113 164.59 143.868 165.426 144.781C165.887 145.282 166.619 144.551 166.166 144.058Z" fill="#3BB3BD"/>
<path d="M229.525 137.671C228.578 137.798 227.655 137.655 226.772 137.298C226.151 137.052 225.889 138.044 226.493 138.291C227.56 138.719 228.666 138.823 229.795 138.664C230.456 138.577 230.177 137.576 229.525 137.671Z" fill="#3BB3BD"/>
<path d="M181.855 161.948C181.569 161.344 180.678 161.868 180.964 162.472C181.402 163.393 181.672 164.37 181.76 165.387C181.816 166.047 182.858 166.047 182.794 165.387C182.683 164.18 182.373 163.036 181.855 161.948Z" fill="#3BB3BD"/>
<path d="M163.468 194.565C163.141 195.765 162.958 196.988 162.911 198.227C162.887 198.895 163.921 198.895 163.945 198.227C163.993 197.075 164.168 195.955 164.462 194.835C164.637 194.2 163.643 193.93 163.468 194.565Z" fill="#3BB3BD"/>
<path d="M163.635 186.232C163.396 185.62 162.394 185.883 162.64 186.51C162.99 187.416 163.165 188.329 163.157 189.298C163.15 189.966 164.184 189.966 164.192 189.298C164.2 188.242 164.017 187.217 163.635 186.232Z" fill="#3BB3BD"/>
<path d="M175.777 182.252C174.758 182.776 173.644 182.903 172.53 182.625C171.886 182.467 171.607 183.459 172.252 183.618C173.636 183.96 175.029 183.793 176.294 183.134C176.89 182.84 176.373 181.943 175.777 182.252Z" fill="#3BB3BD"/>
<path d="M166.882 178.359C165.959 178.32 165.044 178.344 164.121 178.431C163.461 178.486 163.461 179.527 164.121 179.463C165.044 179.384 165.959 179.36 166.882 179.392C167.543 179.424 167.543 178.391 166.882 178.359Z" fill="#3BB3BD"/>
<path d="M171.843 193.594C171.907 193.877 171.8 194.17 171.574 194.352C171.517 194.398 171.46 194.444 171.404 194.49C171.246 194.616 171.011 194.618 170.964 194.422C170.726 193.183 170.368 191.983 169.898 190.816C169.651 190.196 170.654 189.926 170.901 190.538C171.296 191.534 171.606 192.555 171.843 193.594Z" fill="#3BB3BD"/>
<path d="M162.116 149.516C160.946 150.302 159.944 151.255 159.1 152.383C158.703 152.915 159.602 153.432 159.992 152.907C160.724 151.93 161.623 151.088 162.641 150.405C163.182 150.04 162.665 149.142 162.116 149.516Z" fill="#3BB3BD"/>
<path d="M169.141 137.766C168.449 136.63 167.677 135.558 166.842 134.525C166.42 134.009 165.696 134.74 166.11 135.256C166.89 136.217 167.606 137.234 168.25 138.291C168.6 138.855 169.491 138.338 169.141 137.766Z" fill="#3BB3BD"/>
<path d="M222.03 133.294C222.344 133.535 222.268 134.023 221.903 134.177C221.478 134.357 221.057 134.543 220.644 134.732C220.048 135.01 219.515 134.12 220.127 133.842C220.586 133.623 221.05 133.427 221.515 133.229C221.685 133.156 221.883 133.181 222.03 133.294Z" fill="#3BB3BD"/>
<path d="M213.706 137.393C212.56 138.704 211.789 140.229 211.462 141.945C211.335 142.596 212.338 142.875 212.457 142.223C212.751 140.69 213.404 139.308 214.438 138.132C214.876 137.632 214.144 136.893 213.706 137.393Z" fill="#3BB3BD"/>
<path d="M225.777 145.663C224.934 145.48 224.209 145.099 223.605 144.495C223.135 144.027 222.403 144.757 222.873 145.226C223.605 145.949 224.496 146.441 225.506 146.663C226.151 146.798 226.429 145.806 225.777 145.663Z" fill="#3BB3BD"/>
<path d="M236.151 135.399C235.149 134.676 234.425 133.683 234.027 132.516C233.812 131.888 232.809 132.126 233.024 132.762C233.517 134.216 234.385 135.383 235.626 136.289C236.167 136.678 236.692 135.789 236.151 135.399Z" fill="#3BB3BD"/>
<path d="M236.36 143.526C236.057 144.829 235.938 146.155 236.041 147.49C236.089 148.149 237.124 148.173 237.076 147.514C236.98 146.266 237.068 145.027 237.354 143.812C237.505 143.16 236.511 142.874 236.36 143.526Z" fill="#3BB3BD"/>
<path d="M245.74 133.366C244.896 133.922 244.029 134.422 243.13 134.875C242.533 135.176 243.043 136.074 243.631 135.78C244.53 135.327 245.398 134.819 246.241 134.271C246.798 133.906 246.297 133 245.74 133.366Z" fill="#3BB3BD"/>
<path d="M240.952 125.254C241.253 125.253 241.494 125.508 241.47 125.808C241.391 126.755 241.301 127.698 241.228 128.647C241.172 129.306 240.13 129.29 240.186 128.623C240.282 127.657 240.36 126.685 240.446 125.717C240.47 125.455 240.689 125.256 240.952 125.254Z" fill="#3BB3BD"/>
<path d="M250.442 127.757C249.853 127.455 249.32 128.337 249.917 128.647C250.704 129.052 251.325 129.624 251.778 130.379C252.12 130.951 253.028 130.45 252.685 129.878C252.136 128.973 251.381 128.242 250.442 127.757Z" fill="#3BB3BD"/>
<path d="M243.011 166.722C242.096 167.143 241.141 167.294 240.138 167.222C239.47 167.175 239.454 168.207 240.114 168.255C241.3 168.342 242.438 168.12 243.512 167.627C244.117 167.349 243.607 166.444 243.011 166.722Z" fill="#3BB3BD"/>
<path d="M251.079 160.351C250.649 159.843 249.909 160.573 250.339 161.074C250.935 161.773 251.421 162.559 251.755 163.425C251.994 164.037 252.996 163.799 252.757 163.179C252.36 162.138 251.811 161.209 251.079 160.351Z" fill="#3BB3BD"/>
<path d="M253.148 170.122C252.146 170.431 251.127 170.296 250.252 169.725C249.695 169.359 249.17 170.249 249.727 170.614C250.809 171.321 252.161 171.511 253.395 171.13C254.023 170.924 253.785 169.923 253.148 170.122Z" fill="#3BB3BD"/>
<path d="M247.841 175.619C248.055 176.676 248.175 177.74 248.215 178.812C248.238 179.472 249.273 179.504 249.249 178.836C249.209 177.668 249.082 176.517 248.851 175.373C248.708 174.721 247.705 174.968 247.841 175.619Z" fill="#3BB3BD"/>
<path d="M263.691 172.545C263.826 173.3 263.921 174.054 263.969 174.825C264.009 175.484 265.043 175.508 265.003 174.849C264.948 173.999 264.852 173.149 264.693 172.307C264.574 171.647 263.571 171.894 263.691 172.545Z" fill="#3BB3BD"/>
<path d="M261.797 161.217C261.55 162.202 261.407 163.203 261.383 164.22C261.367 164.887 262.401 164.911 262.417 164.244C262.441 163.314 262.561 162.409 262.791 161.503C262.958 160.859 261.964 160.573 261.797 161.217Z" fill="#3BB3BD"/>
<path d="M255.71 143.319C254.946 143.891 254.063 144.209 253.124 144.328C252.463 144.407 252.718 145.416 253.37 145.328C254.508 145.185 255.527 144.741 256.442 144.05C256.967 143.661 256.235 142.922 255.71 143.319Z" fill="#3BB3BD"/>
<path d="M247.034 143.128C247.43 143.183 247.599 143.65 247.353 143.965C247.07 144.327 246.793 144.691 246.521 145.058C246.131 145.591 245.24 145.074 245.638 144.534C245.931 144.122 246.241 143.722 246.553 143.323C246.667 143.177 246.851 143.102 247.034 143.128Z" fill="#3BB3BD"/>
<path d="M241.754 150.755C241.388 152.455 241.46 154.163 242.009 155.823C242.216 156.45 243.218 156.212 243.011 155.577C242.526 154.091 242.422 152.574 242.749 151.041C242.892 150.389 241.897 150.103 241.754 150.755Z" fill="#3BB3BD"/>
<path d="M256.331 152.121C255.511 152.375 254.692 152.391 253.864 152.153C253.22 151.97 252.941 152.963 253.578 153.146C254.564 153.424 255.591 153.424 256.577 153.122C257.206 152.939 256.967 151.931 256.331 152.121Z" fill="#3BB3BD"/>
<path d="M293.018 168.175C293.432 167.659 292.668 166.96 292.247 167.484C291.69 168.167 291.013 168.668 290.178 168.962C289.549 169.184 289.86 170.169 290.488 169.946C291.491 169.597 292.35 169.001 293.018 168.175Z" fill="#3BB3BD"/>
<path d="M257.173 181.084C256.402 181.068 255.646 181.013 254.882 180.902C254.229 180.806 253.991 181.815 254.651 181.91C255.503 182.029 256.354 182.101 257.205 182.117C257.882 182.133 257.834 181.1 257.173 181.084Z" fill="#3BB3BD"/>
<path d="M262.95 176.628C262.035 176.191 261.073 175.85 260.086 175.627C259.434 175.476 259.211 176.485 259.855 176.636C260.762 176.842 261.63 177.144 262.473 177.541C263.078 177.835 263.555 176.914 262.95 176.628Z" fill="#3BB3BD"/>
<path d="M246.201 183.618C246.392 182.602 246.758 181.656 247.3 180.767C247.65 180.195 246.727 179.726 246.384 180.29C245.804 181.243 245.406 182.292 245.199 183.388C245.064 184.039 246.074 184.27 246.201 183.618Z" fill="#3BB3BD"/>
<path d="M282.459 174.276C282.849 173.109 283.573 172.116 284.568 171.385C285.101 170.996 284.568 170.106 284.027 170.503C282.793 171.417 281.934 172.592 281.449 174.046C281.242 174.674 282.252 174.896 282.459 174.276Z" fill="#3BB3BD"/>
<path d="M274.766 176.922C273.429 177.025 272.132 177.319 270.883 177.819C270.27 178.065 270.557 179.058 271.177 178.812C272.339 178.343 273.549 178.057 274.798 177.954C275.458 177.906 275.426 176.874 274.766 176.922Z" fill="#3BB3BD"/>
<path d="M287.305 182.784C286.518 182.149 285.778 181.474 285.069 180.759C284.6 180.282 283.892 181.037 284.361 181.513C285.069 182.236 285.809 182.911 286.597 183.539C287.106 183.952 287.822 183.197 287.305 182.784Z" fill="#3BB3BD"/>
<path d="M293.597 175.772C293.689 176.059 293.519 176.362 293.226 176.429C292.297 176.641 291.371 176.837 290.441 177.056C289.796 177.199 289.494 176.207 290.146 176.056C291.1 175.85 292.054 175.633 293.003 175.424C293.259 175.368 293.517 175.522 293.597 175.772Z" fill="#3BB3BD"/>
<path d="M294.077 185.557C294.188 184.906 293.186 184.667 293.066 185.327C292.915 186.193 292.565 186.963 291.976 187.622C291.539 188.115 292.287 188.83 292.732 188.329C293.432 187.543 293.902 186.606 294.077 185.557Z" fill="#3BB3BD"/>
<path d="M254.627 190.275C253.951 189.537 253.513 188.671 253.283 187.694C253.131 187.042 252.137 187.336 252.288 187.987C252.559 189.139 253.116 190.156 253.911 191.03C254.365 191.515 255.073 190.76 254.627 190.275Z" fill="#3BB3BD"/>
<path d="M263.149 196.027C263.499 195.463 262.584 194.978 262.234 195.542C261.749 196.329 261.144 197.02 260.42 197.6C259.911 198.013 260.436 198.895 260.961 198.482C261.836 197.782 262.561 196.98 263.149 196.027Z" fill="#3BB3BD"/>
<path d="M250.473 194.589C249.877 193.731 249.694 192.722 249.98 191.713C250.163 191.07 249.152 190.839 248.969 191.483C248.619 192.73 248.842 194.065 249.59 195.129C249.972 195.669 250.855 195.137 250.473 194.589Z" fill="#3BB3BD"/>
<path d="M285.588 192.103C284.808 191.547 284.243 190.808 283.845 189.95C283.567 189.346 282.683 189.886 282.962 190.49C283.439 191.531 284.179 192.365 285.11 193.024C285.643 193.398 286.129 192.484 285.588 192.103Z" fill="#3BB3BD"/>
<path d="M278.374 186.964C278.437 187.357 278.043 187.658 277.669 187.52C277.238 187.361 276.804 187.208 276.373 187.058C275.744 186.851 275.975 185.843 276.603 186.057C277.081 186.216 277.559 186.386 278.038 186.558C278.214 186.622 278.344 186.779 278.374 186.964Z" fill="#3BB3BD"/>
<path d="M269.499 184.254C267.764 184.421 266.157 185.008 264.741 186.025C264.2 186.414 264.741 187.296 265.282 186.906C266.555 185.993 267.971 185.437 269.531 185.286C270.183 185.215 270.159 184.183 269.499 184.254Z" fill="#3BB3BD"/>
<path d="M272.594 198.529C272.108 197.822 271.846 197.052 271.814 196.186C271.79 195.519 270.756 195.55 270.78 196.218C270.812 197.242 271.122 198.219 271.711 199.061C272.085 199.618 272.976 199.077 272.594 198.529Z" fill="#3BB3BD"/>
<path d="M186.211 140.004C186.452 140.301 186.276 140.773 185.905 140.865C185.657 140.926 185.411 141.002 185.166 141.094C184.546 141.333 184.275 140.34 184.896 140.102C185.175 139.995 185.455 139.91 185.738 139.838C185.912 139.793 186.098 139.864 186.211 140.004Z" fill="#3BB3BD"/>
<path d="M160.186 160.514C160.233 160.782 160.483 160.967 160.75 160.913C161.934 160.673 163.003 160.138 163.93 159.318C164.423 158.873 163.691 158.151 163.198 158.588C162.45 159.246 161.582 159.695 160.624 159.899C160.339 159.959 160.137 160.227 160.186 160.514Z" fill="#3BB3BD"/>
<path d="M170.613 153.13C169.499 152.502 168.322 152.01 167.088 151.668C166.444 151.486 166.173 152.486 166.81 152.661C167.964 152.987 169.046 153.431 170.088 154.019C170.677 154.352 171.194 153.463 170.613 153.13Z" fill="#3BB3BD"/>
<path d="M180.439 153.265C179.755 154.409 179.245 155.632 178.935 156.927C178.776 157.571 179.778 157.849 179.93 157.205C180.224 155.99 180.685 154.862 181.33 153.789C181.68 153.217 180.781 152.701 180.439 153.265Z" fill="#3BB3BD"/>
<path d="M174.998 166.221C174.401 165.594 174.035 164.815 173.955 163.949C173.9 163.29 172.865 163.29 172.921 163.949C173.025 165.093 173.47 166.118 174.266 166.952C174.727 167.437 175.459 166.706 174.998 166.221Z" fill="#3BB3BD"/>
<path d="M149.884 194.534C148.536 193.976 147.384 193.099 146.525 191.963C146.333 191.71 146.434 191.352 146.722 191.218C146.962 191.106 147.247 191.188 147.408 191.398C148.155 192.369 149.139 193.102 150.306 193.596C150.927 193.858 150.489 194.796 149.884 194.534Z" fill="#3BB3BD"/>
<path d="M162.474 119.774C160.755 120.481 158.917 121.187 157.047 120.6C156.419 120.401 155.989 121.338 156.618 121.537C158.782 122.22 160.819 121.561 162.848 120.735C163.46 120.48 163.094 119.52 162.474 119.774Z" fill="#3BB3BD"/>
<path d="M147.929 148.848C147.388 147.736 147.117 146.577 147.117 145.337C147.117 144.67 146.091 144.781 146.091 145.441C146.091 146.759 146.385 148.03 146.966 149.214C147.252 149.818 148.215 149.452 147.929 148.848Z" fill="#3BB3BD"/>
<path d="M155.082 137.473C154.111 138.474 152.87 139.061 151.486 139.204C150.825 139.276 150.929 140.301 151.589 140.229C153.26 140.054 154.724 139.324 155.886 138.124C156.347 137.647 155.544 136.996 155.082 137.473Z" fill="#3BB3BD"/>
<path d="M151.963 130.653C152.234 130.546 152.541 130.682 152.629 130.959C152.879 131.742 153.041 132.551 153.132 133.382C153.212 134.049 152.185 134.152 152.106 133.485C152.022 132.748 151.874 132.022 151.655 131.319C151.571 131.05 151.702 130.757 151.963 130.653Z" fill="#3BB3BD"/>
<path d="M156.402 159.199C155.423 159.347 154.45 159.295 153.511 159.058C153.232 158.987 153.08 158.693 153.164 158.417C153.248 158.138 153.547 157.99 153.83 158.059C154.623 158.253 155.446 158.291 156.291 158.166C156.959 158.071 157.055 159.095 156.402 159.199Z" fill="#3BB3BD"/>
<path d="M151.693 165.451C150.221 166.055 148.693 166.309 147.102 166.19C146.442 166.142 146.267 167.158 146.927 167.206C148.701 167.341 150.412 167.087 152.067 166.412C152.68 166.158 152.306 165.197 151.693 165.451Z" fill="#3BB3BD"/>
<path d="M146.457 156.098C146.628 155.872 146.949 155.83 147.188 155.982C147.865 156.41 148.619 156.693 149.432 156.823C150.085 156.935 149.926 157.943 149.265 157.84C148.281 157.684 147.366 157.332 146.56 156.793C146.329 156.638 146.289 156.32 146.457 156.098Z" fill="#3BB3BD"/>
<path d="M157.341 145.877C155.734 145.909 154.238 146.385 152.885 147.251C152.328 147.608 152.933 148.442 153.498 148.085C154.699 147.315 156.02 146.933 157.452 146.902C158.113 146.894 158.001 145.869 157.341 145.877Z" fill="#3BB3BD"/>
<path d="M143.521 185.525C142.288 186.192 140.991 186.875 139.551 186.581C138.899 186.446 138.731 187.462 139.376 187.597C141.007 187.931 142.487 187.24 143.887 186.486C144.476 186.176 144.11 185.207 143.521 185.525Z" fill="#3BB3BD"/>
<path d="M143.52 161.288C142.534 160.407 141.42 159.708 140.202 159.191C139.59 158.929 139.16 159.874 139.773 160.129C140.911 160.613 141.945 161.265 142.868 162.091C143.369 162.528 144.014 161.725 143.52 161.288Z" fill="#3BB3BD"/>
<path d="M155.901 179.877C155.726 179.234 154.755 179.591 154.93 180.234C155.201 181.219 155.288 182.228 155.201 183.245C155.145 183.905 156.163 184.087 156.219 183.428C156.331 182.22 156.219 181.045 155.901 179.877Z" fill="#3BB3BD"/>
<path d="M134.474 173.482C133.384 174.38 132.493 175.436 131.769 176.644C131.427 177.216 132.373 177.637 132.708 177.073C133.336 176.024 134.14 175.095 135.087 174.316C135.596 173.895 134.991 173.053 134.474 173.482Z" fill="#3BB3BD"/>
<path d="M147.428 140.428C146.624 139.371 145.749 138.378 144.802 137.441C144.333 136.972 143.68 137.775 144.15 138.243C145.025 139.117 145.836 140.054 146.592 141.04C146.99 141.564 147.833 140.96 147.428 140.428Z" fill="#3BB3BD"/>
<path d="M135.281 180.655C135.355 180.917 135.623 181.076 135.883 180.994C137.036 180.633 138.04 179.994 138.882 179.083C139.328 178.59 138.524 177.947 138.079 178.431C137.405 179.157 136.584 179.696 135.652 179.998C135.375 180.088 135.201 180.375 135.281 180.655Z" fill="#3BB3BD"/>
<path d="M144.898 172.243C143.72 171.734 142.503 171.369 141.238 171.147C140.577 171.036 140.41 172.052 141.062 172.163C142.24 172.37 143.37 172.703 144.46 173.18C145.081 173.45 145.51 172.505 144.898 172.243Z" fill="#3BB3BD"/>
<path d="M154.684 171.369C154.119 172.577 153.745 173.848 153.57 175.166C153.482 175.826 154.501 176 154.588 175.341C154.755 174.102 155.097 172.934 155.631 171.806C155.909 171.194 154.97 170.765 154.684 171.369Z" fill="#3BB3BD"/>
<path d="M150.602 184.818C149.942 184.254 149.496 183.515 149.329 182.665C149.202 182.014 148.176 182.117 148.303 182.769C148.518 183.897 149.075 184.874 149.95 185.612C150.459 186.049 151.112 185.247 150.602 184.818Z" fill="#3BB3BD"/>
<path d="M173.192 175.738C172.258 175.947 171.332 176.065 170.393 176.096C170.222 176.102 170.054 176.011 169.977 175.857C169.795 175.513 170.034 175.081 170.424 175.066C171.258 175.033 172.085 174.924 172.913 174.737C173.566 174.602 173.844 175.595 173.192 175.738Z" fill="#3BB3BD"/>
<path d="M113.77 160.835C113.062 162.257 112.075 163.457 110.794 164.41C110.261 164.807 110.802 165.689 111.335 165.292C112.768 164.227 113.89 162.909 114.685 161.32C114.988 160.716 114.073 160.239 113.77 160.835Z" fill="#3BB3BD"/>
<path d="M120.852 181.315C120.358 182.626 119.833 183.992 118.56 184.715C117.979 185.041 118.528 185.922 119.101 185.597C120.549 184.778 121.21 183.285 121.767 181.792C121.997 181.18 121.082 180.687 120.852 181.315Z" fill="#3BB3BD"/>
<path d="M130.799 196.718C130.146 196.607 129.868 197.599 130.52 197.711C131.475 197.877 132.35 198.195 133.178 198.695C133.751 199.037 134.276 198.155 133.711 197.806C132.812 197.266 131.833 196.901 130.799 196.718Z" fill="#3BB3BD"/>
<path d="M138.787 191.253C138.476 192.357 137.808 193.254 136.853 193.882C136.296 194.247 136.837 195.129 137.394 194.764C138.588 193.985 139.415 192.857 139.797 191.483C139.972 190.839 138.962 190.609 138.787 191.253Z" fill="#3BB3BD"/>
<path d="M129.071 190.339C128.419 190.99 127.806 191.674 127.241 192.404C126.835 192.929 127.591 193.636 127.997 193.111C128.562 192.381 129.175 191.697 129.827 191.046C130.304 190.569 129.549 189.87 129.071 190.339Z" fill="#3BB3BD"/>
<path d="M104.684 174.149C104.461 175.539 104.477 176.922 104.732 178.312C104.851 178.963 105.838 178.661 105.727 178.018C105.512 176.818 105.504 175.587 105.703 174.38C105.798 173.728 104.788 173.49 104.684 174.149Z" fill="#3BB3BD"/>
<path d="M111.44 183.06C111.666 183.208 111.971 183.151 112.113 182.921C112.745 181.893 113.083 180.746 113.119 179.512C113.134 178.844 112.1 178.892 112.084 179.551C112.057 180.541 111.79 181.485 111.288 182.325C111.14 182.573 111.198 182.901 111.44 183.06Z" fill="#3BB3BD"/>
<path d="M113.134 170.408C111.916 170.797 110.755 171.321 109.657 171.988C109.084 172.338 109.633 173.211 110.198 172.87C111.216 172.25 112.29 171.766 113.428 171.401C114.065 171.194 113.762 170.209 113.134 170.408Z" fill="#3BB3BD"/>
<path d="M118.338 167.294C118.704 168.573 119.261 169.773 120.001 170.885C120.367 171.441 121.25 170.901 120.884 170.345C120.192 169.304 119.683 168.2 119.333 167C119.142 166.357 118.155 166.659 118.338 167.294Z" fill="#3BB3BD"/>
<path d="M125.714 176.127C124.847 176.135 124.027 175.873 123.343 175.341C122.826 174.936 122.11 175.69 122.635 176.095C123.542 176.802 124.6 177.175 125.754 177.159C126.414 177.151 126.382 176.119 125.714 176.127Z" fill="#3BB3BD"/>
<path d="M131.45 183.936C130.965 184.76 130.421 185.525 129.799 186.23C129.685 186.359 129.507 186.412 129.341 186.367C128.966 186.266 128.815 185.791 129.068 185.496C129.612 184.864 130.095 184.188 130.527 183.459C130.877 182.887 131.792 183.356 131.45 183.936Z" fill="#3BB3BD"/>
<path d="M185.675 169.383C184.88 169.677 184.076 169.82 183.233 169.812C182.564 169.804 182.564 170.836 183.233 170.844C184.164 170.852 185.079 170.701 185.954 170.376C186.567 170.153 186.296 169.153 185.675 169.383Z" fill="#3BB3BD"/>
<path d="M190.823 158.46C190.083 159.318 189.47 160.255 188.985 161.28C188.706 161.876 189.598 162.4 189.876 161.804C190.314 160.859 190.871 159.985 191.547 159.191C191.985 158.691 191.26 157.952 190.823 158.46Z" fill="#3BB3BD"/>
<path d="M186.956 182.18C186.256 181.291 185.906 180.226 185.89 179.098C185.882 178.431 184.848 178.431 184.856 179.098C184.871 180.512 185.349 181.799 186.224 182.903C186.63 183.436 187.362 182.697 186.956 182.18Z" fill="#3BB3BD"/>
<path d="M197.484 174.388C196.449 174.618 195.431 174.61 194.396 174.372C193.752 174.221 193.473 175.214 194.118 175.365C195.327 175.643 196.537 175.65 197.754 175.38C198.415 175.237 198.136 174.237 197.484 174.388Z" fill="#3BB3BD"/>
<path d="M200.317 165.8C200.432 166.014 200.374 166.282 200.176 166.423C199.451 166.937 198.674 167.364 197.849 167.714C197.228 167.96 196.957 166.96 197.57 166.714C198.27 166.427 198.93 166.066 199.54 165.632C199.799 165.448 200.167 165.52 200.317 165.8Z" fill="#3BB3BD"/>
<path d="M183.001 188.528C182.575 189.222 182.223 189.931 181.941 190.674C181.822 190.986 181.458 191.132 181.173 190.96C180.959 190.832 180.864 190.568 180.954 190.335C181.268 189.528 181.644 188.755 182.102 188.011C182.452 187.439 183.343 187.956 183.001 188.528Z" fill="#3BB3BD"/>
<path d="M194.754 193.231C194.181 192.881 193.02 192.254 192.932 191.491C192.853 190.84 191.818 190.832 191.898 191.491C192.041 192.738 193.243 193.517 194.237 194.12C194.802 194.47 195.327 193.58 194.754 193.231Z" fill="#3BB3BD"/>
<path d="M203.784 184.651C202.813 184.913 201.866 184.842 200.935 184.477C200.315 184.23 200.044 185.231 200.657 185.469C201.755 185.898 202.917 185.946 204.054 185.644C204.707 185.477 204.428 184.477 203.784 184.651Z" fill="#3BB3BD"/>
<path d="M194.585 150.465C194.759 150.798 194.534 151.192 194.159 151.209C193.822 151.223 193.483 151.224 193.139 151.215C192.478 151.183 192.478 150.151 193.139 150.183C193.456 150.189 193.765 150.19 194.072 150.179C194.285 150.17 194.487 150.277 194.585 150.465Z" fill="#3BB3BD"/>
<path d="M104.462 157.661C101.678 164.376 92.7264 163.186 87.8413 157.803C84.3088 153.91 80.789 149.078 79.7096 144.408C77.3226 134.081 85.2793 125.343 86.0749 126.931C86.1051 126.992 88.2166 127.681 88.2651 127.635C88.8566 127.062 89.4737 126.739 90.0533 126.931C94.8273 128.52 83.6879 136.464 87.6663 145.202C89.7748 149.833 86.0192 134.414 94.8273 135.67C100.397 136.464 101.248 140.182 98.0099 139.641C93.2359 138.847 92.4403 142.819 96.4186 149.174C97.9383 151.605 103.58 148.38 101.988 145.202C100.397 142.025 97.2143 142.025 98.0099 139.641C98.8056 137.258 103.301 140.809 105.171 143.613C108.354 148.38 105.967 152.352 105.171 155.529C105.007 156.184 104.775 156.906 104.462 157.661Z" fill="#755462"/>
<path d="M85.2969 131.197C82.6314 138.021 82.5598 144.074 87.0792 150.231C87.3815 150.636 88.0737 150.246 87.7634 149.833C83.3714 143.868 83.4589 138.069 86.0607 131.412C86.2517 130.927 85.4878 130.72 85.2969 131.197Z" fill="white"/>
<path d="M80.9193 131.411C79.2723 138.045 80.7443 149.555 86.8789 153.805C87.3006 154.099 87.6984 153.408 87.2767 153.122C81.4842 149.11 80.1794 137.711 81.6832 131.626C81.8105 131.125 81.0466 130.919 80.9193 131.411Z" fill="white"/>
<path d="M92.9096 147.029C93.4109 149.619 94.8431 153.678 98.0655 153.639C98.5747 153.631 98.5747 152.836 98.0655 152.844C95.2727 152.884 94.1031 149.023 93.6734 146.815C93.578 146.322 92.8141 146.529 92.9096 147.029Z" fill="white"/>
<path d="M327.312 150.283C327.161 156.995 323.461 164.201 317.517 167.45C317.072 167.696 317.469 168.379 317.915 168.133C324.121 164.741 327.948 157.274 328.108 150.275C328.123 149.775 327.328 149.775 327.312 150.283Z" fill="white"/>
<path d="M330.98 151.395C330.924 156.344 329.214 160.737 325.896 164.423C323.891 166.647 320.414 170.262 317.51 171.191C317.024 171.342 317.231 172.113 317.724 171.954C321.209 170.842 325.1 166.719 327.312 164.01C330.28 160.38 331.728 156.074 331.784 151.395C331.784 150.879 330.988 150.879 330.98 151.395Z" fill="white"/>
<path d="M307.23 166.528C308.78 167.906 311.174 168.74 310.749 171.14C310.735 171.219 310.826 171.279 310.89 171.23C310.943 171.19 310.996 171.149 311.049 171.106C311.059 171.098 311.053 171.08 311.039 171.08C311.027 171.08 311.02 171.094 311.028 171.104C311.098 171.196 311.169 171.289 311.239 171.381C311.298 171.459 311.42 171.43 311.439 171.334C311.543 170.834 310.771 170.62 310.675 171.12C310.659 171.199 310.643 171.287 310.628 171.366C310.58 171.613 310.739 171.867 311.009 171.867C311.033 171.867 311.057 171.867 311.081 171.867C311.248 171.867 311.423 171.748 311.463 171.573C312.187 168.57 309.673 167.633 307.787 165.956C307.405 165.631 306.84 166.187 307.23 166.528Z" fill="white"/>
</svg>
