<svg width="44" height="44" viewBox="0 0 44 44" fill="none" xmlns="http://www.w3.org/2000/svg">
<path d="M16.1364 7.93939V16.1364H7.93939C6.03987 16.1364 4.5 17.6762 4.5 19.5758L4.5 25.3939C4.5 27.2935 6.03987 28.8333 7.93939 28.8333H16.1364V36.0606C16.1364 37.9601 17.6762 39.5 19.5758 39.5H25.3939C27.2935 39.5 28.8333 37.9601 28.8333 36.0606V28.8333H36.0606C37.9601 28.8333 39.5 27.2935 39.5 25.3939V19.5758C39.5 17.6762 37.9601 16.1364 36.0606 16.1364H28.8333V7.93939C28.8333 6.03987 27.2935 4.5 25.3939 4.5H19.5758C17.6762 4.5 16.1364 6.03987 16.1364 7.93939Z" stroke="white" stroke-width="3"/>
</svg>
