<svg width="270" height="210" viewBox="0 0 270 210" fill="none" xmlns="http://www.w3.org/2000/svg">
<g clip-path="url(#clip0)">
<path d="M33.0446 22.6066C64.4108 -1.28582 140.98 5.39512 185.684 60.2926C214.313 95.4538 211.319 117.428 184.307 139.888C144.201 173.24 80.3742 159.761 62.7113 154.317C-1.01778 134.689 -19.817 62.8619 33.0446 22.6066Z" fill="#6ED4DD"/>
<path d="M-4.34881 31.9664C-2.03197 26.4341 3.67187 22.2821 8.85299 19.6295C15.7318 16.1013 23.1165 16.7351 30.2309 19.3109C43.4496 24.0871 55.5636 33.0854 70.2612 32.2205C75.7552 31.898 80.5094 29.8319 85.1495 26.9925C90.4046 23.7812 95.4794 20.1252 101.757 19.3326C109.781 18.3252 117.131 20.419 123.556 25.2106C128.213 28.6846 132.53 32.0402 138.37 33.1998C151.491 35.8106 164.797 28.2327 177.629 33.5044C177.868 33.6024 178.051 33.2423 177.812 33.1442C166.522 28.5047 154.983 33.7153 143.4 33.3462C139.862 33.2369 136.309 32.5678 133.067 31.1008C129.663 29.5572 126.797 27.1239 123.827 24.9068C118.349 20.8256 112.456 18.6458 105.562 18.6959C99.7885 18.7357 94.8472 20.5544 89.9633 23.5099C84.3094 26.9218 78.9811 30.7968 72.236 31.6382C55.7331 33.6934 42.6514 22.4419 27.6648 18.0415C21.186 16.1404 14.6976 16.1734 8.63424 19.2929C3.42659 21.9678 -2.36746 26.2118 -4.7045 31.7896C-4.8119 32.0216 -4.45198 32.2048 -4.34881 31.9664Z" fill="#3BB3BD"/>
<path d="M-11.295 54.6248C-8.86178 47.8032 -2.25117 43.035 3.68903 39.4052C10.2327 35.4067 16.9146 33.6481 24.575 34.7736C32.7291 35.966 39.8013 39.7636 47.1059 43.3379C53.8092 46.6141 60.9427 49.2602 68.443 49.7852C74.6287 50.2152 80.4792 48.9447 86.0059 46.1634C91.5749 43.3632 96.7833 39.5909 102.879 37.9783C109.978 36.0944 116.852 38.1641 123.017 41.8166C128.62 45.1349 133.749 49.361 140.026 51.3871C146.583 53.5028 153.341 52.6255 159.952 51.2717C163.758 50.492 167.549 49.5935 171.419 49.2349C173.47 49.0431 175.54 48.9988 177.593 49.2046C179.29 49.3716 181.327 50.3409 182.98 50.2617C182.718 50.2749 182.747 50.678 183.009 50.6647C183.187 50.6566 183.36 50.6475 183.538 50.6394C183.705 50.6291 183.797 50.3939 183.659 50.2833C181.824 48.8309 178.323 48.7842 176.054 48.6892C172.682 48.5473 169.318 48.9971 166.012 49.6188C159.207 50.8948 152.434 52.8611 145.444 52.125C131.318 50.6452 122.139 36.0568 107.441 36.8386C101.68 37.1455 96.5391 39.8724 91.6153 42.6433C84.8092 46.4673 78.2425 49.6503 70.2214 49.4667C61.4608 49.2602 53.2562 45.9671 45.5251 42.1024C38.5498 38.6167 31.657 35.2416 23.8289 34.2641C16.5062 33.3503 10.0647 35.0914 3.80858 38.8668C-2.28427 42.5429 -9.15682 47.4622 -11.6496 54.4427C-11.7422 54.6832 -11.3823 54.8664 -11.295 54.6248Z" fill="#3BB3BD"/>
<path d="M-7.72995 72.5612C2.21628 63.741 13.9206 56.6169 27.4709 55.6469C35.0875 55.1033 42.6096 56.5318 49.825 58.9076C57.5837 61.4595 65.0834 65.5697 73.292 66.409C79.9614 67.0913 86.7012 66.2489 93.0784 64.252C99.0029 62.3952 104.627 59.6502 110.617 57.9887C117.809 55.9967 125.248 56.195 132.152 59.1862C138.711 62.0304 144.342 66.7717 151.203 68.9655C159.425 71.5947 167.827 69.2077 176.117 68.3315C181.112 67.8035 186.27 67.4519 191.231 68.4614C192.078 68.6328 198.528 70.4344 198.373 70.8444C198.281 71.0849 198.64 71.2734 198.733 71.0276C199.283 69.5835 190.352 67.8752 189.363 67.7469C181.084 66.6561 172.913 68.5548 164.733 69.4917C160.377 69.9892 155.925 69.9818 151.696 68.7067C147.522 67.454 143.759 65.1534 140.035 62.9547C133.829 59.2884 127.546 56.2794 120.196 56.215C113.72 56.1566 107.617 58.3799 101.661 60.6937C94.5799 63.4472 87.5515 65.8859 79.8771 66.1972C75.2754 66.3857 70.5974 65.9685 66.204 64.5223C61.8201 63.0835 57.5778 61.2156 53.2343 59.6582C46.0287 57.0693 38.571 55.1298 30.8664 55.1261C15.881 55.1217 2.892 62.6035 -8.03465 72.2954C-8.22775 72.4604 -7.92412 72.7315 -7.72995 72.5612Z" fill="#3BB3BD"/>
<path d="M206.592 87.4936C199.372 83.3628 191.617 81.6718 183.346 81.5756C178.816 81.5193 174.299 82.0006 169.767 81.9219C164.736 81.8359 160.095 80.7973 155.455 78.849C148.082 75.7517 141.252 71.6556 133.07 71.2023C125.972 70.8138 119.325 73.1643 113.015 76.1952C106.132 79.5016 99.2724 83.4803 91.5514 84.4054C87.2024 84.9263 82.8393 84.3136 78.831 82.5426C75.1159 80.9027 71.9215 78.3753 68.5581 76.1392C65.3259 73.9903 61.9269 72.1496 58.0523 71.5475C54.4064 70.9861 50.668 71.3217 47.0699 72.0276C40.6706 73.2864 34.4763 75.5243 28.7647 78.6488C22.5144 82.0668 16.6359 86.211 10.0655 89.0292C6.74698 90.4536 3.24677 91.5214 -0.364488 91.8275C-1.46863 91.9184 -13.1632 91.2285 -12.0739 89.1599C-11.9506 88.9311 -12.3158 88.7469 -12.4338 88.9768C-14.0397 92.022 -1.90486 92.3873 -0.00488035 92.2036C5.82325 91.6456 11.2498 89.1696 16.3167 86.3725C22.0103 83.2279 27.405 79.4878 33.3395 76.7891C40.7 73.4413 49.8564 70.6721 57.9775 71.946C66.7616 73.3211 72.5646 80.9545 80.7785 83.7366C87.5481 86.0277 94.5703 84.8233 101.068 82.2552C108.177 79.4466 114.672 75.1956 122.025 73.0046C131.074 70.3073 139.563 71.9977 147.986 75.8756C152.137 77.7857 156.23 79.8994 160.652 81.1251C165.23 82.3936 169.947 82.4271 174.657 82.2441C185.907 81.807 196.375 82.1274 206.402 87.8633C206.636 87.9879 206.819 87.6277 206.592 87.4936Z" fill="#3BB3BD"/>
<path d="M-37.4477 106.008C-21.3679 107.966 -6.38573 102.244 8.25027 96.3534C15.5508 93.4126 23.2531 90.9393 31.1505 92.9126C35.5847 94.0195 39.557 96.4616 43.7231 98.2699C47.1131 99.7447 50.6063 100.981 54.2371 101.699C61.8745 103.212 70.5862 103.552 78.2591 102.236C86.075 100.895 92.6647 96.5855 99.5257 92.8994C103.37 90.8367 107.189 89.0889 111.655 89.6837C115.701 90.2268 119.352 92.2949 122.913 94.1518C130.294 98.0008 137.885 101.605 146.318 102.154C150.855 102.448 155.379 101.908 159.813 100.991C164.179 100.087 168.584 98.441 173.084 98.5078C178.299 98.5868 182.364 101.417 186.907 103.572C190.564 105.305 194.139 105.918 198.161 105.353C198.296 105.336 198.375 105.22 198.336 105.085C198.115 104.296 198.274 104.543 197.567 104.031C197.356 103.877 197.085 104.181 197.297 104.334C198.172 104.969 195.426 105.219 195.239 105.22C193.996 105.233 192.748 105.107 191.537 104.829C189.444 104.356 187.495 103.443 185.592 102.462C182.342 100.789 179.196 98.8401 175.52 98.2893C172.353 97.8139 169.196 98.3553 166.112 99.0825C161.813 100.093 157.555 101.201 153.144 101.621C143.461 102.546 134.713 99.6783 126.168 95.3676C120.234 92.3742 113.927 88.0641 106.941 89.3916C103.611 90.025 100.572 91.837 97.6379 93.4606C93.7979 95.5848 90.0224 97.8545 85.9618 99.5424C77.8861 102.911 69.1794 102.765 60.6071 102.089C56.0223 101.73 51.6013 100.885 47.2792 99.2764C43.2344 97.7684 39.4777 95.6788 35.5276 93.9749C29.3361 91.3043 22.7906 91.2649 16.3524 93.0453C8.06865 95.3403 0.328777 99.367 -7.85802 102.002C-17.4123 105.076 -27.3479 106.817 -37.3814 105.597C-37.625 105.575 -37.7051 105.973 -37.4477 106.008Z" fill="#3BB3BD"/>
<path d="M9.7958 117.046C16.2649 115.878 22.539 114.721 28.6279 112.158C35.5173 109.261 41.9101 108.745 49.2274 110.341C61.6549 113.054 75.1749 118.112 87.9003 114.426C94.0281 112.655 99.3638 108.853 105.924 108.79C112.479 108.727 118.69 111.44 124.639 113.89C130.74 116.404 136.904 118.418 143.516 119.005C149.661 119.554 155.648 118.807 161.657 117.569C168.708 116.116 175.77 115.339 182.222 119.314C186.12 121.713 190.635 126.029 195.604 124.619C195.855 124.549 195.724 124.163 195.472 124.234C189.89 125.818 185.008 119.987 180.39 117.823C175.596 115.574 170.268 115.538 165.161 116.457C158.705 117.616 152.487 119.039 145.875 118.755C138.488 118.435 131.617 116.322 124.823 113.524C119.555 111.355 114.137 109.007 108.399 108.491C102.552 107.965 98.0416 110.053 92.7765 112.247C86.3017 114.947 79.8522 115.799 72.8823 114.885C65.8796 113.97 59.0243 112.324 52.1861 110.62C45.2843 108.904 38.5929 108.057 31.7552 110.479C28.3246 111.694 25.0884 113.284 21.5608 114.241C17.6887 115.295 13.7093 115.923 9.76258 116.636C9.51564 116.686 9.53933 117.087 9.7958 117.046Z" fill="#3BB3BD"/>
<path d="M0.0281152 137.483C9.26811 131.129 19.9315 133.187 30.2777 134.85C34.543 135.536 38.7057 136.185 43.0012 135.355C47.1769 134.546 51.0408 132.713 54.9931 131.207C59.7523 129.39 64.6044 128.314 69.7172 129.089C75.1128 129.911 80.0128 132.452 84.7858 134.967C89.1098 137.249 93.4709 139.592 98.2365 140.805C103.034 142.024 107.892 141.71 112.748 141.082C118.763 140.308 124.67 139.44 130.649 141.003C136.255 142.473 142.086 145.021 146.354 149.028C146.544 149.204 146.814 148.906 146.624 148.724C139.774 142.297 129.356 139.075 120.107 139.791C114.569 140.221 109.103 141.525 103.525 141.202C97.6802 140.858 92.3837 138.479 87.2614 135.81C78.377 131.189 69.6007 126.578 59.3466 129.324C54.9011 130.515 50.793 132.657 46.4129 134.044C41.102 135.727 36.1908 135.373 30.7645 134.513C20.18 132.829 9.25094 130.64 -0.200143 137.139C-0.413365 137.295 -0.189333 137.632 0.0281152 137.483Z" fill="#3BB3BD"/>
<path d="M27.4395 152.26C40.9207 156.17 53.7854 149.491 67.1461 148.583C70.65 148.344 74.1839 148.557 77.5906 149.456C81.782 150.564 85.4821 152.824 89.2684 154.849C92.7562 156.713 96.3821 158.357 100.358 158.782C104.373 159.208 108.442 158.625 112.376 157.839C117.637 156.786 122.76 155.021 128.159 156.235C133.315 157.395 137.792 160.397 142.372 162.885C142.6 163.009 142.783 162.649 142.555 162.525C135.522 158.696 128.631 154.135 120.254 155.721C115.567 156.609 110.975 157.952 106.206 158.371C101.1 158.821 96.4696 157.95 91.8584 155.726C85.1828 152.505 79.4333 148.599 71.8199 148.145C65.1918 147.752 58.6631 149.381 52.2513 150.841C44.0717 152.704 35.7718 154.262 27.5185 151.868C27.2697 151.79 27.1896 152.188 27.4395 152.26Z" fill="#3BB3BD"/>
<path d="M206.902 122.286C215.841 128.146 218.211 130.079 242.379 138.914C246.343 140.36 254.038 145.106 255.737 147.561C256.129 148.131 256.347 148.971 255.914 149.508C255.672 149.808 255.276 149.923 254.901 149.966C253.329 150.154 251.795 149.44 250.366 148.744C254.337 151.198 257.9 154.071 261.265 157.332C261.723 157.773 265.566 160.896 263.745 161.413C263.061 161.603 262.164 161.065 261.594 160.76C260.631 160.24 259.717 159.615 258.818 158.986C257.224 157.871 253.716 156.039 253.716 156.039C253.716 156.039 264.442 165.743 266.087 168.704C266.495 169.435 266.828 170.45 265.676 170.595C264.576 170.735 263.414 169.898 262.541 169.321C259.666 167.414 256.892 165.395 254.172 163.261C252.092 161.623 250.012 159.98 247.84 158.474C249.172 159.772 250.443 161.134 251.688 162.514C253.253 164.247 254.732 166.052 256.188 167.886C257.048 168.967 257.91 170.068 258.545 171.305C258.794 171.792 259.528 173.333 258.677 173.664C258.386 173.778 257.984 173.608 257.712 173.505C257.143 173.295 256.607 173.003 256.075 172.711C254.864 172.04 253.695 171.287 252.537 170.531C251.288 169.716 249.998 168.978 248.761 168.144C248.05 167.662 247.351 167.161 246.663 166.645C246.891 166.91 247.124 167.171 247.352 167.436C248.842 169.167 250.229 170.99 251.585 172.83C252.038 173.445 253.203 175.103 251.872 175.468C250.706 175.787 249.233 174.657 248.311 174.066C246.387 172.827 244.453 171.638 242.587 170.304C240.627 168.907 238.687 167.496 236.781 166.049C237.532 167.335 238.27 168.661 238.796 170.058C239.04 170.71 239.259 173.737 238.62 174.452C236.486 176.839 233.853 173.932 233.104 173.201C232.462 172.569 231.857 171.906 231.187 171.307C228.09 168.549 219.058 156.715 217.213 154.688C215.353 152.644 211.253 146.71 207.312 142.573C206.577 141.803 196.684 132.026 196.5 132.296L206.902 122.286Z" fill="#F26B5C"/>
<path d="M197.302 120.894C197.21 120.791 197.118 120.697 197.032 120.59C196.9 120.433 197.148 120.24 197.279 120.396C197.356 120.493 197.444 120.581 197.526 120.673C197.659 120.534 197.899 120.721 197.765 120.874C197.754 120.883 197.743 120.897 197.732 120.906C199.195 122.485 201.056 123.704 202.791 124.931C204.97 126.472 206.766 126.419 208.99 127.899C214.582 131.625 220.927 134.881 227.085 137.515C230.403 138.935 234.084 140.393 237.496 141.551C238.328 141.844 241.542 142.915 240.033 145.091C239.494 145.869 238.846 145.588 238.301 145.395C236.705 144.825 234.649 144.226 234.649 144.226C234.649 144.226 235.345 144.942 235.701 145.293C236.444 146.034 237.256 146.68 238.039 147.374C239.437 148.607 240.864 149.853 242.134 151.23C242.693 151.839 244.97 153.754 244.567 154.805C243.996 156.302 238.436 152.674 238.436 152.674C238.436 152.674 244.469 157.9 245.597 159.76C245.944 160.331 246.478 161.404 246.009 162.063C245.575 162.676 244.761 162.05 244.324 161.761C242.601 160.64 240.79 159.531 239.227 158.124C237.868 156.904 236.554 155.623 235.178 154.422C235.746 155.052 237.572 157.193 237.928 157.945C239.13 160.453 237.376 161.01 236.651 161.037C235.65 161.07 234.563 160.119 234.053 159.75C233.175 159.117 232.361 158.386 231.578 157.637C228.895 155.081 227.34 153.348 224.595 150.867C224.818 151.242 225.045 151.637 225.082 152.075C225.209 153.563 223.605 152.847 222.963 152.331C221.691 151.314 220.954 149.873 220.04 148.553C218.997 147.04 217.836 145.623 216.658 144.219C212.563 139.327 207.855 135.253 202.87 131.349C201.64 130.381 200.757 127.551 199.445 126.711C198.176 125.9 196.74 125.104 195.636 124.067C194.221 122.737 196.339 121.746 197.302 120.894Z" fill="#FFA399"/>
<path d="M202.912 140.928L214.18 125.063C214.357 124.813 214.297 124.468 214.046 124.291L207.797 119.872L195.889 136.642L202.138 141.061C202.389 141.233 202.735 141.178 202.912 140.928Z" fill="#4A2533"/>
<path d="M197.565 139.366L210.926 120.55C212.475 118.367 206.672 108.236 206.672 108.236L184.508 139.449C184.514 139.439 196.016 141.549 197.565 139.366Z" fill="#755462"/>
<path d="M203.897 123.619L214.856 108.188L188.828 91.429C183.24 87.4783 175.505 88.7909 171.549 94.362L168.531 98.6134L203.897 123.619Z" fill="#F26B5C"/>
<path d="M198.328 131.461L187.37 146.893L162.896 127.946C157.309 123.995 155.987 116.277 159.943 110.706L162.962 106.454L198.328 131.461Z" fill="#D93D3D"/>
<path d="M79.4729 56.5905C79.5489 56.6972 79.6304 56.7994 79.7114 56.9066C79.811 57.0304 79.9011 57.1483 79.9957 57.2717C80.7583 58.2541 81.5375 59.218 82.3375 60.1736C83.2276 61.2472 84.1339 62.3073 85.0569 63.3487C86.0485 64.4662 87.0519 65.5647 88.071 66.6546C88.521 67.1343 88.976 67.6144 89.4364 68.09C89.5419 68.2043 89.6527 68.3141 89.7537 68.423C94.3208 73.1406 99.1666 77.5972 104.131 81.899C104.948 82.6009 105.694 83.2565 106.374 83.8564C108.529 85.736 110.079 87.1274 111.379 88.2768C111.495 88.377 111.607 88.4769 111.719 88.5717C113.401 90.0597 114.671 91.1564 116.352 92.4743C118.292 93.9997 120.773 95.8227 125.056 98.8939C127.602 100.718 130.063 102.424 132.489 104.067C136.204 106.583 139.832 108.941 143.534 111.316C147.412 113.801 151.374 116.304 155.604 119.015C156.169 119.38 156.74 119.74 157.326 120.096C157.988 120.504 158.665 120.919 159.357 121.319C159.481 121.4 159.609 121.477 159.738 121.553C163.838 123.972 168.286 126.367 172.693 128.714C177.122 131.087 181.516 133.417 185.442 135.696C185.704 135.849 185.968 135.992 186.226 136.145C186.235 136.151 186.26 136.158 186.278 136.175C186.412 136.251 186.541 136.328 186.675 136.399C186.776 136.453 186.877 136.507 186.971 136.57C187.225 136.708 187.464 136.848 187.698 136.984C187.937 137.12 188.167 137.25 188.392 137.375C189.071 137.759 189.711 138.126 190.294 138.457C190.434 138.529 190.563 138.605 190.692 138.676C191.366 139.061 191.959 139.398 192.475 139.693L200.701 128.113L209.779 115.325C209.261 114.88 208.743 114.429 208.225 113.979C208.113 113.889 207.996 113.784 207.884 113.689C206.834 112.781 205.784 111.869 204.729 110.966C203.885 110.227 203.041 109.493 202.187 108.757C200.922 107.661 199.652 106.569 198.382 105.478C196.483 103.841 194.578 102.203 192.667 100.58C188.171 96.7794 184.619 93.6519 181.507 90.903C181.395 90.7982 181.284 90.6984 181.171 90.6035C180.566 90.0652 179.969 89.5377 179.387 89.0264C175.161 85.2896 171.619 82.1728 167.257 78.7845C165.739 77.6011 164.114 76.3833 162.324 75.0961C162.211 75.0112 162.088 74.9254 161.965 74.8396C160.336 73.6665 158.562 72.4307 156.605 71.1039C155.203 70.1558 153.713 69.165 152.109 68.1142C148.031 65.4463 143.794 62.7044 139.424 59.986C138.058 59.1362 136.677 58.29 135.28 57.4425C134.947 57.2333 134.599 57.0277 134.261 56.8181C134.132 56.7467 134.008 56.6659 133.879 56.5896C133.564 56.402 133.254 56.2198 132.939 56.0322C131.356 55.0833 129.752 54.1376 128.133 53.2056C121.576 49.4456 114.816 45.8783 107.945 42.7966C107.81 42.7347 107.669 42.6725 107.529 42.6102C106.926 42.3374 106.317 42.069 105.707 41.8107C104.33 41.2101 102.95 40.6343 101.567 40.0883C100.268 39.5696 98.9661 39.0757 97.6577 38.6012C97.5167 38.5489 97.3758 38.4966 97.2244 38.4484C90.6409 36.0925 80.8601 33.8082 74.5241 33.3959C71.5956 33.2056 69.4 33.4146 68.5987 34.2056C68.3793 34.4217 68.2521 34.7309 68.1985 35.1166C68.0527 36.2751 68.6226 38.1466 69.5953 40.3486C71.9536 45.6594 76.6947 52.8797 79.4729 56.5905Z" fill="white"/>
<path d="M85.0768 53.5367C88.0316 53.8294 90.7858 55.9114 93.0796 57.6329C95.4074 59.3675 97.5575 61.4719 100.069 62.9422C104.809 65.7279 109.818 68.0116 114.421 71.0456C116.581 72.4701 118.694 74.0158 120.543 75.8337C122.628 77.8824 124.364 80.246 126.394 82.35C130.168 86.2577 135.919 86.1935 140.643 88.3522C142.926 89.3921 145.111 90.6838 147.182 92.0906C149.371 93.5728 151.125 95.5576 153.157 97.2313C157.436 100.763 163.042 101.552 167.898 103.977C169.293 104.674 170.612 105.49 171.873 106.391L171.879 106.386C172.084 106.159 172.385 106.451 172.303 106.699C173.02 107.227 173.725 107.774 174.408 108.339C174.675 108.562 174.374 109.016 174.107 108.798C173.419 108.227 172.71 107.675 171.993 107.147C171.379 108.215 172.297 109.196 173.024 110.065C173.592 110.75 174.071 111.468 174.436 112.29C175.214 114.02 175.465 115.928 175.397 117.809C175.261 121.566 174.011 125.206 172.698 128.72C166.756 125.555 160.737 122.307 155.604 119.017C144.697 112.029 135.594 106.446 125.056 98.9003C113.215 90.4202 115.127 91.4478 104.131 81.9003C95.4249 74.3542 87.0807 66.3343 80.0013 57.2684C80.9966 55.1679 82.5552 53.2818 85.0768 53.5367Z" fill="#DADFE1"/>
<path d="M130.078 107.201C132.233 109.08 133.783 110.472 135.083 111.621C135.2 111.721 135.311 111.821 135.424 111.916C137.106 113.404 138.375 114.501 140.057 115.819L143.528 111.321L152.246 100.029L153.848 97.7608L167.258 78.7835C165.74 77.6 164.115 76.3822 162.325 75.0949C162.212 75.01 162.089 74.9242 161.966 74.8384C160.337 73.6652 158.563 72.4293 156.606 71.1025L143.498 89.6656C143.498 89.6656 143.498 89.6656 143.493 89.6702L142.583 90.9573L132.482 104.077L130.078 107.201Z" fill="#DADFE1"/>
<path d="M130.078 107.202C132.232 109.081 133.782 110.473 135.082 111.622C135.199 111.722 135.311 111.822 135.423 111.917C137.105 113.405 138.374 114.502 140.056 115.82L152.245 100.03L153.847 97.7619C153.403 97.3928 151.695 95.9626 149.28 93.7398C146.45 91.1406 143.498 89.6619 143.498 89.6619C143.498 89.6619 143.498 89.6619 143.492 89.6664L142.583 90.9535L130.078 107.202Z" fill="#AEB5BC"/>
<path d="M157.32 120.101C157.982 120.509 158.659 120.923 159.352 121.324C159.475 121.405 159.604 121.481 159.733 121.557C163.832 123.977 168.28 126.372 172.687 128.718C177.117 131.092 181.511 133.422 185.437 135.701C185.699 135.854 185.963 135.997 186.221 136.15C186.23 136.156 186.255 136.163 186.273 136.179C186.407 136.256 186.536 136.332 186.67 136.404C186.771 136.458 186.871 136.512 186.966 136.575C187.22 136.712 187.459 136.853 187.693 136.989C187.932 137.125 188.162 137.255 188.387 137.38C189.066 137.764 189.706 138.13 190.289 138.462C190.429 138.534 190.557 138.61 190.687 138.681C191.361 139.066 191.954 139.403 192.47 139.698L200.696 128.117L209.774 115.33C209.256 114.884 208.738 114.433 208.221 113.983C208.108 113.893 207.992 113.788 207.879 113.693C206.829 112.785 205.78 111.873 204.724 110.97C203.88 110.231 203.036 109.497 202.182 108.761C200.917 107.665 199.647 106.573 198.378 105.482C196.478 103.844 194.573 102.207 192.662 100.584C188.166 96.7829 184.614 93.6553 181.501 90.9063C181.39 90.8015 181.278 90.7016 181.166 90.6068C180.561 90.0685 179.964 89.541 179.381 89.0297L168.52 104.32L157.32 120.101Z" fill="#AEB5BC"/>
<path d="M157.321 120.102C157.983 120.51 158.659 120.924 159.352 121.325C159.476 121.406 159.604 121.482 159.733 121.558C163.833 123.978 168.281 126.373 172.688 128.719C177.117 131.092 181.511 133.422 185.437 135.702C185.7 135.855 185.963 135.998 186.221 136.15C186.23 136.156 186.255 136.163 186.273 136.18C186.407 136.257 186.536 136.333 186.67 136.405C186.771 136.459 186.872 136.513 186.966 136.576C187.22 136.713 187.459 136.854 187.693 136.99C187.932 137.126 188.162 137.256 188.387 137.38C189.066 137.765 189.706 138.131 190.29 138.462C190.429 138.534 190.558 138.611 190.687 138.682C191.361 139.066 191.954 139.403 192.47 139.698L200.696 128.118C200.188 127.728 199.637 127.31 199.068 126.87C198.951 126.78 198.833 126.694 198.716 126.599C190.329 120.167 176.646 109.659 174.941 108.329C173.841 107.473 172.323 106.519 170.983 105.717C170.855 105.641 170.726 105.564 170.596 105.493C169.761 105 169.014 104.589 168.521 104.321L157.321 120.102Z" fill="#AEB5BC"/>
<path d="M159.358 121.329C159.481 121.41 159.61 121.486 159.739 121.562L170.99 105.722L181.509 90.908C181.398 90.8032 181.286 90.7033 181.174 90.6084L170.603 105.493L159.358 121.329Z" fill="white"/>
<path d="M190.292 138.461C190.431 138.533 190.56 138.609 190.689 138.681L199.071 126.874L208.224 113.988C208.111 113.898 207.995 113.793 207.883 113.698L198.718 126.608L190.292 138.461Z" fill="white"/>
<path d="M79.4783 56.5911C79.5543 56.6978 79.6357 56.8 79.7167 56.9072C79.8163 57.031 79.9064 57.1489 80.0011 57.2723C80.7636 58.2548 81.5429 59.2186 82.3429 60.1743C83.233 61.248 84.1393 62.308 85.0623 63.3495L89.1209 57.6371L89.3157 57.3588L90.1272 56.2183L90.1839 56.1431L90.2014 56.1146C90.2127 56.1006 90.2181 56.096 90.2181 56.096L101.583 40.0844C100.284 39.5656 98.9822 39.0717 97.6738 38.5973C97.5328 38.5449 97.3919 38.4926 97.2405 38.4444C90.6568 36.0885 80.8759 33.8041 74.5398 33.3918C71.6112 33.2015 69.4156 33.4105 68.6143 34.2015C68.3948 34.4176 68.2676 34.7268 68.214 35.1126C68.0682 36.2711 68.6382 38.1427 69.6109 40.3447C71.9588 45.6597 76.7 52.8802 79.4783 56.5911Z" fill="#F26B5C"/>
<path d="M168.662 107.946L198.396 131.37L201.894 126.445L203.649 123.975L171.645 103.752C170.697 103.118 169.374 103.388 168.544 104.337C168.477 104.411 168.415 104.491 168.358 104.576C167.537 105.711 167.677 107.21 168.662 107.946Z" fill="#F26B5C"/>
<path d="M82.3423 60.174C83.2325 61.2477 84.1389 62.3078 85.0619 63.3493C86.0536 64.4669 87.057 65.5655 88.0761 66.6554L93.9352 58.4119L105.718 41.8105C104.341 41.2098 102.961 40.634 101.578 40.088C100.279 39.5693 98.9767 39.0753 97.6683 38.6009L86.8473 53.8296L82.3423 60.174Z" fill="#D93D3D"/>
<path d="M138.827 107.722C138.944 107.822 139.056 107.922 139.168 108.017L148.127 95.3945L162.329 75.0962C162.216 75.0113 162.093 74.9255 161.97 74.8397L147.82 95.0624L138.827 107.722Z" fill="white"/>
<path d="M89.4403 68.0897C89.5458 68.204 89.6567 68.3138 89.7576 68.4227L107.955 42.7971C107.82 42.7352 107.68 42.6729 107.539 42.6107L89.4403 68.0897Z" fill="#DADFE1"/>
<path d="M160.666 117.411C160.402 117.223 160.338 116.857 160.527 116.593C160.715 116.329 161.082 116.266 161.347 116.455C161.611 116.643 161.675 117.009 161.486 117.273C161.298 117.536 160.931 117.599 160.666 117.411Z" fill="white"/>
<path d="M165.023 111.273C164.758 111.085 164.695 110.719 164.883 110.455C165.072 110.192 165.438 110.128 165.703 110.317C165.968 110.505 166.031 110.871 165.843 111.135C165.654 111.399 165.288 111.462 165.023 111.273Z" fill="white"/>
<path d="M173.113 99.8795C172.848 99.6912 172.785 99.3253 172.973 99.0615C173.162 98.7977 173.528 98.7346 173.793 98.9228C174.058 99.1111 174.121 99.477 173.933 99.7408C173.744 100.005 173.377 100.068 173.113 99.8795Z" fill="white"/>
<path d="M177.469 93.7415C177.204 93.5532 177.141 93.1873 177.329 92.9235C177.518 92.6597 177.885 92.5965 178.149 92.7848C178.414 92.973 178.478 93.3389 178.289 93.6028C178.1 93.8666 177.734 93.9297 177.469 93.7415Z" fill="white"/>
<path d="M143.746 106.496C143.481 106.308 143.417 105.942 143.606 105.678C143.794 105.415 144.161 105.351 144.426 105.54C144.69 105.728 144.754 106.094 144.565 106.358C144.382 106.622 144.015 106.685 143.746 106.496Z" fill="white"/>
<path d="M147.764 100.84C147.499 100.651 147.436 100.286 147.624 100.022C147.813 99.7578 148.18 99.6948 148.444 99.883C148.709 100.071 148.772 100.437 148.584 100.701C148.396 100.965 148.029 101.023 147.764 100.84Z" fill="white"/>
<path d="M156.197 88.965C155.932 88.7768 155.869 88.4109 156.057 88.147C156.246 87.8832 156.612 87.8201 156.877 88.0084C157.142 88.1966 157.205 88.5625 157.017 88.8263C156.828 89.0902 156.461 89.1533 156.197 88.965Z" fill="white"/>
<path d="M152.045 94.8104C151.781 94.6222 151.717 94.2563 151.906 93.9925C152.094 93.7286 152.461 93.6655 152.726 93.8538C152.99 94.042 153.054 94.4079 152.865 94.6718C152.677 94.9356 152.31 94.9937 152.045 94.8104Z" fill="white"/>
<path d="M160.553 82.827C160.288 82.6388 160.225 82.2729 160.413 82.0091C160.602 81.7452 160.969 81.6821 161.233 81.8703C161.498 82.0586 161.562 82.4245 161.373 82.6883C161.184 82.9521 160.818 83.0153 160.553 82.827Z" fill="white"/>
<path d="M162.842 117.163L192.661 135.098L192.375 135.572L162.556 117.637L162.842 117.163Z" fill="white"/>
<path d="M166.199 112.459L194.857 132.033L194.544 132.49L165.886 112.915L166.199 112.459Z" fill="white"/>
<path d="M178.779 94.7774L205.627 116.902L205.274 117.329L178.426 95.204L178.779 94.7774Z" fill="white"/>
<path d="M175.428 99.4715L203.419 119.986L203.091 120.432L175.1 99.9175L175.428 99.4715Z" fill="white"/>
<path d="M69.6074 40.3444L71.002 38.3838L74.541 33.3968C71.6123 33.2065 69.4166 33.4154 68.6154 34.2065C68.3959 34.4226 68.2687 34.7318 68.2151 35.1176C68.0648 36.2707 68.6347 38.1423 69.6074 40.3444Z" fill="#D93D3D"/>
<path d="M194.301 135.178C194.037 134.99 193.973 134.624 194.162 134.36C194.35 134.096 194.717 134.033 194.981 134.222C195.246 134.41 195.31 134.776 195.121 135.04C194.933 135.303 194.566 135.367 194.301 135.178Z" fill="white"/>
<path d="M205.369 119.589C205.104 119.401 205.04 119.035 205.229 118.771C205.417 118.507 205.784 118.444 206.049 118.632C206.313 118.82 206.377 119.186 206.188 119.45C206 119.714 205.633 119.777 205.369 119.589Z" fill="white"/>
<path d="M168.662 107.946L198.396 131.37L201.894 126.445C197.799 123.57 168.917 104.665 168.544 104.337C168.477 104.412 168.415 104.491 168.358 104.576C167.537 105.711 167.677 107.21 168.662 107.946Z" fill="#D93D3D"/>
<path d="M218.286 179.611C217.995 179.205 208.057 172.963 208.057 172.963L195.603 174.376L219.003 186.076C219.003 186.076 220.384 182.537 218.286 179.611Z" fill="white"/>
<path d="M178.006 171.466C177.715 171.061 163.487 170.952 163.487 170.952L160.724 178.03L176.16 176.021C176.16 176.021 180.105 174.392 178.006 171.466Z" fill="#DADFE1"/>
<path d="M113.728 83.7233L116.346 85.8636L135.288 57.4349C134.955 57.2257 134.607 57.0201 134.269 56.8105C134.14 56.7391 134.016 56.6583 133.888 56.582C133.573 56.3944 133.263 56.2122 132.948 56.0246L113.728 83.7233Z" fill="#AEB5BC"/>
<path d="M31.0771 71.5616C31.0771 71.5616 31.3634 71.7317 31.8683 72.0409C31.9255 72.076 31.9826 72.111 32.0498 72.1469C32.3169 72.3053 32.6268 72.4925 32.9847 72.7038C32.9893 72.7092 32.9942 72.7097 33.0038 72.7155C38.2662 75.897 52.7989 84.5814 56.0651 85.5619C65.394 88.3672 65.6397 79.2447 57.7901 76.4482C52.9038 74.7109 40.6569 70.6702 35.5501 68.9887C35.3018 68.902 35.068 68.8215 34.8528 68.7577C34.8233 68.7501 34.7893 68.7372 34.7603 68.7246C34.4191 68.6098 34.1259 68.5192 33.9016 68.4446C33.8191 68.4123 33.7457 68.3909 33.6773 68.3699C33.6628 68.3637 33.6479 68.3624 33.6334 68.3561C33.3855 68.2644 33.2482 68.2274 33.2482 68.2274L31.0771 71.5616Z" fill="#F7C8B5"/>
<path d="M28.5661 64.616C28.907 64.1002 29.8625 64.8242 30.1644 65.0457C30.73 65.4654 31.3437 65.7942 31.8976 66.2329C32.714 66.8846 33.4217 68.3828 33.4217 68.3828C33.4217 68.3828 32.4864 70.5436 31.9694 71.1241C31.7419 71.3746 31.5347 71.5066 31.3336 71.5692C31.307 71.5869 30.8502 71.532 30.8502 71.532C30.8502 71.532 30.4373 71.491 29.8581 71.2854C29.2595 71.073 26.3539 70.3292 26.202 70.0557C25.7939 69.3244 26.3564 67.8168 26.3564 67.8168L26.8146 66.8157C26.8146 66.8157 26.435 66.3922 25.0752 65.643C24.7591 65.4703 23.6556 64.7735 23.7932 64.4601C23.9877 64.0116 25.7173 64.778 25.9979 64.8976C26.6997 65.194 27.3943 65.5149 28.0951 65.8212C28.4578 65.978 28.825 66.1401 29.194 66.2824C29.2325 66.3008 30.002 66.5681 29.9927 66.5022C29.953 66.2085 29.4935 65.8381 29.28 65.6393C29.1078 65.4841 28.6529 65.2342 28.5376 64.9439C28.4919 64.8348 28.4915 64.7246 28.5661 64.616Z" fill="#F7C8B5"/>
<path d="M36.5578 74.6371C36.6147 73.1155 37.7278 69.5438 37.7278 69.5438L39.5201 70.0504C39.5201 70.0504 46.2183 70.7396 48.3478 71.4658C51.7873 72.6466 76.8226 79.6395 87.5557 82.6274C88.3299 82.8401 89.0308 83.0313 89.6424 83.2098C91.3916 83.6926 92.4254 83.978 92.4254 83.978C92.4254 83.978 89.0079 87.7991 89.5203 90.6216C90.0309 93.3489 89.4923 96.5452 88.838 99.2259C88.473 100.771 87.882 102.261 87.4386 103.784C87.2169 104.545 89.7736 110.979 89.7736 110.979C89.7736 110.979 84.9291 107.894 83.4165 106.536C82.705 106.294 82.0358 105.97 81.5443 105.737C78.7858 104.456 76.1692 102.811 73.4992 101.377C70.7861 99.9192 68.1189 98.3953 65.6725 96.5253C65.5917 96.4732 65.5163 96.4166 65.4369 96.3496C62.7006 94.2341 60.166 92.1663 56.936 90.7685C54.3981 89.6613 51.7074 88.9862 49.6365 87.124C48.7235 86.3136 47.9463 85.385 47.1478 84.4695C47.0291 84.334 46.91 84.2035 46.7913 84.068C45.9093 83.0752 44.9749 83.0888 43.8939 82.8844C43.6471 82.8379 43.3916 82.7756 43.1233 82.6871C40.9275 81.9751 39.8106 80.4513 39.0196 78.6406C38.207 78.3495 36.5387 77.3982 36.3508 76.8463C36.177 76.3056 36.5229 75.7902 36.5578 74.6371Z" fill="#E1EDEF"/>
<path d="M44.1023 79.3443C43.9988 78.7446 43.536 77.488 44.1471 76.9806C45.6835 75.698 47.1605 80.1816 47.2731 80.9072C47.4649 82.1652 47.2547 83.3132 47.1583 84.4811C47.0396 84.3456 46.9205 84.2151 46.8018 84.0796C45.9197 83.0867 44.9852 83.1003 43.9041 82.8959C44.1424 81.7704 44.3205 80.6447 44.1023 79.3443Z" fill="white"/>
<path d="M104.514 132.571C106.704 131.501 108.146 128.934 108.212 128.815L107.724 128.547C107.706 128.576 106.038 131.538 103.704 132.306C101.354 133.072 97.7658 131.759 97.7268 131.745L97.5312 132.264C97.6867 132.322 101.338 133.661 103.874 132.831C104.096 132.755 104.31 132.669 104.514 132.571Z" fill="#F26B5C"/>
<path d="M97.5388 133.411L98.2702 132.905C100.347 131.469 106.418 126.038 112.848 120.293C117.793 115.869 122.906 111.296 126.141 108.6C127.001 107.884 127.975 107.073 128.674 106.008C129.594 104.607 129.875 103.1 129.51 101.527C128.642 97.7721 124.329 94.8533 122.516 93.7692C119.997 92.2681 117.127 91.0617 114.208 90.2865C113.615 90.1296 113.008 90.4771 112.846 91.0685C112.689 91.6605 113.038 92.2665 113.631 92.4283C116.353 93.1563 119.035 94.2763 121.377 95.6768C123.901 97.1783 126.789 99.6375 127.344 102.023C127.571 102.999 127.396 103.91 126.813 104.795C126.292 105.585 125.492 106.256 124.713 106.899C121.447 109.617 116.317 114.204 111.36 118.641C105.871 123.553 100.219 128.61 97.7162 130.559L87.789 121.394C87.3383 120.98 86.6383 121.009 86.2185 121.453C85.8031 121.902 85.8274 122.605 86.2781 123.019L97.5388 133.411Z" fill="#342E38"/>
<path d="M118.129 174.706C121.968 181.287 127.36 181.767 139.031 181.819C150.711 181.871 171.041 178.123 171.041 178.123C171.041 178.123 170.718 167.869 170.871 166.621C171.015 165.372 163.4 165.474 157.442 165.385C151.484 165.296 152.049 162.257 148.448 163.229C144.851 164.202 136.738 160.511 137.312 159.555C137.724 158.861 137.974 148.006 138.525 140.221C138.742 137.151 139.012 134.557 139.351 133.26C140.558 128.661 135.446 124.906 134.663 124.042C133.884 123.184 124.084 117.084 123.202 117.122C122.326 117.166 111.517 130.173 111.517 130.173C111.614 134.255 109.055 159.149 118.129 174.706Z" fill="#2F3D4D"/>
<path d="M121.95 118.357C122.399 118.957 122.863 119.563 123.343 120.17C125.773 123.32 131.114 129.177 132.843 131.51C132.843 131.51 126.443 131.322 135.563 138.318C135.563 138.318 158.088 152.725 159.952 154.369C168.742 162.108 206.041 184.57 206.041 184.57C206.192 184.673 213.296 177.054 214.065 176.461C214.468 176.155 214.868 175.82 215.094 175.364C215.894 173.772 213.637 171.683 212.49 170.918C212.471 170.906 212.461 170.895 212.437 170.883C211.948 170.565 211.57 170.362 211.247 170.209C210.124 169.68 209.775 169.765 208.375 167.285C207.884 166.412 207.076 165.495 206.101 164.58C205.837 164.331 205.558 164.077 205.268 163.831C202.751 161.625 199.52 159.486 197.604 157.973C194.679 155.666 165.221 128.837 159.776 123.417C152.637 116.318 142.413 108.615 138.502 106.172C137.645 105.636 138.885 107.066 138.412 106.794C137.93 106.507 137.672 106.369 137.672 106.369C137.672 106.369 120.747 111.581 119.887 112.241C119.312 112.677 119.203 113.418 120.541 115.512C121.43 116.885 120.677 116.665 121.95 118.357Z" fill="#536171"/>
<path d="M71.0969 71.2226C71.0107 67.5916 68.4136 69.7072 67.9285 66.3367C67.8795 65.9771 67.7084 59.8563 74.7365 60.6247C76.198 60.7822 77.7573 60.2176 81.1991 59.4118C83.6779 58.8324 85.7651 60.3358 86.7117 61.049C87.4186 61.5761 87.9662 62.3196 88.1451 63.206C88.2195 63.5628 88.1642 63.8533 88.2087 64.2075C88.3107 64.9972 88.6996 65.5466 88.9629 66.2702C89.2685 67.1427 89.2454 68.1016 89.1416 69.0085C88.9851 70.2911 88.8275 71.5285 88.8453 72.8263C88.8577 73.6082 89.0476 74.4255 88.9691 75.2144C88.9398 75.5522 88.8615 75.8757 88.6977 76.2017C88.6735 76.2497 88.6447 76.2922 88.6105 76.3393C87.8664 75.7788 86.6588 74.7776 86.3201 73.9973C86.2989 72.8544 86.4328 71.775 86.051 70.8558C85.6061 69.796 84.0746 69.3471 83.5885 70.3807C83.0388 70.4128 82.7499 69.752 82.5551 69.2796C82.364 68.8225 82.2738 68.3592 81.9937 67.9443C81.6586 67.4697 81.1804 67.1977 80.6735 66.9683C80.9997 67.8926 81.6805 68.7778 82.1077 69.6359C82.6953 70.8433 83.0459 72.1802 83.7224 73.3453C84.7103 75.028 86.6358 75.9668 88.5129 76.4809C88.0844 77.0241 87.3709 77.2671 86.708 77.3894C84.9503 77.6965 83.1696 77.2859 81.4323 77.0692C81.4074 77.067 81.3874 77.0653 81.3625 77.0631C79.5198 76.8473 77.3022 77.1342 75.5583 76.2414C75.2363 76.0781 74.4222 77.6537 74.3161 77.6044C74.2029 77.6946 71.1875 75.1493 71.0969 71.2226Z" fill="#755462"/>
<path d="M75.766 65.3444C78.8934 64.1157 81.9646 65.3247 84.7456 66.8136C84.8463 66.8674 84.8739 66.9549 84.8566 67.0385C85.5764 69.0933 86.2948 71.163 86.8031 73.2844C87.2754 75.2425 86.5501 78.4525 86.5122 78.4843C84.19 80.5539 79.9781 83.6399 76.9449 81.7035C74.5298 80.1615 72.6341 76.2773 72.1818 73.6853C71.6765 70.7783 72.7168 66.5398 75.766 65.3444Z" fill="#F7C8B5"/>
<path d="M85.3193 73.5901C85.3193 73.5901 90.2993 77.8384 92.509 79.3776C93.3224 79.949 94.2092 80.4268 94.0063 81.6654C93.8043 82.894 92.4764 83.9143 91.5993 84.6536C90.5279 85.5511 89.3033 86.3051 88.2865 87.2674C88.2556 87.3348 88.2006 87.39 88.1333 87.4142C88.1279 87.4187 87.9378 87.5273 87.9378 87.5273L84.7251 84.364L83.0691 82.7481L82.9723 82.6495L81.9324 81.6229L81.7011 81.3975L85.3193 73.5901Z" fill="#F7C8B5"/>
<path d="M71.6294 72.2045C71.6294 72.2045 71.5786 70.7087 73.078 70.6594C75.0586 70.0966 76.4367 67.2842 76.9536 67.1091C77.4859 66.9304 77.9472 66.6453 78.5209 66.6253C79.0539 66.6118 82.7101 67.206 82.9874 67.5955C83.2187 67.936 83.2914 68.3127 83.4492 68.6918C83.6065 69.0758 83.845 69.6221 84.2943 69.5912C84.6888 68.7449 85.9466 69.1099 86.3074 69.9821C86.6183 70.7348 86.5113 71.6213 86.5257 72.5534C86.8017 73.188 87.789 74.0098 88.4015 74.4686C88.6934 74.6892 88.8971 74.8271 88.8971 74.8271C88.8971 74.8271 88.8188 74.2848 88.6971 73.5486C88.5092 72.3611 88.2304 70.6603 88.0465 69.8886C87.7579 68.6473 87.442 67.3737 86.749 66.2823C86.4793 65.8634 86.133 65.5179 85.7355 65.243C84.5332 64.4125 82.8582 64.1712 81.4497 64.0984C79.2721 63.9835 73.7079 65.2545 71.9515 66.7027C71.2219 67.3046 71.6294 72.2045 71.6294 72.2045Z" fill="#755462"/>
<path d="M82.2875 64.5554C83.3947 64.6921 84.296 65.8118 85.3442 65.0674C85.5152 64.9472 85.6847 64.7868 85.8593 64.5668C86.2937 64.0141 85.9438 64.1137 86.5722 63.638C86.834 63.4556 87.0957 63.2732 87.357 63.0958C87.3399 62.4837 87.179 61.9091 86.8843 61.3728C86.8291 61.2579 86.7779 61.1533 86.7168 61.0479C87.4238 61.575 87.9714 62.3186 88.1504 63.2051C88.2248 63.5619 88.1694 63.8524 88.214 64.2067C88.316 64.9964 88.7049 65.5458 88.9682 66.2695C89.2738 67.1421 89.2508 68.1011 89.1469 69.008C88.9904 70.2906 88.8328 71.5282 88.8506 72.8261C88.863 73.608 89.053 74.4254 88.9744 75.2144C89.1222 76.1132 89.2201 76.7774 89.2201 76.7774C89.2201 76.7774 88.9691 76.6053 88.6158 76.3393C87.8716 75.7788 86.6639 74.7775 86.3252 73.9972C86.304 72.8542 86.4379 71.7747 86.056 70.8555C85.6111 69.7956 84.0795 69.3466 83.5933 70.3803C83.0435 70.4124 82.7547 69.7516 82.5598 69.2791C82.3687 68.8219 82.2785 68.3586 81.9983 67.9438C81.6632 67.4691 81.185 67.1971 80.6781 66.9677C80.6291 66.8383 80.5909 66.6998 80.5573 66.5667C80.2515 65.2337 80.8928 64.3787 82.2875 64.5554Z" fill="#4A2533"/>
<path d="M75.4844 78.2987C75.511 77.9929 76.2778 77.8542 77.0481 77.6511C77.6439 77.4929 78.0793 77.4118 78.6554 77.1918C78.78 77.1426 79.1144 76.8751 79.3361 77.2785C79.4943 77.5666 79.1992 78.4628 79.1146 78.5705C78.6555 79.4896 77.0483 79.7191 76.13 79.0296C75.8773 78.8775 75.4745 78.4129 75.4844 78.2987Z" fill="white"/>
<path d="M93.0643 114.928C93.6646 115.641 94.2708 116.345 94.8729 117.038C99.9425 122.845 103.336 125.649 104.326 126.961C108.838 132.901 111.524 130.167 111.524 130.167L140.606 107.561C140.606 107.561 142.474 105.237 139.824 102.468C139.12 101.736 138.287 101.048 136.505 99.5557C135.78 98.9519 134.895 98.2141 133.808 97.2784C132.971 96.5698 132.102 95.8333 131.223 95.091C125.451 90.2131 119.157 84.9794 117.19 83.3063C111.964 78.8365 107.96 71.51 102.285 71.9712C102.27 71.9749 102.255 71.9736 102.239 71.9772C101.279 72.0587 100.055 72.4625 98.7468 73.0241C98.0855 73.3018 97.4099 73.6283 96.733 73.9697C93.1855 75.7626 89.7151 78.1127 89.7151 78.1127L86.0146 83.7463C86.0146 83.7463 84.1349 83.4372 83.6637 83.9517C81.8128 85.9676 78.7219 88.2808 78.8134 92.368C78.9269 97.183 86.1054 106.783 93.0643 114.928Z" fill="#E1EDEF"/>
<path d="M83.6676 83.9633C87.6283 101.612 108.054 114.895 125.737 119.31L111.528 130.168C111.528 130.168 108.842 132.902 104.331 126.963C103.341 125.65 99.9472 122.847 94.8776 117.039C94.2801 116.351 93.6693 115.643 93.069 114.93C86.1106 106.78 78.9316 97.1845 78.8172 92.3796C78.7253 88.2973 81.8167 85.9792 83.6676 83.9633Z" fill="#C0D7DB"/>
<path d="M107.279 115.711C107.279 115.711 110.979 118.397 111.994 118.495C113 118.588 113.238 117.457 118.765 114.135C123.354 111.382 133.267 102.506 136.502 99.565C135.777 98.9612 134.893 98.2234 133.805 97.2877C132.969 96.5791 132.1 95.8426 131.221 95.1003C125.978 99.5984 107.279 115.711 107.279 115.711Z" fill="#E1EDEF"/>
<path d="M115.153 126.313C118.596 124.631 123.507 119.384 127.378 114.451C129.787 111.378 131.407 110.118 132.838 109.007C134.35 107.827 135.782 106.716 137.816 103.745C140.212 100.241 139.188 95.2164 134.767 88.8043C134.598 88.5593 134.477 88.3836 134.43 88.2993L133.945 88.5673C133.997 88.662 134.126 88.8534 134.313 89.12C138.592 95.3245 139.614 100.139 137.361 103.435C135.378 106.336 134.044 107.37 132.499 108.572C131.047 109.701 129.4 110.984 126.946 114.108C121.203 121.42 115.835 126.212 113.272 126.309C110.377 126.421 108.485 124.464 108.466 124.443L108.062 124.823C108.145 124.91 110.137 126.986 113.294 126.861C113.833 126.843 114.467 126.648 115.153 126.313Z" fill="#F26B5C"/>
<path d="M101.238 114.099C101.238 114.099 112.747 100.943 117.231 96.0482C123.478 89.2351 131.747 96.8484 122.083 104.945C116.531 109.596 105.771 117.543 105.771 117.543L101.238 114.099Z" fill="#F7C8B5"/>
<path d="M103.187 113.165C103.187 113.165 101.399 113.124 100.402 113.448C99.406 113.771 97.9721 115.088 97.1608 116.168C96.3494 117.249 96.117 117.383 96.2453 117.87C96.374 118.352 97.4841 117.933 98.1157 117.478C98.7477 117.017 100.234 115.675 100.234 115.675L103.187 113.165Z" fill="#F7C8B5"/>
<path d="M91.0834 77.2358C91.0834 77.2358 89.049 76.1074 88.8033 76.3362C88.5577 76.5651 85.9488 83.6656 86.0211 83.757C86.0935 83.8484 91.0834 77.2358 91.0834 77.2358Z" fill="white"/>
<path d="M86.0221 83.7574C86.0067 83.6459 83.4153 83.0396 83.426 83.0906C83.4366 83.1416 83.3197 83.9672 83.3197 83.9672C83.3197 83.9672 86.0329 83.8634 86.0221 83.7574Z" fill="white"/>
<path d="M108.158 126.047L108.889 125.54C112.486 123.061 131.077 108.608 138.486 102.447C139.346 101.732 140.319 100.921 141.019 99.8555C141.822 98.6344 142.052 97.263 141.709 95.7816C140.809 91.8743 135.897 88.0524 133.134 86.41C130.615 84.9089 127.745 83.7025 124.827 82.9223C124.233 82.7654 123.626 83.1129 123.465 83.7043C123.308 84.2963 123.657 84.9023 124.25 85.0641C126.971 85.7921 129.648 86.9166 131.996 88.3126C134.286 89.6785 138.806 93.096 139.543 96.2784C139.748 97.162 139.62 97.9367 139.157 98.6421C138.637 99.4325 137.836 100.103 137.058 100.746C130.087 106.544 113.2 119.695 108.344 123.205L98.4028 114.03C97.9521 113.615 97.2472 113.644 96.8323 114.088C96.417 114.537 96.4412 115.24 96.892 115.655L108.158 126.047Z" fill="#342E38"/>
<path d="M110.55 116.587C107.497 114.484 104.47 112.253 101.896 109.596C102.325 109.103 102.876 108.535 103.564 107.949C107.601 104.502 112.909 96.0758 113.095 94.9758C113.368 93.3329 86.2412 80.0911 98.3013 73.4095C111.158 66.2819 137.714 82.337 138.692 87.0821C139.67 91.8273 134.329 96.5821 130.047 101.409C125.769 106.237 127.964 105.057 120.991 109.204C114.018 113.346 116.476 112.369 112.886 115.174C112.041 115.831 111.265 116.279 110.55 116.587Z" fill="white"/>
<path d="M102.98 113.337C102.98 113.337 100.747 114.324 99.5845 115.233C98.4217 116.143 97.8587 116.444 97.5912 116.981C97.3723 117.423 97.0276 118.098 97.3719 118.524C97.7167 118.944 98.5063 119.559 99.1441 119.84C99.7816 120.126 100.325 120.969 100.986 121.157C101.946 121.43 102.215 121.284 103.006 120.837C104.499 119.996 105.761 117.544 105.761 117.544L105.184 115.466L102.98 113.337Z" fill="#F7C8B5"/>
<path d="M101.16 87.6536C105.689 95.2412 111.966 97.205 111.966 97.205L113.314 95.2604C113.314 95.2604 113.221 95.2273 113.042 95.1516C112.065 94.736 108.566 93.0745 105.229 89.0996C104.574 88.3168 103.917 87.4486 103.299 86.4787C99.3909 80.4118 98.8232 75.1067 98.7607 73.1692C98.76 73.1191 98.754 73.0735 98.7529 73.0284C98.0915 73.3061 97.4159 73.6326 96.739 73.974C96.7306 74.1284 96.7305 74.3036 96.7281 74.5036C96.7492 76.2823 97.162 79.732 99.441 84.4555C99.9204 85.4633 100.49 86.5341 101.16 87.6536Z" fill="#342E38"/>
<path d="M100.934 87.5992C100.939 87.5996 100.939 87.5947 100.944 87.5951L103.404 86.2478C103.536 86.1742 103.586 86.0083 103.512 85.8718L102.781 84.5369C102.746 84.4738 102.685 84.4235 102.617 84.4025C102.548 84.3816 102.468 84.3796 102.404 84.4241L99.9436 85.7714C99.8804 85.8059 99.8299 85.8666 99.809 85.9348C99.788 86.0031 99.796 86.0838 99.8306 86.1469L100.567 87.4823C100.641 87.6138 100.803 87.6629 100.934 87.5992ZM102.893 85.893L100.923 86.9727L100.455 86.1262L102.425 85.0465L102.893 85.893Z" fill="white"/>
<path d="M87.2586 107.797C87.2628 107.807 87.2673 107.813 87.2673 107.813L89.7812 110.99C89.7812 110.99 89.0303 109.698 88.032 107.674C86.7826 105.133 85.1405 101.45 84.1171 97.7523C82.3196 91.2386 83.4235 83.0957 83.4235 83.0957L82.9749 82.6562L81.9351 81.6295C81.9351 81.6295 80.4213 88.8306 81.4406 95.4066C82.2712 100.805 87.0074 107.455 87.2586 107.797Z" fill="#342E38"/>
<path d="M84.0809 95.867C84.1229 95.8456 84.1608 95.8139 84.1896 95.7713C84.23 95.7098 84.2465 95.6362 84.2326 95.5649L83.931 94.0723C83.8987 93.9243 83.7517 93.8265 83.6038 93.8536L81.03 94.3703C80.9586 94.3841 80.8945 94.4286 80.854 94.4901C80.8135 94.5516 80.7971 94.6253 80.811 94.6965L81.1125 96.1891C81.1448 96.3371 81.2919 96.435 81.4397 96.4078L84.0136 95.8911C84.0339 95.8879 84.0547 95.8797 84.0809 95.867ZM83.4361 94.4546L83.6296 95.4023L81.602 95.8114L81.4086 94.8637L83.4361 94.4546Z" fill="white"/>
<path d="M134.617 151.313C135.521 154.485 134.231 156.685 134.681 157.51C135.136 158.336 137.308 159.556 137.308 159.556C137.719 158.861 137.97 148.006 138.521 140.221C138.521 140.221 125.376 133.804 120.453 133.585C115.535 133.362 120.638 136.189 124.397 138.089C128.15 139.988 131.557 142.242 130.768 145.717C129.991 149.183 133.724 148.142 134.617 151.313Z" fill="#1D2834"/>
<path d="M195.314 169.219C195.523 168.201 196.591 167.689 197.485 167.387C200.132 166.486 202.777 166.417 205.292 165.019C205.539 164.881 205.814 164.729 206.102 164.579C207.077 165.495 207.884 166.416 208.376 167.285C209.776 169.764 210.124 169.685 211.248 170.208C210.236 170.53 209.195 170.74 208.321 170.744C207.468 170.749 206.919 170.306 206.14 169.983C204.599 169.353 203.318 169.717 201.777 170.193C200.477 170.6 194.61 172.706 195.314 169.219Z" fill="#1D2834"/>
<path d="M113.318 95.2605C113.318 95.2605 115.313 92.3313 115.635 91.8638C115.951 91.3959 114.463 91.141 112.766 90.4575C111.07 89.774 109.976 88.5025 108.44 87.7028C106.904 86.9032 105.665 86.4998 106.81 87.5857C107.955 88.6716 111.741 90.6584 112.788 92.5816C113.83 94.5044 113.318 95.2605 113.318 95.2605Z" fill="#E1EDEF"/>
<path d="M81.9376 81.6244L82.9773 82.6511L83.0741 82.7496C83.2884 82.478 83.5561 82.1109 83.776 81.7747C84.2012 81.096 83.9894 80.8773 84.3138 80.4351C84.6432 79.9933 84.2538 79.2786 84.0672 79.3474C83.881 79.4113 83.7361 79.9242 83.2679 80.5191C82.829 81.0664 82.0437 81.5586 81.9376 81.6244Z" fill="#DB9F8A"/>
<path d="M186.784 173.453L185.033 177.785C184.976 177.92 184.808 178.006 184.578 177.996C182.603 177.924 183.205 178.847 183.959 179.574C184.116 179.727 184.182 179.893 184.125 180.029L179.173 192.266C179.033 192.61 178.268 192.523 177.911 192.122C176.999 191.081 175.922 189.1 176.962 186.137C178.508 181.747 177.493 178.99 173.3 177.073C172.919 176.9 172.721 176.582 172.859 176.374L176.302 171.163C176.372 171.054 176.523 170.992 176.713 170.993C177.736 171.002 181.27 171.155 186.159 172.732C186.589 172.875 186.885 173.211 186.784 173.453Z" fill="#2F3D4D"/>
<path d="M217.049 185.595C217.049 185.595 227.295 195.448 229.866 201.423C230.872 203.758 232.38 201.072 231.32 195.598C230.33 190.486 227.569 186.296 226.202 184.761C224.98 183.638 224.081 183.945 223.715 183.243C223.018 181.915 224.58 181.666 224.58 181.666L223.339 174.995C223.339 174.995 220.518 175.355 218.89 176.19C217.263 177.024 216.005 177.75 216.005 177.75C216.005 177.75 218.546 181.996 217.049 185.595Z" fill="#2F3D4D"/>
<path d="M86.5526 84.6846C87.265 85.8379 88.7356 90.1006 96.7135 89.3391C100.726 88.9528 104.143 86.177 107.059 84.1985C107.41 83.9639 107.746 83.7428 108.063 83.5602C108.449 83.3285 108.814 83.1651 109.094 83.0093C117.227 78.502 136.626 82.2644 137.131 82.0531C137.646 81.8477 143.094 80.2901 143.153 79.8447C143.197 79.458 137.807 73.3522 137.281 73.2963C136.221 73.1939 117.974 69.2215 106.293 78.0649C103.554 80.1389 100.808 83.5638 99.0621 84.7733C94.8447 87.6946 90.1045 86.0702 90.1045 86.0702C90.1045 86.0702 90.0664 85.0658 86.5526 84.6846Z" fill="#F26B5C"/>
<path d="M107.059 84.1936C107.411 83.959 107.746 83.7379 108.063 83.5553C108.508 82.3577 108.967 81.1713 109.456 79.9925C109.634 79.5625 108.992 79.2162 108.814 79.6462C108.197 81.1492 107.608 82.6647 107.059 84.1936Z" fill="white"/>
<path d="M106.123 82.3349C106.334 81.8728 106.545 81.4106 106.756 80.9484C106.948 80.5246 107.591 80.866 107.398 81.2897C107.187 81.7519 106.977 82.2141 106.766 82.6762C106.574 83.1 105.931 82.7587 106.123 82.3349Z" fill="white"/>
<path d="M220.592 115.384C225.149 118.374 229.893 120.89 234.783 123.278C237.752 124.728 241.559 127.522 244.998 127.317C245.472 127.288 245.614 128.026 245.135 128.054C241.615 128.263 237.988 125.709 234.978 124.206C229.89 121.67 224.923 119.125 220.162 115.997C219.754 115.731 220.189 115.119 220.592 115.384Z" fill="white"/>
<path d="M212.61 95.6347C220.46 100.283 228.021 105.476 236.225 109.509C239.546 111.14 242.963 112.579 246.507 113.654C247.753 114.033 249.023 114.379 250.308 114.596C251.011 114.712 251.733 114.825 252.446 114.818C252.872 114.83 253.292 114.786 253.707 114.692C254.472 113.218 254.298 112.277 253.189 111.875C252.768 111.638 253.202 111.03 253.623 111.262C255.925 112.544 256.158 115.176 253.203 115.524C250.121 115.891 246.626 114.54 243.758 113.529C232.387 109.51 222.479 102.34 212.186 96.2432C211.76 96.0009 212.194 95.3933 212.61 95.6347Z" fill="white"/>
<path d="M218.984 119.844C224.706 122.135 229.782 125.62 235.007 128.829C235.417 129.08 234.982 129.692 234.573 129.441C229.405 126.263 224.386 122.813 218.723 120.547C218.277 120.368 218.533 119.665 218.984 119.844Z" fill="#B6DADD"/>
<path d="M190.28 188.252C196.127 190.549 201.985 194.048 206.369 198.575C207.685 199.936 209.811 202.154 209.4 204.29C209.012 206.333 206.847 206.299 205.209 205.976C204.741 205.885 204.801 205.134 205.274 205.231C207.099 205.595 209.099 205.039 208.457 202.836C208.148 201.778 207.39 200.856 206.679 200.028C205.157 198.254 203.337 196.739 201.46 195.359C197.942 192.765 194.084 190.556 190.013 188.96C189.572 188.781 189.829 188.078 190.28 188.252Z" fill="#6ED4DD"/>
<path d="M77.9309 71.905C77.4484 71.1672 78.407 70.9901 78.9342 70.9858C79.5468 70.9789 80.3745 70.9806 80.9501 71.2259C81.3902 71.4143 81.1331 72.1179 80.688 71.9291C80.3735 71.7966 79.9273 71.7929 79.5838 71.7631C79.3348 71.7415 79.0804 71.7244 78.8289 71.7326C78.7434 71.7352 78.6304 71.7654 78.5457 71.7581C78.5258 71.7564 78.468 71.7864 78.4489 71.7747C78.444 71.7743 78.444 71.7743 78.4494 71.7698C78.5319 71.6868 78.5518 71.5734 78.5046 71.4241C78.7659 71.8223 78.1917 72.3081 77.9309 71.905Z" fill="#4A2533"/>
<path d="M73.635 73.3028C73.2576 73.3148 73.0759 73.9645 72.8261 74.1829C72.4628 74.4964 71.9804 73.9237 72.3438 73.6102C72.3709 73.5876 72.3592 73.6066 72.4001 73.5401C72.4401 73.4835 72.4751 73.4265 72.5102 73.3695C72.5861 73.2461 72.6616 73.1276 72.7566 73.0158C73.0082 72.7175 73.3117 72.5739 73.6995 72.5578C73.9009 72.5504 74.0567 72.7792 74.0408 72.9629C74.0215 73.1865 73.8364 73.2954 73.635 73.3028Z" fill="#4A2533"/>
</g>
<defs>
<clipPath id="clip0">
<rect width="270" height="210" fill="white"/>
</clipPath>
</defs>
</svg>
