<svg width="298" height="242" viewBox="0 0 298 242" fill="none" xmlns="http://www.w3.org/2000/svg">
<g clip-path="url(#clip0)">
<path d="M147.341 275.241C185.007 277.564 255.633 252.428 283.113 200.835C302.986 163.541 285.484 90.5146 266.168 67.8376C208.96 0.671547 105.001 14.3773 46.8233 81.2026C6.39339 110.437 -0.648453 173.058 35.5236 221.828C57.7601 251.79 101.628 272.372 147.341 275.241Z" fill="#FF9C91"/>
<mask id="mask0" mask-type="alpha" maskUnits="userSpaceOnUse" x="12" y="2" width="327" height="274">
<path d="M147.341 275.241C185.007 277.564 265.81 255.439 293.291 203.847C313.164 166.553 353.096 58.6742 333.779 35.9972C276.572 -31.1688 105.001 14.3772 46.8233 81.2025C6.39339 110.437 -0.648451 173.058 35.5236 221.828C57.7601 251.79 101.628 272.372 147.341 275.241Z" fill="#67CBD3"/>
</mask>
<g mask="url(#mask0)">
<path d="M96.2022 65.8286C98.1671 56.6726 105.726 48.657 112.913 43.0925C122.454 35.695 133.967 34.5368 145.624 36.4359C167.279 39.9498 188.453 50.2599 210.757 44.6924C219.094 42.6127 225.795 38.0712 232.098 32.3763C239.239 25.9333 245.975 18.8602 255.38 15.833C267.402 11.9724 279.281 13.0644 290.517 18.5617C298.661 22.548 306.25 26.4506 315.544 26.5448C336.426 26.7647 354.665 11.2998 375.87 15.6852C376.265 15.7666 376.442 15.1614 376.047 15.08C357.391 11.2191 341.183 22.5424 323.304 25.318C317.843 26.1713 312.2 26.1696 306.803 24.8545C301.137 23.4683 296.04 20.5622 290.845 18.0176C281.268 13.3365 271.598 11.6926 261.034 13.7585C252.187 15.4852 245.128 19.701 238.484 25.6444C230.789 32.5102 223.727 39.9925 213.619 43.2295C188.888 51.1437 165.582 37.656 141.322 35.2288C130.834 34.1813 120.888 36.1039 112.481 42.6392C105.259 48.2454 97.5885 56.4283 95.6057 65.66C95.5075 66.0469 96.1124 66.2241 96.2022 65.8286Z" fill="#F26B5C"/>
<path d="M-3.40082 121.842C-1.78141 110.651 6.86386 101.308 14.8344 93.9154C23.6146 85.7712 33.2973 81.0113 45.3669 80.3615C58.2125 79.661 70.2063 83.2815 82.4868 86.4886C93.7551 89.4255 105.487 91.2653 117.127 89.7462C126.725 88.4887 135.286 84.7331 142.886 78.7664C150.544 72.7574 157.351 65.3728 166.181 61.018C176.463 55.9374 187.622 56.9755 198.182 60.6551C207.78 63.9972 216.931 68.8752 227.162 70.0314C237.849 71.2383 247.919 67.8034 257.619 63.6849C263.202 61.3134 268.727 58.7646 274.538 57.0177C277.617 56.0893 280.771 55.3804 283.976 55.0597C286.625 54.7896 290.041 55.642 292.546 55.009C292.149 55.1103 292.318 55.718 292.714 55.6167C292.984 55.5492 293.246 55.4817 293.516 55.4141C293.769 55.3466 293.836 54.9584 293.592 54.8318C290.336 53.1777 284.963 54.1904 281.463 54.7474C276.259 55.5745 271.249 57.3046 266.382 59.2795C256.362 63.3389 246.604 68.4448 235.681 69.4829C213.608 71.5928 195.061 52.1143 172.811 57.8616C164.09 60.115 157.064 65.8792 150.384 71.6434C141.148 79.6019 132.081 86.5054 119.75 88.7082C106.28 91.105 92.7093 88.6069 79.6866 85.0876C67.9374 81.9143 56.3485 78.8845 44.068 79.8129C32.5804 80.6822 23.2604 85.3408 14.8512 93.0545C6.66143 100.566 -2.33808 110.221 -3.99966 121.673C-4.06713 122.07 -3.45986 122.238 -3.40082 121.842Z" fill="#F26B5C"/>
<path d="M-6.61395 149.177C5.88585 132.602 21.5992 118.078 42.0357 112.398C53.5234 109.208 65.475 109.064 77.2494 110.465C89.9094 111.967 102.654 115.934 115.474 114.677C125.891 113.655 135.944 110.28 145.087 105.25C153.581 100.574 161.34 94.6326 169.994 90.2356C180.385 84.9609 191.831 82.9607 203.318 85.3998C214.233 87.7206 224.312 93.2317 235.487 94.4638C248.881 95.9408 261.001 89.687 273.417 85.7795C280.898 83.4249 288.683 81.2897 296.586 81.2981C297.936 81.2981 308.361 82.0577 308.251 82.7329C308.184 83.1295 308.791 83.3068 308.858 82.9017C309.255 80.5217 295.06 80.6736 293.508 80.7833C280.502 81.6779 268.584 87.113 256.354 91.0796C249.843 93.1895 243.028 94.5567 236.162 93.9153C229.389 93.2907 222.92 90.9361 216.544 88.7249C205.916 85.0369 195.373 82.3784 184.105 84.5558C174.178 86.4716 165.524 91.7632 157.123 97.1476C147.137 103.553 137.134 109.461 125.486 112.313C118.502 114.027 111.215 114.837 104.046 113.985C96.8931 113.141 89.8251 111.596 82.698 110.558C70.873 108.828 58.8624 108.17 47.0711 110.55C24.1379 115.183 6.56904 130.653 -7.16218 148.865C-7.40678 149.177 -6.85855 149.498 -6.61395 149.177Z" fill="#F26B5C"/>
<path d="M311.64 108.195C299.317 104.111 286.927 103.925 274.241 106.339C267.291 107.655 260.527 109.79 253.569 111.073C245.843 112.499 238.42 112.348 230.72 110.803C218.481 108.347 206.766 104.195 194.106 106.035C183.124 107.638 173.678 113.293 164.957 119.884C155.443 127.075 146.173 135.286 134.643 139.092C128.149 141.236 121.283 141.65 114.603 140.181C108.412 138.822 102.745 135.944 96.9079 133.565C91.299 131.277 85.5299 129.514 79.4149 129.792C73.6627 130.062 68.0454 131.733 62.757 133.927C53.3526 137.835 44.5639 143.177 36.7874 149.726C28.2771 156.891 20.5596 165.053 11.3745 171.399C6.73562 174.606 1.70871 177.324 -3.72305 178.91C-5.38463 179.391 -23.4933 181.957 -22.4643 178.455C-22.3462 178.066 -22.9619 177.897 -23.0716 178.286C-24.5898 183.442 -5.90756 180.244 -3.05673 179.374C5.68975 176.716 13.2301 171.247 20.121 165.399C27.8638 158.824 34.9656 151.431 43.2144 145.464C53.4454 138.063 66.6031 130.99 79.4234 130.425C93.2895 129.809 104.524 139.692 117.952 141.405C129.018 142.814 139.392 138.797 148.543 132.856C158.555 126.357 167.183 117.842 177.76 112.212C190.774 105.284 204.286 105.241 218.372 108.567C225.313 110.204 232.23 112.17 239.374 112.677C246.77 113.2 253.999 111.791 261.151 110.052C278.231 105.9 294.349 103.148 311.462 108.82C311.859 108.938 312.028 108.33 311.64 108.195Z" fill="#F26B5C"/>
<path d="M-28.3425 204.584C-3.13209 202.6 18.0298 189.207 38.6098 175.661C48.8745 168.901 59.8983 162.732 72.592 163.306C79.7191 163.627 86.551 166.133 93.4841 167.61C99.1267 168.817 104.854 169.627 110.631 169.602C122.785 169.551 136.221 167.374 147.557 162.985C159.104 158.512 167.859 149.879 177.221 142.114C182.467 137.768 187.772 133.911 194.79 133.438C201.149 133.016 207.374 135.05 213.396 136.789C225.879 140.392 238.607 143.557 251.68 141.785C258.714 140.831 265.47 138.603 271.973 135.827C278.375 133.092 284.608 129.21 291.516 127.919C299.52 126.425 306.613 129.497 314.229 131.388C320.361 132.907 326.021 132.738 332.001 130.628C332.203 130.56 332.288 130.358 332.186 130.164C331.604 129.024 331.925 129.354 330.685 128.788C330.314 128.619 329.993 129.168 330.364 129.337C331.9 130.037 327.775 131.269 327.488 131.328C325.591 131.734 323.642 131.928 321.702 131.877C318.354 131.801 315.09 131.008 311.876 130.096C306.385 128.543 300.971 126.535 295.176 126.83C290.183 127.083 285.519 128.889 281.023 130.957C274.756 133.835 268.582 136.848 261.961 138.856C247.429 143.27 233.158 141.591 218.752 137.641C208.749 134.898 197.767 130.257 187.486 134.451C182.585 136.451 178.494 140.165 174.505 143.557C169.284 147.997 164.207 152.638 158.513 156.478C147.194 164.133 133.826 166.606 120.499 168.226C113.372 169.095 106.347 169.171 99.2363 168.049C92.5816 166.994 86.1883 164.96 79.6179 163.576C69.3195 161.407 59.291 163.373 49.9878 168.091C38.0194 174.168 27.4173 182.725 15.702 189.291C2.02978 196.954 -12.6377 202.693 -28.3678 203.934C-28.7474 203.976 -28.7474 204.609 -28.3425 204.584Z" fill="#F26B5C"/>
<path d="M48.1523 210.744C57.6917 206.955 66.9358 203.241 75.463 197.435C85.1119 190.869 94.7356 188.101 106.426 188.278C126.28 188.582 148.53 192.135 166.867 182.556C175.698 177.948 182.69 170.479 192.71 168.352C202.721 166.226 213.062 168.454 222.922 170.361C233.035 172.319 243.088 173.492 253.387 172.344C262.96 171.281 271.892 168.285 280.706 164.529C291.046 160.124 301.615 156.748 312.715 160.833C319.42 163.297 327.66 168.504 334.83 164.808C335.192 164.622 334.872 164.073 334.509 164.259C326.454 168.411 317.185 161.001 309.45 159.119C301.421 157.161 293.256 158.757 285.724 161.744C276.202 165.517 267.127 169.618 256.921 171.23C245.518 173.028 234.35 171.922 223.09 169.745C214.361 168.057 205.344 166.141 196.404 167.129C187.295 168.133 181.036 172.724 173.656 177.712C164.581 183.847 154.974 187.147 144.026 187.907C133.028 188.675 122.029 188.278 111.039 187.789C99.9481 187.299 89.4472 188.076 79.7308 193.899C74.8557 196.819 70.3939 200.254 65.2911 202.811C59.6906 205.621 53.795 207.816 47.9752 210.128C47.6125 210.28 47.7728 210.888 48.1523 210.744Z" fill="#F26B5C"/>
<path d="M81.9593 233.258C94.1386 220.674 111.092 220.522 127.438 219.864C134.177 219.594 140.747 219.299 147.065 216.699C153.205 214.167 158.552 210.167 164.136 206.639C170.858 202.386 177.951 199.238 186.015 198.841C194.525 198.428 202.808 200.799 210.888 203.171C218.209 205.323 225.606 207.559 233.273 207.939C240.99 208.319 248.328 206.335 255.565 203.871C264.531 200.824 273.302 197.668 282.934 198.208C291.968 198.723 301.676 200.816 309.444 205.626C309.79 205.837 310.11 205.297 309.764 205.078C297.298 197.364 280.362 195.659 266.428 199.618C258.087 201.989 250.125 205.677 241.488 206.909C232.438 208.192 223.598 206.192 214.936 203.694C199.915 199.373 185.062 195.035 170.217 202.411C163.782 205.61 158.156 210.159 151.881 213.636C144.273 217.855 136.648 218.834 128.079 219.197C111.362 219.898 93.9615 219.932 81.5038 232.802C81.2255 233.106 81.6725 233.553 81.9593 233.258Z" fill="#F26B5C"/>
<path d="M88.1557 265.043C110.053 264.274 125.892 248.1 145.271 240.243C150.352 238.181 155.698 236.776 161.189 236.45C167.945 236.051 174.532 237.601 181.132 238.758C187.211 239.824 193.389 240.496 199.494 239.189C205.656 237.865 211.409 235.018 216.863 231.935C224.155 227.81 230.897 222.696 239.496 221.866C247.709 221.074 255.808 223.346 263.811 224.806C264.21 224.877 264.306 224.254 263.907 224.182C251.615 221.93 239.177 218.522 227.521 224.956C220.999 228.557 214.84 232.786 207.969 235.731C200.613 238.886 193.321 239.85 185.4 238.798C173.932 237.272 163.506 234.281 151.991 237.316C141.968 239.962 133.075 245.56 124.273 250.849C113.044 257.598 101.488 263.952 88.0824 264.423C87.6754 264.429 87.7497 265.057 88.1557 265.043Z" fill="#F26B5C"/>
</g>
<path d="M123.644 42.0893C124.874 40.8679 128.704 48.7446 129.44 49.7505C136.698 59.6918 145.536 67.3681 153.563 76.6969C155.014 78.3834 156.564 80.3006 156.47 82.5278C156.425 83.5904 155.998 84.6076 155.395 85.4811C154.343 87.0126 152.714 88.1659 150.897 88.529C150.867 88.9298 151.47 88.9865 151.764 89.2626C152.107 89.5878 151.908 90.2192 151.497 90.4499C151.086 90.6806 150.577 90.6125 150.12 90.4877C147.089 89.6709 145.328 86.6231 143.647 84.203C141.595 81.2459 139.62 78.2321 137.734 75.1654C136.43 73.0516 135.167 70.9113 133.945 68.7483C131.347 64.1501 127.362 59.7296 124.949 55.0293C123.95 53.0819 124.519 50.8546 123.52 48.9072C123.294 48.4686 123.064 42.6641 123.644 42.0893ZM139.42 73.6907C139.397 73.7398 139.348 73.8003 139.363 73.8381C139.378 73.8759 139.454 73.8835 139.507 73.9062C139.529 73.857 139.578 73.7965 139.563 73.7587C139.548 73.7247 139.469 73.7133 139.42 73.6907Z" fill="#FC8D6A"/>
<path d="M259.041 175.275C258.83 176.598 258.087 176.568 256.737 176.455C255.323 176.334 253.943 176.591 252.563 176.924C248.333 177.937 244.023 178.421 239.699 178.777C234.284 179.223 228.972 180.191 223.757 181.741C220.092 182.83 216.71 181.734 214.648 178.531C213.931 177.415 213.053 177.075 212.009 176.731C210.146 176.114 208.197 175.978 206.274 175.702C203.793 175.347 203.785 175.366 204.769 173.108C205.652 171.078 206.545 169.051 207.439 167.028C207.62 166.612 207.782 166.279 207.409 165.814C206.998 165.296 207.311 164.615 207.461 164.074C208.347 160.902 207.74 157.763 207.333 154.621C207.118 152.965 206.519 151.361 206.688 149.648C206.734 149.168 206.779 148.691 206.949 148.238C207.096 147.852 207.352 147.591 207.808 147.561C211.447 147.315 215.051 146.789 218.652 146.26C222.015 145.765 225.367 145.137 228.696 144.449C235.702 143 242.692 141.48 249.69 139.983C250.478 139.813 251.263 139.635 252.039 139.427C252.541 139.295 252.82 139.499 253.05 139.915C253.487 140.713 253.725 141.582 253.97 142.445C255.342 147.319 256.594 152.223 257.34 157.245C257.729 159.854 257.695 160.437 258.2 163.023C260.044 168.752 259.248 173.989 259.041 175.275Z" fill="#2F3D4D"/>
<path d="M220.541 194.783C220.801 192.306 220.892 189.811 220.737 187.322C220.477 183.227 218.629 179.627 218.482 175.547C218.373 172.537 219.071 169.553 218.75 166.543C218.305 162.354 212.634 161.491 210.553 160.512C210.037 160.27 205.916 161.268 208.445 157.589C208.717 157.196 208.302 162.94 206.047 167.893C202.899 174.806 200.765 181.265 197.481 188.098C195.317 192.596 178.004 230.167 167.973 254.359C165.734 258.486 171.238 270.672 175.758 272.834C180.082 272.441 179.886 272.048 186.961 270.475C194.037 268.903 195.959 268.129 199.737 266.151C197.378 263.793 197.64 261.202 199.737 257.11C202.263 252.176 215.293 225.64 217.74 220.663C218.132 219.865 218.535 219.037 218.577 218.145C218.656 216.42 217.238 214.987 215.602 214.711C217.193 214.98 219.485 201.567 219.742 200.187C220.077 198.398 220.353 196.594 220.541 194.783Z" fill="#2F3D4D"/>
<path d="M228.446 175.411C229.038 175.661 240.738 174.625 245.643 173.399C246.638 173.154 256.558 170.212 257.339 170.37C258.067 170.518 259.16 170.408 259.036 170.964C260.061 174.175 258.628 178.508 257.799 181.609C256.581 186.169 254.911 190.556 253.708 195.131C250.529 207.224 248.946 219.521 246.714 231.777C245.843 236.526 244.269 239.004 243.368 243.745C234.653 251.308 216.638 260.452 206.418 263.4C206.78 257.713 210.736 237.094 211.551 231.429C212.09 227.682 212.177 223.897 212.629 220.142C214.465 204.97 215.702 189.656 217.998 174.549C218.156 173.505 218.681 172.983 219.431 172.999C220.204 173.021 226.742 174.689 228.446 175.411Z" fill="#2F3D4D"/>
<path d="M230.853 245.39C230.687 245.39 230.544 245.269 230.517 245.103C230.035 242.04 232.467 162.819 232.572 159.45C232.576 159.261 232.742 159.106 232.923 159.121C233.111 159.128 233.259 159.283 233.251 159.472C233.225 160.297 230.717 241.998 231.189 245.001C231.219 245.186 231.091 245.36 230.906 245.39C230.887 245.39 230.872 245.39 230.853 245.39Z" fill="#556D84"/>
<path d="M240.291 194.333C240.132 194.333 239.989 194.22 239.959 194.057L235.966 173.637C235.928 173.452 236.049 173.274 236.234 173.237C236.415 173.202 236.596 173.32 236.633 173.505L240.626 193.925C240.664 194.11 240.543 194.288 240.358 194.326C240.336 194.333 240.313 194.333 240.291 194.333Z" fill="#556D84"/>
<path d="M220.458 184.445C220.341 184.445 220.228 184.384 220.163 184.275C219.73 183.53 218.87 182.142 217.607 180.149C215.707 177.151 213.531 173.789 213.509 173.755C213.407 173.596 213.452 173.388 213.607 173.282C213.765 173.18 213.972 173.225 214.078 173.38C214.101 173.414 216.276 176.776 218.18 179.779C219.447 181.779 220.314 183.174 220.748 183.927C220.842 184.089 220.789 184.297 220.627 184.392C220.571 184.43 220.514 184.445 220.458 184.445Z" fill="#556D84"/>
<path d="M211.522 233.52C211.514 233.52 211.507 233.52 211.499 233.52C211.31 233.509 211.171 233.346 211.182 233.157C212.408 214.053 217.909 180.89 217.962 180.558C217.992 180.372 218.165 180.248 218.354 180.278C218.538 180.308 218.663 180.486 218.633 180.671C218.576 181.004 213.086 214.133 211.861 233.203C211.85 233.38 211.703 233.52 211.522 233.52Z" fill="#556D84"/>
<path d="M189.711 234.382C189.685 234.382 189.658 234.378 189.628 234.371C189.447 234.326 189.334 234.14 189.379 233.959C192.969 219.309 211.021 166.623 211.202 166.094C211.263 165.916 211.455 165.821 211.632 165.882C211.809 165.942 211.904 166.135 211.843 166.313C211.662 166.842 193.617 219.499 190.039 234.121C190.001 234.276 189.862 234.382 189.711 234.382Z" fill="#556D84"/>
<path d="M183.179 242.025C183.145 242.025 183.107 242.017 183.074 242.006C182.896 241.945 182.798 241.752 182.859 241.575C183.206 240.527 184.352 236.099 185.675 230.975C189.89 214.662 191.18 210.094 191.666 209.735C191.817 209.622 192.028 209.656 192.141 209.807C192.243 209.947 192.224 210.143 192.1 210.257C191.519 211.089 188.401 223.151 186.335 231.142C185.008 236.281 183.862 240.72 183.503 241.786C183.454 241.938 183.322 242.025 183.179 242.025Z" fill="#556D84"/>
<path d="M281.685 150.454C281.647 151.543 280.98 152.397 280.135 153.086C277.609 155.146 274.834 156.761 271.693 157.706C271.094 157.888 250.315 167.64 249.738 167.886C249.308 168.068 252.687 160.444 252.487 159.934C252.294 159.45 267.621 155.048 267.968 154.867C270.939 153.309 275.264 153.944 277.971 151.966C278.884 151.297 279.886 150.643 279.411 149.198C279.298 148.858 279.607 148.578 279.898 148.408C280.241 148.208 280.592 148.257 280.893 148.521C281.455 149.002 281.666 149.641 281.685 150.454Z" fill="#BAD7E0"/>
<path d="M217.851 143.216C218.029 143.22 218.21 143.227 218.387 143.227C218.688 143.227 218.922 143.356 219.013 143.643C219.118 143.972 218.877 144.165 218.632 144.271C215.137 145.757 212.558 148.54 209.756 150.915C205.156 154.81 201.612 159.62 199.802 165.519C199.063 167.924 199.263 170.56 198.437 172.923C198.287 173.35 197.061 173.921 196.865 173.29C196.805 173.101 196.861 172.896 196.907 172.704C197.238 171.263 196.605 169.811 196.3 168.393C195.953 166.774 196.326 165.22 196.477 163.602C196.763 160.524 197.027 157.442 197.118 154.352C197.242 149.996 196.884 145.576 195.625 141.386C194.305 136.992 192.933 132.613 191.583 128.227C191.47 127.864 191.432 127.47 190.848 127.546C190.301 127.618 190.263 127.103 190.203 126.74C189.415 122.199 188.555 117.669 187.903 113.108C187.661 111.403 187.612 109.648 187.473 107.916C187.266 105.322 187.318 102.691 186.576 100.165C186.27 99.1322 185.822 98.1415 185.524 97.1054C185.052 95.4605 185.46 93.8231 185.731 92.2047C185.927 91.0476 186.097 89.8942 186.044 88.7182C185.629 79.3667 188.291 70.764 192.375 62.5054C192.601 62.0478 192.823 61.6016 192.933 61.0911C193.178 59.9605 194.041 59.3365 194.991 58.8563C195.681 58.5046 196.428 58.2664 197.193 58.1C199.659 57.5517 201.043 58.0319 202.419 60.1722C204.383 63.2276 206.178 66.3965 207.279 69.8829C208.934 75.1126 210.786 80.2856 211.819 85.6968C212.256 87.996 212.354 90.3367 212.644 92.6547C212.724 93.2786 212.769 93.9252 212.991 94.5038C213.915 96.9125 214.311 99.4121 214.428 101.972C214.564 104.978 215.254 107.905 215.766 110.855C216.732 116.436 217.836 121.987 218.851 127.557C219.427 130.741 219.284 134.001 219.001 137.238C218.824 139.276 218.523 141.28 217.866 143.224C217.848 143.231 217.821 143.239 217.806 143.25C217.799 143.258 217.802 143.28 217.799 143.296C217.814 143.273 217.833 143.246 217.851 143.216Z" fill="#2F3D4D"/>
<path d="M155.323 52.2918C155.292 52.4165 155.24 52.7115 155.149 52.9951C154.768 54.1976 154.448 55.419 154.233 56.6631C154.161 57.0677 153.935 57.3815 153.664 57.6614C152.148 59.242 150.572 60.7546 148.856 62.1121C148.366 62.5016 147.846 62.91 147.171 62.3882C146.873 62.1575 146.756 62.4789 146.639 62.668C145.991 63.7041 144.841 63.515 143.906 63.6663C143.242 63.7722 143.118 63.0386 143.389 62.4714C144.023 61.1516 144.686 59.8433 145.376 58.55C146.104 57.1887 147.503 56.5156 148.377 55.2866C149.558 53.6228 151.202 52.3749 152.808 51.1233C153.377 50.6809 153.988 50.5523 154.651 50.8548C155.179 51.1006 155.334 51.5695 155.323 52.2918Z" fill="#556D84"/>
<path d="M130.826 24.642C130.928 23.6815 130.992 22.774 130.551 21.8702C130.295 21.3446 130.348 20.6375 130.363 20.0136C130.431 17.4082 130.6 14.8141 131.158 12.2541C131.467 10.836 131.973 9.57684 133.036 8.57476C133.36 8.26846 133.643 7.85251 134.171 7.9962C134.702 8.14368 134.887 8.59745 134.974 9.08903C135.268 10.7075 135.536 12.3335 135.852 13.9519C136.584 17.6918 137.451 21.4051 138.612 25.0277C140.403 30.6129 142.119 36.2397 144.826 41.4769C145.098 42.0025 145.116 42.2332 144.374 42.2673C142.926 42.3315 141.731 43.1861 140.505 43.8328C139.37 44.4264 138.594 44.4264 137.308 43.8328C134.846 42.6945 133.978 40.7433 133.398 38.4291C132.519 34.9275 131.335 31.5469 129.65 28.344C129.062 27.2285 128.636 26.0412 128.251 24.8387C128.048 24.2072 128.085 23.4282 128.613 23.2429C129.126 23.0614 129.978 23.069 130.321 23.9084C130.434 24.1769 130.657 24.4 130.826 24.642Z" fill="#F8C1A9"/>
<path d="M130.898 52.7303C131.663 53.4299 130.845 53.7551 130.547 54.1521C130.178 54.6475 129.623 54.5984 129.077 54.3639C127.248 53.5887 125.834 52.3257 124.823 50.6354C124.443 50.0001 124.058 49.7128 123.319 49.9132C122.433 50.1552 121.898 49.8375 121.381 48.9943C119.375 45.712 118.237 42.0932 117.041 38.4819C116.63 37.2378 116.208 35.9635 116.004 34.7081C115.71 32.9081 115.507 31.0325 116.012 29.1985C116.118 28.8204 116.17 28.4422 116.182 28.0452C116.216 26.9145 116.136 25.7574 116.841 24.7516C117.034 24.4755 116.97 24.1163 116.973 23.7835C116.977 23.0651 116.853 22.3504 116.951 21.6243C117.041 20.9475 117.335 20.4332 118.018 20.3765C118.761 20.316 119.315 20.7546 119.462 21.4769C120.175 24.918 121.724 28.1095 122.414 31.5544C122.459 31.7737 122.584 31.9779 122.659 32.1632C122.923 32.1632 122.95 31.9892 123.036 31.8758C123.391 31.4107 123.772 30.9229 124.435 31.1497C125.091 31.3766 125.299 31.993 125.276 32.6094C125.189 34.9728 125.634 37.2643 126.117 39.5521C126.705 42.3617 127.881 44.9595 129.077 47.5422C129.895 49.3157 130.875 51.0022 132.195 52.4618C132.413 52.7039 132.576 52.9875 132.304 53.2446C132.055 53.4791 131.938 53.1009 131.761 53.0102C131.505 52.8929 131.339 52.5677 130.898 52.7303Z" fill="#F8C1A9"/>
<path d="M140.923 37.9412C140.682 37.2794 141.21 36.9353 141.221 36.3681C141.232 35.8387 141.749 35.9332 142.077 36.2849C142.673 36.9278 143.057 37.7181 143.502 38.463C145.101 41.1403 146.669 43.8402 148.283 46.5061C150.263 49.777 152.789 52.6358 155.183 55.5929C159.632 61.0948 165.054 65.6401 169.922 70.7299C170.397 71.2291 170.887 71.7169 171.392 72.1858C173.349 73.9895 173.409 76.1903 172.738 78.5461C172.64 78.8978 172.455 79.2041 172.21 79.4763C171.709 80.0322 170.992 80.4028 171.26 81.4351C171.403 81.9872 170.593 82.2897 169.978 81.9418C169.586 81.7225 169.232 81.4351 168.836 81.2271C168.432 81.0154 168.097 80.8112 167.535 81.1213C166.924 81.4616 166.196 81.0608 165.597 80.7242C163.169 79.3553 161.193 77.4192 159.263 75.4529C156.823 72.9723 154.553 70.3404 152.291 67.6972C149.821 64.812 147.861 61.5864 145.908 58.3495C142.948 53.4412 140.048 48.4989 137.579 43.3184C137.266 42.6604 136.783 42.0176 137.417 41.2461C137.609 41.0117 137.349 40.6676 137.273 40.3878C137.028 39.4878 137.04 38.6332 137.748 37.9601C138.476 37.2719 139.37 37.5252 140.222 37.6651C140.395 37.6992 140.557 37.7975 140.923 37.9412Z" fill="#F8C1A9"/>
<path d="M170.975 31.0892C168.181 31.0363 165.048 27.6557 165.15 24.8725C165.252 22.1424 166.654 20.0626 168.37 18.1227C168.702 17.7483 169.147 17.5026 169.656 17.737C170.187 17.9828 170.79 18.1908 170.858 18.9357C170.911 19.5181 171.216 20.1042 170.824 20.6789C170.689 20.8756 170.794 21.0042 170.945 21.1289C171.827 21.8436 171.963 22.857 172.001 23.8894C172.057 25.4625 171.982 27.0204 171.058 28.3893C170.772 28.8128 170.975 28.9867 171.379 29.0435C171.91 29.1153 172.446 29.172 172.981 29.2136C173.234 29.2325 173.475 29.2477 173.577 29.5161C173.664 29.7506 173.486 29.9018 173.354 30.0644C172.747 30.8018 172.046 31.1081 170.975 31.0892Z" fill="#4A2533"/>
<path d="M211.873 155.668C211.858 155.653 211.843 155.638 211.828 155.623C212.164 158.069 212.235 160.554 212.039 163.019C211.968 163.923 211.587 165.084 210.682 165.065C210.222 165.058 209.845 164.713 209.539 164.373C206.55 161.015 206.452 156.062 206.323 151.562C205.765 132.246 201.282 110.261 197.429 93.9403C195.751 86.8464 191.555 79.7297 192.527 72.2425C193.206 67.0279 194.005 61.8285 194.929 56.6517C194.993 56.3 195.061 55.9294 195.28 55.6458C196.686 53.7892 199.71 58.3117 201.486 56.8067C201.942 56.421 202.051 55.7744 202.153 55.1883C203.051 50.0266 205.46 45.141 209.004 41.2953C209.634 40.6147 210.343 39.934 211.244 39.7185C212.416 39.4349 213.615 39.9907 214.671 40.5769C224.259 45.9087 231.359 54.969 236.215 64.8271C241.072 74.6853 243.884 85.4056 246.671 96.039C248.865 104.422 251.06 112.81 253.258 121.193C254.355 125.387 255.452 129.576 256.549 133.77C257.111 135.914 257.673 138.058 258.235 140.206C258.71 142.025 259.238 143.42 257.782 144.948C253.759 149.164 248.609 152.129 243.451 154.723C238.127 157.4 232.701 159.972 227.2 162.263C223.826 163.67 218.626 166.544 215.847 162.603C214.309 160.41 213.747 157.567 211.873 155.668Z" fill="white"/>
<path d="M211.521 154.893C211.405 154.893 211.291 154.833 211.227 154.723C210.571 153.596 208.871 138.429 207.185 122.989C206.756 119.049 206.446 116.202 206.375 115.789C206.107 114.224 198.74 83.5868 198.664 83.2767C198.619 83.0952 198.732 82.9099 198.913 82.8645C199.094 82.8229 199.279 82.9326 199.324 83.1141C199.63 84.3771 206.771 114.084 207.042 115.672C207.118 116.107 207.412 118.814 207.86 122.914C208.935 132.768 211.171 153.278 211.812 154.379C211.906 154.541 211.853 154.749 211.691 154.844C211.638 154.878 211.582 154.893 211.521 154.893Z" fill="#B6DADD"/>
<path d="M204.915 91.1231C204.429 90.3819 203.897 90.9075 203.784 91.5541C203.599 92.6129 203.524 93.7814 204.101 94.6889C204.474 95.2713 204.927 94.9915 205.134 94.4658C205.549 93.3995 205.56 92.1062 204.915 91.1231Z" fill="#B6DADD"/>
<path d="M209.37 110.261C209.302 109.966 209.211 109.679 209.14 109.425C209.015 108.983 208.623 107.224 207.824 107.833C207.677 107.947 207.59 108.121 207.537 108.298C207.198 109.384 207.726 110.586 208.212 111.539C208.378 111.868 208.793 112.363 209.144 111.959C209.555 111.49 209.509 110.858 209.37 110.261Z" fill="#B6DADD"/>
<path d="M211.866 123.367C211.798 122.864 211.738 122.305 211.477 121.855C211.387 121.7 211.232 121.567 211.055 121.571C210.912 121.575 210.784 121.666 210.686 121.772C210.354 122.127 210.256 122.653 210.275 123.14C210.301 123.98 210.395 124.853 210.705 125.64C210.814 125.92 211.161 126.718 211.575 126.498C211.855 126.351 211.896 125.803 211.922 125.53C211.99 124.816 211.964 124.093 211.866 123.382C211.87 123.379 211.87 123.371 211.866 123.367Z" fill="#B6DADD"/>
<path d="M213.43 139.272C213.294 139.249 213.064 139.397 212.996 139.514C212.589 140.198 212.778 140.815 212.951 141.56C213.128 142.308 213.385 143.227 213.898 143.817C213.943 143.87 213.996 143.931 214.067 143.931C214.701 143.931 214.557 141.84 214.516 141.571C214.395 140.751 214.064 139.385 213.43 139.272Z" fill="#B6DADD"/>
<path d="M64.841 162.932C64.7241 163.178 62.443 163.757 61.5381 163.606C57.2134 162.872 53.13 161.132 49.1748 159.238C46.1208 157.775 43.1157 156.209 40.1635 154.541C39.432 154.129 38.7081 153.713 37.9842 153.29C37.3847 152.938 36.4496 152.643 36.2498 151.94C35.8275 150.457 36.7399 148.865 37.4751 147.644C38.1199 146.578 38.7646 145.508 39.4659 144.483C41.4831 141.545 44.2846 138.792 47.8099 138.33C48.5414 138.236 50.3964 137.389 50.6679 137.241C51.3315 136.886 52.1459 137.2 52.8171 137.551C56.5799 139.518 59.6717 142.543 62.6277 145.595C64.0303 147.039 65.4141 148.502 66.7677 149.992C67.699 151.017 68.6529 152.129 68.8942 153.494C69.1317 154.851 65.169 162.248 64.841 162.932Z" fill="#D93D3D"/>
<path d="M94.4385 160.535C94.7703 159.934 94.5592 159.192 94.5969 158.508C94.6383 157.824 95.2718 157.033 95.875 157.351C96.2219 157.532 96.3237 157.975 96.384 158.361C97.3078 164.479 96.2822 170.699 95.9165 176.878C94.627 198.576 101.474 220.104 100.577 241.82C100.554 242.327 100.52 242.86 100.241 243.28C99.9056 243.779 99.2948 244.006 98.7179 244.176C95.5546 245.11 92.263 245.405 89.5294 247.406C86.5621 249.576 84.4242 251.815 80.6613 252.488C72.4154 253.959 63.898 252.299 55.9801 249.569C51.4895 248.018 46.3278 249.769 43.6809 245.814C41.7655 242.955 41.5167 235.411 38.851 233.24C36.585 231.391 33.4517 231.089 30.5296 231.134C27.6076 231.179 24.6101 231.49 21.8275 230.597C19.0449 229.705 16.5036 227.171 16.7525 224.252C16.8844 222.709 17.582 220.72 16.2585 219.922C15.8589 219.68 15.3725 219.646 14.905 219.608C10.4898 219.23 6.16887 217.767 2.43614 215.373C1.13157 214.537 -0.24841 213.244 0.0381427 211.716C0.211583 210.786 0.96944 210.09 1.68205 209.47C15.2518 197.672 28.9423 185.783 44.6273 177.007C49.0085 174.556 53.7555 172.148 56.3571 167.844C58.7589 163.866 58.8946 158.947 60.4744 154.575C60.7497 153.815 61.0852 153.048 61.6659 152.488C62.8573 151.346 64.818 151.38 66.2922 152.125C67.9399 152.961 68.8448 154.613 70.3794 155.525C71.8159 156.375 73.7991 156.67 75.0471 157.945C75.6052 158.512 76.0803 159.185 76.7665 159.586C77.4829 160.005 78.3425 160.081 79.172 160.142C84.2508 160.512 89.3484 160.641 94.4385 160.535Z" fill="white"/>
<path d="M62.5404 242.025C62.4763 242.025 62.4122 242.006 62.3557 241.968C62.1973 241.866 62.1558 241.654 62.2576 241.495C72.6301 225.591 83.998 176.088 84.1111 175.589C84.1526 175.407 84.3373 175.294 84.5183 175.332C84.6993 175.373 84.8161 175.555 84.7747 175.74C84.6616 176.239 73.2673 225.859 62.827 241.866C62.7591 241.972 62.6498 242.025 62.5404 242.025Z" fill="#9DD9DE"/>
<path d="M71.8569 228.313C71.8116 228.313 71.7664 228.306 71.7212 228.283C71.5477 228.207 71.4723 228.007 71.5477 227.833L77.4786 214.242C77.554 214.068 77.7538 213.993 77.9273 214.068C78.1007 214.144 78.1761 214.344 78.1007 214.518L72.1698 228.109C72.1133 228.237 71.9889 228.313 71.8569 228.313Z" fill="#9DD9DE"/>
<path d="M39.7929 230.132C39.7363 230.132 39.6798 230.117 39.6232 230.087C39.4611 229.992 39.4045 229.784 39.4988 229.622C43.3333 222.887 71.3024 183.749 71.5814 183.356C71.6908 183.205 71.9019 183.167 72.0565 183.276C72.2073 183.386 72.245 183.598 72.1357 183.753C71.8529 184.146 43.9102 223.258 40.0908 229.958C40.0229 230.072 39.9098 230.132 39.7929 230.132Z" fill="#9DD9DE"/>
<path d="M41.9695 220.304C41.8866 220.304 41.8074 220.274 41.7395 220.213C41.6 220.085 41.5925 219.869 41.7169 219.733L49.582 211.115C49.7102 210.975 49.9251 210.968 50.0609 211.092C50.2004 211.221 50.2079 211.437 50.0835 211.573L42.2184 220.191C42.1543 220.266 42.0638 220.304 41.9695 220.304Z" fill="#9DD9DE"/>
<path d="M19.101 218.485C19.003 218.485 18.9087 218.443 18.8409 218.364C18.7202 218.22 18.7353 218.005 18.8786 217.884C19.3009 217.525 61.2093 181.832 69.919 173.002C70.0509 172.87 70.2658 172.866 70.3978 172.998C70.5298 173.131 70.5335 173.346 70.4016 173.479C61.6693 182.327 19.742 218.039 19.3197 218.398C19.2556 218.459 19.1802 218.485 19.101 218.485Z" fill="#9DD9DE"/>
<path d="M46.5692 189.724C46.4599 189.724 46.3543 189.671 46.2902 189.576C46.1846 189.421 46.2223 189.21 46.3769 189.104C46.5768 188.964 66.3678 175.245 69.9421 172.137C70.0854 172.015 70.2966 172.027 70.421 172.171C70.5454 172.314 70.5265 172.526 70.387 172.651C66.7863 175.782 47.5797 189.096 46.7615 189.663C46.705 189.705 46.6371 189.724 46.5692 189.724Z" fill="#9DD9DE"/>
<path d="M17.7724 205.863C17.6819 205.863 17.5952 205.829 17.5273 205.761C17.3954 205.625 17.3991 205.409 17.5349 205.281C17.7611 205.061 40.0708 183.409 42.8194 180.648C42.9514 180.516 43.1663 180.516 43.2983 180.648C43.4302 180.781 43.4302 180.996 43.2983 181.129C40.5458 183.889 18.2286 205.549 18.0062 205.768C17.9421 205.833 17.8591 205.863 17.7724 205.863Z" fill="#9DD9DE"/>
<path d="M95.8112 195.033C95.649 195.033 95.5058 194.916 95.4756 194.749C94.2653 187.822 92.8363 181.631 92.825 181.567C92.7835 181.386 92.8966 181.2 93.0776 181.159C93.2586 181.117 93.4433 181.231 93.4848 181.412C93.4999 181.473 94.9326 187.682 96.143 194.628C96.1769 194.813 96.0525 194.991 95.8677 195.021C95.8489 195.033 95.83 195.033 95.8112 195.033Z" fill="#9DD9DE"/>
<path d="M94.0014 196.852C93.843 196.852 93.6998 196.738 93.6696 196.576L92.3085 189.448C92.2745 189.262 92.3952 189.085 92.5762 189.051C92.7609 189.013 92.9381 189.138 92.9721 189.319L94.3332 196.447C94.3671 196.632 94.2465 196.81 94.0655 196.844C94.0429 196.852 94.024 196.852 94.0014 196.852Z" fill="#9DD9DE"/>
<path d="M89.8994 171.928C73.7544 171.928 61.3912 165.477 61.263 165.413C61.0971 165.326 61.033 165.118 61.1197 164.952C61.2064 164.785 61.41 164.721 61.5797 164.808C61.7079 164.876 74.5915 171.595 91.1814 171.232C91.3699 171.24 91.5245 171.376 91.5283 171.565C91.532 171.754 91.385 171.909 91.1965 171.913C90.7629 171.924 90.3293 171.928 89.8994 171.928Z" fill="#9DD9DE"/>
<path d="M149.318 90.6239C149.639 88.8429 150.868 87.266 151.92 85.8631C154.544 82.3653 158.522 80.6296 161.84 78.0431C166.138 74.6928 170.395 71.3008 174.493 67.6933C177.438 65.1031 179.825 62.0212 182.547 59.2456C184.444 57.3133 186.461 55.6306 189.07 54.7873C189.907 54.5151 190.601 54.7231 191.162 55.3924C191.694 56.0276 191.856 57.147 191.411 57.8427C190.397 59.4309 186.536 82.3691 185.247 83.6018C182.577 86.1505 179.885 88.6651 176.88 90.8168C172.299 94.099 167.488 97.0221 162.579 99.7863C161.614 100.331 160.622 100.822 159.657 101.371C158.454 102.055 157.104 101.889 155.815 102.029C155.336 102.082 154.895 101.654 154.521 101.288C153.134 99.93 151.999 98.3531 151.109 96.6288C150.261 94.9877 149.103 93.1348 149.246 91.1571C149.265 90.9756 149.288 90.7979 149.318 90.6239Z" fill="#556D84"/>
<path d="M195.203 50.0189C196.843 51.7357 199.905 54.6058 197.454 56.9578C196.055 58.3002 195.897 60.0434 195.734 61.8169C195.252 67.0429 194.943 72.2764 194.769 77.525C194.513 85.3147 195.437 93.0817 196.617 100.769C197.767 108.272 198.581 115.687 199.022 123.273C199.516 131.754 200.263 140.384 200.044 148.877C199.995 150.786 199.984 152.681 199.429 154.564C199.075 155.77 199.294 157.124 199.196 158.41C198.838 163.102 198.483 167.795 198.423 172.507C198.419 172.772 198.359 173.04 198.295 173.301C198.181 173.766 197.948 174.186 197.424 174.193C195.067 174.227 194.215 164.392 194.132 162.626C193.382 147.012 189.536 131.751 186.139 116.561C184.393 108.752 182.568 100.958 181.252 93.0666C180.434 88.1546 179.427 83.2009 179.676 78.1943C179.925 73.2066 181.686 68.3248 183.635 63.7757C184.747 61.1817 186.384 58.875 187.832 56.4662C189.166 54.2503 190.015 51.5466 192.16 49.9395C193.144 49.2059 194.321 49.0962 195.203 50.0189Z" fill="#556D84"/>
<path d="M136.384 71.9361C136.667 71.4256 138.13 70.8924 138.62 70.5975C139.816 69.879 141.116 69.1983 142.134 68.2341C142.715 67.682 143.194 66.9938 143.371 66.211C143.443 65.882 143.462 65.5417 143.582 65.2279C144.057 63.9951 146.644 64.3203 147.24 65.3073C148.276 67.0278 149.389 68.6916 150.682 70.2345C151.18 70.8281 151.134 74.2617 151.9 74.9461C154.445 77.2339 160.134 81.1703 162.491 83.6396C164.206 85.4396 162.487 85.8782 164.003 87.8559C164.297 88.2416 164.576 88.6348 164.633 89.1264C164.666 89.4176 158.012 101.779 156.982 102.021C155.12 102.46 152.518 100.391 151.696 99.6501C146.21 94.6851 141.95 88.7748 138.439 82.2972C138.081 81.6317 137.825 81.4161 137.097 81.8283C136.045 82.422 135.155 82.1157 134.646 81.0229C133.707 79.0149 132.976 76.92 132.256 74.8289C131.886 73.7512 132.139 72.7718 133.153 72.076C133.493 71.8416 133.745 71.4785 134.077 71.2214C135.155 70.3971 135.906 70.6164 136.384 71.9361Z" fill="#556D84"/>
<path d="M200.614 161.11C200.445 161.11 200.298 160.981 200.279 160.807C200.252 160.565 197.549 136.508 195.279 125.606C193.002 114.674 190.295 89.0207 190.268 88.7598C190.249 88.5745 190.385 88.4043 190.57 88.3854C190.759 88.3665 190.924 88.5026 190.943 88.6879C190.97 88.9451 193.673 114.564 195.943 125.466C198.22 136.398 200.924 160.49 200.954 160.732C200.976 160.917 200.841 161.087 200.656 161.106C200.641 161.11 200.63 161.11 200.614 161.11Z" fill="#A2A3B7"/>
<path d="M191.082 64.5926C191.071 64.5926 191.06 64.5926 191.048 64.5926C190.86 64.5737 190.724 64.4073 190.743 64.222C190.766 63.9838 191.324 58.3381 192.896 54.3336C192.964 54.1597 193.164 54.0727 193.337 54.1407C193.51 54.2088 193.597 54.4054 193.529 54.5832C191.991 58.4969 191.425 64.2296 191.422 64.2863C191.403 64.4603 191.256 64.5926 191.082 64.5926Z" fill="#A2A3B7"/>
<path d="M163.949 93.3692C163.938 93.3692 163.93 93.3692 163.919 93.3692C163.731 93.3541 163.595 93.1877 163.61 93.0024C163.946 89.0924 163.097 84.5358 163.09 84.4904C163.056 84.3051 163.176 84.1274 163.361 84.0934C163.546 84.0593 163.723 84.1803 163.757 84.3656C163.765 84.411 164.628 89.0584 164.285 93.0629C164.274 93.2331 164.123 93.3692 163.949 93.3692Z" fill="#A2A3B7"/>
<path d="M164.659 85.746L168.053 90.745L164.659 85.746Z" fill="#9B9960"/>
<path d="M137.922 80.2629C137.767 80.2629 137.632 80.157 137.594 80.002C137.549 79.8204 137.662 79.6352 137.843 79.5898C142.865 78.3684 146.507 72.6963 147.706 70.8282C147.951 70.4501 148.053 70.2913 148.129 70.2081C148.257 70.0719 148.472 70.0644 148.607 70.193C148.743 70.3215 148.751 70.5371 148.622 70.6732C148.577 70.7224 148.423 70.9644 148.276 71.195C147.043 73.116 143.287 78.9621 138.001 80.2477C137.979 80.2591 137.948 80.2629 137.922 80.2629Z" fill="#A2A3B7"/>
<path d="M201.774 59.7788C199.041 58.1037 192.748 53.9176 190.976 51.161C190.599 50.5786 191.413 50.5824 191.402 50.2459C191.353 48.7295 191.752 47.2699 191.982 45.7876C192.45 42.7549 193.136 39.7562 194.026 36.8218C194.761 34.4017 197.423 25.6363 197.525 24.5057C197.563 24.0822 198.769 23.7797 199.06 24.0028C199.791 24.57 200.078 25.3679 200.39 26.1771C200.975 27.6934 201.439 29.2854 202.257 30.6997C204.38 34.3752 206.352 38.3041 210.277 40.331C211.001 40.7053 212.531 42.0477 212.554 42.2822C212.686 43.7494 202.046 59.9414 201.774 59.7788Z" fill="#E7AA90"/>
<path d="M172.013 43.1935C172.288 41.2952 172.427 38.1566 171.967 36.368C171.538 34.7004 170.346 33.7891 169.807 32.1593C169.441 31.0589 169.449 29.8715 169.456 28.7144C169.483 24.8385 169.581 20.7205 171.707 17.4874C173.249 15.1391 175.742 13.5207 178.407 12.6471C181.073 11.7774 183.923 11.6035 186.725 11.698C190.295 11.819 194.055 12.4543 196.796 14.7534C199.974 17.4193 201.177 22.131 199.88 26.0788C199.571 27.0241 199.133 27.9279 198.884 28.8921C198.688 29.6598 198.613 30.4652 198.319 31.2026C197.897 32.2576 197.048 33.1198 196.769 34.2202C196.49 35.3206 196.818 36.4701 197.056 37.5781C197.719 40.6902 197.633 44.0178 196.441 46.9673C195.235 49.9585 192.988 52.3899 190.793 54.7495C190.13 55.4604 189.451 56.1865 188.603 56.6629C187.754 57.1394 186.695 57.336 185.805 56.9427C185.341 56.7385 184.414 55.018 184.04 54.6777C182.924 53.6605 182.351 54.0121 181.235 52.9912C180.96 52.7416 180.67 52.4618 180.621 52.0912C180.549 51.5807 180.964 51.1458 181.314 50.7677C181.846 50.2005 183.769 46.8842 182.77 46.1884C182.212 45.8027 181.024 47.1905 180.571 47.5383C179.825 48.1169 179.075 48.7711 178.147 48.9412C177.22 49.1114 176.081 48.5291 176.062 47.5837C176.043 46.5287 176.707 44.9405 174.987 45.5947C173.807 46.0447 171.926 46.9522 171.892 44.8687C171.877 44.3241 171.933 43.7607 172.013 43.1935Z" fill="#F8C1A9"/>
<path d="M92.9556 73.9592C92.9782 73.8041 94.1018 73.3579 94.2753 73.2709C94.69 73.0554 95.1425 72.7567 95.5949 72.6357C95.8589 72.5638 96.1567 72.5752 96.3867 72.7264C96.907 73.0667 96.9975 73.7171 97.631 73.9894C98.0721 74.1785 98.7282 74.1218 99.1014 74.4621C99.667 74.9839 98.796 75.2524 98.3813 75.3205C97.6347 75.4453 96.9297 75.5587 96.217 75.8385C94.6222 76.4587 93.1969 77.5326 92.1864 78.9166C90.1429 81.7186 89.8903 85.3904 89.1211 88.7748C88.9816 89.3874 88.5178 90.1626 87.9409 89.913C87.7449 89.826 87.6167 89.6369 87.4659 89.4819C86.7947 88.7899 85.6975 88.8428 84.7361 88.9147C81.3201 89.1643 77.8739 89.0206 74.4918 88.4798C73.2174 88.2756 71.7809 87.8937 71.1964 86.7404C70.5064 85.3828 71.3736 83.7946 72.1089 82.4636C73.7716 79.4573 74.8802 76.1146 75.0988 72.6848C75.4156 67.7576 73.9112 62.8531 74.1939 57.9221C74.209 57.6726 74.2354 57.4041 74.4126 57.2264C74.5446 57.094 74.7369 57.0373 74.9216 57.0259C75.868 56.9654 76.5768 57.8541 77.0557 58.6746C78.2057 60.6448 79.0616 62.785 79.5894 65.0047C79.6384 65.2089 79.7025 65.4358 79.8873 65.5341C80.1211 65.6551 80.3925 65.5001 80.6263 65.3791C81.8743 64.7325 83.4579 65.0615 84.6116 65.8631C85.3808 66.3963 85.9992 67.1639 86.5233 67.958C86.938 68.5858 87.4093 69.9395 88.3218 69.8903C88.7855 69.8639 89.2116 69.6294 89.6678 69.5387C90.7499 69.3231 91.7302 69.9017 92.3222 70.7865C92.9255 71.7016 93.1253 72.8814 92.9556 73.9592Z" fill="#8A6C79"/>
<path d="M68.0898 57.3928V56.1298C68.3952 55.9218 68.2934 55.5853 68.3312 55.3054C68.6479 52.9005 69.3416 50.6165 70.4049 48.4384C73.474 42.1499 78.9562 38.4592 86.6328 39.5029C89.6002 39.9075 92.2508 41.1213 94.9014 42.3805C95.5386 42.683 96.0853 43.1519 96.4774 43.7418C97.503 45.2809 98.8566 46.6498 99.5013 48.393C101.168 52.8929 105.617 54.5378 106.107 54.8365C107.314 55.5815 106.774 57.51 105.666 58.0054C104.131 58.6898 103.347 59.6616 104.531 60.6373C105.606 61.5259 105.926 62.6376 104.671 63.3183C103.656 63.8666 102.631 63.9876 101.503 64.2977C101.149 64.396 100.994 65.2052 101.266 65.451C102.084 66.1997 102.955 66.7291 103.852 66.9371C104.889 67.1753 105.609 68.1245 105.195 69.0585C104.595 70.4122 104.603 71.7887 104.569 73.1992C104.542 74.2164 103.634 75.0974 102.699 75.1844C101.749 75.2752 100.73 75.1806 99.7615 75.1163C98.012 74.9953 97.9856 74.0197 96.4774 75.1163C95.2143 76.0352 86.7194 73.1992 84.8342 65.451C78.0812 65.0615 75.0086 65.9766 73.2365 64.9027C70.5859 63.2918 68.7195 61.0759 68.3048 57.8617C68.2784 57.6802 68.2859 57.4873 68.0898 57.3928Z" fill="#8A6C79"/>
<path d="M177.377 30.5975C177.806 30.6542 178.455 30.6353 178.817 30.9076C179.711 31.5807 178.534 32.2235 177.961 32.3672C177.181 32.5639 176.438 32.9004 175.774 33.3542C175.303 33.6794 174.688 34.2088 174.198 33.6151C173.772 33.097 173.693 32.4844 174.16 31.887C174.798 31.0815 176.087 30.5559 177.377 30.5975Z" fill="#755462"/>
<path d="M95.091 51.3426C94.5329 51.2934 94.6649 50.7148 94.8836 50.1552C95.4039 48.809 95.5924 47.909 96.4634 47.5309C97.0516 47.2775 97.4173 46.7973 97.9716 47.0658C98.3448 47.2473 98.6389 48.1057 98.3599 48.393C97.5719 49.2061 96.7386 49.9737 95.9167 50.7527C95.7546 50.9039 95.3096 51.3577 95.091 51.3426Z" fill="#4A2533"/>
<path d="M179.586 36.5269C179.574 36.5685 179.559 36.6063 179.537 36.6404C178.809 37.7559 177.387 35.4643 177.233 35.0257C177.139 34.7572 177.108 34.4207 177.372 34.2392C177.557 34.1144 177.832 34.1144 178.051 34.1976C178.7 34.4471 179.201 35.2412 179.42 35.7593C179.506 35.9635 179.646 36.2849 179.586 36.5269Z" fill="#4A2533"/>
<path d="M97.8801 50.866C97.9404 50.6353 97.9593 50.3857 98.2609 50.3366C98.5965 50.2836 98.702 50.5483 98.8076 50.7412C99.162 51.384 99.4373 52.0458 99.5014 52.7453C99.5278 53.0516 99.5542 53.581 99.1997 53.6567C98.7963 53.7474 98.5399 53.1726 98.4117 52.9382C98.0385 52.2727 97.8273 51.5769 97.8801 50.866Z" fill="#4A2533"/>
<path d="M192.509 53.1916C192.445 53.1916 192.381 53.1727 192.324 53.1349C192.166 53.0328 192.125 52.821 192.226 52.6622C193.471 50.7639 196.725 45.5569 196.819 44.2523C196.936 42.6414 195.929 37.6953 195.918 37.6461C195.88 37.4608 195.997 37.2831 196.182 37.2453C196.363 37.2075 196.544 37.3247 196.581 37.51C196.623 37.718 197.618 42.5998 197.494 44.3052C197.369 46.0182 193.259 52.3256 192.792 53.0403C192.728 53.1386 192.619 53.1916 192.509 53.1916Z" fill="white"/>
<path d="M169.367 23.031C169.333 23.031 169.303 23.0272 169.269 23.0159C167.226 22.4071 166.272 20.7811 166.234 20.7092C166.14 20.5466 166.196 20.3386 166.359 20.2441C166.521 20.1496 166.728 20.2063 166.822 20.3689C166.83 20.384 167.686 21.8323 169.462 22.3617C169.643 22.4146 169.744 22.6037 169.692 22.7852C169.65 22.9365 169.514 23.031 169.367 23.031Z" fill="#61200A"/>
<path d="M207.751 38.2474C207.751 38.3079 207.751 38.3684 207.751 38.4289C206.484 39.1209 205.236 39.0907 203.927 38.4819C202.434 37.7861 194.837 35.695 192.401 34.3148C191.447 34.5076 190.901 34.0652 190.591 33.135C189.867 30.9682 188.932 28.896 187.617 27.0242C185.886 24.5625 183.707 22.8873 180.505 22.8079C178.368 22.755 176.252 22.8684 174.145 23.1369C172.508 23.3486 170.966 23.5226 169.371 22.6944C167.573 21.7604 166.031 20.6525 165.703 18.5803C165.375 16.5005 166.374 14.8442 168.033 13.6342C169.413 12.6283 170.853 11.6981 172.493 11.1498C173.093 10.9493 173.47 10.5447 173.843 10.0456C174.688 8.92629 174.959 7.4175 176.222 6.7255C177.795 5.86711 179.827 5.28099 181.595 4.8726C183.661 4.39614 185.739 4.3848 187.847 4.5474C189.841 4.70244 191.772 4.94823 193.502 6.05619C193.743 6.21122 194.068 6.27929 194.358 6.29442C197.846 6.47592 201.009 7.70489 204.067 9.28552C204.87 9.70148 205.488 10.3065 205.888 11.0968C207.596 14.4774 207.566 18.0622 206.895 21.647C206.25 25.0843 205.601 28.4951 206.307 32.0005C206.725 34.0954 206.981 36.2319 207.751 38.2474Z" fill="#755462"/>
<path d="M172.412 21.9569C172.393 21.9569 172.37 21.9569 172.351 21.9494C169.29 21.3897 168.125 19.9301 167.687 18.8032C167.148 17.4155 167.499 15.9974 167.68 15.7592C167.793 15.6079 168.004 15.5815 168.155 15.6949C168.294 15.8008 168.328 15.9974 168.238 16.1449C168.143 16.3529 167.823 17.6272 168.456 18.8713C169.082 20.1003 170.432 20.9095 172.468 21.2838C172.653 21.3179 172.773 21.4956 172.74 21.6809C172.713 21.8435 172.57 21.9569 172.412 21.9569Z" fill="#4A2533"/>
<path d="M177.702 23.0574C177.382 23.0574 177.19 23.0461 177.178 23.0461C176.869 23.0083 176.831 22.7814 176.831 22.7133C176.824 22.5469 176.941 22.3957 177.103 22.3617C177.171 22.3465 177.235 22.3541 177.295 22.3768C178.196 22.4789 184.376 22.3465 185.454 18.6256C185.507 18.4441 185.696 18.342 185.877 18.3949C186.058 18.4479 186.159 18.637 186.107 18.8185C184.972 22.736 179.441 23.0574 177.702 23.0574Z" fill="#4A2533"/>
<path d="M182.826 19.6012C182.716 19.6012 182.607 19.5483 182.543 19.45C182.449 19.3063 182.475 19.1172 182.6 19.0076C182.618 18.9886 182.645 18.9546 182.679 18.913C184.473 16.75 189.428 12.2728 196.626 17.3702C196.78 17.4799 196.814 17.6916 196.709 17.8429C196.599 17.9979 196.388 18.0319 196.237 17.9261C189.503 13.1539 184.881 17.3324 183.207 19.3479C183.105 19.4727 183.071 19.5105 183.018 19.5483C182.954 19.5823 182.89 19.6012 182.826 19.6012Z" fill="#4A2533"/>
<path d="M196.429 17.9865C196.225 17.9752 196.078 17.8164 196.089 17.6273C196.308 13.4904 191.987 11.0136 191.478 10.8472C191.339 10.8396 191.214 10.7451 191.173 10.6014C191.12 10.4199 191.226 10.2308 191.403 10.1779C191.874 10.0455 193.492 11.3161 193.507 11.3312C194.792 12.356 196.927 14.5379 196.761 17.6613C196.757 17.8428 196.606 17.9865 196.429 17.9865Z" fill="#4A2533"/>
<path d="M199.695 16.3077C199.514 16.3077 199.363 16.164 199.355 15.9825C199.212 12.7758 198.172 10.3822 196.26 8.8772C193.387 6.60835 189.552 7.09615 189.292 7.13397C189.096 7.18691 188.866 7.02809 188.862 6.80876C188.859 6.46087 189.092 6.41928 190.107 6.38903C192.331 6.32096 199.623 6.81255 200.034 15.9522C200.042 16.1413 199.898 16.3001 199.71 16.3077C199.706 16.3077 199.702 16.3077 199.695 16.3077Z" fill="#4A2533"/>
<path d="M204.052 17.219C204.003 17.219 203.95 17.2077 203.905 17.185C203.735 17.1018 203.667 16.8976 203.75 16.7312C205.089 13.9934 202.736 11.2481 202.71 11.2179C202.585 11.078 202.6 10.8624 202.74 10.7376C202.879 10.6128 203.094 10.628 203.219 10.7679C203.328 10.8927 205.892 13.8876 204.357 17.0261C204.297 17.1509 204.176 17.219 204.052 17.219Z" fill="#4A2533"/>
<path d="M188.881 28.6692C188.835 27.8373 188.933 26.9486 189.246 26.0902C189.857 24.4264 191.588 24.0483 192.817 25.3037C195.181 27.7238 195.939 31.5809 194.578 34.2732C193.899 35.6156 192.824 36.0581 191.746 35.3699C190.8 34.7648 190.019 33.9821 189.635 32.8817C189.167 31.5431 188.828 30.1817 188.881 28.6692Z" fill="#F8C1A9"/>
<path d="M191.083 32.9346C190.94 32.9346 190.804 32.8438 190.759 32.6964C190.74 32.6321 190.261 31.1157 190.265 29.5124C190.268 28.3061 190.544 27.3721 191.087 26.7293C191.207 26.5856 191.422 26.5667 191.565 26.6877C191.709 26.8087 191.728 27.0242 191.607 27.1679C191.173 27.686 190.951 28.4725 190.947 29.5124C190.943 31.0023 191.403 32.4732 191.407 32.4884C191.464 32.6661 191.366 32.859 191.188 32.9157C191.151 32.9308 191.117 32.9346 191.083 32.9346Z" fill="white"/>
<path d="M190.607 29.8565C190.426 29.8565 190.275 29.7128 190.268 29.5313C190.219 28.4914 191.961 27.9847 192.311 27.894C192.492 27.8486 192.677 27.9545 192.726 28.1397C192.771 28.3213 192.666 28.5065 192.481 28.5557C191.844 28.7221 190.927 29.1532 190.946 29.5011C190.954 29.6901 190.811 29.8489 190.622 29.8565C190.614 29.8565 190.611 29.8565 190.607 29.8565Z" fill="white"/>
<path d="M204.442 78.1301C203.937 73.1197 203.635 68.1093 203.515 63.1746C203.334 55.6571 204.947 48.5329 208.198 41.7717C208.699 40.7242 209.709 38.4516 210.765 37.873C212.771 36.7726 216.877 38.6407 218.487 39.8205C230.47 48.5934 231.454 47.7199 238.293 60.607C240.604 64.9594 249.804 84.7249 251.667 89.2777C255.69 99.1056 258.646 109.312 263.94 118.546C269.531 128.298 275.756 137.627 280.956 147.618C283.542 152.586 276.51 155.721 272.97 157.185C266.515 159.85 259.935 162.176 254.008 165.957C252.304 167.043 249.54 169.852 247.482 169.758C245.461 169.667 244.167 167.175 242.901 165.908C241.008 164.01 216.572 129.924 210.516 109.3C207.598 99.325 205.509 88.7408 204.442 78.1301Z" fill="#8385A5"/>
<path d="M219.723 71.611C214.957 73.0668 205.58 79.2797 201.41 81.8927C196.546 84.9405 191.23 87.5383 186.396 90.6353C184.831 91.6374 183.236 92.5903 181.656 93.5659C181.343 93.7588 181.015 93.8949 180.638 93.842C180.582 93.8344 181.053 81.8851 180.97 81.0305C180.782 79.1058 178.757 75.0861 181.046 73.7097C183.168 72.4315 194.133 61.5297 198.454 58.5953C201.463 56.5533 203.619 54.5643 206.323 52.6396C210.621 49.5804 211.639 41.7188 211.861 40.9134C212.453 38.7844 212.585 38.6975 214.787 39.2117C218.984 40.1911 223.248 39.692 226.826 42.4562C229.843 44.7893 231.845 48.2077 233.628 51.5165C238.862 61.2423 244.05 70.9833 248.118 81.2725C249.385 84.4754 244.004 75.797 244.555 79.2268C244.668 79.9339 244.777 80.6448 244.86 81.3595C244.902 81.7149 244.8 82.0364 244.385 82.1082C243.974 82.1763 224.217 70.2345 219.723 71.611Z" fill="#8385A5"/>
<path d="M154.543 50.9832C155.802 51.7016 156.707 52.6999 157.578 53.7058C161.205 57.8918 165.304 61.5674 169.591 65.0538C173.101 67.905 176.691 70.6655 179.907 73.8683C180.612 74.5717 181.43 75.2901 181.686 76.2128C182.086 77.6498 182.448 78.9808 183.681 79.998C184.175 80.4064 183.986 81.2156 183.443 81.6883C182.629 82.3992 182.237 83.2689 182.169 84.3353C182.154 84.5887 182.048 84.895 181.875 85.0689C181.49 85.4584 181.573 85.8743 181.826 86.2033C182.105 86.5739 182.456 86.8613 183.051 86.6911C183.99 86.4189 184.401 86.9029 184.118 87.8747C183.986 88.3323 183.79 88.7709 183.624 89.2247C183.662 89.2436 183.719 89.2928 183.764 89.2852C184.186 89.2247 184.665 88.8768 185.001 89.3646C185.351 89.8713 184.906 90.2343 184.65 90.6389C184.379 91.0625 184.224 91.5616 183.968 91.9965C182.399 94.6586 179.522 94.9951 177.301 93.6452C172.015 90.4272 161.413 84.2975 156.553 80.3837C152.224 76.2922 151.738 75.8498 150.675 70.2457C150.411 68.8579 149.449 72.3368 148.371 70.4499C148.258 70.2533 143.745 65.3828 143.552 65.2391C142.629 64.532 142.534 64.1576 143.16 63.2198C143.477 62.7509 143.877 62.3388 144.239 61.9001C144.491 61.5938 144.827 61.4993 145.204 61.522C147.364 61.6468 148.737 60.777 150.482 59.4498C152.145 58.1868 153.374 56.6666 154.015 54.8289C154.453 53.6037 155.045 52.3898 154.543 50.9832Z" fill="#8385A5"/>
<path d="M258.2 110.261L260.259 116.084L258.2 110.261Z" fill="#9B9960"/>
<path d="M180.456 73.5317C180.358 73.5317 180.26 73.4901 180.196 73.4069C180.075 73.2632 180.098 73.0476 180.241 72.9266C181.38 71.9775 208.184 49.6822 214.669 46.3659C219.669 43.8097 223.545 43.0005 226.188 43.9572C228.526 44.8042 229.378 46.7932 229.89 47.9844C229.958 48.1394 230.019 48.2831 230.075 48.4079C231.071 50.5406 232.994 58.4438 232.036 63.4201C232.002 63.6054 231.821 63.7264 231.64 63.6886C231.455 63.6546 231.335 63.4731 231.372 63.2916C232.304 58.4551 230.433 50.7713 229.461 48.6953C229.4 48.5667 229.336 48.4155 229.265 48.2529C228.767 47.0957 228.017 45.3449 225.958 44.5962C223.5 43.7038 219.805 44.5055 214.978 46.9709C208.561 50.2532 180.954 73.2178 180.675 73.4485C180.607 73.5052 180.532 73.5317 180.456 73.5317Z" fill="#B8BAD4"/>
<path d="M186.693 79.374C186.598 79.374 186.504 79.3362 186.436 79.2568C181.927 74.0384 173.613 68.7217 173.526 68.6688C173.368 68.5667 173.323 68.3587 173.421 68.1999C173.523 68.0411 173.73 67.9957 173.888 68.094C173.971 68.147 182.372 73.5166 186.945 78.8106C187.07 78.9543 187.051 79.166 186.911 79.2908C186.851 79.3476 186.772 79.374 186.693 79.374Z" fill="#B8BAD4"/>
<path d="M190.256 75.8348C190.211 75.8348 190.162 75.8235 190.116 75.8045C187.635 74.6777 181.961 73.0857 181.358 73.0365C181.23 73.0555 181.094 73.0025 181.018 72.8853C180.917 72.7265 180.962 72.5185 181.116 72.4126C181.603 72.095 188.699 74.4092 190.395 75.1806C190.565 75.2562 190.641 75.4604 190.565 75.6306C190.509 75.7592 190.384 75.8348 190.256 75.8348Z" fill="#B8BAD4"/>
<path d="M181.908 93.9742C181.795 93.9742 181.682 93.9175 181.618 93.8116C181.52 93.6528 181.573 93.441 181.731 93.3427C185.403 91.1041 217.674 71.4521 219.688 71.2705C221.679 71.089 229.265 71.263 229.589 71.2705C229.778 71.2743 229.925 71.4294 229.921 71.6184C229.917 71.8075 229.755 71.9588 229.574 71.9512C229.495 71.9474 221.705 71.7697 219.752 71.9512C218.327 72.0911 196.447 85.1711 182.085 93.9288C182.029 93.9591 181.968 93.9742 181.908 93.9742Z" fill="#B8BAD4"/>
<path d="M233.755 78.6935C233.71 78.6935 233.668 78.6859 233.623 78.667C229.676 77.0145 223.62 74.5225 223.13 74.4318C222.942 74.4318 222.81 74.2767 222.81 74.0877C222.81 73.8986 222.983 73.7436 223.168 73.7511C223.594 73.7549 230.064 76.4397 233.883 78.0393C234.057 78.1111 234.14 78.3115 234.064 78.4855C234.015 78.614 233.887 78.6935 233.755 78.6935Z" fill="#B8BAD4"/>
<path d="M226.679 67.5193C226.543 67.5193 226.418 67.4399 226.366 67.3075C226.158 66.884 222.471 60.8299 221.453 59.5632C221.336 59.4157 221.359 59.2039 221.502 59.0829C221.649 58.9657 221.86 58.9884 221.981 59.1321C223.021 60.4253 226.901 66.7743 226.999 67.0655C227.059 67.2432 226.961 67.4361 226.784 67.4966C226.75 67.5155 226.713 67.5193 226.679 67.5193Z" fill="#B8BAD4"/>
<path d="M252.147 145.186C252.038 145.186 251.932 145.137 251.868 145.039C244.105 133.834 231.432 104.664 224.627 88.9941C222.067 83.0988 220.034 78.4212 219.646 77.8956C219.556 77.8351 219.499 77.733 219.499 77.6158C219.499 77.4267 219.65 77.2755 219.838 77.2755C220.234 77.2755 220.276 77.2755 225.249 88.7256C232.047 104.373 244.701 133.505 252.426 144.653C252.532 144.808 252.494 145.02 252.34 145.126C252.283 145.167 252.215 145.186 252.147 145.186Z" fill="#B8BAD4"/>
<path d="M264.004 145.916C263.906 145.916 263.812 145.874 263.744 145.795C253.432 133.445 244.922 120.44 241.717 115.543C240.997 114.443 240.424 113.57 240.307 113.43C240.179 113.32 240.153 113.127 240.247 112.983C240.352 112.828 240.564 112.787 240.718 112.889C240.843 112.972 240.959 113.142 242.287 115.169C245.484 120.055 253.979 133.036 264.264 145.356C264.385 145.5 264.366 145.715 264.223 145.836C264.159 145.889 264.083 145.916 264.004 145.916Z" fill="#B8BAD4"/>
<path d="M258.199 119.582C258.045 119.582 257.905 119.476 257.871 119.321C255.262 108.347 251.25 91.781 250.794 90.7751C250.719 90.6806 250.7 90.5483 250.749 90.4273C250.824 90.2533 251.028 90.1777 251.197 90.2533C251.427 90.3554 251.578 90.4197 255.096 104.884C256.815 111.951 258.512 119.094 258.531 119.166C258.576 119.348 258.463 119.533 258.278 119.574C258.252 119.578 258.226 119.582 258.199 119.582Z" fill="#B8BAD4"/>
<path d="M148.875 70.7828C148.781 70.7828 148.698 70.745 148.637 70.6845C147.668 69.724 142.819 64.8951 142.495 64.014C142.16 63.0989 144.309 59.5709 145.251 58.0923C145.353 57.9335 145.564 57.8881 145.719 57.9902C145.877 58.0923 145.923 58.3003 145.821 58.4591C144.429 60.641 143.008 63.2956 143.132 63.7796C143.317 64.2788 146.277 67.3871 149.011 70.0946C150.04 70.0416 156.894 69.2967 160.473 59.2343C160.537 59.0566 160.729 58.9658 160.906 59.0264C161.083 59.0906 161.174 59.2835 161.114 59.4612C157.128 70.6618 149.135 70.7828 148.875 70.7828Z" fill="#B8BAD4"/>
<path d="M174.232 92.1857C174.164 92.1857 174.096 92.1668 174.036 92.1214C173.195 91.5239 153.427 77.4419 152.394 76.4701C151.315 75.4529 150.505 71.2366 150.418 70.7601C150.384 70.5749 150.505 70.3971 150.689 70.3631C150.874 70.3291 151.051 70.4501 151.085 70.6354C151.315 71.8719 152.081 75.2411 152.861 75.9747C153.66 76.7272 167.321 86.506 174.432 91.5693C174.586 91.679 174.62 91.8907 174.511 92.042C174.443 92.1365 174.337 92.1857 174.232 92.1857Z" fill="#B8BAD4"/>
<path d="M255.176 163.874C255.085 163.874 254.995 163.84 254.927 163.768C254.682 163.507 230.423 137.555 223.881 120.698C220.046 110.82 210.462 76.867 210.368 76.5267C210.319 76.3452 210.421 76.1561 210.602 76.107C210.782 76.0578 210.971 76.1599 211.02 76.3414C211.114 76.6818 220.691 110.601 224.514 120.452C231.011 137.185 255.179 163.042 255.421 163.299C255.549 163.435 255.541 163.651 255.406 163.779C255.342 163.844 255.259 163.874 255.176 163.874Z" fill="#B8BAD4"/>
<path d="M213.371 47.7351C213.265 47.7351 213.163 47.6859 213.095 47.5951C212.515 46.8048 211.176 44.8952 211.278 44.2297C211.353 43.723 213.661 42.1612 218.136 39.5899C218.299 39.4953 218.506 39.5521 218.6 39.7147C218.694 39.8773 218.638 40.0852 218.476 40.1798C215.524 41.8776 212.33 43.8742 211.953 44.362C211.994 44.7288 212.843 46.0977 213.646 47.1905C213.759 47.3418 213.725 47.5535 213.574 47.667C213.514 47.7162 213.442 47.7351 213.371 47.7351Z" fill="#B8BAD4"/>
<path d="M75.0809 81.4955C75.6728 81.6052 76.2648 81.7035 76.8681 81.6619C78.2066 81.5749 79.4357 80.6787 80.6724 81.6732C81.0646 81.9909 81.3247 82.3463 81.977 82.1762C82.4898 82.04 82.946 82.5241 83.3683 82.872C85.4345 84.5812 87.1086 86.6647 88.892 88.6424C94.3968 94.7607 97.9976 100.947 99.6943 109.032C102.545 122.622 102.499 136.485 102.677 150.302C102.711 152.987 102.809 155.797 102.028 158.398C101.052 161.662 98.0692 162.705 95.1471 163.692C82.814 167.852 69.0746 163.269 57.5898 158.519C54.7205 157.332 48.8914 156.285 48.4239 152.541C48.2165 150.892 49.0045 149.236 49.3477 147.644C49.7775 145.628 50.1696 143.602 50.5165 141.571C52.0171 132.832 52.6581 124.089 54.9618 115.491C57.1977 107.149 60.4591 99.0905 64.7574 91.5995C66.2053 89.0773 67.1026 86.1315 68.92 83.7871C69.7646 82.7018 70.8203 81.7111 72.1852 81.3556C73.1655 81.0985 74.1194 81.3178 75.0809 81.4955Z" fill="white"/>
<path d="M94.4838 150.726C94.4348 150.726 94.382 150.715 94.3368 150.692C94.1671 150.609 94.0992 150.404 94.1784 150.238C95.894 146.691 100.377 127.637 100.422 127.444C100.464 127.262 100.649 127.145 100.829 127.19C101.01 127.232 101.124 127.417 101.082 127.599C100.897 128.385 96.5349 146.922 94.7892 150.533C94.7289 150.658 94.6083 150.726 94.4838 150.726Z" fill="#B6DADD"/>
<path d="M85.8349 162.63C85.7105 162.63 85.5899 162.562 85.5295 162.441C85.4466 162.274 85.5145 162.07 85.6804 161.983C85.7633 161.941 94.6465 157.158 98.5828 153.569C98.7223 153.445 98.9372 153.452 99.0616 153.592C99.1861 153.732 99.1785 153.947 99.039 154.072C95.0461 157.71 86.0687 162.546 85.9858 162.588C85.9368 162.618 85.884 162.63 85.8349 162.63Z" fill="#B6DADD"/>
<path d="M87.2019 163.447C87.0548 163.447 86.9191 163.352 86.8738 163.208C86.8173 163.031 86.9115 162.845 87.085 162.785C87.1604 162.758 87.4017 162.709 88.3292 162.513C90.32 162.093 94.984 161.11 95.6326 160.724C95.7947 160.63 96.0021 160.682 96.0963 160.841C96.1906 161.004 96.1378 161.212 95.9794 161.306C95.2894 161.719 91.7415 162.49 88.465 163.178C87.8768 163.303 87.364 163.409 87.2924 163.432C87.266 163.443 87.232 163.447 87.2019 163.447Z" fill="#B6DADD"/>
<path d="M63.6904 160.357C63.6112 160.357 63.532 160.331 63.4679 160.274C61.6016 158.633 57.9669 156.145 57.4805 155.986C57.3108 155.967 57.1826 155.823 57.1826 155.649C57.1826 155.46 57.3334 155.309 57.522 155.309C58.1252 155.309 62.4876 158.504 63.9166 159.763C64.0561 159.888 64.0712 160.104 63.9468 160.244C63.8789 160.315 63.7846 160.357 63.6904 160.357Z" fill="#B6DADD"/>
<path d="M125.329 24.2675C125.352 22.2861 124.538 20.5277 123.987 18.7088C123.561 17.3097 123.267 15.9408 123.625 14.4699C123.833 13.6228 123.497 13.1123 124.798 12.5224C125.288 12.2993 125.838 13.0253 126.215 13.3921C126.777 13.9405 127.467 13.5434 128.142 13.7514C129.168 14.069 130.6 16.3341 130.804 16.7538C132.229 19.7109 132.297 21.8209 133.915 24.8083C134.62 26.1166 134.876 26.6839 135.287 27.8712C136.256 30.677 136.742 33.7816 136.411 36.8181C136.151 39.1928 136.818 41.4503 136.927 43.7683C136.957 44.4301 136.991 45.0918 136.874 45.7422C136.799 46.1544 136.852 46.7367 136.218 46.7632C135.615 46.7897 134.936 46.9599 134.654 46.1052C134.567 45.8443 134.314 45.6137 134.092 45.4208C133.756 45.1296 133.334 45.2355 132.98 45.349C132.659 45.4511 132.78 45.8216 132.814 46.0674C132.897 46.6914 132.674 46.9523 132.033 46.9069C131.743 46.8842 131.441 46.975 131.147 47.0279C130.996 47.0544 130.755 47.0922 130.736 46.975C130.627 46.2187 129.835 45.7422 129.794 45.054C129.56 40.9096 128.451 36.9655 127.045 33.1085C126.099 30.522 124.858 28.0452 123.633 25.5721C123.433 25.1675 123.252 24.7553 123.071 24.3469C122.882 23.9158 122.886 23.5037 123.32 23.2352C123.712 22.9932 124.123 23.0423 124.489 23.3297C124.817 23.5906 125.058 23.9272 125.329 24.2675Z" fill="#8A6C79"/>
<path d="M117.277 40.021C117.473 39.5862 117.28 39.2761 117.167 38.9395C116.726 37.6387 116.149 36.372 116.032 34.9728C115.995 34.538 116.032 34.156 116.466 34.0048C116.964 33.8308 117.148 34.2317 117.307 34.6022C118.423 37.2039 119.927 39.5862 121.469 41.9458C121.756 42.3806 121.711 42.9668 122.039 43.3562C123.498 45.0881 123.449 47.8259 123.498 49.7506C123.528 50.8775 122.736 51.1838 121.541 51.7283C121.258 51.8569 121.062 52.1745 120.817 52.3939C119.897 53.1955 119.079 52.9611 118.163 52.1859C115.885 50.2536 115.52 47.2284 113.819 44.9634C112.514 43.2239 111.519 41.2462 110.222 39.4803C109.781 38.879 109.147 38.2816 109.762 37.4005C109.92 37.1736 109.634 36.9694 109.521 36.769C109.11 36.0278 108.518 35.3926 108.616 34.4018C108.665 33.9216 108.446 33.9594 108.148 33.5472C107.888 33.1842 107.413 31.3048 110.158 32.2502C111.021 32.5452 110.984 32.1065 111.851 32.5262C113.008 33.0859 114.332 34.9539 115.075 36.0014C116.006 37.306 116.341 38.6635 117.277 40.021Z" fill="#8A6C79"/>
<path d="M123.498 50.0909C123.464 50.0909 123.426 50.0834 123.388 50.072C123.12 49.9813 123.117 49.9207 123.007 48.3477C122.924 47.1527 122.8 45.3452 122.566 44.7289C122.48 44.502 121.967 43.5226 121.375 42.3882C120.33 40.3878 118.894 37.6462 118.098 35.8236C117.616 34.727 117.058 34.4093 116.767 34.3148C116.643 34.2732 116.545 34.2694 116.485 34.277C116.473 34.3791 116.417 34.4736 116.326 34.5304C116.168 34.6287 115.957 34.5795 115.859 34.4207C115.761 34.2619 115.757 34.069 115.855 33.9102C115.983 33.6947 116.266 33.5774 116.616 33.5963C116.918 33.6152 117.963 33.8119 118.724 35.5476C119.512 37.3475 120.941 40.0777 121.982 42.0705C122.698 43.4432 123.109 44.2297 123.207 44.4831C123.479 45.1978 123.599 46.9183 123.694 48.3023C123.731 48.8279 123.769 49.4178 123.803 49.588C123.844 49.6674 123.856 49.7657 123.826 49.8565C123.769 50.0002 123.637 50.0909 123.498 50.0909Z" fill="#D7997F"/>
<path d="M118.407 44.9027C118.294 44.9027 118.181 44.846 118.117 44.7401C117.582 43.8742 110.49 33.3429 110.418 33.237C110.312 33.082 110.354 32.8702 110.508 32.7643C110.663 32.6584 110.874 32.7 110.98 32.8551C111.274 33.2899 118.151 43.5036 118.694 44.3809C118.792 44.5397 118.743 44.7514 118.585 44.8498C118.528 44.8876 118.468 44.9027 118.407 44.9027Z" fill="white"/>
<path d="M116.372 44.9028C116.251 44.9028 116.138 44.8385 116.074 44.7251C115.406 43.5113 109.615 35.7858 109.125 35.2678C109.015 35.1808 108.97 35.0333 109.015 34.8934C109.076 34.7157 109.268 34.6173 109.445 34.6779C109.547 34.7119 109.675 34.7535 112.907 39.0983C113.887 40.4181 116.217 43.5718 116.669 44.3923C116.76 44.5587 116.7 44.7629 116.537 44.8537C116.485 44.8877 116.428 44.9028 116.372 44.9028Z" fill="white"/>
<path d="M115.237 45.2657C115.128 45.2657 115.019 45.2128 114.954 45.1107C114.106 43.8099 110.46 38.6671 110.426 38.6142C110.317 38.4592 110.354 38.2474 110.505 38.1377C110.66 38.0281 110.871 38.0659 110.977 38.2171C111.127 38.4289 114.664 43.4242 115.52 44.7363C115.622 44.8951 115.58 45.1031 115.422 45.209C115.365 45.2506 115.301 45.2657 115.237 45.2657Z" fill="white"/>
<path d="M128.659 28.8241C128.508 28.8241 128.372 28.722 128.331 28.5707C127.475 25.2544 123.787 14.7496 123.754 14.6437C123.689 14.466 123.784 14.2732 123.961 14.2089C124.138 14.1484 124.33 14.2391 124.395 14.4169C124.432 14.5227 128.127 25.0578 128.991 28.4006C129.036 28.5821 128.93 28.7674 128.746 28.8165C128.715 28.8203 128.685 28.8241 128.659 28.8241Z" fill="white"/>
<path d="M128.659 31.8795C128.531 31.8795 128.406 31.8039 128.35 31.6791C127.268 29.2855 125.48 25.3982 125.247 25.0352C125.141 24.9141 125.134 24.7289 125.235 24.6003C125.352 24.4528 125.567 24.4301 125.71 24.5473C125.786 24.6078 125.944 24.7364 128.964 31.3993C129.043 31.5695 128.968 31.7736 128.795 31.8493C128.753 31.8682 128.704 31.8795 128.659 31.8795Z" fill="white"/>
<path d="M130.484 28.5141C130.322 28.5141 130.178 28.3969 130.148 28.2305C129.794 26.094 126.076 14.296 126.038 14.1787C125.982 14.001 126.08 13.8082 126.261 13.7514C126.442 13.6947 126.63 13.793 126.687 13.9746C126.842 14.4624 130.454 25.939 130.819 28.1209C130.85 28.3061 130.725 28.4801 130.54 28.5141C130.521 28.5141 130.503 28.5141 130.484 28.5141Z" fill="white"/>
<path d="M132.071 27.6101C131.924 27.6101 131.789 27.5156 131.747 27.3643L128.026 14.621C127.973 14.4394 128.075 14.2504 128.256 14.1974C128.437 14.1445 128.625 14.2466 128.678 14.4281L132.399 27.1715C132.452 27.353 132.35 27.5421 132.169 27.595C132.135 27.6064 132.101 27.6101 132.071 27.6101Z" fill="white"/>
<path d="M128.376 90.7411C126.294 92.8625 123.58 93.218 120.861 93.5583C119.074 93.7814 118.075 92.8323 117.653 91.1609C117.253 89.5765 118.222 88.3853 118.339 86.9786C118.731 82.1384 119.756 77.336 119.447 72.4542C119.202 68.5631 118.625 64.7022 117.999 60.8528C117.72 59.1398 117.411 57.4344 117.019 55.7441C116.887 55.1806 116.661 54.6739 116.416 54.1596C115.816 52.908 116.227 52.0912 117.411 51.403C119.059 50.4425 120.729 49.5803 122.645 49.3837C124.443 49.1946 126.151 49.3459 127.527 50.798C128.191 51.4937 128.519 52.2651 128.658 53.1765C129.597 59.291 130.491 65.4094 130.951 71.5807C131.324 76.61 131.641 81.6468 131.332 86.6988C131.324 86.8198 131.366 86.9975 131.302 87.0505C130.495 87.7273 130.932 88.6349 130.879 89.4328C130.826 90.189 130.483 90.7374 129.963 91.2176C129.22 91.8983 128.753 91.7848 128.376 90.7411Z" fill="#D93D3D"/>
<path d="M83.9113 104.449C82.4748 104.449 81.0344 104.445 79.5979 104.445C75.228 103.946 70.9561 103.152 67.5099 100.089C64.8593 97.7294 63.9506 94.5756 65.2099 91.8455C66.326 89.4178 67.8907 87.3909 70.6318 86.6157C71.533 86.3624 72.3323 85.9162 73.0788 85.3338C74.3344 84.3545 75.835 84.1729 77.347 84.2864C79.9523 84.483 82.5539 84.3998 85.1593 84.4036C87.7948 84.4112 90.4191 84.5965 93.0508 84.7364C97.5376 84.9746 102.024 84.7629 106.515 84.5322C111.771 84.2637 116.544 82.3957 121.337 80.505C121.699 80.3613 121.951 80.1533 122.102 79.8016C122.174 79.6352 122.272 79.484 122.332 79.3138C123.463 76.1715 126.095 76.5874 127.758 78.7655C129.149 80.5882 129.854 82.7247 130.11 85.0049C130.178 85.6288 130.212 86.1733 130.872 86.5855C131.472 86.9636 131.283 87.7199 131.159 88.3401C130.668 90.7753 129.322 92.5677 127.188 93.842C125.039 95.1277 122.788 96.1827 120.394 96.8596C115.443 98.2625 110.512 99.707 105.599 101.239C102.65 102.157 99.585 102.517 96.4932 102.698C94.197 102.83 91.8782 103.061 89.6499 103.591C87.7383 104.048 85.7852 103.954 83.9113 104.449Z" fill="#D93D3D"/>
<path d="M119.23 55.9898C119.121 55.9898 119.015 55.9368 118.951 55.8423C118.846 55.6873 118.883 55.4755 119.038 55.3696C119.17 55.2789 122.288 53.1272 124.06 53.063C124.237 53.0554 124.403 53.2029 124.411 53.3919C124.418 53.581 124.271 53.7361 124.083 53.7436C122.507 53.8003 119.453 55.9066 119.423 55.9293C119.366 55.9709 119.298 55.9898 119.23 55.9898Z" fill="#F26B5C"/>
<path d="M119.229 81.6657C119.119 81.6657 119.01 81.6128 118.946 81.5144C118.84 81.3594 118.882 81.1476 119.04 81.0418C119.214 80.9283 123.259 78.2208 125.156 78.2057C125.348 78.217 125.495 78.3532 125.499 78.5422C125.499 78.7313 125.352 78.8826 125.163 78.8863C123.757 78.9015 120.541 80.8565 119.421 81.609C119.361 81.6468 119.297 81.6657 119.229 81.6657Z" fill="#F26B5C"/>
<path d="M124.071 82.8114C124.01 82.8114 123.946 82.7963 123.89 82.7585C122.876 82.1232 120.783 81.3178 119.173 81.7072C118.992 81.7526 118.807 81.6392 118.766 81.4577C118.721 81.2762 118.834 81.0909 119.018 81.0455C120.979 80.5728 123.298 81.5825 124.256 82.1799C124.414 82.2782 124.463 82.49 124.365 82.6488C124.293 82.7547 124.184 82.8114 124.071 82.8114Z" fill="#F26B5C"/>
<path d="M98.8237 75.3583C97.259 75.3583 92.6364 74.7344 90.491 73.1916C89.8501 72.7302 88.7303 71.5731 87.9913 70.8093C87.7349 70.5446 87.4747 70.2723 87.3955 70.2043C87.2975 70.1438 87.2334 70.0379 87.2334 69.9131C87.2334 69.724 87.3842 69.5728 87.5727 69.5728C87.7424 69.5728 87.7424 69.5728 88.4814 70.3366C89.1601 71.0399 90.295 72.2122 90.8869 72.6395C92.8777 74.0726 97.3721 74.6777 98.8237 74.6777C99.0122 74.6777 99.163 74.8289 99.163 75.018C99.163 75.2033 99.0122 75.3583 98.8237 75.3583Z" fill="white"/>
<path d="M123.282 42.1006C123.139 42.1006 123.01 42.0099 122.961 41.87C121.416 37.2982 122.336 32.6471 122.373 32.4504C122.411 32.2651 122.588 32.1479 122.773 32.1857C122.958 32.2235 123.075 32.4013 123.037 32.5866C123.029 32.6319 122.117 37.2604 123.602 41.6506C123.663 41.8284 123.568 42.0212 123.391 42.0817C123.354 42.0969 123.316 42.1006 123.282 42.1006Z" fill="#D7997F"/>
<path d="M121.078 38.028C120.942 38.028 120.817 37.9485 120.765 37.8162C119.664 35.0898 117.107 24.9594 117.085 24.6531C117.073 24.464 117.213 24.3014 117.401 24.29C117.582 24.2787 117.741 24.4111 117.763 24.5926C117.835 25.0085 120.323 34.9083 121.394 37.5628C121.466 37.7368 121.379 37.9372 121.206 38.0053C121.164 38.0204 121.119 38.028 121.078 38.028Z" fill="#D7997F"/>
<path d="M118.859 37.0185C118.724 37.0185 118.592 36.9354 118.543 36.7992C118.286 36.1148 118.105 35.7026 117.943 35.3358C117.472 34.2694 117.212 33.6833 116.077 28.5595C116.035 28.3742 116.152 28.1927 116.333 28.1549C116.518 28.1133 116.699 28.2305 116.737 28.412C117.856 33.4678 118.105 34.035 118.561 35.0598C118.727 35.4341 118.916 35.8576 119.176 36.561C119.24 36.7387 119.153 36.9316 118.976 36.9996C118.938 37.011 118.897 37.0185 118.859 37.0185Z" fill="#D7997F"/>
<path d="M137.788 44.9028C137.645 44.9028 137.509 44.8083 137.464 44.6646C137.188 43.7948 136.072 38.7088 136.027 38.4933C136.023 38.4744 136.02 38.4517 136.02 38.4328C135.918 35.5551 135.62 29.8074 135.213 28.6616C134.79 27.4704 133.158 23.2731 132.283 21.0193L131.755 19.658C131.22 18.2665 130.353 16.6442 130.277 16.527C130.175 16.3682 130.221 16.1602 130.375 16.0543C130.53 15.9522 130.737 15.9938 130.843 16.1489C130.948 16.3077 131.838 17.9791 132.389 19.4084L132.916 20.766C133.855 23.1823 135.424 27.2246 135.85 28.4271C136.385 29.9284 136.672 37.7294 136.698 38.3723C136.793 38.8034 137.86 43.6512 138.112 44.4566C138.169 44.6343 138.071 44.8272 137.89 44.8839C137.856 44.899 137.822 44.9028 137.788 44.9028Z" fill="#D7997F"/>
<path d="M135.529 26.9258C135.375 26.9258 135.235 26.8199 135.198 26.6649C135.186 26.6233 134.945 25.5872 133.957 19.8621C133.358 16.3945 133.46 14.1673 134.255 13.2408C134.312 13.1236 134.429 13.048 134.564 13.048C134.753 13.048 134.904 13.1992 134.904 13.3883C134.904 13.532 134.824 13.6265 134.768 13.687C134.127 14.4282 134.078 16.5798 134.625 19.7487C135.605 25.4246 135.854 26.4985 135.858 26.5098C135.899 26.6913 135.786 26.8766 135.605 26.9182C135.582 26.9258 135.556 26.9258 135.529 26.9258Z" fill="#D7997F"/>
<path d="M139.85 37.665C139.76 37.665 139.665 37.6575 139.571 37.6386C138.406 37.4344 137.516 36.0126 137.271 35.5815C137.177 35.4189 137.234 35.2109 137.396 35.1164C137.558 35.0218 137.765 35.0785 137.859 35.2412C137.95 35.4 138.776 36.8067 139.688 36.9655C139.975 37.0146 140.25 36.9277 140.521 36.697C140.665 36.576 140.88 36.5911 141 36.7348C141.121 36.8785 141.106 37.094 140.962 37.2151C140.612 37.5176 140.242 37.665 139.85 37.665Z" fill="#D7997F"/>
<path d="M133.138 21.5562C132.972 21.5562 132.829 21.4351 132.802 21.265C131.302 11.127 133.013 9.37619 133.213 9.21358C133.356 9.09258 133.571 9.11527 133.692 9.25896C133.809 9.39887 133.794 9.60685 133.658 9.73164C133.609 9.7808 132.052 11.5467 133.477 21.1704C133.503 21.3557 133.375 21.5297 133.191 21.5562C133.172 21.5562 133.157 21.5562 133.138 21.5562Z" fill="#D7997F"/>
<path d="M131.619 18.7959C131.449 18.7959 131.302 18.6711 131.283 18.4972C131.015 16.3682 130.816 14.2998 131.291 12.4393C131.336 12.2578 131.525 12.1481 131.702 12.1935C131.883 12.2389 131.992 12.4242 131.947 12.6057C131.502 14.3527 131.698 16.3493 131.954 18.4102C131.977 18.5955 131.845 18.7656 131.66 18.7921C131.645 18.7959 131.63 18.7959 131.619 18.7959Z" fill="#D7997F"/>
<path d="M43.6326 152.205C42.0076 152.11 40.4164 152.621 38.7876 152.84C35.3867 153.294 35.2359 150.31 35.9485 147.818C38.354 139.42 42.5203 131.792 45.876 123.772C47.1806 120.652 48.1345 117.419 49.3411 114.273C51.4035 108.888 53.0738 103.375 54.0126 97.6613C55.1174 90.919 62.3792 85.9011 68.3855 83.7419C71.1417 82.7511 68.3365 79.8583 71.1907 79.2231C72.0164 79.0378 77.0651 78.7844 77.8908 79.0113C78.3772 79.1437 80.1078 81.1818 80.0211 80.4066C79.9004 79.2911 80.9788 79.2495 81.9742 79.7562C82.1589 79.8508 82.3399 79.968 82.4907 80.1117C84.802 82.2898 87.2113 84.3734 89.3039 86.7783C95.4422 93.8345 96.0907 104.748 96.0567 113.676C96.0228 122.18 94.9143 130.56 93.0517 138.849C91.125 147.44 88.1878 155.676 84.3948 163.609C84.1082 164.211 83.7727 164.415 83.0789 164.532C80.0814 165.05 77.4987 164.003 75.112 162.452C70.0634 159.17 64.4907 157.128 58.8765 155.105C55.4529 153.872 51.9427 153.278 48.3834 152.783C46.8186 152.564 45.2803 152.11 43.6326 152.205Z" fill="#F26B5C"/>
<path d="M83.3721 109.686C82.9535 109.686 82.5313 109.686 82.1127 109.686C81.8978 109.35 81.5132 109.066 81.7847 108.574C82.0373 108.117 82.6255 108.329 82.9686 107.932C81.5698 106.404 80.2049 104.85 78.7684 103.367C75.5069 99.9981 73.2635 96.0503 71.9891 91.5428C71.7968 90.8621 71.6422 90.4235 70.7524 90.7563C70.0436 91.021 69.3611 90.692 69.0519 89.9546C68.7503 89.2361 68.9803 88.5933 69.5911 88.1168C69.8513 87.9164 70.1491 87.7652 70.4206 87.5761C71.1295 87.0845 71.9665 86.6988 72.5094 86.0635C74.0968 84.2068 74.4474 84.0707 76.7851 84.9253C77.3054 85.1144 77.8107 85.4661 78.4177 85.2845C79.0398 85.0993 79.662 85.156 80.2878 85.2392C82.3654 85.5114 84.4429 85.7913 86.5204 86.0522C91.9008 86.7215 97.2963 87.1979 102.726 87.2698C107.397 87.3341 112.073 87.4551 116.737 87.0921C122.637 86.6345 128.542 86.1883 134.394 85.3035C136.098 85.0463 137.414 85.5228 138.715 86.4265C140.894 87.9429 142.157 89.9735 142.172 92.6924C142.172 92.9306 142.138 93.165 142.364 93.3503C143.017 93.8911 142.885 94.5453 142.492 95.1276C141.52 96.5759 140.343 97.8464 138.858 98.7842C136.98 99.9678 134.944 100.879 132.912 101.707C129.82 102.97 126.521 103.662 123.267 104.43C118.644 105.519 113.973 106.343 109.275 107.043C104.958 107.686 100.629 108.208 96.282 108.578C92.7341 108.881 89.1785 109.077 85.6343 109.395C84.884 109.471 84.0847 109.293 83.3721 109.686Z" fill="#F26B5C"/>
<path d="M144.34 86.4569C144.329 87.3001 144.298 88.1434 144.242 88.9866C144.019 92.337 143.001 95.5285 140.219 97.6158C139.57 98.0999 138.383 98.6482 137.553 98.5158C136.682 98.3797 137.252 97.6915 136.991 97.1961C136.92 97.0562 136.769 96.9806 136.629 96.9087C135.234 96.2129 133.805 95.5701 132.505 94.7079C129.831 92.9382 124.998 90.8358 125.499 87.5686C127.758 85.2014 128.832 76.6592 128.629 71.853C128.463 67.9241 129.273 65.0502 128.87 61.1289C128.478 57.3059 127.874 53.5131 127.309 49.7166C127.105 48.3552 127.158 46.9599 126.743 45.625C126.619 45.228 126.826 44.8196 127.169 44.5965C129.473 43.0877 131.931 42.0365 134.763 42.3806C136.735 42.6188 138.183 43.7419 139.506 45.2053C140.769 46.6007 140.739 48.3136 141.022 49.9397C141.791 54.345 142.187 58.7995 142.756 63.2351C143.311 67.5573 143.688 71.8984 143.929 76.2508C144.114 79.5936 144.385 83.0649 144.34 86.4569Z" fill="#F26B5C"/>
<path d="M50.3471 152.893C50.317 152.893 50.283 152.889 50.2491 152.877C47.2063 151.97 42.5838 151.524 37.2335 151.614C37.1242 151.614 37.0488 151.618 37.0073 151.618C36.8188 151.618 36.668 151.467 36.668 151.278C36.668 151.089 36.8188 150.938 37.0073 150.938L37.2185 150.934C42.6403 150.839 47.3308 151.301 50.4414 152.227C50.6224 152.28 50.7242 152.469 50.6714 152.651C50.6299 152.798 50.4942 152.893 50.3471 152.893Z" fill="#F7C8B5"/>
<path d="M43.0585 138.966C42.9718 138.966 42.8813 138.931 42.8135 138.863C42.6815 138.727 42.6853 138.512 42.821 138.383C47.8281 133.505 55.237 115.033 55.4897 114.163C55.5274 113.993 55.6857 113.876 55.8592 113.895C56.0439 113.914 56.1796 114.084 56.1608 114.269C56.1457 114.405 48.6162 133.683 43.2961 138.867C43.232 138.935 43.1453 138.966 43.0585 138.966Z" fill="#F7C8B5"/>
<path d="M53.7057 127.863C53.6416 127.863 53.5737 127.845 53.5171 127.807C53.3625 127.701 53.3211 127.489 53.4229 127.334L57.6872 120.962C57.7928 120.807 58.004 120.766 58.1585 120.868C58.3131 120.974 58.3546 121.185 58.2528 121.34L53.9884 127.712C53.9243 127.811 53.815 127.863 53.7057 127.863Z" fill="#F7C8B5"/>
<path d="M63.5087 94.7533C63.3278 94.7533 63.1807 94.6134 63.1694 94.4319C63.1619 94.2844 63.2486 94.1558 63.373 94.1029C63.603 93.9252 64.6436 92.7794 65.7446 91.5693C69.8129 87.0959 73.5758 83.0611 74.8841 82.8342C76.8184 82.4939 88.469 84.0708 88.963 84.1388C89.1477 84.1653 89.2797 84.3355 89.2533 84.5208C89.2269 84.706 89.0572 84.8384 88.8725 84.8119C84.7174 84.2485 76.4677 83.2502 75.001 83.5036C73.8133 83.7115 68.8929 89.119 66.2499 92.0269C63.7802 94.7382 63.7538 94.7419 63.5276 94.7533C63.5201 94.7533 63.5125 94.7533 63.5087 94.7533Z" fill="#F7C8B5"/>
<path d="M80.2994 102.119C80.175 102.119 80.0581 102.051 79.9978 101.934C77.2906 96.6968 75.1829 88.7974 75.1641 88.718C75.1151 88.5365 75.2244 88.3512 75.4054 88.302C75.5864 88.2529 75.7711 88.3625 75.8201 88.5441C75.8427 88.6235 77.9278 96.451 80.601 101.62C80.6878 101.787 80.6237 101.991 80.4578 102.078C80.405 102.108 80.3522 102.119 80.2994 102.119Z" fill="#F7C8B5"/>
<path d="M95.5061 85.1562C92.584 85.1562 90.2426 85.0427 88.8626 84.8083C88.6779 84.778 88.5534 84.6003 88.5836 84.415C88.6138 84.2297 88.791 84.105 88.9757 84.1352C94.507 85.0843 115.727 83.9953 127.453 81.7567C127.479 81.7529 127.51 81.7491 127.536 81.7529C131.412 81.9949 137.294 82.339 137.844 82.3201C138.044 82.2747 138.259 82.4373 138.259 82.6529C138.259 82.7474 138.221 82.8382 138.15 82.9025C138.006 83.0386 137.954 83.0878 127.532 82.4336C118.664 84.1239 104.397 85.1562 95.5061 85.1562Z" fill="#F7C8B5"/>
<path d="M82.9916 113.331C82.9049 113.331 82.8182 113.297 82.7503 113.233C82.6184 113.101 82.6184 112.893 82.7428 112.757C82.7541 112.741 82.7692 112.719 82.788 112.692C84.6355 110.019 90.7022 108.831 95.468 108.31C95.6528 108.287 95.8224 108.423 95.8413 108.612C95.8601 108.797 95.7282 108.968 95.5396 108.986C89.0017 109.705 84.6695 111.161 83.3423 113.082C83.2933 113.154 83.2556 113.203 83.2254 113.233C83.1651 113.297 83.0784 113.331 82.9916 113.331Z" fill="#F7C8B5"/>
<path d="M135.532 89.3647C135.423 89.3647 135.318 89.3117 135.25 89.2134C133.61 86.7668 130.163 84.8307 129.926 84.7438C129.752 84.6795 129.658 84.4866 129.718 84.3089C129.779 84.135 129.967 84.0404 130.145 84.0971C130.586 84.2446 134.107 86.2828 135.815 88.8315C135.921 88.9865 135.879 89.1983 135.721 89.3042C135.661 89.3458 135.597 89.3647 135.532 89.3647Z" fill="#F7C8B5"/>
<path d="M127.52 82.4334C127.513 82.4334 127.505 82.4334 127.501 82.4334C127.313 82.422 127.173 82.2632 127.181 82.0741C127.185 82.0287 127.253 80.9246 128.101 77.8314C128.923 74.8289 127.207 51.0627 127.188 50.8206C127.173 50.6316 127.317 50.469 127.501 50.4576C127.69 50.4425 127.852 50.5862 127.863 50.7715C127.935 51.7547 129.605 74.897 128.753 78.0091C127.931 81.0115 127.856 82.1006 127.856 82.1119C127.845 82.2934 127.697 82.4334 127.52 82.4334Z" fill="#F7C8B5"/>
<path d="M136.11 51.6828C136.053 51.6828 135.997 51.6677 135.944 51.6412C132.633 49.7845 130.767 51.1421 130.688 51.1988C130.537 51.3122 130.326 51.282 130.213 51.1345C130.1 50.987 130.126 50.7753 130.273 50.658C130.363 50.59 132.55 48.9602 136.272 51.0475C136.434 51.1383 136.494 51.3463 136.404 51.5126C136.343 51.6223 136.23 51.6828 136.11 51.6828Z" fill="#F7C8B5"/>
<path d="M16.0627 84.6871C16.4548 83.2615 17.2919 81.8018 17.8009 81.0796C19.901 78.1074 23.2793 76.1411 26.7255 75.1465C31.6535 73.7285 36.8793 73.8949 41.9694 73.2558C47.0557 72.6168 52.3946 70.9227 55.5052 66.8312C58.5404 62.8418 58.827 57.4722 60.4634 52.7303C62.8086 45.9313 68.287 40.2289 75.0738 37.9033C81.8606 35.5777 89.8162 36.7916 95.4266 41.2725C96.8518 42.4108 96.8858 42.8191 96.5879 44.6229C96.2674 46.5552 95.0533 45.6968 92.6025 49.1379C91.1434 51.1837 93.0512 55.2562 92.0294 57.5516C90.6683 60.6032 87.1995 62.562 83.8928 62.1384C85.6612 68.1887 86.1476 75.3054 82.2527 80.2552C79.8962 83.2501 76.2728 84.9745 72.6306 86.0786C68.9883 87.1828 65.1953 87.7727 61.6096 89.0546C56.2895 90.9529 51.5199 94.3789 48.0172 98.822C46.0151 101.363 44.3862 104.252 41.909 106.336C39.873 108.045 38.0368 106.113 36.7775 104.487C35.5709 102.932 34.0552 101.431 32.2303 100.539C30.183 99.5405 27.7586 99.9943 25.7942 98.8825C24.9383 98.3985 24.2483 97.6044 23.7846 96.746C22.9475 95.1919 22.661 93.3995 21.9898 91.7621C21.5638 90.7184 20.919 89.6975 20.0066 89.013C19.0564 88.2983 18.1101 88.5063 17.077 88.0979C15.7196 87.5685 15.6593 86.1467 16.0627 84.6871Z" fill="#4A2533"/>
<path d="M76.3956 57.8503C76.2108 57.8503 76.06 57.7028 76.0563 57.5175C75.8866 50.8169 78.3185 46.8691 80.3923 44.7401C82.564 42.5091 84.8037 41.7225 85.1204 41.7225C85.3089 41.7225 85.4597 41.8738 85.4597 42.0629C85.4597 42.2406 85.324 42.3881 85.1505 42.4032C84.9243 42.4637 76.4258 45.209 76.7387 57.5062C76.7425 57.6953 76.5954 57.8503 76.4069 57.8541C76.3994 57.8503 76.3956 57.8503 76.3956 57.8503Z" fill="#755462"/>
<path d="M74.3091 52.4618C74.2827 52.4618 74.2563 52.458 74.2299 52.4542C74.049 52.4126 73.9358 52.2273 73.9773 52.0458C74.9463 47.89 77.7855 45.5342 77.9061 45.4359C78.0532 45.3187 78.2643 45.3414 78.385 45.4851C78.5018 45.6325 78.483 45.8443 78.3359 45.9653C78.3096 45.988 75.5534 48.2795 74.6409 52.2009C74.6032 52.3559 74.4637 52.4618 74.3091 52.4618Z" fill="#755462"/>
<path d="M36.8284 93.9592C36.753 93.9592 36.6776 93.9327 36.6135 93.8798C36.4702 93.7588 36.4476 93.547 36.5682 93.3995C40.4857 88.6236 47.1556 84.9594 56.3894 82.5015C60.7329 81.3443 68.911 75.9104 68.994 75.8575C69.1485 75.7516 69.3597 75.797 69.4653 75.952C69.5708 76.1071 69.5256 76.3188 69.371 76.4247C69.0317 76.6516 61.0157 81.9758 56.5666 83.1594C47.4723 85.5795 40.9193 89.1681 37.0923 93.8306C37.0207 93.9176 36.9264 93.9592 36.8284 93.9592Z" fill="#755462"/>
<path d="M41.4104 86.6798C41.3049 86.6798 41.1993 86.6307 41.1352 86.5399C41.0258 86.3887 41.0598 86.1731 41.2144 86.0635C44.9471 83.3711 47.1415 82.8152 47.232 82.7925C47.413 82.7472 47.5977 82.8606 47.643 83.0421C47.6882 83.2236 47.5751 83.4089 47.3941 83.4543C47.3715 83.4581 45.2186 84.0139 41.614 86.6155C41.5499 86.6571 41.4783 86.6798 41.4104 86.6798Z" fill="#755462"/>
<path d="M37.8747 86.6912C37.837 86.6912 37.7993 86.6837 37.7616 86.6723C37.5844 86.6118 37.4901 86.4114 37.5505 86.2299C37.7465 85.6362 40.7289 83.4846 42.0297 82.8191C42.1956 82.7321 42.403 82.8002 42.486 82.9666C42.5727 83.1329 42.5048 83.3371 42.3389 83.4241C40.9288 84.1464 38.395 86.0862 38.1877 86.4644C38.1386 86.6081 38.0142 86.6912 37.8747 86.6912Z" fill="#755462"/>
<path d="M79.2451 59.8884C79.2489 58.1754 80.5497 57.1204 82.1974 57.6423C85.1232 58.5649 87.1367 60.5199 88.1434 63.4278C88.6599 64.9177 87.7286 65.882 85.7755 66.0181C82.8082 66.2223 79.2376 62.872 79.2451 59.8884Z" fill="#755462"/>
<path d="M85.8793 62.8797C85.785 62.8797 85.6945 62.8419 85.6266 62.7663C82.9647 59.7751 81.8977 59.6655 81.5583 59.76C81.2869 59.8357 81.2228 60.1306 81.2228 60.1457C81.1851 60.3272 81.0078 60.452 80.8269 60.418C80.6459 60.384 80.5215 60.21 80.5554 60.0285C80.6006 59.76 80.8231 59.2684 81.366 59.1096C82.3916 58.8147 83.9488 59.8659 86.1319 62.3163C86.2563 62.4562 86.245 62.6717 86.1055 62.7965C86.0414 62.8494 85.9584 62.8797 85.8793 62.8797Z" fill="white"/>
<path d="M82.2042 61.8774C82.1891 61.8774 82.174 61.8774 82.1589 61.8736C81.9742 61.8472 81.8422 61.677 81.8686 61.4917C81.8761 61.4274 81.9704 60.8375 82.4869 60.5047C82.8527 60.2665 83.3127 60.2287 83.8594 60.3913C84.0404 60.4442 84.1422 60.6333 84.0894 60.8148C84.0366 60.9963 83.8481 61.0984 83.6671 61.0455C83.3164 60.9434 83.045 60.9547 82.8527 61.0757C82.5963 61.2421 82.5397 61.5787 82.5397 61.5825C82.5171 61.7526 82.3701 61.8774 82.2042 61.8774Z" fill="white"/>
<path d="M102.673 16.7802C102.597 16.7802 102.526 16.7576 102.462 16.7046C95.7994 11.3993 84.8915 2.91755 83.7755 2.59235C83.6246 2.59613 83.4814 2.50159 83.4361 2.35033C83.3833 2.16883 83.4814 1.97975 83.6623 1.92681C83.9414 1.83984 84.3259 1.72262 93.7256 8.98295C98.303 12.5186 102.839 16.1336 102.884 16.1714C103.031 16.2887 103.054 16.5042 102.941 16.6479C102.873 16.7387 102.775 16.7802 102.673 16.7802Z" fill="white"/>
<path d="M105.011 14.4169C104.925 14.4169 104.838 14.3829 104.774 14.3186L90.68 0.4143C90.548 0.28195 90.5442 0.066409 90.6762 -0.0659409C90.8082 -0.198291 91.0231 -0.202072 91.1551 -0.0697223L105.253 13.8346C105.385 13.9669 105.388 14.1825 105.256 14.3148C105.189 14.3829 105.102 14.4169 105.011 14.4169Z" fill="white"/>
<path d="M107.052 9.81487C106.95 9.81487 106.848 9.76949 106.78 9.67874L103.892 5.85572C103.779 5.70446 103.809 5.4927 103.956 5.37926C104.103 5.26582 104.318 5.29607 104.431 5.44354L107.319 9.26656C107.432 9.41782 107.402 9.62958 107.255 9.74302C107.195 9.79218 107.123 9.81487 107.052 9.81487Z" fill="white"/>
<path d="M67.2264 35.3546C66.5138 34.7155 65.722 34.2239 64.9265 33.9517C62.7057 33.1954 59.7459 33.9479 57.8267 35.2411C54.9273 37.1923 56.0697 41.3254 57.7777 43.6699C59.0484 45.4132 61.7857 46.8917 64.0329 46.9825C65.5184 47.043 66.6345 46.8539 67.4791 45.5795C67.5092 45.5417 67.5318 45.5039 67.562 45.4623C68.4254 44.8119 69.1079 43.9119 69.4585 42.8115C69.5339 42.6565 69.6056 42.5015 69.6659 42.3351C70.5256 39.9717 69.1833 37.1129 67.2264 35.3546Z" fill="#4A2533"/>
<path d="M63.5817 47.0012C63.4987 47.0012 63.4158 46.971 63.3479 46.9067C63.2122 46.7781 63.2046 46.5626 63.3328 46.4264C63.3441 46.4151 64.5205 45.1672 66.1116 43.666C67.6123 42.2517 67.8196 42.0059 67.8272 41.9984C67.9441 41.8585 68.159 41.8358 68.3023 41.9492C68.4455 42.0664 68.4719 42.2706 68.3626 42.4181C68.2834 42.5202 67.7744 43.0307 66.5792 44.1614C65.0031 45.6512 63.8418 46.8802 63.8305 46.8953C63.7589 46.9672 63.6722 47.0012 63.5817 47.0012Z" fill="#4A2533"/>
</g>
<defs>
<clipPath id="clip0">
<rect width="298" height="242" fill="white"/>
</clipPath>
</defs>
</svg>
