<svg width="341" height="263" viewBox="0 0 341 263" fill="none" xmlns="http://www.w3.org/2000/svg">
<g clip-path="url(#clip0)">
<path d="M172.666 321.422C216.806 324.134 299.57 294.776 331.774 234.517C355.063 190.959 334.553 105.665 311.916 79.1789C244.876 0.730587 123.048 16.7385 54.8715 94.789C7.49253 128.934 -0.759651 202.074 41.6296 259.036C67.688 294.032 119.095 318.071 172.666 321.422Z" fill="#B6DADD"/>
<mask id="mask0" mask-type="alpha" maskUnits="userSpaceOnUse" x="14" y="3" width="384" height="319">
<path d="M172.666 321.421C216.806 324.134 311.497 298.293 343.701 238.034C366.99 194.476 413.785 68.4762 391.149 41.9899C324.109 -36.4584 123.048 16.7383 54.8715 94.7887C7.49253 128.934 -0.75965 202.074 41.6296 259.036C67.688 294.031 119.095 318.071 172.666 321.421Z" fill="#B6DADD"/>
</mask>
<g mask="url(#mask0)">
<path d="M118.837 81.3824C121.266 70.0602 130.61 60.1476 139.494 53.2659C151.288 44.1175 165.519 42.684 179.926 45.0312C206.693 49.3739 232.863 62.1207 260.431 55.2337C270.736 52.6611 279.02 47.0445 286.812 40.0018C295.638 32.0339 303.965 23.2868 315.589 19.5424C330.45 14.7673 345.132 16.1162 359.02 22.9129C369.086 27.8412 378.465 32.6661 389.953 32.7816C415.764 33.0512 438.31 13.926 464.519 19.3466C465.007 19.4472 465.226 18.6987 464.738 18.5981C441.679 13.826 421.644 27.8297 399.545 31.2638C392.795 32.3195 385.82 32.318 379.149 30.6925C372.146 28.9789 365.846 25.3859 359.425 22.24C347.588 16.4525 335.637 14.4208 322.579 16.9766C311.644 19.1127 302.918 24.3266 294.705 31.6767C285.193 40.1675 276.464 49.4205 263.97 53.4243C233.4 63.2135 204.594 46.5376 174.609 43.539C161.646 42.2449 149.352 44.6233 138.96 52.7055C130.033 59.6387 120.551 69.7581 118.099 81.174C117.978 81.6524 118.726 81.8714 118.837 81.3824Z" fill="white"/>
<path d="M-4.27776 150.589C-2.2761 136.756 8.40985 125.209 18.2618 116.07C29.1145 106.004 41.0828 100.12 56.0014 99.3172C71.8792 98.4513 86.7039 102.927 101.883 106.891C115.811 110.521 130.313 112.795 144.7 110.917C156.564 109.363 167.146 104.721 176.539 97.3456C186.005 89.9182 194.418 80.7905 205.334 75.4078C218.042 69.1279 231.835 70.411 244.887 74.9592C256.751 79.0902 268.063 85.1197 280.709 86.5488C293.918 88.0405 306.365 83.7948 318.354 78.7042C325.256 75.7729 332.085 72.6225 339.268 70.4632C343.073 69.3157 346.972 68.4394 350.934 68.043C354.207 67.7092 358.429 68.7628 361.526 67.9804C361.036 68.1056 361.244 68.8567 361.734 68.7315C362.068 68.6481 362.391 68.5646 362.725 68.4812C363.037 68.3977 363.121 67.9178 362.818 67.7614C358.794 65.7168 352.153 66.9686 347.827 67.657C341.394 68.6794 335.202 70.8178 329.186 73.2589C316.801 78.2765 304.739 84.5876 291.238 85.8707C263.955 88.4787 241.03 64.4024 213.528 71.5063C202.748 74.2916 194.064 81.4164 185.807 88.5412C174.391 98.3783 163.184 106.911 147.942 109.634C131.293 112.597 114.519 109.509 98.422 105.159C83.8995 101.237 69.5752 97.4916 54.3959 98.6391C40.1966 99.7136 28.6767 105.472 18.2826 115.006C8.15964 124.291 -2.96417 136.224 -5.01796 150.38C-5.10136 150.87 -4.35074 151.079 -4.27776 150.589Z" fill="white"/>
<path d="M-8.24933 184.377C7.20098 163.889 26.6234 145.936 51.8839 138.916C66.0832 134.972 80.8558 134.795 95.4096 136.527C111.058 138.384 126.811 143.286 142.657 141.732C155.532 140.47 167.959 136.297 179.26 130.08C189.759 124.301 199.35 116.957 210.046 111.522C222.89 105.002 237.037 102.53 251.237 105.545C264.727 108.413 277.185 115.225 290.999 116.748C307.554 118.574 322.535 110.844 337.882 106.014C347.129 103.104 356.751 100.465 366.52 100.475C368.188 100.475 381.074 101.414 380.938 102.248C380.855 102.739 381.605 102.958 381.689 102.457C382.179 99.5152 364.633 99.703 362.715 99.8386C346.639 100.944 331.908 107.662 316.791 112.565C308.743 115.173 300.319 116.863 291.833 116.07C283.461 115.298 275.465 112.388 267.584 109.655C254.448 105.096 241.416 101.81 227.488 104.502C215.217 106.87 204.521 113.41 194.137 120.066C181.794 127.983 169.429 135.285 155.032 138.811C146.4 140.929 137.392 141.93 128.531 140.877C119.69 139.834 110.954 137.925 102.144 136.642C87.528 134.503 72.6824 133.689 58.1078 136.631C29.7614 142.358 8.04544 161.479 -8.92698 183.991C-9.22931 184.377 -8.55166 184.773 -8.24933 184.377Z" fill="white"/>
<path d="M385.128 133.721C369.897 128.672 354.582 128.442 338.902 131.426C330.312 133.053 321.951 135.692 313.35 137.278C303.8 139.041 294.626 138.853 285.108 136.944C269.981 133.909 255.5 128.776 239.851 131.05C226.278 133.032 214.601 140.022 203.822 148.169C192.062 157.057 180.604 167.207 166.353 171.911C158.326 174.561 149.839 175.072 141.582 173.257C133.93 171.577 126.924 168.02 119.71 165.078C112.777 162.251 105.646 160.071 98.088 160.416C90.978 160.749 84.0347 162.815 77.498 165.527C65.8738 170.357 55.0106 176.96 45.3985 185.055C34.8793 193.912 25.3402 203.999 13.987 211.844C8.25309 215.808 2.0396 219.167 -4.6743 221.128C-6.72809 221.722 -29.1112 224.894 -27.8394 220.565C-27.6934 220.085 -28.4544 219.876 -28.59 220.356C-30.4665 226.73 -7.37446 222.776 -3.8507 221.702C6.96035 218.416 16.2806 211.656 24.7981 204.427C34.3685 196.3 43.1466 187.162 53.3426 179.787C65.9885 170.639 82.252 161.897 98.0985 161.198C115.238 160.436 129.124 172.652 145.721 174.769C159.399 176.512 172.222 171.546 183.534 164.202C195.909 156.17 206.574 145.644 219.647 138.686C235.733 130.122 252.435 130.07 269.845 134.18C278.425 136.204 286.974 138.634 295.804 139.26C304.947 139.907 313.882 138.165 322.722 136.016C343.834 130.883 363.756 127.483 384.909 134.493C385.399 134.639 385.608 133.888 385.128 133.721Z" fill="white"/>
<path d="M-35.108 252.862C-3.94673 250.41 22.2104 233.855 47.6481 217.112C60.3358 208.756 73.9616 201.131 89.6517 201.84C98.4611 202.237 106.906 205.335 115.475 207.16C122.45 208.652 129.529 209.654 136.67 209.622C151.693 209.56 168.3 206.868 182.312 201.444C196.584 195.915 207.406 185.243 218.978 175.646C225.462 170.274 232.02 165.507 240.694 164.923C248.554 164.401 256.248 166.915 263.692 169.064C279.121 173.518 294.853 177.43 311.012 175.239C319.707 174.061 328.058 171.307 336.096 167.875C344.009 164.495 351.713 159.696 360.251 158.1C370.145 156.254 378.913 160.051 388.327 162.388C395.906 164.265 402.901 164.057 410.293 161.449C410.543 161.365 410.647 161.115 410.522 160.875C409.803 159.467 410.199 159.874 408.666 159.175C408.208 158.966 407.811 159.644 408.27 159.853C410.168 160.719 405.07 162.242 404.715 162.315C402.369 162.815 399.961 163.055 397.563 162.993C393.425 162.899 389.39 161.918 385.418 160.792C378.631 158.872 371.938 156.389 364.776 156.755C358.604 157.068 352.839 159.3 347.282 161.856C339.536 165.413 331.905 169.137 323.721 171.62C305.758 177.075 288.118 175 270.312 170.118C257.948 166.727 244.374 160.99 231.665 166.174C225.608 168.647 220.552 173.237 215.621 177.43C209.168 182.917 202.891 188.655 195.854 193.401C181.864 202.863 165.34 205.919 148.868 207.922C140.058 208.996 131.374 209.09 122.585 207.703C114.36 206.399 106.457 203.885 98.336 202.174C85.6067 199.493 73.211 201.924 61.7119 207.755C46.9184 215.266 33.8138 225.844 19.333 233.959C2.43357 243.431 -15.6961 250.525 -35.1393 252.058C-35.6084 252.11 -35.6084 252.893 -35.108 252.862Z" fill="white"/>
<path d="M59.4424 260.476C71.2335 255.792 82.6596 251.202 93.1996 244.025C105.126 235.909 117.021 232.488 131.471 232.707C156.012 233.082 183.514 237.474 206.179 225.634C217.094 219.938 225.737 210.706 238.122 208.078C250.497 205.449 263.278 208.203 275.465 210.56C287.965 212.981 300.392 214.431 313.122 213.012C324.954 211.697 335.995 207.994 346.889 203.352C359.671 197.907 372.734 193.734 386.453 198.783C394.741 201.829 404.927 208.265 413.788 203.696C414.237 203.467 413.841 202.789 413.392 203.018C403.436 208.151 391.979 198.992 382.419 196.665C372.494 194.245 362.402 196.217 353.092 199.91C341.322 204.573 330.104 209.642 317.49 211.635C303.395 213.857 289.592 212.49 275.674 209.799C264.884 207.713 253.739 205.345 242.688 206.565C231.429 207.806 223.693 213.481 214.571 219.646C203.353 227.23 191.479 231.309 177.947 232.248C164.352 233.197 150.758 232.707 137.174 232.102C123.464 231.497 110.485 232.456 98.4748 239.654C92.449 243.264 86.934 247.509 80.6267 250.67C73.7043 254.144 66.417 256.856 59.2235 259.714C58.7752 259.902 58.9733 260.653 59.4424 260.476Z" fill="white"/>
<path d="M101.229 288.304C116.283 272.75 137.238 272.563 157.442 271.749C165.772 271.415 173.894 271.05 181.702 267.837C189.292 264.707 195.901 259.763 202.803 255.402C211.112 250.145 219.88 246.254 229.846 245.764C240.365 245.252 250.603 248.184 260.59 251.115C269.64 253.775 278.783 256.539 288.259 257.009C297.798 257.478 306.868 255.027 315.813 251.981C326.896 248.215 337.738 244.314 349.644 244.981C360.809 245.617 372.809 248.205 382.41 254.151C382.838 254.411 383.234 253.744 382.806 253.473C367.398 243.938 346.464 241.831 329.241 246.723C318.931 249.655 309.089 254.213 298.414 255.736C287.227 257.322 276.301 254.85 265.595 251.762C247.027 246.421 228.668 241.059 210.32 250.176C202.365 254.13 195.411 259.752 187.655 264.05C178.251 269.266 168.827 270.476 158.235 270.925C137.572 271.791 116.064 271.832 100.666 287.741C100.322 288.116 100.875 288.669 101.229 288.304Z" fill="white"/>
</g>
<path d="M144.896 49.1057C146.336 47.6791 150.825 56.8789 151.687 58.0537C160.193 69.665 170.55 78.6307 179.956 89.5265C181.658 91.4963 183.474 93.7355 183.363 96.3369C183.31 97.578 182.811 98.766 182.104 99.7863C180.871 101.575 178.962 102.922 176.833 103.346C176.797 103.814 177.504 103.88 177.849 104.203C178.251 104.583 178.017 105.32 177.535 105.59C177.054 105.859 176.457 105.78 175.922 105.634C172.37 104.68 170.307 101.12 168.336 98.2935C165.932 94.8397 163.617 91.3196 161.408 87.7378C159.879 85.2689 158.399 82.7691 156.967 80.2428C153.923 74.8722 149.252 69.7092 146.425 64.2193C145.254 61.9447 145.921 59.3434 144.75 57.0688C144.485 56.5565 144.215 49.777 144.896 49.1057ZM163.383 86.0153C163.356 86.0727 163.299 86.1434 163.316 86.1875C163.334 86.2317 163.422 86.2405 163.484 86.267C163.511 86.2096 163.568 86.139 163.551 86.0948C163.533 86.055 163.44 86.0418 163.383 86.0153Z" fill="#FC8D6A"/>
<path d="M303.564 204.663C303.317 206.209 302.446 206.174 300.864 206.041C299.207 205.9 297.59 206.2 295.973 206.589C291.015 207.773 285.965 208.338 280.897 208.753C274.552 209.274 268.326 210.405 262.216 212.216C257.921 213.488 253.958 212.207 251.541 208.466C250.701 207.163 249.672 206.766 248.448 206.364C246.265 205.644 243.981 205.485 241.727 205.162C238.82 204.747 238.811 204.769 239.964 202.133C240.998 199.761 242.045 197.394 243.092 195.031C243.305 194.545 243.495 194.156 243.057 193.613C242.576 193.008 242.942 192.213 243.119 191.581C244.157 187.876 243.446 184.21 242.969 180.54C242.717 178.605 242.014 176.733 242.213 174.732C242.266 174.171 242.319 173.614 242.518 173.084C242.69 172.634 242.991 172.329 243.525 172.294C247.789 172.007 252.013 171.393 256.233 170.775C260.174 170.196 264.102 169.463 268.004 168.659C276.213 166.967 284.405 165.192 292.606 163.443C293.53 163.244 294.449 163.037 295.359 162.794C295.946 162.639 296.273 162.878 296.543 163.363C297.056 164.295 297.334 165.311 297.621 166.318C299.229 172.011 300.696 177.74 301.571 183.605C302.026 186.652 301.987 187.332 302.579 190.353C304.739 197.045 303.807 203.162 303.564 204.663Z" fill="#2F3D4D"/>
<path d="M258.446 227.448C258.751 224.556 258.857 221.641 258.676 218.734C258.371 213.951 256.206 209.747 256.034 204.981C255.906 201.465 256.723 197.981 256.347 194.465C255.826 189.572 249.181 188.565 246.742 187.421C246.136 187.138 241.307 188.304 244.272 184.007C244.59 183.547 244.104 190.256 241.462 196.042C237.772 204.115 235.271 211.659 231.423 219.64C228.887 224.894 208.598 268.776 196.842 297.031C194.22 301.852 200.669 316.085 205.966 318.61C211.033 318.151 210.803 317.692 219.095 315.855C227.387 314.019 229.639 313.115 234.066 310.805C231.302 308.05 231.61 305.024 234.066 300.245C237.027 294.482 252.296 263.488 255.163 257.676C255.623 256.744 256.096 255.777 256.144 254.734C256.237 252.72 254.576 251.046 252.658 250.724C254.523 251.038 257.209 235.372 257.51 233.76C257.903 231.671 258.225 229.564 258.446 227.448Z" fill="#2F3D4D"/>
<path d="M267.713 204.822C268.406 205.114 282.117 203.904 287.865 202.473C289.032 202.186 300.657 198.75 301.571 198.935C302.424 199.107 303.706 198.979 303.56 199.629C304.762 203.378 303.083 208.44 302.111 212.061C300.683 217.388 298.726 222.511 297.316 227.855C293.592 241.979 291.736 256.342 289.12 270.657C288.099 276.204 286.256 279.097 285.2 284.635C274.986 293.468 253.875 304.148 241.898 307.591C242.323 300.949 246.959 276.866 247.913 270.25C248.545 265.873 248.647 261.452 249.177 257.067C251.329 239.347 252.778 221.46 255.469 203.815C255.654 202.596 256.269 201.987 257.148 202.005C258.054 202.031 265.715 203.979 267.713 204.822Z" fill="#2F3D4D"/>
<path d="M270.533 286.556C270.338 286.556 270.171 286.415 270.14 286.221C269.574 282.643 272.424 190.115 272.548 186.18C272.552 185.959 272.747 185.778 272.959 185.796C273.18 185.804 273.352 185.985 273.343 186.206C273.312 187.169 270.374 282.594 270.926 286.101C270.961 286.318 270.811 286.521 270.595 286.556C270.573 286.556 270.555 286.556 270.533 286.556Z" fill="#556D84"/>
<path d="M281.591 226.923C281.405 226.923 281.237 226.791 281.202 226.601L276.523 202.751C276.479 202.535 276.62 202.327 276.836 202.283C277.049 202.243 277.261 202.38 277.305 202.596L281.984 226.446C282.028 226.663 281.887 226.87 281.67 226.914C281.644 226.923 281.617 226.923 281.591 226.923Z" fill="#556D84"/>
<path d="M258.351 215.374C258.214 215.374 258.081 215.303 258.006 215.175C257.498 214.305 256.491 212.684 255.01 210.356C252.783 206.854 250.234 202.928 250.207 202.888C250.088 202.702 250.141 202.46 250.322 202.336C250.508 202.217 250.751 202.27 250.875 202.451C250.901 202.49 253.451 206.417 255.682 209.924C257.167 212.26 258.183 213.89 258.691 214.769C258.801 214.959 258.74 215.201 258.55 215.312C258.483 215.356 258.417 215.374 258.351 215.374Z" fill="#556D84"/>
<path d="M247.877 272.693C247.868 272.693 247.859 272.693 247.85 272.693C247.63 272.679 247.466 272.489 247.479 272.269C248.915 249.956 255.362 211.222 255.424 210.833C255.459 210.617 255.662 210.471 255.883 210.507C256.1 210.542 256.246 210.75 256.21 210.966C256.144 211.355 249.711 250.049 248.275 272.322C248.261 272.529 248.089 272.693 247.877 272.693Z" fill="#556D84"/>
<path d="M222.318 273.699C222.287 273.699 222.256 273.695 222.22 273.686C222.008 273.633 221.876 273.417 221.929 273.205C226.135 256.095 247.291 194.558 247.503 193.94C247.574 193.732 247.799 193.622 248.007 193.692C248.214 193.763 248.325 193.988 248.254 194.196C248.042 194.814 226.895 256.316 222.702 273.395C222.658 273.576 222.494 273.699 222.318 273.699Z" fill="#556D84"/>
<path d="M214.663 282.625C214.623 282.625 214.579 282.617 214.539 282.603C214.332 282.533 214.217 282.307 214.287 282.1C214.694 280.876 216.037 275.705 217.588 269.72C222.528 250.667 224.039 245.332 224.609 244.912C224.786 244.779 225.033 244.819 225.166 244.996C225.285 245.159 225.263 245.389 225.117 245.521C224.437 246.493 220.783 260.582 218.361 269.914C216.806 275.917 215.463 281.102 215.043 282.347C214.986 282.524 214.831 282.625 214.663 282.625Z" fill="#556D84"/>
<path d="M330.1 175.673C330.056 176.945 329.274 177.943 328.284 178.747C325.324 181.154 322.072 183.039 318.391 184.144C317.689 184.356 293.339 195.746 292.663 196.033C292.159 196.245 296.118 187.341 295.884 186.745C295.658 186.18 313.619 181.039 314.026 180.827C317.508 179.007 322.576 179.749 325.748 177.439C326.817 176.657 327.993 175.893 327.436 174.206C327.303 173.809 327.666 173.482 328.006 173.283C328.408 173.049 328.819 173.107 329.172 173.416C329.831 173.977 330.078 174.723 330.1 175.673Z" fill="#BAD7E0"/>
<path d="M255.296 167.219C255.503 167.224 255.715 167.233 255.923 167.233C256.276 167.233 256.55 167.383 256.656 167.718C256.78 168.103 256.497 168.328 256.21 168.452C252.114 170.187 249.092 173.438 245.809 176.212C240.418 180.761 236.265 186.379 234.144 193.268C233.278 196.077 233.512 199.156 232.545 201.916C232.368 202.415 230.932 203.082 230.702 202.345C230.632 202.124 230.698 201.885 230.751 201.66C231.14 199.977 230.397 198.281 230.039 196.625C229.633 194.735 230.07 192.92 230.247 191.029C230.583 187.434 230.892 183.835 230.998 180.226C231.144 175.138 230.724 169.975 229.249 165.082C227.702 159.95 226.094 154.835 224.512 149.712C224.379 149.288 224.335 148.828 223.65 148.917C223.01 149.001 222.965 148.4 222.895 147.976C221.971 142.672 220.964 137.381 220.199 132.054C219.917 130.062 219.859 128.013 219.696 125.99C219.453 122.96 219.515 119.886 218.644 116.936C218.286 115.73 217.76 114.573 217.411 113.363C216.859 111.442 217.336 109.529 217.654 107.639C217.884 106.288 218.083 104.941 218.021 103.567C217.535 92.6447 220.655 82.5969 225.44 72.9511C225.705 72.4166 225.966 71.8955 226.094 71.2992C226.381 69.9787 227.393 69.2499 228.506 68.689C229.315 68.2783 230.19 68 231.087 67.8057C233.976 67.1653 235.598 67.7262 237.211 70.226C239.513 73.7946 241.616 77.4957 242.906 81.5679C244.846 87.676 247.015 93.718 248.226 100.038C248.738 102.723 248.853 105.457 249.194 108.165C249.286 108.893 249.339 109.649 249.6 110.324C250.683 113.138 251.147 116.057 251.284 119.047C251.443 122.558 252.251 125.977 252.852 129.422C253.983 135.941 255.278 142.424 256.466 148.93C257.142 152.649 256.975 156.456 256.643 160.237C256.436 162.617 256.082 164.958 255.313 167.228C255.291 167.237 255.26 167.246 255.242 167.259C255.234 167.268 255.238 167.294 255.234 167.312C255.251 167.286 255.273 167.255 255.296 167.219Z" fill="#035D65"/>
<path d="M182.021 61.0218C181.985 61.1675 181.924 61.512 181.818 61.8433C181.371 63.2478 180.996 64.6743 180.744 66.1274C180.66 66.6 180.395 66.9666 180.077 67.2934C178.3 69.1395 176.454 70.9062 174.443 72.4917C173.869 72.9467 173.259 73.4236 172.468 72.8142C172.119 72.5447 171.982 72.9202 171.845 73.141C171.085 74.3511 169.737 74.1303 168.642 74.307C167.864 74.4306 167.718 73.5738 168.036 72.9113C168.779 71.3699 169.556 69.8418 170.365 68.3313C171.218 66.7413 172.857 65.9551 173.882 64.5197C175.265 62.5764 177.191 61.119 179.074 59.6571C179.741 59.1403 180.457 58.9901 181.234 59.3435C181.853 59.6305 182.034 60.1782 182.021 61.0218Z" fill="#BAD7E0"/>
<path d="M153.312 28.7276C153.431 27.6058 153.507 26.5458 152.99 25.4902C152.689 24.8763 152.751 24.0504 152.769 23.3217C152.848 20.2786 153.047 17.2488 153.701 14.2588C154.063 12.6025 154.655 11.1318 155.901 9.96141C156.281 9.60366 156.613 9.11783 157.231 9.28566C157.854 9.45791 158.071 9.98791 158.172 10.5621C158.517 12.4524 158.831 14.3515 159.202 16.2418C160.059 20.6099 161.075 24.947 162.436 29.1781C164.535 35.7014 166.546 42.2734 169.718 48.3904C170.036 49.0043 170.058 49.2737 169.188 49.3134C167.491 49.3885 166.09 50.3867 164.654 51.1419C163.324 51.8353 162.414 51.8353 160.908 51.1419C158.022 49.8125 157.006 47.5336 156.326 44.8306C155.296 40.7408 153.909 36.7923 151.934 33.0515C151.244 31.7486 150.745 30.3618 150.294 28.9573C150.056 28.2197 150.1 27.3099 150.718 27.0935C151.319 26.8815 152.318 26.8903 152.72 27.8708C152.853 28.1844 153.113 28.4449 153.312 28.7276Z" fill="#EBB097"/>
<path d="M153.398 61.534C154.295 62.3511 153.336 62.7309 152.987 63.1947C152.554 63.7733 151.904 63.7159 151.264 63.442C149.121 62.5366 147.464 61.0615 146.28 59.0872C145.833 58.3453 145.383 58.0096 144.517 58.2437C143.478 58.5263 142.851 58.1553 142.246 57.1704C139.895 53.3368 138.561 49.1101 137.16 44.8922C136.678 43.4392 136.183 41.9508 135.945 40.4845C135.6 38.3822 135.362 36.1915 135.954 34.0495C136.077 33.6078 136.139 33.1661 136.152 32.7024C136.192 31.3818 136.099 30.0303 136.926 28.8555C137.151 28.5331 137.076 28.1135 137.08 27.7249C137.085 26.8857 136.939 26.051 137.054 25.203C137.16 24.4124 137.504 23.8117 138.304 23.7455C139.175 23.6748 139.824 24.1872 139.997 25.0307C140.832 29.0498 142.648 32.7775 143.456 36.801C143.509 37.0572 143.655 37.2957 143.743 37.5121C144.053 37.5121 144.084 37.3089 144.185 37.1764C144.601 36.6332 145.047 36.0634 145.824 36.3284C146.593 36.5934 146.836 37.3133 146.81 38.0332C146.708 40.7936 147.23 43.4701 147.795 46.1421C148.484 49.4237 149.863 52.4579 151.264 55.4745C152.222 57.5458 153.371 59.5157 154.918 61.2205C155.174 61.5031 155.364 61.8344 155.046 62.1347C154.754 62.4085 154.617 61.9669 154.41 61.8609C154.109 61.724 153.915 61.3441 153.398 61.534Z" fill="#D7997F"/>
<path d="M165.146 44.2606C164.863 43.4877 165.481 43.0858 165.495 42.4233C165.508 41.8049 166.113 41.9154 166.498 42.3261C167.196 43.0769 167.646 44 168.168 44.8701C170.041 47.997 171.879 51.1505 173.77 54.2642C176.09 58.0846 179.051 61.4236 181.856 64.8773C187.07 71.3035 193.424 76.6123 199.128 82.5571C199.685 83.14 200.259 83.7098 200.851 84.2575C203.145 86.3642 203.215 88.9346 202.429 91.6862C202.314 92.0969 202.097 92.4547 201.81 92.7727C201.223 93.4219 200.383 93.8548 200.697 95.0605C200.865 95.7053 199.915 96.0586 199.194 95.6523C198.735 95.3962 198.32 95.0605 197.856 94.8176C197.383 94.5702 196.99 94.3317 196.331 94.6939C195.615 95.0914 194.763 94.6232 194.06 94.2302C191.215 92.6314 188.899 90.37 186.637 88.0734C183.778 85.1761 181.118 82.1021 178.467 79.0149C175.573 75.6451 173.276 71.8777 170.987 68.0971C167.518 62.3643 164.12 56.5918 161.226 50.541C160.86 49.7725 160.294 49.0217 161.036 48.1207C161.262 47.8469 160.957 47.445 160.868 47.1181C160.581 46.067 160.595 45.0688 161.425 44.2827C162.278 43.4788 163.325 43.7748 164.324 43.9382C164.527 43.9779 164.717 44.0927 165.146 44.2606Z" fill="#EBB097"/>
<path d="M200.361 36.2577C197.087 36.1959 193.415 32.2474 193.534 28.9968C193.653 25.808 195.297 23.3789 197.307 21.1131C197.696 20.6759 198.218 20.3888 198.814 20.6626C199.437 20.9497 200.144 21.1926 200.224 22.0627C200.286 22.7429 200.643 23.4274 200.184 24.0988C200.025 24.3284 200.149 24.4786 200.325 24.6243C201.359 25.4591 201.518 26.6427 201.562 27.8485C201.629 29.6858 201.54 31.5054 200.458 33.1042C200.122 33.5989 200.361 33.8021 200.833 33.8683C201.456 33.9522 202.084 34.0185 202.711 34.0671C203.007 34.0891 203.29 34.1068 203.409 34.4204C203.511 34.6942 203.303 34.8709 203.149 35.0608C202.437 35.922 201.615 36.2798 200.361 36.2577Z" fill="#4A2533"/>
<path d="M248.289 181.763C248.271 181.745 248.253 181.728 248.236 181.71C248.629 184.568 248.713 187.469 248.483 190.349C248.399 191.404 247.953 192.76 246.893 192.738C246.354 192.729 245.912 192.328 245.554 191.93C242.05 188.008 241.935 182.222 241.785 176.967C241.131 154.406 235.877 128.728 231.362 109.666C229.395 101.381 224.478 93.0685 225.618 84.3236C226.413 78.2331 227.35 72.1603 228.432 66.1139C228.507 65.7032 228.587 65.2704 228.843 64.9391C230.491 62.7706 234.035 68.0528 236.116 66.295C236.651 65.8445 236.779 65.0893 236.898 64.4047C237.95 58.376 240.773 52.6698 244.926 48.1781C245.664 47.3831 246.495 46.5881 247.551 46.3363C248.925 46.0051 250.33 46.6543 251.567 47.3389C262.804 53.5663 271.124 64.1486 276.815 75.6627C282.506 87.1768 285.802 99.6979 289.067 112.117C291.639 121.909 294.21 131.705 296.786 141.497C298.072 146.395 299.358 151.288 300.643 156.186C301.302 158.691 301.96 161.195 302.619 163.703C303.175 165.828 303.794 167.458 302.088 169.242C297.374 174.166 291.338 177.629 285.294 180.659C279.055 183.786 272.697 186.789 266.25 189.466C262.295 191.109 256.202 194.465 252.946 189.863C251.143 187.301 250.485 183.98 248.289 181.763Z" fill="white"/>
<path d="M247.879 180.858C247.742 180.858 247.609 180.787 247.534 180.659C246.765 179.343 244.772 161.628 242.797 143.595C242.294 138.993 241.931 135.667 241.847 135.186C241.534 133.357 232.9 97.5737 232.811 97.2115C232.758 96.9995 232.891 96.7831 233.103 96.7301C233.315 96.6815 233.532 96.8096 233.585 97.0216C233.943 98.4968 242.311 133.194 242.629 135.049C242.718 135.557 243.062 138.719 243.588 143.506C244.847 155.016 247.468 178.972 248.219 180.257C248.329 180.447 248.267 180.69 248.077 180.8C248.016 180.84 247.949 180.858 247.879 180.858Z" fill="#B6DADD"/>
<path d="M240.137 106.376C239.567 105.51 238.944 106.124 238.811 106.879C238.595 108.116 238.506 109.481 239.182 110.541C239.62 111.221 240.15 110.894 240.393 110.28C240.879 109.035 240.892 107.524 240.137 106.376Z" fill="#B6DADD"/>
<path d="M245.355 128.728C245.275 128.384 245.169 128.048 245.085 127.752C244.939 127.235 244.48 125.182 243.543 125.893C243.371 126.025 243.269 126.228 243.207 126.436C242.81 127.703 243.428 129.108 243.998 130.221C244.193 130.605 244.679 131.184 245.09 130.711C245.571 130.164 245.518 129.426 245.355 128.728Z" fill="#B6DADD"/>
<path d="M248.28 144.036C248.201 143.449 248.13 142.795 247.825 142.27C247.719 142.089 247.538 141.934 247.33 141.938C247.162 141.943 247.012 142.049 246.897 142.173C246.508 142.588 246.394 143.202 246.416 143.771C246.447 144.752 246.557 145.772 246.919 146.691C247.048 147.018 247.454 147.949 247.94 147.693C248.267 147.521 248.316 146.881 248.347 146.563C248.426 145.728 248.395 144.884 248.28 144.054C248.285 144.05 248.285 144.041 248.28 144.036Z" fill="#B6DADD"/>
<path d="M250.114 162.613C249.955 162.586 249.685 162.758 249.606 162.895C249.129 163.695 249.349 164.415 249.553 165.285C249.76 166.159 250.061 167.232 250.662 167.921C250.715 167.983 250.777 168.054 250.861 168.054C251.603 168.054 251.435 165.611 251.386 165.298C251.245 164.339 250.856 162.745 250.114 162.613Z" fill="#B6DADD"/>
<path d="M75.9865 190.248C75.8495 190.535 73.1763 191.211 72.1159 191.034C67.0479 190.177 62.2627 188.145 57.6277 185.933C54.0487 184.224 50.5271 182.395 47.0675 180.447C46.2103 179.966 45.3619 179.48 44.5136 178.985C43.811 178.575 42.7152 178.23 42.4811 177.409C41.9862 175.677 43.0555 173.818 43.9171 172.391C44.6726 171.146 45.4282 169.896 46.25 168.699C48.6139 165.267 51.8969 162.052 56.0282 161.513C56.8854 161.403 59.0592 160.414 59.3774 160.241C60.155 159.826 61.1094 160.193 61.8959 160.603C66.3056 162.9 69.9287 166.433 73.3928 169.998C75.0365 171.685 76.6581 173.394 78.2443 175.134C79.3357 176.331 80.4536 177.63 80.7364 179.224C81.0147 180.809 76.3709 189.448 75.9865 190.248Z" fill="#D93D3D"/>
<path d="M110.67 187.447C111.059 186.745 110.812 185.879 110.856 185.08C110.905 184.28 111.647 183.357 112.354 183.728C112.76 183.94 112.88 184.457 112.95 184.908C114.033 192.054 112.831 199.319 112.402 206.536C110.891 231.878 118.915 257.022 117.864 282.387C117.837 282.978 117.797 283.601 117.47 284.091C117.077 284.674 116.361 284.939 115.685 285.138C111.978 286.229 108.121 286.574 104.918 288.91C101.44 291.445 98.9349 294.06 94.5252 294.846C84.862 296.564 74.8806 294.625 65.6018 291.436C60.3394 289.625 54.2905 291.67 51.1887 287.051C48.9441 283.712 48.6525 274.9 45.5286 272.365C42.8731 270.206 39.2013 269.852 35.777 269.905C32.3527 269.958 28.84 270.32 25.5791 269.278C22.3183 268.236 19.3402 265.277 19.6319 261.867C19.7865 260.065 20.6039 257.742 19.053 256.81C18.5847 256.527 18.0147 256.488 17.4668 256.443C12.2928 256.002 7.22916 254.293 2.85486 251.497C1.32606 250.521 -0.291107 249.01 0.0446986 247.226C0.247949 246.139 1.13607 245.327 1.97116 244.603C17.8733 230.823 33.9168 216.937 52.2977 206.686C57.432 203.824 62.9949 201.011 66.0437 195.984C68.8582 191.338 69.0173 185.592 70.8687 180.487C71.1912 179.599 71.5845 178.702 72.2649 178.049C73.6611 176.715 75.9588 176.754 77.6864 177.625C79.6173 178.601 80.6777 180.531 82.476 181.595C84.1595 182.589 86.4836 182.933 87.9461 184.422C88.6001 185.084 89.1568 185.87 89.961 186.339C90.8005 186.829 91.8079 186.917 92.7799 186.988C98.7317 187.421 104.705 187.571 110.67 187.447Z" fill="white"/>
<path d="M73.29 282.625C73.2149 282.625 73.1397 282.603 73.0735 282.559C72.8879 282.44 72.8393 282.193 72.9586 282.007C85.1139 263.431 98.4356 205.613 98.5682 205.03C98.6168 204.818 98.8333 204.685 99.0454 204.73C99.2574 204.778 99.3944 204.99 99.3458 205.207C99.2133 205.79 85.8606 263.744 73.6258 282.44C73.5463 282.564 73.4181 282.625 73.29 282.625Z" fill="#9DD9DE"/>
<path d="M84.209 266.611C84.156 266.611 84.1029 266.602 84.0499 266.575C83.8467 266.487 83.7583 266.253 83.8467 266.05L90.797 250.176C90.8853 249.973 91.1195 249.885 91.3227 249.973C91.526 250.062 91.6144 250.296 91.526 250.499L84.5757 266.372C84.5095 266.522 84.3636 266.611 84.209 266.611Z" fill="#9DD9DE"/>
<path d="M46.6345 268.735C46.5682 268.735 46.5019 268.718 46.4357 268.682C46.2457 268.572 46.1794 268.329 46.2899 268.139C50.7835 260.273 83.5598 214.561 83.8868 214.102C84.0149 213.925 84.2624 213.881 84.4435 214.009C84.6203 214.137 84.6644 214.384 84.5363 214.565C84.2049 215.025 51.4595 260.706 46.9836 268.532C46.904 268.665 46.7715 268.735 46.6345 268.735Z" fill="#9DD9DE"/>
<path d="M49.1833 257.256C49.0861 257.256 48.9933 257.221 48.9138 257.15C48.7503 257 48.7415 256.748 48.8873 256.589L58.1042 246.524C58.2545 246.36 58.5063 246.351 58.6654 246.497C58.8289 246.647 58.8377 246.899 58.6919 247.058L49.4749 257.124C49.3998 257.212 49.2938 257.256 49.1833 257.256Z" fill="#9DD9DE"/>
<path d="M22.3843 255.132C22.2694 255.132 22.159 255.083 22.0794 254.991C21.938 254.823 21.9557 254.571 22.1236 254.43C22.6185 254.01 71.73 212.322 81.9367 202.009C82.0914 201.854 82.3432 201.85 82.4979 202.004C82.6525 202.159 82.6569 202.411 82.5023 202.565C72.2691 212.9 23.1354 254.611 22.6406 255.03C22.5655 255.101 22.4771 255.132 22.3843 255.132Z" fill="#9DD9DE"/>
<path d="M54.5747 221.539C54.4466 221.539 54.3228 221.477 54.2477 221.367C54.124 221.186 54.1682 220.939 54.3494 220.815C54.5835 220.652 77.7762 204.628 81.9649 200.998C82.1328 200.856 82.3802 200.87 82.526 201.037C82.6719 201.205 82.6498 201.453 82.4863 201.598C78.2666 205.255 55.7589 220.806 54.8 221.469C54.7338 221.517 54.6542 221.539 54.5747 221.539Z" fill="#9DD9DE"/>
<path d="M20.8243 240.389C20.7183 240.389 20.6166 240.35 20.5371 240.27C20.3825 240.111 20.3869 239.859 20.5459 239.709C20.8111 239.453 46.9553 214.163 50.1763 210.939C50.331 210.785 50.5828 210.785 50.7375 210.939C50.8921 211.094 50.8921 211.346 50.7375 211.5C47.512 214.724 21.3589 240.023 21.0983 240.279C21.0231 240.354 20.9259 240.389 20.8243 240.389Z" fill="#9DD9DE"/>
<path d="M112.277 227.74C112.087 227.74 111.919 227.603 111.884 227.409C110.465 219.318 108.791 212.088 108.778 212.013C108.729 211.801 108.862 211.584 109.074 211.536C109.286 211.487 109.502 211.619 109.551 211.831C109.569 211.902 111.248 219.154 112.666 227.268C112.706 227.484 112.56 227.692 112.343 227.727C112.321 227.74 112.299 227.74 112.277 227.74Z" fill="#9DD9DE"/>
<path d="M110.158 229.864C109.972 229.864 109.804 229.732 109.769 229.542L108.174 221.217C108.134 221 108.275 220.793 108.487 220.753C108.704 220.709 108.912 220.854 108.951 221.066L110.546 229.392C110.586 229.608 110.445 229.816 110.233 229.855C110.206 229.864 110.184 229.864 110.158 229.864Z" fill="#9DD9DE"/>
<path d="M105.351 200.755C86.4308 200.755 71.9425 193.22 71.7923 193.145C71.5979 193.043 71.5228 192.8 71.6244 192.606C71.726 192.412 71.9646 192.337 72.1635 192.438C72.3137 192.518 87.4117 200.366 106.853 199.942C107.074 199.951 107.255 200.11 107.26 200.331C107.264 200.551 107.092 200.733 106.871 200.737C106.363 200.75 105.854 200.755 105.351 200.755Z" fill="#9DD9DE"/>
<path d="M174.982 105.793C175.358 103.713 176.798 101.871 178.031 100.232C181.106 96.1471 185.767 94.1199 189.656 91.0989C194.693 87.1858 199.681 83.2241 204.484 79.0107C207.935 75.9853 210.732 72.3857 213.922 69.1439C216.145 66.887 218.508 64.9216 221.566 63.9367C222.547 63.6187 223.36 63.8617 224.018 64.6434C224.641 65.3854 224.831 66.6927 224.31 67.5054C223.121 69.3603 218.597 96.1515 217.086 97.5913C213.957 100.568 210.803 103.505 207.281 106.018C201.913 109.852 196.275 113.266 190.522 116.494C189.391 117.13 188.229 117.705 187.097 118.345C185.688 119.144 184.106 118.95 182.595 119.114C182.034 119.175 181.517 118.676 181.079 118.248C179.453 116.662 178.123 114.821 177.081 112.807C176.087 110.89 174.73 108.726 174.898 106.416C174.92 106.204 174.947 105.996 174.982 105.793Z" fill="#1891A5"/>
<path d="M228.755 58.3672C230.677 60.3723 234.265 63.7246 231.393 66.4717C229.754 68.0396 229.568 70.0756 229.378 72.147C228.813 78.2508 228.45 84.3634 228.247 90.4937C227.947 99.5919 229.029 108.664 230.412 117.643C231.76 126.405 232.714 135.066 233.231 143.926C233.81 153.832 234.685 163.911 234.428 173.831C234.371 176.061 234.358 178.274 233.708 180.473C233.293 181.882 233.549 183.463 233.434 184.965C233.015 190.446 232.599 195.927 232.529 201.43C232.524 201.739 232.453 202.053 232.378 202.358C232.246 202.901 231.972 203.391 231.358 203.4C228.596 203.44 227.597 191.952 227.5 189.89C226.621 171.653 222.114 153.828 218.133 136.086C216.087 126.966 213.949 117.863 212.407 108.646C211.448 102.909 210.268 97.123 210.56 91.2754C210.851 85.4499 212.915 79.748 215.199 74.4349C216.503 71.4051 218.42 68.7109 220.117 65.8975C221.681 63.3094 222.675 60.1515 225.189 58.2745C226.343 57.4176 227.721 57.2895 228.755 58.3672Z" fill="#1891A5"/>
<path d="M159.826 83.966C160.157 83.3698 161.872 82.747 162.446 82.4025C163.847 81.5634 165.371 80.7684 166.564 79.6422C167.245 78.9973 167.806 78.1935 168.013 77.2793C168.097 76.895 168.119 76.4975 168.261 76.131C168.817 74.6911 171.849 75.071 172.547 76.2237C173.762 78.2333 175.065 80.1766 176.581 81.9785C177.164 82.672 177.111 86.6822 178.008 87.4816C180.99 90.1537 187.658 94.7514 190.419 97.6354C192.43 99.7377 190.415 100.25 192.191 102.56C192.536 103.01 192.863 103.47 192.929 104.044C192.969 104.384 185.17 118.822 183.964 119.105C181.781 119.617 178.733 117.201 177.769 116.335C171.34 110.536 166.348 103.633 162.234 96.0675C161.814 95.2902 161.514 95.0385 160.661 95.5199C159.428 96.2133 158.385 95.8555 157.789 94.5791C156.689 92.2339 155.832 89.7871 154.988 87.3447C154.555 86.086 154.851 84.9421 156.039 84.1294C156.437 83.8556 156.733 83.4316 157.122 83.1313C158.385 82.1685 159.265 82.4246 159.826 83.966Z" fill="#1891A5"/>
<path d="M235.095 188.119C234.896 188.119 234.724 187.968 234.702 187.765C234.671 187.483 231.503 159.384 228.843 146.651C226.174 133.883 223.002 103.92 222.971 103.616C222.949 103.399 223.108 103.2 223.324 103.178C223.545 103.156 223.74 103.315 223.762 103.532C223.793 103.832 226.961 133.755 229.621 146.488C232.289 159.256 235.457 187.394 235.493 187.677C235.519 187.893 235.36 188.092 235.144 188.114C235.126 188.119 235.113 188.119 235.095 188.119Z" fill="#9DD9DE"/>
<path d="M223.926 75.3889C223.913 75.3889 223.9 75.3889 223.886 75.3889C223.665 75.3668 223.506 75.1725 223.528 74.9561C223.555 74.6778 224.209 68.0838 226.051 63.4066C226.131 63.2035 226.365 63.1019 226.568 63.1814C226.772 63.2609 226.873 63.4905 226.794 63.6981C224.991 68.2693 224.328 74.9649 224.324 75.0312C224.302 75.2343 224.129 75.3889 223.926 75.3889Z" fill="#9DD9DE"/>
<path d="M192.129 108.999C192.116 108.999 192.107 108.999 192.094 108.999C191.873 108.982 191.714 108.787 191.732 108.571C192.125 104.004 191.131 98.6823 191.122 98.6293C191.082 98.4128 191.224 98.2053 191.44 98.1655C191.657 98.1258 191.864 98.2671 191.904 98.4835C191.913 98.5365 192.925 103.965 192.523 108.642C192.509 108.84 192.333 108.999 192.129 108.999Z" fill="#9DD9DE"/>
<path d="M192.96 100.095L196.937 105.934L192.96 100.095Z" fill="#9B9960"/>
<path d="M161.629 93.6916C161.448 93.6916 161.289 93.568 161.245 93.3869C161.192 93.1749 161.325 92.9585 161.537 92.9055C167.422 91.4789 171.69 84.854 173.095 82.6722C173.383 82.2305 173.502 82.045 173.59 81.9479C173.741 81.7889 173.992 81.78 174.151 81.9302C174.311 82.0804 174.319 82.3321 174.169 82.4911C174.116 82.5485 173.935 82.8312 173.763 83.1006C172.318 85.3442 167.917 92.1723 161.722 93.674C161.696 93.6872 161.66 93.6916 161.629 93.6916Z" fill="#9DD9DE"/>
<path d="M236.457 69.7668C233.254 67.8102 225.879 62.9211 223.802 59.7013C223.361 59.0212 224.315 59.0256 224.302 58.6325C224.244 56.8615 224.713 55.1566 224.982 53.4253C225.53 49.8832 226.334 46.3808 227.377 42.9535C228.239 40.1269 231.358 29.8892 231.477 28.5686C231.522 28.074 232.935 27.7206 233.276 27.9812C234.133 28.6437 234.469 29.5756 234.835 30.5208C235.52 32.2918 236.064 34.1512 237.023 35.803C239.51 40.096 241.821 44.6848 246.421 47.0522C247.269 47.4894 249.063 49.0573 249.089 49.3311C249.244 51.0448 236.775 69.9567 236.457 69.7668Z" fill="#D7997F"/>
<path d="M201.576 50.3954C201.899 48.1782 202.062 44.5125 201.523 42.4234C201.02 40.4757 199.623 39.4113 198.992 37.5077C198.563 36.2225 198.572 34.8357 198.581 33.4842C198.612 28.9571 198.726 24.1474 201.218 20.3712C203.026 17.6285 205.946 15.7382 209.07 14.718C212.194 13.7022 215.534 13.499 218.817 13.6094C223.002 13.7507 227.407 14.4927 230.619 17.178C234.344 20.2917 235.753 25.7948 234.233 30.4058C233.871 31.5099 233.359 32.5655 233.067 33.6917C232.837 34.5883 232.749 35.5291 232.404 36.3903C231.909 37.6225 230.915 38.6295 230.588 39.9148C230.261 41.2 230.646 42.5426 230.924 43.8367C231.702 47.4716 231.6 51.3582 230.204 54.8032C228.79 58.2967 226.156 61.1366 223.585 63.8926C222.807 64.7229 222.012 65.5709 221.018 66.1274C220.024 66.6838 218.782 66.9135 217.739 66.4542C217.196 66.2157 216.109 64.2061 215.671 63.8086C214.363 62.6206 213.692 63.0313 212.384 61.8388C212.061 61.5473 211.721 61.2205 211.664 60.7877C211.58 60.1914 212.066 59.6835 212.477 59.2419C213.1 58.5794 215.353 54.706 214.182 53.8933C213.528 53.4428 212.137 55.0637 211.606 55.4701C210.731 56.1458 209.852 56.9099 208.765 57.1086C207.678 57.3074 206.344 56.6272 206.322 55.5231C206.3 54.2908 207.077 52.4359 205.063 53.1999C203.68 53.7255 201.475 54.7855 201.435 52.3519C201.417 51.716 201.484 51.0579 201.576 50.3954Z" fill="#EBB097"/>
<path d="M108.933 86.3289C108.96 86.1478 110.276 85.6266 110.48 85.525C110.966 85.2733 111.496 84.9244 112.026 84.7831C112.335 84.6991 112.685 84.7124 112.954 84.8891C113.564 85.2865 113.67 86.0462 114.412 86.3642C114.929 86.585 115.698 86.5188 116.135 86.9163C116.798 87.5258 115.777 87.8394 115.291 87.9189C114.417 88.0646 113.59 88.1971 112.755 88.5239C110.886 89.2483 109.216 90.5026 108.032 92.119C105.637 95.3918 105.341 99.6803 104.44 103.633C104.276 104.349 103.733 105.254 103.057 104.963C102.827 104.861 102.677 104.64 102.5 104.459C101.713 103.651 100.428 103.713 99.3009 103.797C95.2978 104.088 91.2593 103.92 87.2959 103.289C85.8024 103.05 84.119 102.604 83.4341 101.257C82.6255 99.6715 83.6418 97.8165 84.5034 96.2618C86.4519 92.7506 87.751 88.8463 88.0072 84.8405C88.3784 79.0856 86.6154 73.3573 86.9468 67.598C86.9645 67.3065 86.9954 66.9929 87.2031 66.7853C87.3577 66.6308 87.5831 66.5645 87.7996 66.5513C88.9086 66.4806 89.7393 67.5185 90.3004 68.4769C91.6481 70.778 92.6511 73.2778 93.2697 75.8703C93.3271 76.1088 93.4022 76.3738 93.6187 76.4887C93.8927 76.63 94.2108 76.4489 94.4847 76.3076C95.9473 75.5523 97.803 75.9366 99.1551 76.8729C100.056 77.4956 100.781 78.3922 101.395 79.3197C101.881 80.0529 102.434 81.634 103.503 81.5766C104.046 81.5457 104.546 81.2718 105.08 81.1658C106.348 80.9141 107.497 81.5898 108.191 82.6233C108.898 83.6922 109.132 85.0701 108.933 86.3289Z" fill="#755462"/>
<path d="M79.7939 66.9797V65.5045C80.1518 65.2616 80.0325 64.8685 80.0767 64.5417C80.4479 61.7327 81.2609 59.0651 82.5069 56.5211C86.1035 49.1763 92.528 44.8657 101.524 46.0847C105.001 46.5572 108.108 47.975 111.214 49.4457C111.961 49.799 112.601 50.3467 113.061 51.0357C114.263 52.8332 115.849 54.4321 116.604 56.4681C118.557 61.7239 123.771 63.6451 124.346 63.994C125.759 64.8641 125.128 67.1166 123.829 67.6952C122.03 68.4946 121.111 69.6296 122.499 70.7691C123.758 71.807 124.133 73.1055 122.662 73.9005C121.474 74.5409 120.272 74.6822 118.951 75.0444C118.535 75.1592 118.354 76.1044 118.672 76.3915C119.631 77.266 120.652 77.8843 121.703 78.1272C122.918 78.4055 123.762 79.514 123.276 80.6049C122.574 82.1861 122.583 83.7937 122.543 85.4411C122.512 86.6292 121.447 87.6583 120.351 87.7598C119.238 87.8658 118.045 87.7554 116.909 87.6803C114.859 87.539 114.828 86.3995 113.061 87.6803C111.581 88.7536 101.626 85.4411 99.4163 76.3915C91.5026 75.9366 87.9019 77.0054 85.8252 75.7511C82.719 73.8696 80.5318 71.2815 80.0458 67.5273C80.0149 67.3153 80.0237 67.0901 79.7939 66.9797Z" fill="#755462"/>
<path d="M207.865 35.6835C208.369 35.7497 209.129 35.7276 209.553 36.0456C210.6 36.8318 209.221 37.5826 208.55 37.7505C207.635 37.9801 206.765 38.3732 205.987 38.9032C205.435 39.283 204.714 39.9014 204.14 39.2079C203.641 38.6029 203.548 37.8874 204.096 37.1895C204.843 36.2488 206.354 35.6349 207.865 35.6835Z" fill="#755462"/>
<path d="M111.434 59.9132C110.78 59.8558 110.935 59.18 111.191 58.5264C111.801 56.954 112.022 55.9029 113.043 55.4612C113.732 55.1653 114.161 54.6044 114.81 54.918C115.248 55.13 115.592 56.1326 115.265 56.4682C114.342 57.4178 113.365 58.3144 112.402 59.2242C112.212 59.4009 111.691 59.9308 111.434 59.9132Z" fill="#4A2533"/>
<path d="M210.454 42.6089C210.441 42.6575 210.423 42.7016 210.396 42.7414C209.544 44.0443 207.878 41.3678 207.697 40.8555C207.586 40.5419 207.551 40.1489 207.86 39.9369C208.077 39.7911 208.399 39.7911 208.655 39.8883C209.415 40.1798 210.003 41.1073 210.259 41.7123C210.361 41.9508 210.524 42.3262 210.454 42.6089Z" fill="#4A2533"/>
<path d="M114.704 59.3568C114.774 59.0874 114.797 58.7959 115.15 58.7385C115.543 58.6767 115.667 58.9858 115.791 59.2111C116.206 59.9619 116.529 60.7348 116.604 61.5519C116.635 61.9096 116.666 62.5279 116.25 62.6163C115.777 62.7223 115.477 62.0509 115.327 61.7771C114.889 60.9998 114.642 60.1871 114.704 59.3568Z" fill="#4A2533"/>
<path d="M225.596 62.0728C225.521 62.0728 225.445 62.0508 225.379 62.0066C225.194 61.8873 225.145 61.64 225.264 61.4545C226.722 59.2374 230.535 53.1557 230.646 51.632C230.783 49.7505 229.603 43.9735 229.59 43.9161C229.546 43.6997 229.683 43.4921 229.899 43.448C230.111 43.4038 230.323 43.5407 230.368 43.7571C230.416 44 231.583 49.7019 231.437 51.6938C231.291 53.6945 226.475 61.0614 225.927 61.8962C225.852 62.011 225.724 62.0728 225.596 62.0728Z" fill="#F7C8B5"/>
<path d="M198.479 26.846C198.439 26.846 198.404 26.8416 198.364 26.8284C195.969 26.1173 194.852 24.2181 194.807 24.1342C194.697 23.9443 194.763 23.7014 194.953 23.591C195.143 23.4806 195.386 23.5468 195.497 23.7367C195.506 23.7544 196.509 25.446 198.59 26.0643C198.802 26.1261 198.921 26.3469 198.859 26.5589C198.811 26.7356 198.652 26.846 198.479 26.846Z" fill="#61200A"/>
<path d="M243.459 44.6185C243.459 44.6891 243.459 44.7598 243.459 44.8304C241.975 45.6387 240.512 45.6034 238.979 44.8923C237.229 44.0796 228.326 41.6372 225.471 40.0252C224.354 40.2504 223.713 39.7337 223.351 38.6472C222.502 36.1165 221.406 33.6962 219.864 31.5099C217.836 28.6347 215.282 26.6782 211.531 26.5854C209.026 26.5236 206.547 26.6561 204.077 26.9697C202.16 27.217 200.352 27.4202 198.483 26.4529C196.376 25.362 194.569 24.0679 194.184 21.6476C193.8 19.2185 194.971 17.284 196.915 15.8707C198.532 14.6959 200.22 13.6094 202.142 12.969C202.844 12.7349 203.286 12.2623 203.724 11.6793C204.713 10.372 205.032 8.6098 206.512 7.80156C208.354 6.79899 210.736 6.11441 212.808 5.63742C215.229 5.08093 217.664 5.06768 220.134 5.25759C222.471 5.43867 224.734 5.72575 226.762 7.01982C227.044 7.2009 227.424 7.2804 227.765 7.29807C231.852 7.51006 235.559 8.94546 239.142 10.7916C240.083 11.2774 240.808 11.9841 241.276 12.9072C243.278 16.8556 243.243 21.0426 242.456 25.2295C241.701 29.2442 240.941 33.228 241.767 37.3222C242.257 39.769 242.558 42.2644 243.459 44.6185Z" fill="#755462"/>
<path d="M202.043 25.5916C202.021 25.5916 201.995 25.5916 201.973 25.5828C198.385 24.9291 197.02 23.2243 196.507 21.9082C195.875 20.2873 196.286 18.631 196.498 18.3528C196.631 18.1761 196.878 18.1452 197.055 18.2777C197.218 18.4014 197.258 18.631 197.152 18.8033C197.042 19.0462 196.666 20.5346 197.408 21.9877C198.142 23.4231 199.724 24.3682 202.11 24.8055C202.326 24.8452 202.468 25.0528 202.428 25.2692C202.397 25.4591 202.229 25.5916 202.043 25.5916Z" fill="#4A2533"/>
<path d="M208.245 26.8769C207.869 26.8769 207.644 26.8637 207.631 26.8637C207.268 26.8195 207.224 26.5545 207.224 26.475C207.215 26.2807 207.352 26.104 207.542 26.0642C207.622 26.0466 207.697 26.0554 207.768 26.0819C208.824 26.2012 216.065 26.0466 217.329 21.7006C217.391 21.4886 217.612 21.3694 217.824 21.4312C218.036 21.4931 218.155 21.7139 218.094 21.9259C216.764 26.5015 210.282 26.8769 208.245 26.8769Z" fill="#4A2533"/>
<path d="M214.25 22.8403C214.122 22.8403 213.994 22.7784 213.919 22.6636C213.808 22.4958 213.839 22.2749 213.985 22.1469C214.007 22.1248 214.038 22.085 214.078 22.0365C216.181 19.5102 221.987 14.2809 230.422 20.2345C230.603 20.3626 230.643 20.6099 230.519 20.7866C230.391 20.9676 230.144 21.0074 229.967 20.8837C222.075 15.31 216.658 20.1903 214.697 22.5444C214.577 22.6901 214.538 22.7343 214.476 22.7784C214.401 22.8182 214.325 22.8403 214.25 22.8403Z" fill="#4A2533"/>
<path d="M230.188 20.954C229.949 20.9407 229.777 20.7552 229.79 20.5344C230.047 15.7026 224.983 12.8097 224.387 12.6154C224.223 12.6066 224.077 12.4962 224.029 12.3283C223.967 12.1163 224.091 11.8955 224.298 11.8337C224.851 11.6791 226.746 13.1631 226.764 13.1807C228.27 14.3776 230.771 16.926 230.577 20.5742C230.573 20.7861 230.396 20.954 230.188 20.954Z" fill="#4A2533"/>
<path d="M234.017 18.9933C233.805 18.9933 233.628 18.8254 233.619 18.6134C233.451 14.8681 232.232 12.0724 229.991 10.3146C226.625 7.66465 222.131 8.2344 221.826 8.27856C221.596 8.3404 221.327 8.1549 221.322 7.89873C221.318 7.49241 221.592 7.44382 222.78 7.40849C225.387 7.32899 233.933 7.90315 234.414 18.5781C234.423 18.7989 234.255 18.9844 234.034 18.9933C234.03 18.9933 234.025 18.9933 234.017 18.9933Z" fill="#4A2533"/>
<path d="M239.124 20.0576C239.067 20.0576 239.005 20.0444 238.952 20.0179C238.753 19.9207 238.674 19.6822 238.771 19.4879C240.339 16.2903 237.582 13.0838 237.551 13.0485C237.405 12.885 237.423 12.6333 237.587 12.4875C237.75 12.3418 238.002 12.3595 238.148 12.5229C238.276 12.6686 241.281 16.1666 239.482 19.8324C239.412 19.9781 239.27 20.0576 239.124 20.0576Z" fill="#4A2533"/>
<path d="M221.346 33.431C221.293 32.4594 221.408 31.4215 221.775 30.4189C222.491 28.4756 224.519 28.0339 225.959 29.5003C228.73 32.3269 229.618 36.8318 228.023 39.9765C227.227 41.5444 225.968 42.0611 224.704 41.2573C223.595 40.5506 222.681 39.6364 222.23 38.3512C221.682 36.7877 221.284 35.1977 221.346 33.431Z" fill="#EBB097"/>
<path d="M223.924 38.4131C223.756 38.4131 223.597 38.3071 223.544 38.1348C223.522 38.0598 222.96 36.2887 222.965 34.416C222.969 33.0071 223.292 31.9162 223.928 31.1654C224.069 30.9976 224.321 30.9755 224.489 31.1168C224.657 31.2582 224.679 31.5099 224.538 31.6777C224.03 32.2828 223.769 33.2015 223.765 34.416C223.76 36.1562 224.299 37.8743 224.304 37.8919C224.37 38.0995 224.255 38.3248 224.047 38.391C224.003 38.4087 223.963 38.4131 223.924 38.4131Z" fill="#F7C8B5"/>
<path d="M223.368 34.8182C223.156 34.8182 222.979 34.6504 222.97 34.4384C222.912 33.2238 224.954 32.632 225.365 32.526C225.577 32.473 225.793 32.5967 225.851 32.8131C225.904 33.0251 225.78 33.2415 225.564 33.2989C224.817 33.4933 223.743 33.9967 223.765 34.4031C223.774 34.6239 223.606 34.8094 223.385 34.8182C223.376 34.8182 223.372 34.8182 223.368 34.8182Z" fill="#F7C8B5"/>
<path d="M239.581 91.2003C238.988 85.3483 238.635 79.4963 238.494 73.7326C238.282 64.9524 240.173 56.6315 243.981 48.7346C244.569 47.5112 245.753 44.8568 246.99 44.1811C249.341 42.8958 254.153 45.0776 256.039 46.4556C270.081 56.7022 271.235 55.6819 279.25 70.7337C281.958 75.8173 292.739 98.9029 294.922 104.221C299.637 115.699 303.101 127.62 309.304 138.405C315.857 149.796 323.152 160.691 329.245 172.36C332.276 178.164 324.036 181.825 319.887 183.534C312.322 186.648 304.612 189.364 297.666 193.781C295.669 195.048 292.43 198.33 290.018 198.219C287.649 198.113 286.134 195.203 284.649 193.723C282.431 191.506 253.795 151.695 246.699 127.607C243.279 115.955 240.831 103.593 239.581 91.2003Z" fill="#3BB3BD"/>
<path d="M257.488 83.5862C251.903 85.2866 240.914 92.5431 236.027 95.595C230.328 99.1548 224.098 102.189 218.433 105.806C216.599 106.977 214.73 108.09 212.879 109.229C212.512 109.454 212.128 109.613 211.686 109.551C211.62 109.543 212.172 95.5861 212.075 94.588C211.854 92.3399 209.481 87.6451 212.163 86.0374C214.651 84.5446 227.5 71.8115 232.563 68.3842C236.089 65.9992 238.617 63.6761 241.785 61.428C246.822 57.855 248.015 48.6728 248.276 47.7321C248.969 45.2456 249.124 45.144 251.704 45.7446C256.622 46.8885 261.619 46.3055 265.813 49.5341C269.347 52.2591 271.694 56.2518 273.783 60.1163C279.916 71.4758 285.996 82.853 290.764 94.8706C292.248 98.6115 285.943 88.4754 286.588 92.4813C286.721 93.3072 286.849 94.1375 286.946 94.9722C286.995 95.3874 286.875 95.7628 286.389 95.8467C285.908 95.9262 262.755 81.9785 257.488 83.5862Z" fill="#3BB3BD"/>
<path d="M181.106 59.4935C182.582 60.3327 183.643 61.4987 184.663 62.6735C188.914 67.5627 193.717 71.8556 198.741 75.9277C202.854 79.2579 207.061 82.482 210.83 86.2229C211.656 87.0444 212.615 87.8835 212.915 88.9612C213.383 90.6395 213.808 92.1941 215.252 93.3822C215.831 93.8592 215.61 94.8044 214.974 95.3564C214.02 96.1868 213.56 97.2026 213.481 98.4481C213.463 98.744 213.339 99.1017 213.136 99.3049C212.685 99.7598 212.782 100.246 213.079 100.63C213.405 101.063 213.816 101.398 214.515 101.2C215.615 100.882 216.096 101.447 215.765 102.582C215.61 103.116 215.381 103.629 215.186 104.159C215.23 104.181 215.297 104.238 215.35 104.229C215.844 104.159 216.406 103.752 216.799 104.322C217.21 104.914 216.688 105.338 216.388 105.811C216.07 106.305 215.889 106.888 215.588 107.396C213.75 110.505 210.379 110.898 207.776 109.322C201.582 105.563 189.157 98.4039 183.461 93.8327C178.389 89.0539 177.819 88.5372 176.573 81.9918C176.264 80.3709 175.137 84.4341 173.873 82.2303C173.741 82.0006 168.452 76.312 168.226 76.1442C167.144 75.3183 167.033 74.881 167.767 73.7857C168.138 73.238 168.606 72.7566 169.031 72.2443C169.327 71.8865 169.72 71.7761 170.162 71.8026C172.694 71.9484 174.302 70.9326 176.348 69.3823C178.296 67.9072 179.737 66.1317 180.488 63.9852C181 62.5542 181.694 61.1365 181.106 59.4935Z" fill="#3BB3BD"/>
<path d="M211.473 85.8297C211.359 85.8297 211.244 85.7811 211.169 85.6839C211.027 85.5161 211.054 85.2644 211.222 85.123C212.556 84.0145 243.967 57.9741 251.567 54.1007C257.426 51.1151 261.968 50.1699 265.065 51.2873C267.805 52.2767 268.803 54.5998 269.404 55.991C269.484 56.1721 269.554 56.34 269.621 56.4857C270.787 58.9767 273.041 68.2074 271.918 74.0197C271.879 74.2361 271.666 74.3774 271.454 74.3332C271.238 74.2935 271.097 74.0815 271.141 73.8695C272.232 68.2206 270.041 59.2461 268.901 56.8214C268.83 56.6712 268.755 56.4945 268.671 56.3046C268.088 54.9531 267.208 52.9082 264.796 52.0338C261.915 50.9914 257.585 51.9278 251.929 54.8074C244.409 58.641 212.057 85.4631 211.73 85.7325C211.65 85.7988 211.562 85.8297 211.473 85.8297Z" fill="#9DD9DE"/>
<path d="M218.783 92.6534C218.673 92.6534 218.563 92.6092 218.483 92.5165C213.199 86.4216 203.456 80.2118 203.354 80.15C203.169 80.0307 203.115 79.7878 203.23 79.6023C203.35 79.4168 203.593 79.3638 203.778 79.4786C203.875 79.5405 213.72 85.8121 219.08 91.9953C219.225 92.1632 219.203 92.4105 219.04 92.5562C218.969 92.6225 218.876 92.6534 218.783 92.6534Z" fill="#9DD9DE"/>
<path d="M222.957 88.5196C222.904 88.5196 222.846 88.5063 222.793 88.4842C219.886 87.1681 213.236 85.3087 212.529 85.2513C212.379 85.2734 212.22 85.2115 212.131 85.0746C212.012 84.8891 212.065 84.6462 212.246 84.5225C212.816 84.1515 221.132 86.8545 223.12 87.7555C223.319 87.8438 223.407 88.0823 223.319 88.2811C223.253 88.4312 223.107 88.5196 222.957 88.5196Z" fill="#9DD9DE"/>
<path d="M213.176 109.706C213.043 109.706 212.91 109.64 212.835 109.516C212.72 109.331 212.782 109.083 212.968 108.969C217.271 106.354 255.089 83.4007 257.449 83.1887C259.782 82.9767 268.672 83.1799 269.052 83.1887C269.273 83.1932 269.445 83.3742 269.441 83.5951C269.436 83.8159 269.246 83.9926 269.034 83.9837C268.941 83.9793 259.813 83.7717 257.524 83.9837C255.854 84.1472 230.213 99.4242 213.383 109.653C213.317 109.688 213.246 109.706 213.176 109.706Z" fill="#9DD9DE"/>
<path d="M273.934 91.8587C273.881 91.8587 273.833 91.8498 273.78 91.8277C269.153 89.8977 262.057 86.9871 261.483 86.8811C261.262 86.8811 261.107 86.7 261.107 86.4792C261.107 86.2584 261.311 86.0773 261.527 86.0861C262.026 86.0905 269.609 89.2263 274.084 91.0946C274.288 91.1785 274.385 91.4126 274.297 91.6157C274.239 91.7659 274.089 91.8587 273.934 91.8587Z" fill="#9DD9DE"/>
<path d="M265.641 78.8073C265.482 78.8073 265.337 78.7145 265.275 78.5599C265.032 78.0653 260.71 70.9943 259.517 69.5147C259.38 69.3425 259.407 69.0952 259.575 68.9538C259.747 68.8169 259.995 68.8434 260.136 69.0112C261.356 70.5217 265.902 77.9372 266.017 78.2773C266.088 78.4849 265.973 78.7101 265.765 78.7808C265.725 78.8029 265.681 78.8073 265.641 78.8073Z" fill="#9DD9DE"/>
<path d="M295.486 169.52C295.358 169.52 295.234 169.463 295.159 169.348C286.062 156.262 271.211 122.192 263.236 103.889C260.236 97.004 257.854 91.5406 257.399 90.9267C257.293 90.8561 257.227 90.7368 257.227 90.5999C257.227 90.3791 257.403 90.2024 257.624 90.2024C258.088 90.2024 258.137 90.2024 263.965 103.576C271.931 121.852 286.76 155.877 295.813 168.898C295.937 169.079 295.893 169.326 295.712 169.45C295.645 169.498 295.566 169.52 295.486 169.52Z" fill="#9DD9DE"/>
<path d="M309.384 170.373C309.269 170.373 309.158 170.324 309.079 170.231C296.994 155.807 287.022 140.618 283.266 134.898C282.422 133.613 281.75 132.593 281.613 132.429C281.463 132.301 281.432 132.076 281.543 131.908C281.666 131.727 281.914 131.679 282.095 131.798C282.241 131.895 282.378 132.094 283.933 134.461C287.68 140.167 297.635 155.33 309.688 169.719C309.83 169.887 309.808 170.139 309.64 170.28C309.565 170.342 309.476 170.373 309.384 170.373Z" fill="#9DD9DE"/>
<path d="M302.579 139.615C302.398 139.615 302.234 139.492 302.195 139.311C299.137 126.494 294.436 107.145 293.901 105.97C293.813 105.859 293.791 105.705 293.848 105.563C293.937 105.36 294.175 105.272 294.374 105.36C294.644 105.479 294.82 105.555 298.943 122.448C300.958 130.703 302.946 139.046 302.968 139.13C303.021 139.342 302.888 139.558 302.672 139.607C302.641 139.611 302.61 139.615 302.579 139.615Z" fill="#9DD9DE"/>
<path d="M302.579 128.728L304.992 135.53L302.579 128.728Z" fill="#9B9960"/>
<path d="M168.227 73.3088C168.09 73.3088 168.015 73.3043 168.006 73.3043C167.785 73.2911 167.621 73.1012 167.635 72.8803C167.648 72.6595 167.833 72.4917 168.059 72.5093C168.417 72.5358 176.927 72.9554 180.607 62.1965C180.678 61.989 180.903 61.8785 181.111 61.9492C181.319 62.0199 181.429 62.2451 181.358 62.4527C177.815 72.8318 169.671 73.3088 168.227 73.3088Z" fill="#47B7C1"/>
<path d="M174.467 82.6191C174.356 82.6191 174.259 82.5749 174.188 82.5043C173.053 81.3824 167.37 75.7424 166.99 74.7133C166.597 73.6445 169.116 69.5238 170.22 67.7969C170.34 67.6114 170.587 67.5584 170.768 67.6777C170.954 67.7969 171.007 68.0398 170.888 68.2253C169.257 70.7737 167.591 73.8742 167.737 74.4395C167.954 75.0225 171.422 78.653 174.626 81.8153C175.832 81.7534 183.865 80.8834 188.058 69.1307C188.133 68.9232 188.358 68.8172 188.566 68.8878C188.774 68.9629 188.88 69.1882 188.809 69.3957C184.139 82.4778 174.771 82.6191 174.467 82.6191Z" fill="#9DD9DE"/>
<path d="M204.179 107.617C204.099 107.617 204.019 107.595 203.949 107.542C202.963 106.844 179.797 90.3967 178.587 89.2616C177.323 88.0735 176.373 83.149 176.271 82.5925C176.232 82.3761 176.373 82.1685 176.589 82.1288C176.806 82.089 177.014 82.2303 177.053 82.4468C177.323 83.891 178.22 87.8262 179.135 88.683C180.071 89.5619 196.079 100.983 204.413 106.897C204.594 107.025 204.634 107.273 204.506 107.449C204.426 107.56 204.302 107.617 204.179 107.617Z" fill="#9DD9DE"/>
<path d="M299.035 191.347C298.929 191.347 298.823 191.307 298.744 191.223C298.457 190.919 270.028 160.607 262.362 140.918C257.868 129.382 246.637 89.7252 246.526 89.3277C246.469 89.1157 246.588 88.8949 246.8 88.8375C247.012 88.7801 247.233 88.8993 247.29 89.1113C247.401 89.5088 258.624 129.126 263.104 140.631C270.717 160.175 299.04 190.375 299.323 190.676C299.473 190.835 299.464 191.087 299.305 191.237C299.23 191.312 299.133 191.347 299.035 191.347Z" fill="#9DD9DE"/>
<path d="M250.043 55.7C249.919 55.7 249.8 55.6425 249.72 55.5365C249.04 54.6135 247.471 52.3831 247.59 51.6057C247.679 51.0139 250.383 49.1899 255.628 46.1866C255.818 46.0761 256.061 46.1424 256.171 46.3323C256.282 46.5222 256.215 46.7651 256.025 46.8755C252.566 48.8586 248.823 51.1906 248.381 51.7603C248.43 52.1887 249.424 53.7876 250.365 55.064C250.498 55.2406 250.458 55.488 250.281 55.6205C250.211 55.6779 250.127 55.7 250.043 55.7Z" fill="#9DD9DE"/>
<path d="M186.801 81.9964C186.779 81.9964 186.753 81.9964 186.731 81.9876C183.139 81.3295 181.702 79.4127 181.641 79.1786C181.601 79.0329 181.649 78.8695 181.764 78.7723C181.932 78.631 182.18 78.6486 182.326 78.812C182.348 78.8385 182.37 78.8695 182.383 78.9004C182.498 79.055 183.775 80.6361 186.877 81.2059C187.093 81.2456 187.234 81.4532 187.195 81.6696C187.155 81.8639 186.987 81.9964 186.801 81.9964Z" fill="#9DD9DE"/>
<path d="M87.9859 95.1311C88.6796 95.2592 89.3733 95.374 90.0803 95.3255C91.6488 95.2239 93.0893 94.1771 94.5385 95.3387C94.9981 95.7097 95.3029 96.1249 96.0673 95.9261C96.6682 95.7671 97.2029 96.3325 97.6977 96.7388C100.119 98.7351 102.081 101.169 104.171 103.479C110.622 110.625 114.841 117.85 116.83 127.293C120.17 143.166 120.117 159.358 120.325 175.496C120.365 178.632 120.479 181.913 119.565 184.952C118.42 188.763 114.925 189.982 111.501 191.135C97.0482 195.993 80.9472 190.64 67.4885 185.093C64.1261 183.706 57.2951 182.483 56.7472 178.11C56.5041 176.185 57.4276 174.25 57.8297 172.391C58.3334 170.037 58.7929 167.67 59.1994 165.298C60.958 155.091 61.7091 144.88 64.4088 134.836C67.029 125.093 70.851 115.682 75.8881 106.932C77.5848 103.986 78.6364 100.546 80.7661 97.8076C81.7558 96.54 82.993 95.3829 84.5925 94.9677C85.7413 94.6674 86.8592 94.9236 87.9859 95.1311Z" fill="white"/>
<path d="M110.725 175.991C110.667 175.991 110.605 175.977 110.552 175.951C110.353 175.854 110.274 175.615 110.367 175.421C112.377 171.278 117.631 149.023 117.684 148.798C117.732 148.586 117.949 148.449 118.161 148.502C118.373 148.55 118.506 148.767 118.457 148.979C118.24 149.897 113.128 171.548 111.082 175.765C111.012 175.911 110.87 175.991 110.725 175.991Z" fill="#B6DADD"/>
<path d="M100.587 189.894C100.441 189.894 100.3 189.815 100.229 189.673C100.132 189.479 100.211 189.241 100.406 189.139C100.503 189.09 110.913 183.503 115.526 179.312C115.689 179.166 115.941 179.175 116.087 179.339C116.233 179.502 116.224 179.754 116.06 179.899C111.381 184.148 100.861 189.797 100.764 189.846C100.706 189.881 100.644 189.894 100.587 189.894Z" fill="#B6DADD"/>
<path d="M102.192 190.848C102.019 190.848 101.86 190.738 101.807 190.57C101.741 190.362 101.852 190.146 102.055 190.075C102.143 190.044 102.426 189.987 103.513 189.757C105.846 189.267 111.312 188.119 112.071 187.668C112.261 187.558 112.504 187.62 112.615 187.805C112.725 187.995 112.664 188.238 112.478 188.348C111.669 188.83 107.512 189.731 103.672 190.535C102.983 190.68 102.382 190.804 102.298 190.831C102.267 190.844 102.227 190.848 102.192 190.848Z" fill="#B6DADD"/>
<path d="M74.638 187.24C74.5452 187.24 74.4525 187.209 74.3773 187.142C72.1902 185.226 67.9308 182.319 67.3608 182.134C67.1619 182.112 67.0117 181.944 67.0117 181.741C67.0117 181.52 67.1885 181.343 67.4094 181.343C68.1163 181.343 73.2285 185.075 74.9031 186.546C75.0666 186.692 75.0843 186.944 74.9385 187.107C74.859 187.191 74.7485 187.24 74.638 187.24Z" fill="#B6DADD"/>
<path d="M146.871 28.2903C146.897 25.976 145.943 23.9223 145.298 21.7979C144.799 20.1638 144.454 18.565 144.874 16.8469C145.117 15.8576 144.723 15.2613 146.248 14.5723C146.822 14.3118 147.467 15.1598 147.909 15.5882C148.567 16.2286 149.376 15.7648 150.167 16.0077C151.369 16.3787 153.048 19.0243 153.286 19.5145C154.957 22.9683 155.036 25.4328 156.932 28.9219C157.758 30.4501 158.058 31.1126 158.54 32.4994C159.676 35.7765 160.246 39.4025 159.857 42.9491C159.552 45.7227 160.334 48.3594 160.462 51.0668C160.497 51.8397 160.537 52.6126 160.4 53.3723C160.312 53.8537 160.374 54.5339 159.631 54.5648C158.924 54.5957 158.129 54.7944 157.798 53.7963C157.696 53.4915 157.4 53.2221 157.139 52.9969C156.746 52.6568 156.251 52.7805 155.836 52.913C155.46 53.0322 155.602 53.465 155.641 53.7521C155.739 54.4809 155.478 54.7856 154.727 54.7326C154.387 54.7061 154.033 54.8121 153.689 54.8739C153.512 54.9049 153.229 54.949 153.207 54.8121C153.079 53.9288 152.151 53.3723 152.102 52.5685C151.828 47.7279 150.529 43.1213 148.881 38.6164C147.772 35.5954 146.318 32.7025 144.882 29.8141C144.648 29.3415 144.436 28.8601 144.224 28.3831C144.003 27.8796 144.008 27.3982 144.516 27.0846C144.975 26.8019 145.457 26.8594 145.885 27.195C146.27 27.4998 146.553 27.8928 146.871 28.2903Z" fill="#755462"/>
<path d="M137.432 46.6899C137.662 46.182 137.437 45.8198 137.304 45.4267C136.787 43.9074 136.111 42.4278 135.974 40.7937C135.93 40.2858 135.974 39.8397 136.482 39.663C137.066 39.4599 137.282 39.928 137.468 40.3609C138.776 43.3995 140.539 46.182 142.346 48.9379C142.682 49.4458 142.629 50.1304 143.013 50.5853C144.723 52.6081 144.666 55.8058 144.723 58.0538C144.758 59.37 143.83 59.7277 142.43 60.3637C142.098 60.5139 141.869 60.8849 141.581 61.141C140.503 62.0774 139.544 61.8035 138.471 60.8981C135.802 58.6412 135.373 55.1079 133.381 52.4624C131.852 50.4307 130.685 48.1208 129.165 46.0583C128.649 45.356 127.906 44.6582 128.626 43.6291C128.812 43.3642 128.476 43.1257 128.344 42.8916C127.862 42.0259 127.168 41.2839 127.283 40.1268C127.341 39.5659 127.084 39.61 126.735 39.1286C126.43 38.7046 125.874 36.5096 129.09 37.6137C130.102 37.9582 130.058 37.4459 131.074 37.9361C132.431 38.5898 133.982 40.7716 134.852 41.995C135.943 43.5187 136.337 45.1043 137.432 46.6899Z" fill="#755462"/>
<path d="M144.723 58.4514C144.683 58.4514 144.639 58.4426 144.595 58.4293C144.281 58.3233 144.277 58.2527 144.148 56.4154C144.051 55.0197 143.905 52.9086 143.632 52.1887C143.53 51.9237 142.929 50.7798 142.235 49.4548C141.011 47.1184 139.328 43.9163 138.396 41.7875C137.83 40.5067 137.176 40.1357 136.836 40.0253C136.69 39.9767 136.575 39.9723 136.504 39.9811C136.491 40.1004 136.425 40.2108 136.319 40.2771C136.133 40.3919 135.886 40.3345 135.771 40.149C135.656 39.9635 135.652 39.7382 135.767 39.5527C135.917 39.301 136.248 39.1641 136.659 39.1862C137.013 39.2082 138.237 39.4379 139.129 41.4651C140.053 43.5674 141.727 46.7562 142.947 49.0838C143.786 50.687 144.268 51.6057 144.383 51.9016C144.701 52.7363 144.842 54.7459 144.953 56.3624C144.997 56.9763 145.041 57.6653 145.081 57.864C145.129 57.9568 145.143 58.0716 145.107 58.1776C145.041 58.3454 144.886 58.4514 144.723 58.4514Z" fill="#EBB097"/>
<path d="M138.76 52.3916C138.627 52.3916 138.494 52.3254 138.419 52.2017C137.792 51.1903 129.481 38.89 129.397 38.7664C129.273 38.5853 129.322 38.338 129.503 38.2143C129.684 38.0906 129.931 38.1392 130.055 38.3203C130.4 38.8282 138.459 50.7575 139.095 51.7821C139.21 51.9676 139.153 52.215 138.967 52.3298C138.901 52.374 138.83 52.3916 138.76 52.3916Z" fill="white"/>
<path d="M136.373 52.3916C136.232 52.3916 136.099 52.3166 136.024 52.1841C135.242 50.7663 128.455 41.7432 127.881 41.1381C127.753 41.0365 127.7 40.8643 127.753 40.7009C127.824 40.4933 128.049 40.3784 128.257 40.4491C128.376 40.4889 128.526 40.5374 132.313 45.6121C133.462 47.1535 136.192 50.837 136.722 51.7954C136.828 51.9897 136.758 52.2282 136.568 52.3342C136.506 52.374 136.44 52.3916 136.373 52.3916Z" fill="white"/>
<path d="M135.042 52.8154C134.914 52.8154 134.785 52.7536 134.71 52.6344C133.716 51.115 129.443 45.1084 129.404 45.0466C129.276 44.8655 129.32 44.6182 129.497 44.4901C129.678 44.362 129.925 44.4062 130.049 44.5829C130.226 44.8302 134.37 50.6645 135.373 52.1971C135.492 52.3826 135.444 52.6255 135.258 52.7492C135.192 52.7978 135.117 52.8154 135.042 52.8154Z" fill="white"/>
<path d="M150.773 33.6123C150.596 33.6123 150.437 33.4931 150.389 33.3164C149.386 29.443 145.064 17.1737 145.025 17.05C144.949 16.8424 145.06 16.6172 145.268 16.5421C145.475 16.4714 145.701 16.5774 145.776 16.785C145.82 16.9087 150.15 29.2134 151.162 33.1177C151.215 33.3297 151.091 33.5461 150.875 33.6035C150.839 33.6079 150.804 33.6123 150.773 33.6123Z" fill="white"/>
<path d="M150.771 37.181C150.621 37.181 150.475 37.0926 150.409 36.9469C149.141 34.1512 147.047 29.6109 146.773 29.1869C146.649 29.0456 146.64 28.8292 146.759 28.679C146.896 28.5067 147.148 28.4802 147.316 28.6172C147.405 28.6878 147.59 28.838 151.129 36.6201C151.222 36.8188 151.134 37.0573 150.931 37.1456C150.882 37.1677 150.824 37.181 150.771 37.181Z" fill="white"/>
<path d="M152.913 33.2501C152.723 33.2501 152.555 33.1132 152.519 32.9188C152.104 30.4235 147.747 16.6436 147.703 16.5067C147.637 16.2991 147.752 16.0739 147.964 16.0076C148.176 15.9414 148.397 16.0562 148.463 16.2682C148.644 16.8379 152.877 30.2424 153.306 32.7908C153.341 33.0072 153.195 33.2103 152.979 33.2501C152.957 33.2501 152.935 33.2501 152.913 33.2501Z" fill="white"/>
<path d="M154.771 32.1944C154.599 32.1944 154.44 32.0839 154.391 31.9073L150.03 17.0233C149.968 16.8113 150.087 16.5905 150.3 16.5286C150.512 16.4668 150.733 16.586 150.794 16.798L155.155 31.682C155.217 31.894 155.098 32.1149 154.886 32.1767C154.846 32.1899 154.806 32.1944 154.771 32.1944Z" fill="white"/>
<path d="M150.441 105.93C148.002 108.407 144.821 108.823 141.635 109.22C139.541 109.481 138.37 108.372 137.875 106.42C137.407 104.569 138.542 103.178 138.679 101.535C139.139 95.882 140.341 90.2729 139.978 84.571C139.691 80.0263 139.015 75.517 138.282 71.0208C137.955 69.0201 137.592 67.0282 137.133 65.054C136.978 64.3959 136.713 63.8041 136.426 63.2034C135.723 61.7415 136.205 60.7875 137.592 59.9837C139.523 58.8619 141.48 57.8549 143.725 57.6252C145.833 57.4044 147.834 57.5811 149.447 59.2771C150.225 60.0897 150.609 60.9907 150.773 62.0551C151.873 69.1968 152.92 76.3429 153.459 83.5508C153.896 89.4249 154.268 95.3078 153.905 101.208C153.896 101.35 153.945 101.557 153.87 101.619C152.924 102.41 153.437 103.47 153.375 104.402C153.313 105.285 152.911 105.925 152.301 106.486C151.431 107.281 150.883 107.149 150.441 105.93Z" fill="#D93D3D"/>
<path d="M98.3341 121.94C96.6507 121.94 94.9628 121.936 93.2794 121.936C88.1583 121.353 83.1522 120.425 79.1137 116.848C76.0075 114.092 74.9426 110.408 76.4184 107.22C77.7263 104.384 79.56 102.017 82.7722 101.111C83.8282 100.816 84.7649 100.294 85.6398 99.6143C87.1112 98.4704 88.8697 98.2584 90.6415 98.3909C93.6947 98.6205 96.7435 98.5234 99.7966 98.5278C102.885 98.5366 105.96 98.753 109.045 98.9164C114.303 99.1947 119.561 98.9474 124.823 98.6779C130.982 98.3644 136.576 96.1825 142.192 93.9742C142.616 93.8064 142.912 93.5635 143.089 93.1527C143.173 92.9584 143.288 92.7818 143.359 92.583C144.684 88.9128 147.768 89.3986 149.717 91.9426C151.347 94.0714 152.173 96.5668 152.474 99.23C152.553 99.9588 152.593 100.595 153.366 101.076C154.069 101.518 153.848 102.401 153.702 103.125C153.128 105.97 151.55 108.063 149.05 109.552C146.531 111.053 143.893 112.286 141.087 113.076C135.286 114.715 129.507 116.402 123.749 118.191C120.294 119.264 116.702 119.683 113.079 119.895C110.388 120.05 107.67 120.319 105.059 120.938C102.819 121.472 100.53 121.362 98.3341 121.94Z" fill="#D93D3D"/>
<path d="M139.721 65.3413C139.593 65.3413 139.469 65.2794 139.394 65.169C139.271 64.9879 139.315 64.7406 139.496 64.6169C139.65 64.5109 143.305 61.9979 145.381 61.9228C145.589 61.914 145.783 62.0862 145.792 62.3071C145.801 62.5279 145.629 62.709 145.408 62.7178C143.561 62.7841 139.982 65.2441 139.947 65.2706C139.88 65.3192 139.801 65.3413 139.721 65.3413Z" fill="#F26B5C"/>
<path d="M139.721 95.3299C139.593 95.3299 139.465 95.2681 139.39 95.1532C139.266 94.9722 139.315 94.7248 139.5 94.6012C139.703 94.4687 144.444 91.3064 146.667 91.2887C146.892 91.3019 147.065 91.4609 147.069 91.6818C147.069 91.9026 146.897 92.0793 146.676 92.0837C145.028 92.1014 141.259 94.3847 139.946 95.2637C139.876 95.3078 139.801 95.3299 139.721 95.3299Z" fill="#F26B5C"/>
<path d="M145.395 96.6684C145.324 96.6684 145.249 96.6508 145.182 96.6066C143.994 95.8646 141.542 94.9239 139.655 95.3788C139.443 95.4318 139.226 95.2993 139.178 95.0873C139.125 94.8753 139.257 94.6589 139.474 94.6059C141.771 94.0538 144.489 95.233 145.611 95.9309C145.797 96.0457 145.854 96.293 145.739 96.4785C145.655 96.6022 145.527 96.6684 145.395 96.6684Z" fill="#F26B5C"/>
<path d="M115.807 87.9632C113.973 87.9632 108.556 87.2345 106.042 85.4325C105.291 84.8937 103.979 83.5422 103.113 82.65C102.812 82.3409 102.507 82.0229 102.415 81.9434C102.3 81.8727 102.225 81.7491 102.225 81.6033C102.225 81.3825 102.401 81.2058 102.622 81.2058C102.821 81.2058 102.821 81.2058 103.687 82.098C104.482 82.9195 105.812 84.2886 106.506 84.7877C108.839 86.4616 114.106 87.1682 115.807 87.1682C116.028 87.1682 116.205 87.3449 116.205 87.5657C116.205 87.7821 116.028 87.9632 115.807 87.9632Z" fill="white"/>
<path d="M144.472 49.1189C144.304 49.1189 144.154 49.0129 144.097 48.8495C142.285 43.5098 143.363 38.0774 143.407 37.8477C143.451 37.6313 143.659 37.4944 143.876 37.5385C144.092 37.5827 144.229 37.7903 144.185 38.0067C144.176 38.0597 143.107 43.4656 144.848 48.5933C144.918 48.8009 144.808 49.0262 144.6 49.0968C144.556 49.1145 144.512 49.1189 144.472 49.1189Z" fill="#EBB097"/>
<path d="M141.887 44.3622C141.728 44.3622 141.582 44.2694 141.52 44.1148C140.23 40.9304 137.234 29.0983 137.208 28.7406C137.195 28.5198 137.358 28.3298 137.579 28.3166C137.791 28.3033 137.977 28.4579 138.003 28.6699C138.087 29.1557 141.003 40.7184 142.258 43.8189C142.342 44.0221 142.24 44.2562 142.037 44.3357C141.989 44.3533 141.936 44.3622 141.887 44.3622Z" fill="#EBB097"/>
<path d="M139.289 43.183C139.13 43.183 138.975 43.0859 138.918 42.9269C138.618 42.1275 138.406 41.6461 138.216 41.2176C137.663 39.9722 137.358 39.2876 136.028 33.3031C135.98 33.0866 136.117 32.8747 136.329 32.8305C136.545 32.7819 136.757 32.9188 136.802 33.1308C138.114 39.0358 138.406 39.6983 138.94 40.8952C139.135 41.3325 139.355 41.8271 139.66 42.6486C139.735 42.8562 139.634 43.0815 139.426 43.161C139.382 43.1742 139.333 43.183 139.289 43.183Z" fill="#EBB097"/>
<path d="M161.471 52.3919C161.303 52.3919 161.144 52.2815 161.091 52.1137C160.768 51.0978 159.461 45.1575 159.408 44.9058C159.403 44.8837 159.399 44.8572 159.399 44.8351C159.279 41.474 158.93 34.7608 158.453 33.4225C157.958 32.0313 156.045 27.1289 155.02 24.4966L154.401 22.9066C153.774 21.2813 152.758 19.3865 152.669 19.2496C152.55 19.0641 152.603 18.8212 152.784 18.6976C152.965 18.5783 153.208 18.6269 153.332 18.808C153.456 18.9935 154.499 20.9456 155.144 22.6151L155.762 24.2007C156.863 27.0229 158.701 31.7442 159.2 33.1487C159.827 34.9021 160.163 44.0136 160.194 44.7644C160.305 45.2679 161.555 50.93 161.851 51.8708C161.917 52.0783 161.802 52.3036 161.59 52.3698C161.551 52.3875 161.511 52.3919 161.471 52.3919Z" fill="#D7997F"/>
<path d="M158.822 31.3954C158.641 31.3954 158.477 31.2717 158.433 31.0906C158.42 31.042 158.137 29.8319 156.979 23.1451C156.277 19.0951 156.396 16.4937 157.328 15.4116C157.395 15.2747 157.532 15.1864 157.691 15.1864C157.912 15.1864 158.088 15.3631 158.088 15.5839C158.088 15.7517 157.996 15.8621 157.929 15.9328C157.178 16.7985 157.121 19.3115 157.762 23.0126C158.91 29.642 159.202 30.8963 159.206 30.9095C159.255 31.1215 159.122 31.3379 158.91 31.3865C158.884 31.3954 158.853 31.3954 158.822 31.3954Z" fill="#D7997F"/>
<path d="M163.886 43.9381C163.78 43.9381 163.67 43.9293 163.559 43.9072C162.194 43.6687 161.151 42.0081 160.864 41.5046C160.754 41.3147 160.82 41.0718 161.01 40.9613C161.2 40.8509 161.443 40.9172 161.553 41.1071C161.659 41.2926 162.627 42.9356 163.696 43.1211C164.032 43.1785 164.355 43.0769 164.673 42.8075C164.841 42.6662 165.093 42.6838 165.234 42.8517C165.375 43.0195 165.358 43.2712 165.19 43.4126C164.779 43.7659 164.346 43.9381 163.886 43.9381Z" fill="#D7997F"/>
<path d="M156.021 25.1234C155.827 25.1234 155.659 24.9821 155.628 24.7833C153.869 12.9424 155.875 10.8975 156.109 10.7076C156.277 10.5662 156.529 10.5927 156.671 10.7606C156.808 10.924 156.79 11.1669 156.631 11.3126C156.573 11.37 154.749 13.4326 156.419 24.6729C156.45 24.8893 156.299 25.0925 156.083 25.1234C156.061 25.1234 156.043 25.1234 156.021 25.1234Z" fill="#D7997F"/>
<path d="M154.241 21.8994C154.042 21.8994 153.87 21.7536 153.848 21.5505C153.534 19.0639 153.3 16.648 153.857 14.4751C153.91 14.2631 154.131 14.135 154.338 14.188C154.55 14.241 154.679 14.4574 154.626 14.6694C154.104 16.7099 154.334 19.0418 154.634 21.4489C154.661 21.6653 154.506 21.8641 154.29 21.895C154.272 21.8994 154.254 21.8994 154.241 21.8994Z" fill="#D7997F"/>
<path d="M51.1306 177.718C49.2263 177.607 47.3617 178.203 45.4529 178.46C41.4674 178.99 41.2907 175.505 42.1258 172.594C44.9448 162.785 49.8272 153.877 53.7596 144.509C55.2884 140.865 56.4063 137.089 57.8202 133.415C60.2371 127.125 62.1945 120.686 63.2947 114.012C64.5894 106.138 73.0994 100.277 80.138 97.7548C83.3679 96.5976 80.0806 93.2189 83.4254 92.4769C84.393 92.2605 90.3094 91.9646 91.277 92.2296C91.847 92.3842 93.8751 94.7647 93.7735 93.8593C93.6321 92.5564 94.8958 92.5079 96.0623 93.0997C96.2788 93.2101 96.4909 93.347 96.6676 93.5148C99.3761 96.0588 102.2 98.4924 104.652 101.301C111.845 109.543 112.605 122.289 112.565 132.717C112.526 142.65 111.227 152.437 109.044 162.118C106.786 172.153 103.344 181.772 98.8989 191.038C98.5631 191.74 98.1699 191.979 97.3569 192.116C93.8442 192.721 90.8175 191.497 88.0206 189.687C82.1043 185.853 75.5737 183.468 68.9946 181.105C64.9826 179.665 60.869 178.972 56.6979 178.393C54.8643 178.137 53.0615 177.607 51.1306 177.718Z" fill="#F26B5C"/>
<path d="M97.7018 128.057C97.2113 128.057 96.7164 128.057 96.226 128.057C95.9741 127.664 95.5235 127.333 95.8416 126.759C96.1376 126.224 96.8269 126.472 97.229 126.008C95.5897 124.224 93.9902 122.408 92.3068 120.677C88.4848 116.742 85.8558 112.131 84.3623 106.866C84.137 106.071 83.9558 105.559 82.9131 105.948C82.0824 106.257 81.2827 105.873 80.9203 105.011C80.5669 104.172 80.8364 103.421 81.5522 102.865C81.8571 102.631 82.2061 102.454 82.5243 102.233C83.3549 101.659 84.3358 101.209 84.9721 100.467C86.8323 98.2981 87.2432 98.1391 89.9827 99.1372C90.5924 99.358 91.1845 99.7688 91.8959 99.5568C92.6249 99.3404 93.354 99.4066 94.0874 99.5038C96.522 99.8218 98.9566 100.149 101.391 100.453C107.696 101.235 114.019 101.792 120.382 101.876C125.856 101.951 131.335 102.092 136.801 101.668C143.716 101.134 150.635 100.612 157.493 99.5789C159.49 99.2786 161.032 99.835 162.556 100.891C165.11 102.662 166.59 105.033 166.608 108.209C166.608 108.487 166.568 108.761 166.833 108.977C167.598 109.609 167.443 110.373 166.984 111.053C165.844 112.745 164.465 114.229 162.724 115.324C160.524 116.707 158.138 117.771 155.756 118.738C152.133 120.213 148.267 121.022 144.454 121.918C139.037 123.19 133.562 124.153 128.057 124.97C122.998 125.721 117.925 126.33 112.831 126.763C108.673 127.116 104.506 127.346 100.353 127.717C99.4736 127.805 98.5369 127.598 97.7018 128.057Z" fill="#F26B5C"/>
<path d="M169.15 100.926C169.137 101.911 169.101 102.896 169.035 103.881C168.774 107.794 167.581 111.521 164.32 113.959C163.561 114.525 162.169 115.165 161.197 115.01C160.176 114.851 160.843 114.048 160.538 113.469C160.454 113.306 160.278 113.217 160.114 113.133C158.479 112.321 156.805 111.57 155.28 110.563C152.148 108.496 146.483 106.04 147.071 102.224C149.717 99.4595 150.977 89.4824 150.738 83.8689C150.544 79.28 151.494 75.9234 151.021 71.3434C150.561 66.8782 149.854 62.4483 149.192 58.014C148.953 56.424 149.015 54.7943 148.529 53.2352C148.383 52.7715 148.626 52.2945 149.028 52.0339C151.728 50.2717 154.609 49.0439 157.927 49.4458C160.238 49.724 161.935 51.0358 163.485 52.745C164.966 54.3747 164.93 56.3755 165.262 58.2746C166.163 63.42 166.627 68.6227 167.294 73.8034C167.944 78.8516 168.385 83.9219 168.668 89.0054C168.885 92.9097 169.203 96.9642 169.15 100.926Z" fill="#F26B5C"/>
<path d="M59.001 178.521C58.9656 178.521 58.9259 178.517 58.8861 178.504C55.3204 177.444 49.9033 176.923 43.6335 177.028C43.5053 177.028 43.417 177.033 43.3684 177.033C43.1474 177.033 42.9707 176.856 42.9707 176.635C42.9707 176.415 43.1474 176.238 43.3684 176.238L43.6158 176.234C49.9696 176.123 55.4662 176.662 59.1115 177.744C59.3235 177.806 59.4428 178.027 59.381 178.239C59.3324 178.411 59.1733 178.521 59.001 178.521Z" fill="#F7C8B5"/>
<path d="M50.4591 162.255C50.3574 162.255 50.2514 162.215 50.1719 162.136C50.0172 161.977 50.0216 161.725 50.1807 161.575C56.0485 155.877 64.7308 134.302 65.0268 133.286C65.071 133.088 65.2566 132.951 65.4598 132.973C65.6763 132.995 65.8354 133.194 65.8133 133.41C65.7956 133.569 56.9719 156.085 50.7374 162.14C50.6623 162.22 50.5607 162.255 50.4591 162.255Z" fill="#F7C8B5"/>
<path d="M62.9377 149.288C62.8625 149.288 62.783 149.266 62.7167 149.222C62.5356 149.098 62.487 148.851 62.6063 148.669L67.6036 141.227C67.7273 141.046 67.9747 140.998 68.1559 141.117C68.3371 141.241 68.3857 141.488 68.2664 141.669L63.269 149.111C63.1939 149.226 63.0658 149.288 62.9377 149.288Z" fill="#F7C8B5"/>
<path d="M74.4255 110.616C74.2135 110.616 74.0411 110.453 74.0279 110.241C74.019 110.069 74.1207 109.918 74.2665 109.857C74.536 109.649 75.7555 108.311 77.0457 106.897C81.8133 101.673 86.2229 96.96 87.7561 96.695C90.0228 96.2975 103.676 98.1393 104.255 98.2188C104.471 98.2497 104.626 98.4484 104.595 98.6648C104.564 98.8813 104.365 99.0358 104.149 99.0049C99.2795 98.3468 89.6119 97.1809 87.8931 97.4768C86.5013 97.7197 80.7351 104.035 77.6378 107.432C74.7437 110.599 74.7127 110.603 74.4476 110.616C74.4388 110.616 74.43 110.616 74.4255 110.616Z" fill="#F7C8B5"/>
<path d="M94.1001 119.22C93.9543 119.22 93.8173 119.14 93.7466 119.003C90.5741 112.886 88.1042 103.66 88.0821 103.567C88.0247 103.355 88.1528 103.139 88.3649 103.081C88.577 103.024 88.7935 103.152 88.8509 103.364C88.8774 103.457 91.3208 112.599 94.4536 118.637C94.5552 118.831 94.4801 119.069 94.2857 119.171C94.2238 119.206 94.1619 119.22 94.1001 119.22Z" fill="#F7C8B5"/>
<path d="M111.921 99.4065C108.497 99.4065 105.753 99.274 104.136 99.0001C103.919 98.9648 103.774 98.7572 103.809 98.5408C103.844 98.3244 104.052 98.1786 104.269 98.214C110.75 99.3225 135.618 98.0506 149.359 95.4359C149.39 95.4315 149.425 95.4271 149.456 95.4315C153.999 95.7142 160.891 96.1161 161.537 96.094C161.771 96.041 162.023 96.2309 162.023 96.4827C162.023 96.5931 161.978 96.6991 161.894 96.7742C161.727 96.9332 161.665 96.9906 149.452 96.2265C139.06 98.2007 122.34 99.4065 111.921 99.4065Z" fill="#F7C8B5"/>
<path d="M97.2544 132.315C97.1528 132.315 97.0511 132.275 96.9716 132.2C96.817 132.045 96.817 131.803 96.9628 131.644C96.976 131.626 96.9937 131.599 97.0158 131.568C99.1809 128.446 106.29 127.059 111.875 126.45C112.092 126.423 112.291 126.582 112.313 126.803C112.335 127.019 112.18 127.218 111.959 127.24C104.297 128.079 99.2206 129.78 97.6653 132.023C97.6079 132.107 97.5637 132.165 97.5283 132.2C97.4576 132.275 97.356 132.315 97.2544 132.315Z" fill="#F7C8B5"/>
<path d="M158.828 104.322C158.7 104.322 158.576 104.26 158.496 104.146C156.574 101.288 152.536 99.0267 152.258 98.9251C152.054 98.85 151.944 98.6248 152.015 98.4172C152.085 98.214 152.306 98.1036 152.514 98.1699C153.031 98.3421 157.158 100.723 159.159 103.699C159.283 103.881 159.234 104.128 159.049 104.252C158.978 104.3 158.903 104.322 158.828 104.322Z" fill="#F7C8B5"/>
<path d="M149.438 96.2264C149.429 96.2264 149.42 96.2264 149.416 96.2264C149.195 96.2131 149.032 96.0276 149.04 95.8068C149.045 95.7538 149.124 94.4641 150.118 90.8513C151.082 87.3445 149.071 59.5861 149.049 59.3034C149.032 59.0826 149.199 58.8927 149.416 58.8795C149.637 58.8618 149.827 59.0296 149.84 59.246C149.924 60.3944 151.881 87.424 150.883 91.0589C149.92 94.5657 149.831 95.8377 149.831 95.8509C149.818 96.0629 149.646 96.2264 149.438 96.2264Z" fill="#F7C8B5"/>
<path d="M159.503 60.3107C159.437 60.3107 159.371 60.293 159.309 60.2621C155.43 58.0936 153.242 59.6791 153.15 59.7454C152.973 59.8779 152.725 59.8425 152.593 59.6703C152.46 59.498 152.491 59.2507 152.664 59.1138C152.77 59.0343 155.332 57.1307 159.693 59.5687C159.883 59.6747 159.954 59.9176 159.848 60.1119C159.777 60.24 159.645 60.3107 159.503 60.3107Z" fill="#F7C8B5"/>
<path d="M18.8238 98.8588C19.2833 97.1938 20.2642 95.4889 20.8607 94.6454C23.3218 91.1739 27.2808 88.8773 31.3193 87.7157C37.0943 86.0595 43.2183 86.2538 49.1832 85.5074C55.1438 84.761 61.4004 82.7823 65.0456 78.0036C68.6025 73.344 68.9383 67.0724 70.8559 61.534C73.6042 53.5929 80.0243 46.9327 87.9776 44.2165C95.9308 41.5003 105.254 42.918 111.829 48.1517C113.499 49.4811 113.539 49.9581 113.189 52.0648C112.814 54.3217 111.391 53.3191 108.519 57.3382C106.809 59.7276 109.045 64.4843 107.848 67.1652C106.252 70.7294 102.187 73.0172 98.3124 72.5226C100.385 79.5891 100.955 87.9012 96.3904 93.6825C93.6288 97.1805 89.3827 99.1945 85.1144 100.484C80.8461 101.774 76.4011 102.463 72.1992 103.96C65.9647 106.177 60.3753 110.179 56.2705 115.368C53.9243 118.336 52.0155 121.71 49.1126 124.144C46.7266 126.14 44.5748 123.883 43.099 121.984C41.6851 120.169 39.9088 118.416 37.7703 117.373C35.3711 116.207 32.53 116.737 30.2279 115.439C29.2249 114.873 28.4164 113.946 27.8729 112.943C26.892 111.128 26.5562 109.035 25.7697 107.122C25.2704 105.903 24.5148 104.711 23.4456 103.911C22.3321 103.077 21.2231 103.32 20.0124 102.843C18.4217 102.224 18.351 100.564 18.8238 98.8588Z" fill="#4A2533"/>
<path d="M89.5276 67.5142C89.3111 67.5142 89.1344 67.342 89.13 67.1256C88.9311 59.2993 91.7811 54.6884 94.2112 52.2018C96.7563 49.596 99.3809 48.6774 99.752 48.6774C99.9729 48.6774 100.15 48.854 100.15 49.0749C100.15 49.2824 99.9906 49.4547 99.7874 49.4724C99.5223 49.543 89.563 52.7495 89.9297 67.1123C89.9341 67.3331 89.7618 67.5142 89.5409 67.5186C89.532 67.5142 89.5276 67.5142 89.5276 67.5142Z" fill="#755462"/>
<path d="M87.0805 61.2204C87.0496 61.2204 87.0186 61.216 86.9877 61.2116C86.7756 61.163 86.6431 60.9466 86.6917 60.7346C87.8272 55.8807 91.1544 53.1292 91.2958 53.0144C91.4681 52.8775 91.7155 52.904 91.8569 53.0718C91.9939 53.244 91.9718 53.4914 91.7995 53.6327C91.7685 53.6592 88.5386 56.3357 87.4693 60.9157C87.4252 61.0968 87.2617 61.2204 87.0805 61.2204Z" fill="#755462"/>
<path d="M43.159 109.689C43.0706 109.689 42.9822 109.658 42.9071 109.596C42.7392 109.454 42.7127 109.207 42.8541 109.035C47.4449 103.457 55.2612 99.177 66.0821 96.3062C71.1722 94.9547 80.7559 88.608 80.8531 88.5462C81.0342 88.4225 81.2817 88.4755 81.4054 88.6566C81.5291 88.8377 81.4761 89.085 81.2949 89.2087C80.8973 89.4737 71.5036 95.6923 66.2897 97.0747C55.6323 99.9013 47.953 104.093 43.4682 109.538C43.3843 109.64 43.2738 109.689 43.159 109.689Z" fill="#755462"/>
<path d="M48.5293 101.186C48.4056 101.186 48.2818 101.129 48.2067 101.023C48.0786 100.846 48.1184 100.594 48.2995 100.466C52.6738 97.3217 55.2454 96.6725 55.3514 96.646C55.5635 96.593 55.78 96.7255 55.833 96.9375C55.8861 97.1495 55.7535 97.3659 55.5414 97.4189C55.5149 97.4233 52.9919 98.0725 48.7679 101.111C48.6928 101.16 48.6088 101.186 48.5293 101.186Z" fill="#755462"/>
<path d="M44.3838 101.2C44.3396 101.2 44.2954 101.191 44.2512 101.178C44.0436 101.107 43.9331 100.873 44.0038 100.661C44.2335 99.9674 47.7286 97.4543 49.253 96.677C49.4474 96.5754 49.6904 96.6549 49.7876 96.8493C49.8892 97.0436 49.8097 97.2821 49.6153 97.3837C47.9628 98.2272 44.9935 100.493 44.7505 100.935C44.6931 101.102 44.5473 101.2 44.3838 101.2Z" fill="#755462"/>
<path d="M92.8643 69.8946C92.8687 67.8939 94.3931 66.6617 96.324 67.2712C99.7527 68.3488 102.112 70.6322 103.292 74.0286C103.897 75.7687 102.806 76.895 100.517 77.054C97.0397 77.2924 92.8554 73.3793 92.8643 69.8946Z" fill="#755462"/>
<path d="M100.641 73.3884C100.531 73.3884 100.424 73.3442 100.345 73.2559C97.2255 69.7623 95.975 69.6342 95.5774 69.7447C95.2592 69.833 95.1841 70.1775 95.1841 70.1952C95.1399 70.4072 94.9323 70.5529 94.7202 70.5132C94.5081 70.4734 94.3623 70.2702 94.4021 70.0582C94.4551 69.7447 94.7158 69.1705 95.352 68.985C96.5539 68.6405 98.3787 69.8683 100.937 72.7303C101.083 72.8937 101.07 73.1455 100.906 73.2912C100.831 73.353 100.734 73.3884 100.641 73.3884Z" fill="white"/>
<path d="M96.3318 72.218C96.3141 72.218 96.2964 72.218 96.2787 72.2136C96.0622 72.1827 95.9076 71.9839 95.9385 71.7675C95.9473 71.6924 96.0578 71.0034 96.6631 70.6148C97.0917 70.3365 97.6308 70.2923 98.2715 70.4823C98.4835 70.5441 98.6028 70.7649 98.541 70.9769C98.4791 71.1889 98.2582 71.3082 98.0461 71.2463C97.6352 71.1271 97.3171 71.1403 97.0917 71.2817C96.7913 71.476 96.725 71.8691 96.725 71.8735C96.6985 72.0722 96.5262 72.218 96.3318 72.218Z" fill="white"/>
<path d="M120.322 19.5454C120.233 19.5454 120.149 19.5189 120.074 19.457C112.267 13.2605 99.484 3.35404 98.1761 2.97421C97.9993 2.97863 97.8314 2.86822 97.7784 2.69155C97.7166 2.47955 97.8314 2.25872 98.0435 2.19689C98.3705 2.09531 98.8212 1.95839 109.836 10.4383C115.201 14.5678 120.516 18.7901 120.569 18.8343C120.741 18.9712 120.768 19.2229 120.635 19.3908C120.556 19.4968 120.441 19.5454 120.322 19.5454Z" fill="white"/>
<path d="M123.059 16.7849C122.958 16.7849 122.856 16.7452 122.781 16.6701L106.265 0.430177C106.11 0.275595 106.106 0.0238482 106.26 -0.130733C106.415 -0.285315 106.667 -0.289731 106.821 -0.13515L123.342 16.1047C123.497 16.2593 123.501 16.5111 123.347 16.6657C123.267 16.7452 123.165 16.7849 123.059 16.7849Z" fill="white"/>
<path d="M125.451 11.4101C125.332 11.4101 125.213 11.3571 125.133 11.2511L121.748 6.78589C121.616 6.60922 121.651 6.36189 121.824 6.22939C121.996 6.09689 122.248 6.13223 122.38 6.30447L125.765 10.7697C125.897 10.9463 125.862 11.1937 125.69 11.3262C125.619 11.3836 125.535 11.4101 125.451 11.4101Z" fill="white"/>
<path d="M78.7821 41.2398C77.947 40.4934 77.0191 39.9192 76.0868 39.6012C73.4843 38.7179 70.0158 39.5968 67.7667 41.1073C64.3689 43.3863 65.7077 48.2136 67.7093 50.9519C69.1983 52.988 72.4062 54.7149 75.0396 54.8209C76.7805 54.8916 78.0883 54.6707 79.0781 53.1823C79.1134 53.1382 79.1399 53.094 79.1753 53.0454C80.1871 52.2857 80.9869 51.2346 81.3978 49.9494C81.4862 49.7683 81.5701 49.5872 81.6408 49.3929C82.6482 46.6325 81.0752 43.2935 78.7821 41.2398Z" fill="#4A2533"/>
<path d="M74.5084 54.8429C74.4112 54.8429 74.3139 54.8075 74.2344 54.7325C74.0753 54.5823 74.0665 54.3305 74.2167 54.1715C74.23 54.1583 75.6086 52.7008 77.4732 50.9474C79.2317 49.2956 79.4747 49.0085 79.4836 48.9997C79.6205 48.8363 79.8724 48.8098 80.0403 48.9423C80.2082 49.0792 80.2391 49.3177 80.111 49.4899C80.0182 49.6092 79.4217 50.2054 78.0211 51.526C76.1741 53.2661 74.8132 54.7015 74.8 54.7192C74.716 54.8031 74.6144 54.8429 74.5084 54.8429Z" fill="#4A2533"/>
</g>
<defs>
<clipPath id="clip0">
<rect width="341" height="263" fill="white"/>
</clipPath>
</defs>
</svg>
