<svg width="333" height="292" viewBox="0 0 333 292" fill="none" xmlns="http://www.w3.org/2000/svg">
<path d="M126.923 231.583C155.424 241.753 245.267 259.639 318.718 219.618C368.153 192.673 380.606 104.585 357.694 70.1799C304.559 -9.61586 201.561 -17.8342 98.0772 59.4746C9.88991 125.353 40.5247 200.76 126.923 231.583Z" fill="#EC5E5B"/>
<path d="M89.5006 66.1333C107.516 63.2374 125.316 58.5593 143.124 53.9463C160.915 49.344 178.78 45.3177 196.608 41.0087C232.695 32.2786 268.822 24.6772 305.072 17.2946C315.149 15.2458 325.182 12.8384 335.245 10.6701C339.651 9.72221 344.106 8.92694 348.483 7.70741C349.598 7.40016 350.707 7.01687 351.814 6.66611C352.203 6.54228 352.877 6.46647 353.201 6.23311C353.346 6.13785 354.619 4.91123 354.034 5.18372C353.636 5.36163 353.79 6.19931 354.197 6.01069C354.273 5.9794 354.35 5.93725 354.426 5.90595C354.697 5.78021 354.772 5.33672 354.515 5.12646C354.05 4.73928 352.827 5.47862 352.37 5.6122C349.834 6.38443 347.323 7.14623 344.756 7.74442C335.578 9.86204 326.384 11.8818 317.191 13.8907C298.635 17.9383 279.991 21.2361 261.413 25.099C224.806 32.7143 188.254 41.6213 151.865 50.8346C131.077 56.1041 110.355 61.917 89.3292 65.3062C88.9159 65.3754 89.0789 66.2023 89.5006 66.1333Z" fill="#B63333"/>
<path d="M53.285 111.216C70.7929 108.464 87.9067 102.581 105.136 97.872C124.08 92.6918 142.993 87.381 161.899 81.9507C200.16 70.9565 238.409 61.1985 277.269 54.661C299.943 50.843 322.665 47.6115 345.368 44.0652C345.705 44.0164 345.876 43.3359 345.466 43.2208C344.009 42.8283 344.597 42.8921 343.09 42.9435C342.661 42.9582 342.647 43.8148 343.076 43.8001C345.113 43.7356 341.789 43.7684 341.258 43.8465C340.162 44.0131 339.066 44.1905 337.969 44.357C335.498 44.7398 333.036 45.112 330.565 45.4948C325.632 46.2497 320.699 46.9938 315.766 47.738C306.431 49.1589 297.087 50.5796 287.759 52.0875C268.057 55.2596 248.375 58.7683 228.812 63.2117C189.821 72.0574 151.375 84.5671 112.627 95.0111C92.8561 100.341 73.1765 107.255 53.1132 110.41C52.7005 110.447 52.8635 111.274 53.285 111.216Z" fill="#B63333"/>
<path d="M45.7866 144.961C103.755 134.038 161.458 120.789 219.017 106.606C253.257 98.171 287.374 89.0509 321.478 79.7028C328.542 77.7678 335.606 75.8219 342.662 73.8541C345.07 73.1774 348.917 73.0556 351.089 71.3989C351.31 71.229 351.32 70.6759 351.026 70.6169L351.018 70.6168C350.599 70.5341 350.408 71.3553 350.828 71.438C350.333 71.3432 351.186 70.6304 350.24 70.8211C349.751 70.9216 349.26 71.1088 348.778 71.2529C347.037 71.756 345.296 72.2483 343.555 72.7298C337.547 74.4109 331.539 76.0703 325.523 77.7187C309.493 82.1219 293.464 86.4926 277.419 90.798C232.648 102.803 187.694 113.656 142.683 123.868C110.405 131.196 78.0586 138.024 45.632 144.134C45.2017 144.214 45.3731 145.041 45.7866 144.961Z" fill="#B63333"/>
<path d="M57.4239 180.609C66.6374 175.856 76.3783 173.802 86.1179 171.824C95.8744 169.846 105.482 167.214 115.118 164.367C136.047 158.177 156.898 151.672 177.988 146.462C220.286 136.011 262.903 128.103 305.446 119.651C329.818 114.809 354.107 108.956 378.617 105.45C379.039 105.392 379.053 104.535 378.631 104.593C357.62 107.603 336.805 112.482 315.925 116.698C294.387 121.044 272.818 125.173 251.281 129.497C208.458 138.107 166.031 148.198 123.797 160.907C112.461 164.323 101.13 167.881 89.6347 170.254C78.6875 172.516 67.6451 174.43 57.2693 179.782C56.8705 179.992 57.025 180.819 57.4239 180.609Z" fill="#B63333"/>
<path d="M77.0128 203.705C120.5 195.106 163.077 179.974 206.498 170.744C228.251 166.12 250.071 162.071 271.831 157.512C293.853 152.891 315.794 147.575 337.764 142.586C362.156 137.049 386.528 131.231 410.586 123.531C411.001 123.396 410.838 122.57 410.423 122.704C367.465 136.463 323.433 145.509 279.822 154.952C236.136 164.404 192.298 171.88 148.978 184.115C125.011 190.884 101.095 198.087 76.8414 202.878C76.4279 202.958 76.5909 203.785 77.0128 203.705Z" fill="#B63333"/>
<path d="M110.634 224.353C119.1 223.601 127.177 219.925 135.456 217.749C144.378 215.4 153.314 213.181 162.258 210.983C180.484 206.496 198.719 202.01 216.938 197.447C252.152 188.627 287.383 179.774 322.769 172.247C360.763 164.177 398.965 157.738 437.054 150.569C445.162 149.042 453.271 147.525 461.365 145.878C462.378 145.666 469.442 145.239 469.847 143.619C469.982 143.089 469.339 142.851 469.212 143.381C469.086 143.899 461.312 145.031 460.257 145.241C453.395 146.627 446.527 147.925 439.658 149.223C419.643 152.998 399.614 156.674 379.6 160.405C329.75 169.704 280.242 180.786 230.763 193.116C210.855 198.075 190.955 203.077 171.039 207.959C161.284 210.349 151.53 212.74 141.781 215.238C131.492 217.88 121.111 222.571 110.648 223.496C110.219 223.532 110.204 224.389 110.634 224.353Z" fill="#B63333"/>
<path d="M160.263 240.285C206.651 232.276 251.858 216.297 297.535 203.416C343.306 190.505 389.651 181.519 435.973 172.901C463.007 167.874 490.108 163.336 517.35 160.981C517.771 160.944 517.794 160.088 517.364 160.124C470.15 164.194 423.103 173.95 376.385 183.624C353.182 188.431 330.021 193.717 307.014 199.926C284.117 206.105 261.395 213.371 238.589 220.116C212.613 227.796 186.521 234.899 160.109 239.448C159.678 239.527 159.841 240.354 160.263 240.285Z" fill="#B63333"/>
<path d="M369.233 219.453C369.233 219.453 317.458 190.178 257.564 195.218C197.671 200.258 206.531 270.509 174.355 267.717C154.41 265.98 130.402 245.376 104.349 258.149C78.2971 270.921 42.0332 281.816 0 292.521H357.743L369.233 219.453Z" fill="#647B92"/>
<path d="M369.233 219.453C369.233 219.453 317.458 190.178 257.565 195.218C197.672 200.257 206.532 270.509 174.356 267.717C154.41 265.98 130.402 245.376 104.35 258.148C78.2975 270.921 74.1271 289.004 55.3193 292.521H357.744L369.233 219.453Z" fill="#647B92"/>
<path d="M116.135 267.816C116.135 267.816 112.896 278.975 107.729 281.733C102.561 284.492 98.6627 283.537 88.7561 289.293C87.7176 289.894 86.8852 290.388 86.2176 290.792C85.4017 291.286 85.7561 292.529 86.7039 292.529H93.0088C93.7094 292.529 94.4017 292.397 95.0528 292.126C98.1929 290.849 108.454 286.896 117.899 285.628C120.05 285.34 121.237 288.107 122.407 290.355C123.1 291.689 124.484 292.521 125.993 292.521H130.402C130.913 292.521 131.16 291.903 130.781 291.557C127.847 288.848 120.075 281.05 122.135 275.961C124.657 269.719 125.894 267.8 125.894 267.8H116.135V267.816Z" fill="#EBB097"/>
<path d="M113.49 286.707C113.515 286.707 113.531 286.707 113.556 286.699C119.259 285.669 119.614 280.926 119.614 280.877C119.622 280.679 119.473 280.506 119.276 280.498C119.086 280.482 118.905 280.638 118.896 280.836C118.888 281.009 118.567 285.068 113.424 285.991C113.226 286.024 113.094 286.213 113.135 286.411C113.168 286.592 113.317 286.707 113.49 286.707Z" fill="#F7C8B5"/>
<path d="M88.08 292.644C88.1294 292.644 88.1871 292.636 88.2366 292.611C95.4728 289.177 102.099 286.353 102.165 286.328C102.346 286.254 102.437 286.04 102.355 285.859C102.281 285.678 102.066 285.587 101.885 285.669C101.819 285.694 95.1761 288.519 87.9234 291.969C87.7421 292.051 87.6679 292.266 87.7503 292.447C87.8162 292.57 87.9399 292.644 88.08 292.644Z" fill="#D19893"/>
<path d="M89.0825 270.657C89.0825 270.657 82.3969 278.052 79.0919 279.815C73.1826 282.969 71.6629 282.227 60.3304 288.815C59.1436 289.507 58.1958 290.067 57.4293 290.528C56.498 291.088 56.9018 292.521 57.9897 292.521H65.2013C66.009 292.521 66.8002 292.364 67.542 292.068C71.1271 290.61 82.8717 286.089 93.6767 284.64C96.141 284.311 97.4926 287.473 98.8361 290.042C99.6355 291.566 101.21 292.521 102.932 292.521H107.968C108.545 292.521 108.833 291.813 108.405 291.417C105.05 288.321 96.1657 279.403 98.5146 273.581C101.399 266.441 102.809 264.25 102.809 264.25L89.0825 270.657Z" fill="#F7C8B5"/>
<path d="M89.4566 285.035C89.4813 285.035 89.5061 285.035 89.5308 285.027C96.0583 283.849 96.4622 278.423 96.4622 278.365C96.4786 278.134 96.3056 277.945 96.0748 277.929C95.8523 277.912 95.6545 278.085 95.638 278.316C95.6215 278.513 95.2588 283.158 89.3824 284.212C89.1599 284.253 89.0116 284.467 89.0528 284.689C89.0857 284.895 89.2588 285.035 89.4566 285.035Z" fill="white"/>
<path d="M59.5632 292.644C59.6209 292.644 59.6869 292.628 59.7363 292.603C68.0111 288.675 75.5935 285.447 75.6677 285.414C75.8738 285.324 75.9727 285.085 75.882 284.871C75.7913 284.665 75.5523 284.566 75.338 284.657C75.2639 284.689 67.6649 287.918 59.3737 291.862C59.1676 291.961 59.077 292.208 59.1759 292.414C59.2583 292.562 59.4066 292.644 59.5632 292.644Z" fill="white"/>
<path d="M109.05 137.454L110.163 135.511L112.215 136.087L121.908 156.79C121.908 156.79 103.635 152.911 98.1382 156.502C93.9678 160.57 89.6738 163.542 87.498 164.061C83.682 164.959 83.5667 159.977 83.5667 159.977L82.3386 147.929L80.0062 149.683C79.6024 149.988 79.0254 149.724 78.9925 149.222L77.3936 126.527C101.303 115.616 109.487 133.041 109.05 137.454Z" fill="#F7C8B5"/>
<path d="M109.05 137.455L110.163 135.511L112.215 136.088L112.81 154.726C112.81 154.726 103.635 152.903 98.138 156.502C93.9677 160.57 89.6737 163.543 87.4978 164.061C83.6819 164.959 83.5665 159.977 83.5665 159.977L82.3385 147.929L79.0747 150.383L74.0967 122.204C105.152 115.196 109.487 133.041 109.05 137.455Z" fill="#F7C8B5"/>
<path d="M99.1266 131.493C99.1266 131.493 98.7392 124.163 106.066 124.411C113.401 124.658 114.341 138.105 104.245 139.266L99.1266 131.493Z" fill="#F7C8B5"/>
<path d="M82.5195 148.201C82.6102 148.201 82.6926 148.176 82.775 148.119L83.9042 147.246C84.0855 147.106 84.1184 146.851 83.9783 146.669C83.8382 146.488 83.5827 146.455 83.4014 146.595L82.2723 147.468C82.091 147.608 82.058 147.864 82.1981 148.045C82.2723 148.152 82.3959 148.201 82.5195 148.201Z" fill="white"/>
<path d="M83.1784 153.496C83.1949 153.488 83.2031 153.488 83.2196 153.48L87.6867 151.347C87.8927 151.248 87.9751 151.001 87.8845 150.795C87.7856 150.589 87.5466 150.507 87.3323 150.606L82.8652 152.738C82.6592 152.837 82.5768 153.084 82.6674 153.29C82.7581 153.48 82.9806 153.562 83.1784 153.496Z" fill="white"/>
<path d="M92.7884 145.657C92.8626 145.624 92.9203 145.574 92.9697 145.5C93.0934 145.311 93.0357 145.055 92.8461 144.932L83.3186 138.822C83.129 138.698 82.8735 138.756 82.7499 138.945C82.6263 139.135 82.684 139.39 82.8735 139.513L92.401 145.624C92.5247 145.706 92.673 145.714 92.7884 145.657Z" fill="white"/>
<path d="M85.7273 137.292C85.8097 138.074 85.3235 138.766 84.6394 138.832C83.9636 138.898 83.3454 138.321 83.263 137.539C83.1806 136.757 83.6669 136.065 84.3509 135.999C85.035 135.933 85.6449 136.509 85.7273 137.292Z" fill="#4A2533"/>
<path d="M84.16 131.297C84.6024 131.174 85.2266 130.887 85.6922 131.002C86.8419 131.288 85.9616 132.402 85.4625 132.779C84.7833 133.294 84.1987 133.93 83.7399 134.647C83.4152 135.159 83.0355 135.93 82.3119 135.554C81.6821 135.226 81.3512 134.661 81.5594 133.885C81.8469 132.836 82.886 131.79 84.16 131.297Z" fill="#755462"/>
<path d="M100.929 131.291C101.201 130.097 102.998 130.261 103.789 130.566C104.819 130.961 105.479 131.809 105.742 132.872C106.014 133.967 105.882 135.359 104.943 136.108C104.762 136.256 103.229 136.989 103.262 137.03C102.948 136.61 102.231 137.022 102.553 137.442C103.146 138.241 104.786 137.228 105.363 136.816C106.657 135.886 106.896 134.115 106.542 132.649C106.154 131.06 104.935 129.841 103.303 129.561C102.108 129.364 100.443 129.726 100.138 131.068C100.014 131.587 100.814 131.809 100.929 131.291Z" fill="white"/>
<path d="M107.397 138.075C107.397 138.075 164.11 98.1782 206.968 96.5312C249.825 94.8842 254.77 103.943 266.309 113.824C280.031 125.576 286.814 131.118 283.517 154.175C280.221 177.233 248.156 209.8 253.925 221.329C259.694 232.858 307.518 243.935 307.518 243.935L305.869 253.817C305.869 253.817 242.061 248.387 228.116 230.279C221.597 222.761 230.614 176.372 230.614 176.372C230.614 176.372 186.05 187.148 183.891 195.349C179.77 210.996 216.858 235.7 216.858 235.7L211.913 241.465C211.913 241.465 162.462 226.642 150.923 199.467C147.008 190.244 163.286 179.703 163.286 179.703L143.506 187.115C143.506 187.115 145.978 205.231 142.682 224.995C139.385 244.759 122.077 276.051 122.077 276.051L113.745 273.992C113.745 273.992 125.374 235.7 126.198 219.231C127.022 202.761 110.538 173.939 110.538 167.351C110.538 160.763 118.012 155.975 116.139 147.649C114.266 139.324 107.397 138.075 107.397 138.075Z" fill="#EBB097"/>
<path d="M290.935 151.705C290.935 151.705 290.111 159.116 261.265 174.762C250.229 180.749 227.473 189.585 227.473 189.585C227.473 189.585 226.386 184.404 222.913 181.815C220.928 180.335 218.164 179.702 214.38 181.367C209.801 151.188 188.737 174.762 188.737 174.762L168.231 173.115C168.231 173.115 188.836 149.234 190.484 148.411C192.133 147.587 225.1 150.058 236.638 130.294C248.177 110.531 244.767 96.448 244.767 96.448C244.767 96.448 273.273 98.3018 283.518 118.765C292.584 136.882 290.935 151.705 290.935 151.705Z" fill="#B63333"/>
<path d="M221.456 180.535L208.552 163.051L195.439 173.458L204.806 185.114L221.456 180.535Z" fill="#A61815"/>
<path d="M119.606 149.234C119.606 149.234 109.48 154.31 109.48 165.549C113.226 200.932 111.952 211.068 109.48 224.243C107.007 237.419 89.0449 271.061 89.0449 271.061L98.0779 273.581C98.0779 273.581 126.572 239.546 129.045 230.487C131.517 221.429 134.04 219.248 140.7 186.363C151.415 176.481 151.749 136.059 119.606 149.234Z" fill="#F7C8B5"/>
<path d="M118.682 130.294C118.682 130.294 125.276 123.706 129.397 133.588C132.322 140.596 112.394 155.767 112.394 155.767C112.394 155.767 155.77 133.588 167.309 157.469C177.15 177.834 138.561 186.291 138.561 186.291C138.561 186.291 153.348 193.703 178.997 186.291C208.968 171.377 220.208 157.469 220.208 157.469C220.208 157.469 250.179 133.588 234.067 90.7669C204.397 80.8851 169.781 96.5313 169.781 96.5313C169.781 96.5313 149.993 107.278 118.682 130.294Z" fill="white"/>
<path d="M75.9235 122.059C75.9235 122.059 70.1542 109.707 75.9235 104.766C81.6927 99.8253 86.6378 98.1783 98.1763 99.8253C109.715 101.472 122.078 101.472 119.605 104.766C117.132 108.06 113.836 110.531 113.836 110.531C113.836 110.531 122.902 106.413 122.078 108.884C121.253 111.354 117.132 114.648 117.132 114.648C117.132 114.648 128.671 117.118 131.968 114.648C135.264 112.178 132.792 127 123.726 132.765C114.66 138.529 107.242 138.529 107.242 138.529C107.242 138.529 113.012 130.294 104.77 126.177C99.1571 123.377 86.6378 114.648 75.9235 122.059Z" fill="#4A2533"/>
<path d="M103.86 126.003C100.738 122.881 95.1182 119.343 89.1106 117.118C79.2204 114.648 73.4512 117.942 73.4512 117.942L75.0995 128.647C75.0995 128.647 80.0446 123.706 87.2479 125.329C97.237 127.585 97.6408 130.294 97.6408 130.294C97.6408 130.294 99.0728 124.338 103.86 126.003Z" fill="#B63333"/>
<path d="M290.356 236.578L322.826 250.022L318 258.08L288.168 252.609L290.356 236.578Z" fill="white"/>
<path d="M319.081 247.847C321.504 248.786 326.68 250.96 330.529 253.768C330.867 254.015 330.991 254.451 330.85 254.838L327.669 263.74C327.488 264.251 326.903 264.506 326.408 264.284L324.133 263.287C323.474 262.999 322.741 263.526 322.823 264.242C323.375 269.101 323.672 283.594 309.306 291.697H295.287C295.287 291.697 297.455 286.024 303.381 283.775C309.306 281.527 318.488 275.771 310.559 258.264C310.559 258.264 306.776 256.691 310.559 256.296C314.507 255.884 317.787 250.614 317.82 248.711C317.82 248.061 318.471 247.608 319.081 247.847Z" fill="#3D4D5F"/>
<path d="M203.573 222.525L233.342 245.582L225.925 250.523L192.858 236.524L203.573 222.525Z" fill="white"/>
<path d="M228.356 238.261C231.273 239.373 238.254 242.255 243.199 245.986C243.364 246.109 243.43 246.331 243.356 246.521L239.004 258.692C238.914 258.947 238.625 259.071 238.37 258.964L233.762 256.946C233.425 256.798 233.054 257.078 233.111 257.44C233.779 261.78 235.699 281.733 216.578 292.521H199.271C199.271 292.521 201.949 285.521 209.26 282.738C216.57 279.954 227.903 272.856 218.12 251.239C218.12 251.239 216.694 246.784 221.367 246.299C226.477 245.772 227.111 241.407 227.087 239.126C227.087 238.475 227.738 238.031 228.356 238.261Z" fill="#3D4D5F"/>
<path d="M76.9062 116.638C77.4655 119.269 77.8816 121.955 78.5482 124.547C78.677 125.048 78.8217 125.922 78.8835 126.108" stroke="#EC5E5B" stroke-width="2" stroke-linecap="round" stroke-linejoin="round"/>
<path d="M79.9238 116.325C80.1869 117.69 80.4111 119.077 80.6061 120.453C80.744 121.427 80.9227 122.453 80.9645 123.436C80.9833 123.879 81.1726 124.319 81.1726 124.755C81.1726 125.106 81.3294 125.225 81.1726 124.755" stroke="#EC5E5B" stroke-width="2" stroke-linecap="round" stroke-linejoin="round"/>
<path d="M83.2539 116.325C83.6106 118.956 83.6969 122.988 84.1905 124.963" stroke="#EC5E5B" stroke-width="2" stroke-linecap="round" stroke-linejoin="round"/>
<path d="M86.4805 116.325C86.4805 118.774 86.7927 121.209 86.7927 123.656C86.7927 124.21 87.0473 124.98 87.1049 125.067" stroke="#EC5E5B" stroke-width="2" stroke-linecap="round" stroke-linejoin="round"/>
<path d="M89.9141 117.47C90.2869 119.614 89.8976 121.872 90.0991 124.038C90.1542 124.63 90.1222 125.806 90.1222 126.107" stroke="#EC5E5B" stroke-width="2" stroke-linecap="round" stroke-linejoin="round"/>
<path d="M92.9322 118.719C93.0967 119.665 92.9784 120.551 92.938 121.5C92.8916 122.589 93.0007 123.69 92.9091 124.778C92.8605 125.354 92.8572 126.091 92.9322 126.316" stroke="#EC5E5B" stroke-width="2" stroke-linecap="round" stroke-linejoin="round"/>
<path d="M95.5347 119.759C95.5347 122.248 95.4918 124.741 95.5347 127.229C95.5415 127.622 95.7428 128.2 95.7428 128.293" stroke="#EC5E5B" stroke-width="2" stroke-linecap="round" stroke-linejoin="round"/>
<path d="M81.9014 112.579C85.8783 108.602 92.1091 107.201 97.4768 106.311C100.393 105.828 103.411 105.563 106.369 105.502C106.853 105.492 107.324 105.398 107.808 105.398C108.204 105.398 107.623 105.478 107.502 105.502" stroke="#755462" stroke-linecap="round" stroke-linejoin="round"/>
<path d="M88.874 111.226C90.5897 110.368 92.8205 110.095 94.696 109.774C97.8901 109.229 101.084 108.687 104.282 108.15C106.463 107.783 108.77 107.727 110.913 107.167C111.282 107.071 111.666 107.063 111.769 107.063" stroke="#755462" stroke-linecap="round" stroke-linejoin="round"/>
<path d="M111.873 134.225C113.181 133.217 114.594 132.376 115.966 131.461C118.984 129.449 122.069 127.483 124.934 125.257C126.237 124.245 127.499 123.194 128.778 122.153C128.832 122.109 129.653 121.401 129.414 121.447C129.208 121.487 129.013 121.63 128.836 121.736" stroke="#755462" stroke-linecap="round" stroke-linejoin="round"/>
<path d="M115.619 129.125C116.491 128.61 117.216 127.983 117.984 127.327C119.565 125.976 121.325 124.885 123.02 123.691C124.758 122.465 126.519 120.827 127.899 119.447" stroke="#755462" stroke-linecap="round" stroke-linejoin="round"/>
<path d="M92.5166 115.597C97.4947 114.244 102.554 113.354 107.653 112.584C110.041 112.224 112.45 111.858 114.799 111.295C115.327 111.168 116.302 110.705 116.764 110.705" stroke="#755462" stroke-linecap="round" stroke-linejoin="round"/>
<path d="M125.506 147.233C126.387 145.747 127.536 144.653 128.605 143.325C130.234 141.3 131.785 139.198 133.207 137.023C134.611 134.876 135.687 132.51 136.606 130.12C136.719 129.827 136.944 128.293 137.161 128.293" stroke="#647B92" stroke-linecap="round" stroke-linejoin="round"/>
<path d="M136.121 120.8C137.933 123.026 139.853 125.284 140.908 127.992C141.368 129.171 141.264 128.975 141.533 129.333" stroke="#647B92" stroke-linecap="round" stroke-linejoin="round"/>
<path d="M150.898 185.322C152.532 184.951 154.009 184.127 155.581 183.564C158.018 182.692 160.345 181.726 162.704 180.662C170.765 177.025 178.4 171.919 185.715 166.994C190.675 163.655 195.449 160.083 200.203 156.46C204.527 153.166 208.973 149.909 212.715 145.938C213.166 145.459 214.495 144.172 214.495 143.371C214.495 143.067 214.008 143.734 213.755 143.903" stroke="#647B92" stroke-linecap="round" stroke-linejoin="round"/>
<path d="M198.354 164.716C201.524 162.025 204.397 158.93 207.303 155.963C212.433 150.725 217.282 145.156 222.012 139.555C223.638 137.629 225.255 135.69 226.822 133.716C227.178 133.267 230.194 129.984 229.643 129.276C229.29 128.821 228.741 129.892 228.741 130.166" stroke="#647B92" stroke-linecap="round" stroke-linejoin="round"/>
<path d="M139.867 120.592C141.532 123.53 143.174 126.933 143.174 130.386C143.174 132.129 142.419 134.187 141.521 135.67C141.358 135.938 140.492 137.362 140.492 136.41" stroke="#647B92" stroke-linecap="round" stroke-linejoin="round"/>
<path d="M230.614 155.767C231.18 162.128 229.907 168.668 229.261 174.984C229.081 176.748 228.987 178.515 228.648 180.257C228.409 181.487 228.533 180.177 228.533 179.702" stroke="#EC5E5B" stroke-linecap="round" stroke-linejoin="round"/>
<path d="M228.116 156.599C227.541 162.67 226.562 168.698 226.035 174.776C225.917 176.13 225.801 177.36 225.457 178.661C225.308 179.223 225.41 177.846 225.41 177.621" stroke="#EC5E5B" stroke-linecap="round" stroke-linejoin="round"/>
<path d="M288.886 142.239C287.34 145.022 285.075 147.048 282.686 149.114C276.488 154.475 269.888 159.375 263.445 164.431C258.609 168.225 253.838 172.065 248.507 175.154C247.501 175.736 246.469 176.246 245.449 176.797C245.179 176.943 245.325 176.81 245.417 176.586" stroke="#EC5E5B" stroke-linecap="round" stroke-linejoin="round"/>
<path d="M251.578 103.538C256.806 104.521 261.687 106.36 266.24 109.115C269.201 110.906 271.863 113.218 274.508 115.435C276.914 117.451 278.917 119.417 280.671 122.019C282.446 124.649 283.125 127.496 280.844 129.964C279.483 131.438 277.542 132.095 275.609 132.431C275.442 132.46 272.179 132.919 273.366 132.1" stroke="#EC5E5B" stroke-linecap="round" stroke-linejoin="round"/>
</svg>
