<svg width="44" height="44" viewBox="0 0 44 44" fill="none" xmlns="http://www.w3.org/2000/svg">
<circle cx="22" cy="22" r="20.5" stroke="white" stroke-width="3"/>
<path d="M25.0974 26.6436C25.0974 25.9242 24.8689 25.3317 24.4119 24.8662C23.9548 24.3923 23.1931 23.9691 22.1267 23.5967C21.0603 23.2158 20.2309 22.8646 19.6384 22.543C17.6664 21.485 16.6804 19.9193 16.6804 17.8457C16.6804 16.4408 17.1078 15.2855 17.9626 14.3799C18.8175 13.4743 19.977 12.9368 21.4412 12.7676V10H23.4724V12.793C24.9451 13.0046 26.0834 13.6309 26.8875 14.6719C27.5427 15.5134 27.931 16.5628 28.0522 17.8203C26.2781 17.8203 26.5281 17.8203 24.9576 17.8203C24.8569 17.1656 24.6369 16.6239 24.2976 16.1953C23.8236 15.5775 23.1762 15.2686 22.3552 15.2686C21.5427 15.2686 20.908 15.4886 20.4509 15.9287C19.9939 16.3688 19.7654 16.9993 19.7654 17.8203C19.7654 18.5566 19.9897 19.1491 20.4382 19.5977C20.8953 20.0378 21.6654 20.4567 22.7488 20.8545C23.8321 21.2523 24.6827 21.6204 25.3005 21.959C25.9184 22.2975 26.4389 22.6868 26.8621 23.127C27.2852 23.5586 27.6111 24.0579 27.8396 24.625C28.0681 25.1921 28.1824 25.8564 28.1824 26.6182C28.1824 28.0485 27.7423 29.208 26.8621 30.0967C25.9903 30.9854 24.7716 31.5101 23.2058 31.6709V34.1465H21.1873V31.6836C19.5115 31.4974 18.2208 30.8965 17.3152 29.8809C16.5656 29.0322 16.1291 27.9531 16.0059 26.6436C17.3154 26.6436 17.7783 26.6436 19.111 26.6436C19.2151 27.3321 19.4629 27.8907 19.8542 28.3193C20.3959 28.9033 21.1576 29.1953 22.1394 29.1953C23.1042 29.1953 23.8363 28.9626 24.3357 28.4971C24.8435 28.0316 25.0974 27.4137 25.0974 26.6436Z" fill="white"/>
<circle cx="26.5002" cy="18.0178" r="1.55" fill="white"/>
<circle cx="17.55" cy="26.4677" r="1.55" fill="white"/>
</svg>
