<svg width="20" height="37" viewBox="0 0 20 37" fill="none" xmlns="http://www.w3.org/2000/svg">
<path d="M13.216 36.9998C13.0066 36.9998 13.0066 36.897 13.0066 36.7547C13.0066 33.3303 13.0066 29.9059 13.0066 26.4815C13.0066 24.4609 13.0066 22.4403 13.0066 20.4157C13.0066 20.1428 13.0066 20.1428 13.2981 20.1428C15.0764 20.1428 16.8546 20.1389 18.6328 20.1468C18.8423 20.1468 18.8957 20.0756 18.9203 19.8977C19.1873 17.8612 19.4624 15.8287 19.7335 13.7923C19.7458 13.7172 19.7458 13.6381 19.754 13.5392C19.6513 13.5353 19.5651 13.5274 19.4788 13.5274C17.4131 13.5274 15.3474 13.5274 13.2817 13.5274C13.0066 13.5274 13.0025 13.5274 13.0025 13.2585C13.0025 11.9338 12.9942 10.6131 13.0066 9.2884C13.0107 8.90088 13.0353 8.50941 13.1133 8.1298C13.3392 7.05819 14.0004 6.4611 15.1708 6.2713C15.6185 6.20012 16.0825 6.18035 16.5384 6.17244C17.5897 6.16058 18.6452 6.16849 19.6965 6.16849C19.9922 6.16849 19.9922 6.16849 19.9922 5.89564C19.9922 4.10436 19.9922 2.31308 19.9922 0.521803C19.9922 0.237097 19.9922 0.229188 19.6965 0.209417C18.9614 0.154057 18.2263 0.0828805 17.4871 0.0552007C16.4234 0.0156581 15.3556 -0.0120217 14.2879 -0.000158904C12.7273 0.0196124 11.2365 0.355724 9.87309 1.11099C7.91005 2.19841 6.76426 3.86711 6.22217 5.951C5.99629 6.81698 5.89773 7.69878 5.89773 8.59245C5.89362 10.1465 5.89773 11.7005 5.89362 13.2545C5.89362 13.3336 5.89362 13.4087 5.89362 13.5115C5.79095 13.5155 5.70882 13.5274 5.62258 13.5274C3.83613 13.5274 2.05379 13.5274 0.267341 13.5274C-0.00370573 13.5274 -0.00370572 13.5274 -0.00370572 13.7883C-0.00370572 15.8248 0.000401052 17.8573 -0.0078125 19.8937C-0.0078125 20.0875 0.037362 20.1507 0.255021 20.1507C2.04147 20.1428 3.82381 20.1468 5.61026 20.1468C5.6965 20.1468 5.78685 20.1547 5.89773 20.1587C5.89773 20.2417 5.89773 20.3129 5.89773 20.384C5.89773 25.8409 5.89773 31.3018 5.90184 36.7586C5.90184 36.9524 5.84434 36.9998 5.65132 36.9998" fill="white"/>
</svg>
